<svg width="121" height="37" viewBox="0 0 121 37" fill="none" xmlns="http://www.w3.org/2000/svg">
<path d="M0 6.03211C0 2.70067 2.70067 0 6.03212 0H114.158C117.489 0 120.19 2.70067 120.19 6.03211V30.1606C120.19 33.492 117.489 36.1927 114.158 36.1927H6.03211C2.70067 36.1927 0 33.492 0 30.1606V6.03211Z" fill="black"/>
<path d="M24.8942 22.527C27.7217 20.9736 29.8652 19.7899 30.05 19.6979C30.641 19.3834 31.2514 18.5511 30.05 17.9046C29.6621 17.7012 27.5737 16.5544 24.8942 15.0754L21.1797 18.8289L24.8942 22.5269V22.527Z" fill="#FFD900"/>
<path d="M21.1789 18.8286L9.35156 30.7555C9.62918 30.7922 9.9426 30.7186 10.3121 30.5153C11.0879 30.0905 19.312 25.5967 24.8934 22.5276L21.1789 18.8286Z" fill="#F43249"/>
<path d="M21.1778 18.8291L24.8923 15.0941C24.8923 15.0941 11.1429 7.58632 10.311 7.14313C9.99754 6.9574 9.64632 6.90222 9.33203 6.9574L21.1778 18.8291Z" fill="#00EE76"/>
<path d="M21.1781 18.829L9.33234 6.95728C8.85159 7.06849 8.44531 7.49347 8.44531 8.3626V29.3505C8.44531 30.146 8.75969 30.7189 9.35072 30.7742L21.1781 18.829Z" fill="#00D3FF"/>
<path d="M38.5563 22.0061H42.1865V26.7503C41.7066 26.9089 41.208 27.0361 40.6906 27.1321C40.1732 27.2239 39.5869 27.2698 38.9318 27.2698C38.0222 27.2698 37.2503 27.0904 36.616 26.7315C35.9818 26.3727 35.4999 25.8428 35.1702 25.1418C34.8406 24.4408 34.6758 23.5791 34.6758 22.5568C34.6758 21.5971 34.8594 20.7668 35.2266 20.0658C35.5979 19.3648 36.1383 18.8224 36.8476 18.4385C37.5611 18.0546 38.4311 17.8627 39.4576 17.8627C39.9416 17.8627 40.4194 17.9148 40.8909 18.0191C41.3624 18.1234 41.7901 18.2591 42.174 18.426L41.5293 19.9782C41.2497 19.8363 40.9305 19.7174 40.5717 19.6214C40.2128 19.5254 39.8373 19.4775 39.4451 19.4775C38.8818 19.4775 38.3915 19.6068 37.9742 19.8655C37.5611 20.1242 37.2398 20.4872 37.0104 20.9546C36.785 21.4177 36.6724 21.9643 36.6724 22.5944C36.6724 23.1911 36.7537 23.721 36.9165 24.1842C37.0792 24.6431 37.3358 25.0041 37.6863 25.267C38.0368 25.5257 38.4937 25.655 39.057 25.655C39.3324 25.655 39.564 25.6425 39.7518 25.6174C39.9437 25.5882 40.1231 25.559 40.29 25.5298V23.6209H38.5563V22.0061Z" fill="white"/>
<path d="M50.9642 23.6334C50.9642 24.2175 50.8849 24.7349 50.7264 25.1856C50.572 25.6362 50.3446 26.018 50.0442 26.331C49.7479 26.6397 49.3891 26.8734 48.9676 27.032C48.5504 27.1905 48.0789 27.2698 47.5531 27.2698C47.0607 27.2698 46.608 27.1905 46.1949 27.032C45.786 26.8734 45.4293 26.6397 45.1247 26.331C44.8242 26.018 44.5906 25.6362 44.4237 25.1856C44.2609 24.7349 44.1796 24.2175 44.1796 23.6334C44.1796 22.8573 44.3173 22.2001 44.5926 21.6618C44.868 21.1236 45.2603 20.7146 45.7693 20.4351C46.2784 20.1555 46.8855 20.0157 47.5907 20.0157C48.2458 20.0157 48.8258 20.1555 49.3306 20.4351C49.8397 20.7146 50.2382 21.1236 50.5261 21.6618C50.8182 22.2001 50.9642 22.8573 50.9642 23.6334ZM46.1261 23.6334C46.1261 24.0924 46.1762 24.4783 46.2763 24.7913C46.3764 25.1042 46.5329 25.34 46.7457 25.4985C46.9585 25.6571 47.236 25.7364 47.5781 25.7364C47.9161 25.7364 48.1894 25.6571 48.3981 25.4985C48.6109 25.34 48.7653 25.1042 48.8612 24.7913C48.9614 24.4783 49.0114 24.0924 49.0114 23.6334C49.0114 23.1702 48.9614 22.7863 48.8612 22.4817C48.7653 22.173 48.6109 21.9414 48.3981 21.787C48.1853 21.6326 47.9078 21.5554 47.5656 21.5554C47.0607 21.5554 46.6936 21.7286 46.4641 22.0749C46.2387 22.4212 46.1261 22.9407 46.1261 23.6334Z" fill="white"/>
<path d="M59.2851 23.6334C59.2851 24.2175 59.2058 24.7349 59.0472 25.1856C58.8928 25.6362 58.6654 26.018 58.365 26.331C58.0687 26.6397 57.7099 26.8734 57.2885 27.032C56.8712 27.1905 56.3997 27.2698 55.874 27.2698C55.3816 27.2698 54.9289 27.1905 54.5158 27.032C54.1069 26.8734 53.7501 26.6397 53.4455 26.331C53.1451 26.018 52.9114 25.6362 52.7445 25.1856C52.5818 24.7349 52.5004 24.2175 52.5004 23.6334C52.5004 22.8573 52.6381 22.2001 52.9135 21.6618C53.1889 21.1236 53.5811 20.7146 54.0902 20.4351C54.5992 20.1555 55.2063 20.0157 55.9115 20.0157C56.5666 20.0157 57.1466 20.1555 57.6515 20.4351C58.1605 20.7146 58.559 21.1236 58.8469 21.6618C59.139 22.2001 59.2851 22.8573 59.2851 23.6334ZM54.4469 23.6334C54.4469 24.0924 54.497 24.4783 54.5971 24.7913C54.6973 25.1042 54.8538 25.34 55.0666 25.4985C55.2794 25.6571 55.5568 25.7364 55.899 25.7364C56.237 25.7364 56.5103 25.6571 56.7189 25.4985C56.9317 25.34 57.0861 25.1042 57.1821 24.7913C57.2822 24.4783 57.3323 24.0924 57.3323 23.6334C57.3323 23.1702 57.2822 22.7863 57.1821 22.4817C57.0861 22.173 56.9317 21.9414 56.7189 21.787C56.5061 21.6326 56.2286 21.5554 55.8865 21.5554C55.3816 21.5554 55.0144 21.7286 54.7849 22.0749C54.5596 22.4212 54.4469 22.9407 54.4469 23.6334Z" fill="white"/>
<path d="M63.2935 30.224C62.3171 30.224 61.5702 30.0529 61.0528 29.7108C60.5396 29.3728 60.283 28.8971 60.283 28.2837C60.283 27.8623 60.4144 27.5097 60.6773 27.226C60.9402 26.9423 61.3261 26.7399 61.8352 26.6189C61.6391 26.5354 61.468 26.3998 61.322 26.212C61.1759 26.0201 61.1029 25.8177 61.1029 25.6049C61.1029 25.3379 61.1801 25.1167 61.3345 24.9415C61.4889 24.7621 61.7121 24.5868 62.0042 24.4157C61.637 24.2572 61.3449 24.0027 61.1279 23.6522C60.9151 23.3017 60.8087 22.8886 60.8087 22.4129C60.8087 21.9038 60.9193 21.472 61.1404 21.1173C61.3658 20.7585 61.6912 20.4851 62.1168 20.2974C62.5466 20.1096 63.0682 20.0157 63.6816 20.0157C63.8109 20.0157 63.9611 20.0241 64.1322 20.0408C64.3033 20.0575 64.4598 20.0762 64.6016 20.0971C64.7477 20.118 64.8457 20.1346 64.8958 20.1472H67.3368V21.1173L66.2415 21.3989C66.3416 21.5533 66.4167 21.7181 66.4668 21.8934C66.5169 22.0686 66.5419 22.2543 66.5419 22.4504C66.5419 23.2015 66.279 23.7878 65.7533 24.2092C65.2317 24.6265 64.5057 24.8351 63.5752 24.8351C63.354 24.8226 63.1454 24.8059 62.9493 24.785C62.8533 24.8601 62.7803 24.9394 62.7302 25.0229C62.6801 25.1063 62.6551 25.1939 62.6551 25.2857C62.6551 25.3775 62.6927 25.4547 62.7678 25.5173C62.847 25.5757 62.9639 25.6216 63.1183 25.655C63.2768 25.6842 63.4729 25.6988 63.7066 25.6988H64.8958C65.6636 25.6988 66.2477 25.8636 66.6483 26.1933C67.053 26.5229 67.2554 27.0069 67.2554 27.6453C67.2554 28.4632 66.9132 29.0974 66.2289 29.548C65.5488 29.9987 64.5703 30.224 63.2935 30.224ZM63.3749 28.9785C63.8297 28.9785 64.2198 28.9347 64.5453 28.847C64.8749 28.7636 65.1274 28.6426 65.3026 28.484C65.4779 28.3296 65.5655 28.144 65.5655 27.927C65.5655 27.7517 65.5133 27.612 65.409 27.5076C65.3089 27.4075 65.1545 27.3366 64.9459 27.2948C64.7414 27.2531 64.4785 27.2322 64.1572 27.2322H63.1683C62.9347 27.2322 62.724 27.2698 62.5362 27.3449C62.3526 27.42 62.2065 27.5243 62.0981 27.6579C61.9896 27.7955 61.9353 27.9541 61.9353 28.1335C61.9353 28.3964 62.0605 28.6029 62.3109 28.7532C62.5654 28.9034 62.9201 28.9785 63.3749 28.9785ZM63.6816 23.6709C64.0404 23.6709 64.3033 23.5604 64.4702 23.3392C64.6371 23.1181 64.7205 22.8176 64.7205 22.4379C64.7205 22.0165 64.6329 21.7015 64.4577 21.4928C64.2866 21.28 64.0279 21.1736 63.6816 21.1736C63.3311 21.1736 63.0682 21.28 62.8929 21.4928C62.7177 21.7015 62.6301 22.0165 62.6301 22.4379C62.6301 22.8176 62.7156 23.1181 62.8867 23.3392C63.0619 23.5604 63.3269 23.6709 63.6816 23.6709Z" fill="white"/>
<path d="M70.7882 27.1446H68.8792V17.4058H70.7882V27.1446Z" fill="white"/>
<path d="M76.0672 20.0157C76.714 20.0157 77.271 20.1409 77.7383 20.3913C78.2057 20.6374 78.5666 20.9963 78.8211 21.4678C79.0756 21.9393 79.2029 22.5151 79.2029 23.1953V24.1216H74.6902C74.7111 24.6598 74.8717 25.0834 75.1722 25.3921C75.4768 25.6967 75.8982 25.849 76.4365 25.849C76.8829 25.849 77.2919 25.8031 77.6632 25.7113C78.0346 25.6195 78.4164 25.4818 78.8086 25.2982V26.7753C78.4623 26.9464 78.0993 27.0716 77.7195 27.1509C77.344 27.2302 76.8871 27.2698 76.3488 27.2698C75.6479 27.2698 75.0261 27.1404 74.4837 26.8817C73.9454 26.623 73.5219 26.2287 73.2131 25.6988C72.9085 25.1689 72.7562 24.5013 72.7562 23.696C72.7562 22.8781 72.8939 22.198 73.1693 21.6556C73.4489 21.1089 73.8369 20.7 74.3335 20.4288C74.83 20.1534 75.4079 20.0157 76.0672 20.0157ZM76.0797 21.3739C75.7084 21.3739 75.3996 21.4928 75.1534 21.7307C74.9114 21.9685 74.7716 22.342 74.734 22.851H77.4129C77.4087 22.5673 77.3565 22.3148 77.2564 22.0937C77.1604 21.8725 77.0144 21.6973 76.8183 21.5679C76.6263 21.4386 76.3801 21.3739 76.0797 21.3739Z" fill="white"/>
<path d="M87.9271 17.9941C89.1079 17.9941 89.9696 18.2486 90.512 18.7577C91.0544 19.2626 91.3257 19.9594 91.3257 20.8482C91.3257 21.2487 91.2652 21.6326 91.1442 21.9998C91.0232 22.3628 90.825 22.6862 90.5496 22.9699C90.2783 23.2537 89.9153 23.479 89.4605 23.6459C89.0057 23.8086 88.4445 23.89 87.7769 23.89H86.9444V27.1446H85.0042V17.9941H87.9271ZM87.8269 19.5839H86.9444V22.3002H87.5828C87.9459 22.3002 88.2609 22.2522 88.5279 22.1563C88.795 22.0603 89.0015 21.9101 89.1476 21.7056C89.2936 21.5012 89.3666 21.2383 89.3666 20.917C89.3666 20.4664 89.2414 20.1326 88.9911 19.9156C88.7407 19.6944 88.3527 19.5839 87.8269 19.5839Z" fill="white"/>
<path d="M95.1964 27.1446H93.2875V17.4058H95.1964V27.1446Z" fill="white"/>
<path d="M100.457 20.0032C101.396 20.0032 102.115 20.2077 102.616 20.6166C103.117 21.0255 103.367 21.6472 103.367 22.4817V27.1446H102.034L101.665 26.1933H101.615C101.414 26.4436 101.21 26.6481 101.001 26.8066C100.793 26.9652 100.553 27.082 100.281 27.1571C100.01 27.2322 99.6806 27.2698 99.2925 27.2698C98.8794 27.2698 98.5081 27.1905 98.1784 27.032C97.853 26.8734 97.5963 26.6314 97.4086 26.3059C97.2208 25.9763 97.1269 25.559 97.1269 25.0541C97.1269 24.3114 97.3877 23.7648 97.9093 23.4143C98.4309 23.0596 99.2132 22.8635 100.256 22.826L101.471 22.7884V22.4817C101.471 22.1145 101.375 21.8454 101.183 21.6743C100.991 21.5033 100.724 21.4177 100.382 21.4177C100.044 21.4177 99.7119 21.4657 99.3864 21.5617C99.0609 21.6576 98.7355 21.7787 98.41 21.9247L97.7779 20.6354C98.1492 20.4392 98.5644 20.2849 99.0234 20.1722C99.4865 20.0595 99.9643 20.0032 100.457 20.0032ZM101.471 23.9025L100.732 23.9275C100.115 23.9442 99.6847 24.0548 99.4427 24.2593C99.2049 24.4637 99.086 24.7329 99.086 25.0667C99.086 25.3587 99.1715 25.5674 99.3426 25.6926C99.5137 25.8136 99.7369 25.8741 100.012 25.8741C100.421 25.8741 100.765 25.7531 101.045 25.511C101.329 25.269 101.471 24.9248 101.471 24.4783V23.9025Z" fill="white"/>
<path d="M104.722 20.1472H106.812L108.133 24.084C108.175 24.2092 108.21 24.3365 108.239 24.4658C108.268 24.5952 108.293 24.7287 108.314 24.8664C108.335 25.0041 108.352 25.148 108.364 25.2982H108.402C108.427 25.0729 108.46 24.8622 108.502 24.6661C108.548 24.47 108.604 24.276 108.671 24.084L109.967 20.1472H112.013L109.053 28.0396C108.873 28.5237 108.64 28.9263 108.352 29.2476C108.064 29.5731 107.732 29.8172 107.357 29.9799C106.985 30.1426 106.576 30.224 106.13 30.224C105.913 30.224 105.725 30.2115 105.567 30.1865C105.408 30.1656 105.273 30.1426 105.16 30.1176V28.6029C105.247 28.6238 105.358 28.6426 105.492 28.6593C105.625 28.676 105.765 28.6843 105.911 28.6843C106.178 28.6843 106.407 28.628 106.599 28.5153C106.791 28.4027 106.952 28.2504 107.081 28.0584C107.211 27.8707 107.313 27.6641 107.388 27.4388L107.501 27.0946L104.722 20.1472Z" fill="white"/>
<path d="M41.5146 12.3134V12.8776H37.555V12.3134H41.5146ZM37.6664 12.3134V14.1639H36.9802L36.9766 12.3134H37.6664ZM42.1182 12.3134L42.111 14.1603H41.4248V12.3134H42.1182ZM40.8355 7.64608V8.21378H38.5431V7.64608H40.8355ZM41.4319 7.64608V12.8776H40.7421V7.64608H41.4319ZM38.306 7.64608H38.9994L38.8917 9.75161C38.8773 10.0678 38.8473 10.36 38.8018 10.6283C38.7563 10.8942 38.7 11.1373 38.633 11.3577C38.5659 11.5781 38.4892 11.7757 38.403 11.9506C38.3168 12.123 38.2245 12.2727 38.1263 12.3997C38.0281 12.5242 37.9251 12.6272 37.8173 12.7087C37.7119 12.7877 37.6053 12.844 37.4976 12.8776H37.1814V12.3134H37.4041C37.4664 12.2464 37.5371 12.1494 37.6161 12.0224C37.6976 11.8955 37.7778 11.7314 37.8569 11.5302C37.9383 11.3266 38.009 11.0786 38.0688 10.7864C38.1311 10.4942 38.173 10.1492 38.1946 9.75161L38.306 7.64608Z" fill="white"/>
<path d="M46.8754 10.0965V10.4271C46.8754 10.8199 46.8263 11.1721 46.7281 11.4835C46.6299 11.7949 46.4886 12.0595 46.3041 12.2775C46.1197 12.4955 45.8981 12.662 45.6394 12.777C45.3831 12.8919 45.0957 12.9494 44.7771 12.9494C44.4681 12.9494 44.1842 12.8919 43.9255 12.777C43.6692 12.662 43.4464 12.4955 43.2572 12.2775C43.0704 12.0595 42.9255 11.7949 42.8225 11.4835C42.7195 11.1721 42.668 10.8199 42.668 10.4271V10.0965C42.668 9.7037 42.7183 9.35278 42.8189 9.04378C42.9219 8.73238 43.0668 8.46769 43.2536 8.24971C43.4405 8.02934 43.662 7.86166 43.9183 7.74669C44.177 7.63171 44.4609 7.57422 44.7699 7.57422C45.0885 7.57422 45.3759 7.63171 45.6322 7.74669C45.8909 7.86166 46.1125 8.02934 46.2969 8.24971C46.4838 8.46769 46.6263 8.73238 46.7245 9.04378C46.8251 9.35278 46.8754 9.7037 46.8754 10.0965ZM46.1891 10.4271V10.0894C46.1891 9.77796 46.1568 9.50249 46.0921 9.26295C46.0298 9.02342 45.9376 8.8222 45.8155 8.65932C45.6933 8.49643 45.5436 8.37307 45.3663 8.28924C45.1915 8.2054 44.9927 8.16348 44.7699 8.16348C44.5543 8.16348 44.3591 8.2054 44.1842 8.28924C44.0118 8.37307 43.8632 8.49643 43.7387 8.65932C43.6165 8.8222 43.5219 9.02342 43.4548 9.26295C43.3878 9.50249 43.3542 9.77796 43.3542 10.0894V10.4271C43.3542 10.7409 43.3878 11.0188 43.4548 11.2607C43.5219 11.5002 43.6177 11.7026 43.7423 11.8679C43.8692 12.0308 44.0189 12.1542 44.1914 12.238C44.3663 12.3218 44.5615 12.3638 44.7771 12.3638C45.0022 12.3638 45.2022 12.3218 45.3771 12.238C45.552 12.1542 45.6993 12.0308 45.8191 11.8679C45.9412 11.7026 46.0334 11.5002 46.0957 11.2607C46.158 11.0188 46.1891 10.7409 46.1891 10.4271Z" fill="white"/>
<path d="M51.0721 11.214H51.762C51.726 11.5445 51.6314 11.8404 51.4781 12.1015C51.3248 12.3626 51.108 12.5698 50.8278 12.7231C50.5475 12.874 50.1978 12.9494 49.7786 12.9494C49.472 12.9494 49.1929 12.8919 48.9414 12.777C48.6923 12.662 48.4779 12.4991 48.2983 12.2883C48.1186 12.0751 47.9797 11.82 47.8815 11.523C47.7857 11.2236 47.7377 10.8906 47.7377 10.5241V10.0031C47.7377 9.63663 47.7857 9.30487 47.8815 9.00785C47.9797 8.70842 48.1198 8.45212 48.3019 8.23893C48.4863 8.02575 48.7079 7.86166 48.9666 7.74669C49.2253 7.63171 49.5163 7.57422 49.8397 7.57422C50.2349 7.57422 50.5691 7.64848 50.8421 7.79699C51.1152 7.9455 51.3272 8.1515 51.4781 8.41499C51.6314 8.67609 51.726 8.9791 51.762 9.32403H51.0721C51.0386 9.07971 50.9763 8.87011 50.8853 8.69525C50.7942 8.51799 50.6649 8.38146 50.4972 8.28564C50.3295 8.18983 50.1104 8.14192 49.8397 8.14192C49.6073 8.14192 49.4025 8.18623 49.2253 8.27486C49.0504 8.36349 48.9031 8.48925 48.7833 8.65213C48.6659 8.81502 48.5773 9.01024 48.5174 9.2378C48.4576 9.46536 48.4276 9.71807 48.4276 9.99593V10.5241C48.4276 10.7804 48.454 11.0212 48.5067 11.2463C48.5618 11.4715 48.6444 11.6691 48.7546 11.8392C48.8648 12.0092 49.0049 12.1434 49.175 12.2416C49.345 12.3374 49.5462 12.3853 49.7786 12.3853C50.0732 12.3853 50.308 12.3386 50.4828 12.2452C50.6577 12.1518 50.7894 12.0176 50.8781 11.8428C50.9691 11.6679 51.0338 11.4583 51.0721 11.214Z" fill="white"/>
<path d="M54.5322 7.64608V12.8776H53.8495V7.64608H54.5322ZM56.2137 7.64608V8.21378H52.1716V7.64608H56.2137Z" fill="white"/>
<path d="M58.6103 11.1421L59.9936 7.64608H60.7913L58.9409 12.0044C58.8882 12.1266 58.8295 12.2452 58.7648 12.3602C58.7001 12.4727 58.6211 12.5733 58.5277 12.662C58.4343 12.7506 58.3181 12.8213 58.1791 12.874C58.0426 12.9267 57.8725 12.953 57.6689 12.953C57.6114 12.953 57.5432 12.9494 57.4641 12.9422C57.3851 12.9374 57.3336 12.9315 57.3096 12.9243L57.3312 12.3709C57.3575 12.3757 57.409 12.3805 57.4857 12.3853C57.5623 12.3877 57.6186 12.3889 57.6546 12.3889C57.7911 12.3889 57.8989 12.3614 57.9779 12.3063C58.057 12.2512 58.1205 12.1817 58.1684 12.0979C58.2187 12.0116 58.2642 11.9242 58.3049 11.8356L58.6103 11.1421ZM57.4354 7.64608L58.8906 10.905L59.063 11.5481L58.481 11.5912L56.6593 7.64608H57.4354Z" fill="white"/>
<path d="M65.6132 7.64608V12.8776H64.9233V8.21378H62.3435V12.8776H61.65V7.64608H65.6132Z" fill="white"/>
<path d="M70.2877 9.89533V10.4594H67.4564V9.89533H70.2877ZM67.5642 7.64608V12.8776H66.8707V7.64608H67.5642ZM70.8914 7.64608V12.8776H70.2015V7.64608H70.8914Z" fill="white"/>
<path d="M76.1516 10.0965V10.4271C76.1516 10.8199 76.1025 11.1721 76.0043 11.4835C75.9061 11.7949 75.7647 12.0595 75.5803 12.2775C75.3958 12.4955 75.1743 12.662 74.9156 12.777C74.6593 12.8919 74.3718 12.9494 74.0532 12.9494C73.7442 12.9494 73.4604 12.8919 73.2017 12.777C72.9454 12.662 72.7226 12.4955 72.5334 12.2775C72.3465 12.0595 72.2016 11.7949 72.0986 11.4835C71.9956 11.1721 71.9441 10.8199 71.9441 10.4271V10.0965C71.9441 9.7037 71.9944 9.35278 72.095 9.04378C72.198 8.73238 72.3429 8.46769 72.5298 8.24971C72.7166 8.02934 72.9382 7.86166 73.1945 7.74669C73.4532 7.63171 73.737 7.57422 74.0461 7.57422C74.3646 7.57422 74.6521 7.63171 74.9084 7.74669C75.1671 7.86166 75.3887 8.02934 75.5731 8.24971C75.7599 8.46769 75.9025 8.73238 76.0007 9.04378C76.1013 9.35278 76.1516 9.7037 76.1516 10.0965ZM75.4653 10.4271V10.0894C75.4653 9.77796 75.433 9.50249 75.3683 9.26295C75.306 9.02342 75.2138 8.8222 75.0916 8.65932C74.9695 8.49643 74.8198 8.37307 74.6425 8.28924C74.4676 8.2054 74.2688 8.16348 74.0461 8.16348C73.8305 8.16348 73.6352 8.2054 73.4604 8.28924C73.2879 8.37307 73.1394 8.49643 73.0148 8.65932C72.8927 8.8222 72.7981 9.02342 72.731 9.26295C72.6639 9.50249 72.6304 9.77796 72.6304 10.0894V10.4271C72.6304 10.7409 72.6639 11.0188 72.731 11.2607C72.7981 11.5002 72.8939 11.7026 73.0184 11.8679C73.1454 12.0308 73.2951 12.1542 73.4676 12.238C73.6424 12.3218 73.8377 12.3638 74.0532 12.3638C74.2784 12.3638 74.4784 12.3218 74.6533 12.238C74.8281 12.1542 74.9755 12.0308 75.0952 11.8679C75.2174 11.7026 75.3096 11.5002 75.3719 11.2607C75.4342 11.0188 75.4653 10.7409 75.4653 10.4271Z" fill="white"/>
<path d="M80.88 10.4307H79.5542L79.547 9.87377H80.7507C80.9495 9.87377 81.1232 9.84023 81.2717 9.77316C81.4202 9.70609 81.5352 9.61028 81.6166 9.48572C81.7004 9.35877 81.7424 9.20786 81.7424 9.033C81.7424 8.84137 81.7052 8.68567 81.631 8.5659C81.5591 8.44374 81.4477 8.35511 81.2968 8.30001C81.1483 8.24253 80.9591 8.21378 80.7291 8.21378H79.7087V12.8776H79.0152V7.64608H80.7291C80.9974 7.64608 81.2369 7.67363 81.4477 7.72872C81.6585 7.78142 81.837 7.86526 81.9831 7.98023C82.1316 8.09282 82.2442 8.23654 82.3208 8.4114C82.3975 8.58626 82.4358 8.79586 82.4358 9.04018C82.4358 9.25577 82.3807 9.45099 82.2705 9.62585C82.1604 9.79832 82.007 9.93964 81.8106 10.0498C81.6166 10.16 81.389 10.2307 81.1279 10.2618L80.88 10.4307ZM80.8477 12.8776H79.2811L79.6728 12.3134H80.8477C81.0681 12.3134 81.2549 12.2751 81.4082 12.1985C81.5639 12.1218 81.6825 12.014 81.7639 11.8751C81.8454 11.7338 81.8861 11.5673 81.8861 11.3757C81.8861 11.1816 81.8513 11.014 81.7819 10.8726C81.7124 10.7313 81.6034 10.6223 81.4549 10.5457C81.3064 10.469 81.1148 10.4307 80.88 10.4307H79.8919L79.8991 9.87377H81.2501L81.3974 10.075C81.6489 10.0965 81.8621 10.1684 82.037 10.2906C82.2119 10.4103 82.3448 10.5636 82.4358 10.7505C82.5292 10.9373 82.576 11.1433 82.576 11.3685C82.576 11.6942 82.5041 11.9697 82.3604 12.1949C82.219 12.4176 82.019 12.5877 81.7603 12.7051C81.5016 12.8201 81.1974 12.8776 80.8477 12.8776Z" fill="white"/>
</svg>
