<svg width="57" height="33" viewBox="0 0 57 33" fill="none" xmlns="http://www.w3.org/2000/svg">
<path d="M31.9087 15.9965C31.9087 24.9665 24.8205 32.1425 15.9602 32.1425C7.2476 32.1425 0.0117188 24.9665 0.0117188 15.9965C0.0117188 7.17599 7.2476 0 15.9602 0C24.8205 0 31.9087 7.17599 31.9087 15.9965Z" fill="#D81E05"/>
<path d="M40.3721 0C36.2373 0 32.5456 1.495 29.5921 4.186C29.1491 4.6345 28.5584 5.23249 28.1154 5.83049H31.2165C31.6595 6.42849 32.1025 6.87699 32.5456 7.47499H26.7864C26.491 8.07299 26.1957 8.67099 25.9004 9.26899H33.4316C33.5792 9.86699 33.8746 10.3155 34.0223 10.9135H25.3097C25.0143 11.5115 24.8667 12.1095 24.719 12.7075H34.4653C34.7606 13.754 34.9083 14.95 34.9083 15.9965C34.9083 17.7905 34.6129 19.5845 34.0223 21.229H25.3097C25.4573 21.827 25.605 22.2755 25.9004 22.8735H33.4316C33.1362 23.4715 32.8409 24.0695 32.5456 24.6675H26.7864C27.2294 25.2655 27.6724 25.714 28.1154 26.312H31.2165C30.7735 26.91 30.1828 27.508 29.5921 27.9565C32.5456 30.6475 36.2373 32.1425 40.3721 32.1425C49.0847 32.1425 56.3206 24.9665 56.3206 15.9965C56.3206 7.17599 49.0847 0 40.3721 0Z" fill="#FCA311"/>
<path d="M54.1057 25.1163C54.1057 24.8173 54.4011 24.5183 54.6964 24.5183C54.9918 24.5183 55.1394 24.8173 55.1394 25.1163C55.1394 25.2658 54.9918 25.5648 54.6964 25.5648C54.4011 25.5648 54.1057 25.2658 54.1057 25.1163ZM54.6964 25.4153C54.8441 25.4153 54.9918 25.2658 54.9918 25.1163C54.9918 24.8173 54.8441 24.6678 54.6964 24.6678C54.4011 24.6678 54.2534 24.8173 54.2534 25.1163C54.2534 25.2658 54.4011 25.4153 54.6964 25.4153ZM54.5487 25.2658H54.4011V24.8173H54.6964C54.6964 24.8173 54.6964 24.8173 54.8441 24.8173V24.9668C54.8441 24.9668 54.8441 25.1163 54.6964 25.1163L54.8441 25.2658H54.6964V25.1163H54.5487V25.2658ZM54.5487 24.9668H54.6964H54.5487Z" fill="#FCA311"/>
<path d="M12.268 17.791C12.1203 17.791 11.9726 17.791 11.825 17.791C10.9389 17.791 10.3483 18.09 10.3483 18.8375C10.3483 19.286 10.6436 19.4355 11.0866 19.4355C11.6773 19.4355 12.268 18.8375 12.268 17.791ZM13.4494 20.781C13.3017 20.781 12.1203 20.781 12.1203 20.781V20.0335C11.6773 20.6315 11.0866 20.9305 10.3483 20.9305C9.31456 20.9305 8.72388 20.183 8.72388 19.1365C8.72388 17.492 9.90525 16.595 11.825 16.595C11.9726 16.595 12.268 16.595 12.4157 16.595C12.5633 16.296 12.5633 16.296 12.5633 16.1465C12.5633 15.698 12.268 15.5485 11.382 15.5485C10.6436 15.5485 9.90525 15.698 9.6099 15.8475C9.6099 15.698 9.90525 14.3525 9.90525 14.3525C10.6436 14.0535 11.2343 14.0535 11.9726 14.0535C13.4494 14.0535 14.1877 14.6515 14.1877 15.997C14.1877 16.296 14.1877 16.7445 14.04 17.193C13.8924 18.2395 13.597 20.3325 13.4494 20.781Z" fill="#192168"/>
<path d="M7.98568 20.7811H6.21363L7.24733 14.5021L5.03227 20.7811H3.8509L3.70323 14.5021L2.66954 20.7811H1.04517L2.3742 12.5586H4.8846L5.03227 17.1931L6.50897 12.5586H9.31471L7.98568 20.7811Z" fill="#192168"/>
<path d="M42.4396 17.791C42.2919 17.791 42.1443 17.791 42.1443 17.791C41.1106 17.791 40.6676 18.09 40.6676 18.8375C40.6676 19.286 40.8152 19.4355 41.2582 19.4355C41.9966 19.4355 42.4396 18.8375 42.4396 17.791ZM43.7686 20.781C43.4733 20.781 42.2919 20.781 42.2919 20.781V20.0335C41.8489 20.6315 41.2582 20.9305 40.5199 20.9305C39.6339 20.9305 38.8955 20.183 38.8955 19.1365C38.8955 17.492 40.0769 16.595 41.9966 16.595C42.1443 16.595 42.4396 16.595 42.735 16.595C42.735 16.296 42.735 16.296 42.735 16.1465C42.735 15.698 42.4396 15.5485 41.7013 15.5485C40.8152 15.5485 40.0769 15.698 39.7815 15.8475C39.7815 15.698 40.0769 14.3525 40.0769 14.3525C40.9629 14.0535 41.5536 14.0535 42.1443 14.0535C43.621 14.0535 44.3593 14.6515 44.3593 15.997C44.3593 16.296 44.3593 16.7445 44.2117 17.193C44.064 18.2395 43.7686 20.3325 43.7686 20.781Z" fill="#192168"/>
<path d="M24.1283 20.631C23.6853 20.7805 23.3899 20.93 22.9469 20.93C22.0609 20.93 21.6179 20.332 21.6179 19.435C21.6179 19.136 21.7655 18.3885 21.7655 17.641C21.9132 17.043 22.5039 13.156 22.5039 13.156H24.2759L24.1283 14.2025H25.162L24.8666 15.6975H23.8329C23.6853 17.043 23.3899 18.538 23.3899 18.837C23.3899 19.136 23.5376 19.2855 23.9806 19.2855C24.1283 19.2855 24.2759 19.2855 24.4236 19.2855L24.1283 20.631Z" fill="#192168"/>
<path d="M29.4445 20.6315C28.8538 20.781 28.2631 20.9305 27.6724 20.9305C25.7527 20.9305 24.719 19.884 24.719 17.9405C24.719 15.698 26.048 14.0535 27.8201 14.0535C29.1491 14.0535 30.0352 14.9505 30.0352 16.4455C30.0352 16.894 30.0352 17.3425 29.8875 18.09H26.491C26.3434 18.987 26.9341 19.4355 27.9678 19.4355C28.5584 19.4355 29.1491 19.286 29.7398 18.987L29.4445 20.6315ZM28.5584 16.7445C28.5584 16.595 28.7061 15.5485 27.6724 15.5485C27.0817 15.5485 26.7864 15.997 26.6387 16.7445H28.5584Z" fill="#192168"/>
<path d="M14.4835 16.296C14.4835 17.0435 14.9265 17.6415 15.8125 18.09C16.5509 18.389 16.6986 18.5385 16.6986 18.8375C16.6986 19.286 16.4032 19.4355 15.6649 19.4355C15.2219 19.4355 14.6312 19.286 14.1882 19.1365C14.1882 19.1365 13.8928 20.6315 13.8928 20.781C14.3358 20.781 14.6312 20.9305 15.6649 20.9305C17.5846 20.9305 18.3229 20.183 18.3229 18.688C18.3229 17.791 18.0276 17.193 17.1416 16.894C16.4032 16.4455 16.4032 16.4455 16.4032 16.1465C16.4032 15.698 16.5509 15.5485 17.1416 15.5485C17.5846 15.5485 18.0276 15.5485 18.4706 15.698L18.6183 14.203C18.1753 14.0535 17.5846 14.0535 17.1416 14.0535C15.2219 14.0535 14.4835 14.9505 14.4835 16.296Z" fill="#192168"/>
<path d="M37.8622 14.2029C38.3052 14.2029 38.7482 14.3524 39.3389 14.6514L39.6343 12.8574C39.4866 12.7079 38.6006 12.1099 37.8622 12.1099C36.6808 12.1099 35.6471 12.7079 34.9088 13.7544C34.0228 13.3059 33.5797 14.0534 32.9891 14.6514L32.5461 14.8009C32.6937 14.6514 32.6937 14.3524 32.6937 14.2029H31.0693C30.9217 16.1464 30.4787 18.2394 30.1833 20.3324L30.0356 20.7809H31.8077C32.103 18.8374 32.2507 17.6414 32.3984 16.8939L32.9891 16.4454C33.1367 16.1464 33.4321 15.9969 34.0228 15.9969C33.8751 16.4454 33.8751 16.8939 33.8751 17.3424C33.8751 19.5849 35.0565 20.9304 36.9762 20.9304C37.4192 20.9304 37.8622 20.7809 38.4529 20.6314L38.7482 18.8374C38.1575 19.1364 37.7145 19.2859 37.2715 19.2859C36.2378 19.2859 35.6471 18.5384 35.6471 17.1929C35.6471 15.3989 36.5332 14.2029 37.8622 14.2029Z" fill="#192168"/>
<path d="M52.4815 12.5586L52.0385 14.9506C51.5954 14.3526 51.1524 13.9041 50.4141 13.9041C49.5281 13.9041 48.7897 14.5021 48.199 15.5486C47.6083 15.3991 46.87 15.1001 46.87 15.1001C46.87 14.6516 46.87 14.2031 46.87 14.2031H45.2456C45.0979 16.1466 44.6549 18.2396 44.3596 20.3326V20.7811H45.9839C46.2793 19.2861 46.427 17.9406 46.5746 17.0436C47.1653 16.4456 47.4607 15.9971 48.0513 15.9971C47.756 16.5951 47.6083 17.3426 47.6083 18.0901C47.6083 19.8841 48.4944 20.9306 49.6757 20.9306C50.4141 20.9306 50.8571 20.6316 51.3001 20.1831V20.7811H52.9245L54.2535 12.5586H52.4815ZM50.2664 19.2861C49.6757 19.2861 49.3804 18.8376 49.3804 17.9406C49.3804 16.5951 49.9711 15.6981 50.7094 15.6981C51.3001 15.6981 51.7431 16.1466 51.7431 17.0436C51.7431 18.3891 51.1524 19.2861 50.2664 19.2861Z" fill="#192168"/>
<path d="M8.57642 20.3324H6.80436L7.83806 14.0534L5.62299 20.3324H4.44162L4.29395 14.0534L3.26025 20.3324H1.63586L2.96491 12.1099H5.47532V17.1929L7.09971 12.1099H9.90546L8.57642 20.3324Z" fill="#FEFEFE"/>
<path d="M12.7112 17.3423C12.5635 17.3423 12.5635 17.3423 12.4159 17.3423C11.3822 17.3423 10.9392 17.6413 10.9392 18.3888C10.9392 18.6878 11.0868 18.9868 11.5298 18.9868C12.2682 18.9868 12.7112 18.3888 12.7112 17.3423ZM14.0403 20.3323C13.7449 20.3323 12.5635 20.3323 12.5635 20.3323V19.5848C12.1205 20.1828 11.5298 20.4818 10.7915 20.4818C9.90547 20.4818 9.16711 19.7343 9.16711 18.5383C9.16711 17.0433 10.3485 15.9968 12.2682 15.9968C12.4159 15.9968 12.7112 15.9968 13.0066 16.1463C13.0066 15.8473 13.0066 15.8473 13.0066 15.6978C13.0066 15.2493 12.7112 15.0998 11.9729 15.0998C11.0868 15.0998 10.3485 15.2493 10.0531 15.3988C10.0531 15.2493 10.3485 13.9038 10.3485 13.9038C11.2345 13.6048 11.8252 13.4553 12.4159 13.4553C13.8926 13.4553 14.6309 14.2028 14.6309 15.3988C14.6309 15.8473 14.6309 16.2958 14.4833 16.7443C14.3356 17.7908 14.0403 19.7343 14.0403 20.3323Z" fill="#FEFEFE"/>
<path d="M40.2242 12.4085L39.9289 14.2025C39.3382 13.754 38.8952 13.754 38.3045 13.754C37.1232 13.754 36.0895 14.95 36.0895 16.744C36.0895 17.94 36.8278 18.6875 37.7138 18.6875C38.1569 18.6875 38.5999 18.538 39.1905 18.3885L38.8952 20.1825C38.3045 20.332 37.8615 20.4815 37.4185 20.4815C35.4988 20.4815 34.4651 19.136 34.4651 16.8935C34.4651 13.9035 35.9418 11.96 38.3045 11.96C39.0429 11.96 39.9289 12.259 40.2242 12.4085Z" fill="#FEFEFE"/>
<path d="M43.0303 17.3423C42.735 17.3423 42.735 17.3423 42.5873 17.3423C41.5536 17.3423 41.1106 17.6413 41.1106 18.3888C41.1106 18.6878 41.4059 18.9868 41.7013 18.9868C42.4396 18.9868 42.8826 18.3888 43.0303 17.3423ZM44.2117 20.3323C44.064 20.3323 42.735 20.3323 42.735 20.3323L42.8826 19.5848C42.4396 20.1828 41.8489 20.4818 40.9629 20.4818C40.0769 20.4818 39.4862 19.7343 39.4862 18.5383C39.4862 17.0433 40.5199 15.9968 42.4396 15.9968C42.735 15.9968 42.8826 15.9968 43.178 16.1463C43.178 15.8473 43.178 15.8473 43.178 15.6978C43.178 15.2493 42.8826 15.0998 42.1443 15.0998C41.2583 15.0998 40.6676 15.2493 40.3722 15.3988C40.3722 15.2493 40.5199 13.9038 40.5199 13.9038C41.4059 13.6048 41.9966 13.4553 42.5873 13.4553C44.064 13.4553 44.95 14.2028 44.95 15.3988C44.95 15.8473 44.8024 16.2958 44.8024 16.7443C44.6547 17.7908 44.2117 19.7343 44.2117 20.3323Z" fill="#FEFEFE"/>
<path d="M24.7192 20.183C24.2762 20.3325 23.8332 20.482 23.3902 20.482C22.5042 20.482 22.0612 19.884 22.0612 18.987C22.0612 18.688 22.2088 17.9405 22.3565 17.193C22.3565 16.595 23.0948 12.708 23.0948 12.708H24.7192L24.5716 13.605H25.4576L25.1622 15.2495H24.4239C24.1285 16.595 23.8332 18.09 23.8332 18.2395C23.8332 18.688 23.9809 18.8375 24.4239 18.8375C24.7192 18.8375 24.8669 18.8375 24.8669 18.688L24.7192 20.183Z" fill="#FEFEFE"/>
<path d="M29.8875 20.1828C29.2968 20.3323 28.8538 20.4818 28.2631 20.4818C26.3434 20.4818 25.3097 19.4353 25.3097 17.4918C25.3097 15.2493 26.4911 13.4553 28.2631 13.4553C29.7398 13.4553 30.6259 14.5018 30.6259 15.8473C30.6259 16.4453 30.4782 16.8938 30.3305 17.4918H26.9341C26.7864 18.5383 27.5248 18.9868 28.4108 18.9868C29.0015 18.9868 29.5922 18.8373 30.1829 18.5383L29.8875 20.1828ZM29.0015 16.1463C29.0015 16.1463 29.1492 15.0998 28.2631 15.0998C27.6724 15.0998 27.2294 15.3988 27.0817 16.1463H29.0015Z" fill="#FEFEFE"/>
<path d="M15.074 15.6978C15.074 16.5948 15.517 17.1928 16.403 17.6413C16.9937 17.9403 17.1414 18.0898 17.1414 18.3888C17.1414 18.8373 16.846 18.9868 16.2554 18.9868C15.6647 18.9868 15.2217 18.8373 14.631 18.6878L14.3356 20.1828C14.7786 20.3323 15.074 20.3323 16.2554 20.4818C18.0274 20.4818 18.9134 19.7343 18.9134 18.2393C18.9134 17.3423 18.4704 16.7443 17.5844 16.2958C16.846 15.9968 16.846 15.9968 16.846 15.6978C16.846 15.2493 17.1414 15.0998 17.7321 15.0998C18.0274 15.0998 18.4704 15.0998 18.9134 15.2493L19.2088 13.6048C18.7658 13.6048 18.0274 13.4553 17.5844 13.4553C15.6647 13.4553 15.074 14.5018 15.074 15.6978Z" fill="#FEFEFE"/>
<path d="M53.3671 20.3324H51.7427L51.8904 19.7344C51.2997 20.1829 50.8567 20.4819 50.266 20.4819C48.937 20.4819 48.1986 19.2859 48.1986 17.6414C48.1986 15.3989 49.38 13.6049 51.0044 13.6049C51.595 13.6049 52.1857 13.9039 52.6287 14.5019L52.9241 12.1099H54.6961L53.3671 20.3324ZM50.8567 18.8374C51.595 18.8374 52.1857 17.7909 52.1857 16.5949C52.1857 15.6979 51.8904 15.2494 51.2997 15.2494C50.5613 15.2494 49.9707 16.1464 49.9707 17.4919C49.9707 18.3889 50.266 18.8374 50.8567 18.8374Z" fill="#FEFEFE"/>
<path d="M45.8361 13.6051C45.5407 15.6981 45.2454 17.7911 44.95 19.8841L44.8024 20.3326H46.5744C47.1651 16.2961 47.3128 15.3991 48.1988 15.5486C48.4941 14.6516 48.6418 14.0536 48.9371 13.6051C48.1988 13.4556 47.7558 13.9041 47.3128 14.6516C47.3128 14.3526 47.3128 14.0536 47.3128 13.6051H45.8361Z" fill="#FEFEFE"/>
<path d="M31.5119 13.6051C31.3642 15.6981 30.9212 17.7911 30.6259 19.8841V20.3326H32.2502C32.9886 16.2961 33.1362 15.3991 34.0223 15.5486C34.1699 14.6516 34.4653 14.0536 34.7606 13.6051C34.0223 13.4556 33.5793 13.9041 32.9886 14.6516C33.1362 14.3526 33.1362 14.0536 33.1362 13.6051H31.5119Z" fill="#FEFEFE"/>
<path d="M54.1057 19.7341C54.1057 19.4351 54.4011 19.2856 54.6964 19.2856C54.9918 19.2856 55.1394 19.4351 55.1394 19.7341C55.1394 20.0331 54.9918 20.3321 54.6964 20.3321C54.4011 20.3321 54.1057 20.0331 54.1057 19.7341ZM54.6964 20.1826C54.8441 20.1826 54.9918 20.0331 54.9918 19.7341C54.9918 19.5846 54.8441 19.4351 54.6964 19.4351C54.4011 19.4351 54.2534 19.5846 54.2534 19.7341C54.2534 20.0331 54.4011 20.1826 54.6964 20.1826ZM54.5487 20.0331H54.4011V19.5846H54.6964C54.6964 19.5846 54.6964 19.5846 54.8441 19.5846C54.8441 19.5846 54.8441 19.5846 54.8441 19.7341C54.8441 19.7341 54.8441 19.7341 54.6964 19.8836L54.8441 20.0331H54.6964V19.8836H54.5487V20.0331ZM54.5487 19.7341H54.6964V19.5846H54.5487V19.7341Z" fill="#FEFEFE"/>
</svg>
