<svg width="50" height="69" viewBox="0 0 50 69" fill="none" xmlns="http://www.w3.org/2000/svg">
<ellipse cx="43" cy="7.5" rx="7" ry="7.5" fill="#41B619"/>
<ellipse cx="42" cy="61.5" rx="7" ry="7.5" fill="#41B619"/>
<path fill-rule="evenodd" clip-rule="evenodd" d="M11.5 0C5.14214 0 0 5.4775 0 12.25C0 21.4375 11.5 35 11.5 35C11.5 35 23 21.4375 23 12.25C23 5.4775 17.8579 0 11.5 0ZM11.5 16.625C9.23286 16.625 7.39286 14.665 7.39286 12.25C7.39286 9.835 9.23286 7.875 11.5 7.875C13.7671 7.875 15.6071 9.835 15.6071 12.25C15.6071 14.665 13.7671 16.625 11.5 16.625Z" fill="#41B619"/>
<circle cx="12" cy="40" r="2" fill="#41B619"/>
<circle cx="12" cy="47" r="2" fill="#41B619"/>
<circle cx="12" cy="54" r="2" fill="#41B619"/>
<circle cx="12" cy="61" r="2" fill="#41B619"/>
<circle cx="19" cy="61" r="2" fill="#41B619"/>
<circle cx="26" cy="61" r="2" fill="#41B619"/>
<circle cx="33" cy="61" r="2" fill="#41B619"/>
<circle cx="19" cy="40" r="2" fill="#41B619"/>
<circle cx="26" cy="40" r="2" fill="#41B619"/>
<circle cx="33" cy="40" r="2" fill="#41B619"/>
<circle cx="40" cy="40" r="2" fill="#41B619"/>
<circle cx="40" cy="33" r="2" fill="#41B619"/>
<circle cx="40" cy="26" r="2" fill="#41B619"/>
<circle cx="40" cy="19" r="2" fill="#41B619"/>
</svg>
