<svg width="149" height="46" viewBox="0 0 149 46" fill="none" xmlns="http://www.w3.org/2000/svg">
<rect x="0.351562" y="0.751953" width="147.828" height="44.5154" rx="10" fill="black"/>
<path d="M50.5877 34.3237L49.7525 31.5817H45.5528L44.7176 34.3237H42.0859L46.1517 22.7569H49.1379L53.2194 34.3237H50.5877ZM49.1694 29.5331L48.3342 26.8541C48.2817 26.6755 48.2108 26.447 48.1215 26.1686C48.0374 25.8849 47.9508 25.5987 47.8615 25.3098C47.7774 25.0156 47.7091 24.7608 47.6566 24.5455C47.6041 24.7608 47.5305 25.0287 47.436 25.3492C47.3467 25.6643 47.26 25.9637 47.176 26.2474C47.0919 26.5311 47.0315 26.7333 46.9947 26.8541L46.1674 29.5331H49.1694Z" fill="white"/>
<path d="M59.873 25.3492C60.8658 25.3492 61.6669 25.7352 62.2762 26.5074C62.8908 27.2796 63.1981 28.4116 63.1981 29.9034C63.1981 30.9014 63.0536 31.7419 62.7647 32.4248C62.4758 33.1024 62.0766 33.6146 61.5671 33.9612C61.0575 34.3079 60.4718 34.4813 59.81 34.4813C59.3845 34.4813 59.0194 34.4287 58.7148 34.3237C58.4101 34.2134 58.1501 34.0742 57.9347 33.9061C57.7193 33.7327 57.5329 33.5489 57.3753 33.3545H57.2492C57.2912 33.5646 57.3227 33.78 57.3438 34.0006C57.3648 34.2213 57.3753 34.4366 57.3753 34.6467V38.2003H54.9721V25.5146H56.9261L57.265 26.6571H57.3753C57.5329 26.4207 57.7246 26.2027 57.9505 26.0031C58.1763 25.8035 58.4469 25.6459 58.762 25.5304C59.0825 25.4096 59.4528 25.3492 59.873 25.3492ZM59.1008 27.2717C58.6806 27.2717 58.347 27.3584 58.1002 27.5317C57.8533 27.7051 57.6721 27.9651 57.5565 28.3118C57.4462 28.6585 57.3858 29.0971 57.3753 29.6276V29.8876C57.3753 30.4549 57.4278 30.9356 57.5329 31.3296C57.6432 31.7235 57.8244 32.0229 58.0765 32.2278C58.3339 32.4327 58.6859 32.5351 59.1324 32.5351C59.5001 32.5351 59.8021 32.4327 60.0385 32.2278C60.2749 32.0229 60.4508 31.7235 60.5664 31.3296C60.6872 30.9303 60.7476 30.4444 60.7476 29.8719C60.7476 29.0104 60.6137 28.3617 60.3458 27.9257C60.0779 27.4897 59.6629 27.2717 59.1008 27.2717Z" fill="white"/>
<path d="M70.5687 25.3492C71.5615 25.3492 72.3626 25.7352 72.9719 26.5074C73.5865 27.2796 73.8938 28.4116 73.8938 29.9034C73.8938 30.9014 73.7493 31.7419 73.4604 32.4248C73.1715 33.1024 72.7723 33.6146 72.2628 33.9612C71.7532 34.3079 71.1675 34.4813 70.5057 34.4813C70.0802 34.4813 69.7151 34.4287 69.4104 34.3237C69.1058 34.2134 68.8458 34.0742 68.6304 33.9061C68.415 33.7327 68.2285 33.5489 68.071 33.3545H67.9449C67.9869 33.5646 68.0184 33.78 68.0394 34.0006C68.0605 34.2213 68.071 34.4366 68.071 34.6467V38.2003H65.6678V25.5146H67.6218L67.9606 26.6571H68.071C68.2285 26.4207 68.4203 26.2027 68.6461 26.0031C68.872 25.8035 69.1425 25.6459 69.4577 25.5304C69.7781 25.4096 70.1485 25.3492 70.5687 25.3492ZM69.7965 27.2717C69.3763 27.2717 69.0427 27.3584 68.7959 27.5317C68.549 27.7051 68.3677 27.9651 68.2522 28.3118C68.1419 28.6585 68.0815 29.0971 68.071 29.6276V29.8876C68.071 30.4549 68.1235 30.9356 68.2285 31.3296C68.3389 31.7235 68.5201 32.0229 68.7722 32.2278C69.0296 32.4327 69.3816 32.5351 69.828 32.5351C70.1957 32.5351 70.4978 32.4327 70.7342 32.2278C70.9705 32.0229 71.1465 31.7235 71.2621 31.3296C71.3829 30.9303 71.4433 30.4444 71.4433 29.8719C71.4433 29.0104 71.3094 28.3617 71.0415 27.9257C70.7736 27.4897 70.3586 27.2717 69.7965 27.2717Z" fill="white"/>
<path d="M88.0283 31.1247C88.0283 31.8076 87.8628 32.4011 87.5319 32.9054C87.201 33.4097 86.7177 33.7984 86.0821 34.0716C85.4518 34.3447 84.6849 34.4813 83.7814 34.4813C83.3821 34.4813 82.9908 34.455 82.6073 34.4025C82.2291 34.35 81.8641 34.2738 81.5121 34.174C81.1654 34.0689 80.8345 33.9402 80.5193 33.7879V31.5187C81.0656 31.7603 81.6329 31.9783 82.2213 32.1726C82.8096 32.367 83.3926 32.4642 83.9705 32.4642C84.3697 32.4642 84.6901 32.4116 84.9317 32.3066C85.1786 32.2015 85.3572 32.0571 85.4675 31.8732C85.5778 31.6894 85.633 31.4793 85.633 31.2429C85.633 30.954 85.5358 30.7071 85.3415 30.5022C85.1471 30.2974 84.8792 30.1056 84.5378 29.927C84.2016 29.7484 83.8208 29.5567 83.3953 29.3518C83.1274 29.2258 82.8358 29.0734 82.5207 28.8948C82.2055 28.711 81.9061 28.4877 81.6224 28.2251C81.3388 27.9625 81.105 27.6447 80.9212 27.2717C80.7426 26.8935 80.6533 26.4418 80.6533 25.9165C80.6533 25.2283 80.8109 24.64 81.126 24.1515C81.4412 23.663 81.8903 23.29 82.4734 23.0326C83.0617 22.77 83.7551 22.6387 84.5535 22.6387C85.1524 22.6387 85.7223 22.7096 86.2633 22.8514C86.8096 22.988 87.3796 23.1876 87.9732 23.4502L87.1852 25.3492C86.6547 25.1338 86.1793 24.9683 85.7591 24.8528C85.3388 24.7319 84.9107 24.6715 84.4747 24.6715C84.1701 24.6715 83.9101 24.7214 83.6947 24.8212C83.4793 24.9158 83.3165 25.0524 83.2062 25.231C83.0959 25.4043 83.0407 25.6065 83.0407 25.8377C83.0407 26.1108 83.1195 26.3419 83.2771 26.5311C83.4399 26.7149 83.6816 26.8935 84.002 27.0668C84.3277 27.2402 84.7321 27.4424 85.2154 27.6736C85.8037 27.952 86.3054 28.2435 86.7203 28.5482C87.1406 28.8476 87.4636 29.2021 87.6895 29.6119C87.9154 30.0163 88.0283 30.5206 88.0283 31.1247Z" fill="white"/>
<path d="M94.1225 32.5666C94.3851 32.5666 94.6399 32.5403 94.8868 32.4878C95.1389 32.4353 95.3884 32.3696 95.6353 32.2908V34.0794C95.3779 34.195 95.0575 34.2895 94.674 34.3631C94.2958 34.4419 93.8808 34.4813 93.4291 34.4813C92.9038 34.4813 92.4311 34.3972 92.0108 34.2291C91.5958 34.0558 91.2675 33.759 91.0259 33.3388C90.7895 32.9133 90.6713 32.3223 90.6713 31.5659V27.319H89.521V26.3026L90.8447 25.4989L91.5381 23.6393H93.0745V25.5146H95.5408V27.319H93.0745V31.5659C93.0745 31.9021 93.1691 32.1543 93.3582 32.3223C93.5525 32.4852 93.8073 32.5666 94.1225 32.5666Z" fill="white"/>
<path d="M105.913 29.9034C105.913 30.6388 105.814 31.2902 105.614 31.8575C105.42 32.4248 105.133 32.9054 104.755 33.2994C104.382 33.6881 103.93 33.9823 103.4 34.1819C102.875 34.3815 102.281 34.4813 101.619 34.4813C100.999 34.4813 100.429 34.3815 99.9094 34.1819C99.3946 33.9823 98.9455 33.6881 98.562 33.2994C98.1838 32.9054 97.8896 32.4248 97.6795 31.8575C97.4747 31.2902 97.3722 30.6388 97.3722 29.9034C97.3722 28.9264 97.5456 28.099 97.8923 27.4214C98.2389 26.7438 98.7327 26.229 99.3736 25.8771C100.014 25.5251 100.779 25.3492 101.666 25.3492C102.491 25.3492 103.221 25.5251 103.857 25.8771C104.498 26.229 104.999 26.7438 105.362 27.4214C105.73 28.099 105.913 28.9264 105.913 29.9034ZM99.8227 29.9034C99.8227 30.4812 99.8857 30.9671 100.012 31.3611C100.138 31.755 100.335 32.0518 100.603 32.2514C100.871 32.451 101.22 32.5508 101.651 32.5508C102.076 32.5508 102.42 32.451 102.683 32.2514C102.951 32.0518 103.145 31.755 103.266 31.3611C103.392 30.9671 103.455 30.4812 103.455 29.9034C103.455 29.3203 103.392 28.8371 103.266 28.4536C103.145 28.0649 102.951 27.7734 102.683 27.579C102.415 27.3846 102.066 27.2875 101.635 27.2875C100.999 27.2875 100.537 27.5055 100.248 27.9414C99.9645 28.3774 99.8227 29.0314 99.8227 29.9034Z" fill="white"/>
<path d="M113.3 25.3492C113.421 25.3492 113.56 25.357 113.717 25.3728C113.88 25.3833 114.012 25.3991 114.111 25.4201L113.93 27.6736C113.851 27.6473 113.738 27.6289 113.591 27.6184C113.449 27.6026 113.326 27.5948 113.221 27.5948C112.911 27.5948 112.609 27.6342 112.315 27.7129C112.026 27.7917 111.766 27.9204 111.535 28.099C111.304 28.2724 111.12 28.5035 110.983 28.7924C110.852 29.0761 110.786 29.4254 110.786 29.8404V34.3237H108.383V25.5146H110.203L110.558 26.9959H110.676C110.849 26.6965 111.065 26.4234 111.322 26.1765C111.585 25.9243 111.882 25.7247 112.212 25.5777C112.549 25.4253 112.911 25.3492 113.3 25.3492Z" fill="white"/>
<path d="M119.827 25.3492C120.642 25.3492 121.343 25.5067 121.931 25.8219C122.519 26.1318 122.974 26.5836 123.294 27.1772C123.615 27.7707 123.775 28.4956 123.775 29.3518V30.518H118.094C118.12 31.1956 118.322 31.7288 118.701 32.1175C119.084 32.5009 119.615 32.6927 120.292 32.6927C120.854 32.6927 121.369 32.6349 121.837 32.5193C122.304 32.4038 122.785 32.2304 123.278 31.9993V33.8588C122.842 34.0742 122.385 34.2318 121.907 34.3316C121.435 34.4314 120.86 34.4813 120.182 34.4813C119.299 34.4813 118.517 34.3184 117.834 33.9928C117.156 33.6671 116.623 33.1707 116.234 32.5036C115.851 31.8365 115.659 30.996 115.659 29.9822C115.659 28.9526 115.833 28.0964 116.179 27.4135C116.531 26.7254 117.02 26.2106 117.645 25.8692C118.27 25.5225 118.997 25.3492 119.827 25.3492ZM119.843 27.059C119.376 27.059 118.987 27.2087 118.677 27.5081C118.372 27.8075 118.196 28.2776 118.149 28.9185H121.521C121.516 28.5613 121.45 28.2435 121.324 27.9651C121.204 27.6867 121.02 27.4661 120.773 27.3032C120.531 27.1404 120.221 27.059 119.843 27.059Z" fill="white"/>
<path fill-rule="evenodd" clip-rule="evenodd" d="M21.9616 15.3493C28.1496 12.9014 31.0182 13.8055 33.6847 16.8906C32.022 18.5016 30.4588 19.6841 30.4588 22.651C30.4588 25.6179 31.7372 28.0869 34.734 29.553C33.7036 32.0607 32.8139 34.5667 31.1336 36.2808C29.2601 38.1913 28.3307 38.0979 25.8973 37.3126C24.8644 36.9793 23.6882 36.6376 22.3115 36.7212C21.1392 36.7923 20.0902 37.3635 19.0838 37.7942C16.7922 38.7747 15.8363 38.1069 14.1605 36.5659C9.9848 32.7259 7.40701 25.7035 8.97584 20.2861C10.747 14.1696 16.2852 12.0532 21.9616 15.3493ZM27.9663 6.31696C28.3089 7.19267 27.8713 9.32174 26.1867 11.2589C25.6275 11.9018 24.9562 12.4142 24.3895 12.8309C23.3188 13.3686 22.3037 13.561 21.7033 13.5589C21.6721 11.4061 22.2005 10.2461 23.386 8.76238C24.9883 6.75687 27.0258 6.29811 27.9663 6.31696Z" fill="white"/>
<path d="M48.1856 13.4649H47.4233V12.9229H48.1548C48.4779 12.9229 48.7394 12.8774 48.9391 12.7863C49.1389 12.6952 49.2843 12.5689 49.3754 12.4073C49.4665 12.2458 49.512 12.0592 49.512 11.8477C49.512 11.645 49.462 11.4599 49.3622 11.2925C49.2623 11.1221 49.1081 10.987 48.8995 10.8871C48.6909 10.7843 48.4221 10.7328 48.0931 10.7328C47.8463 10.7328 47.6231 10.7798 47.4233 10.8739C47.2235 10.9649 47.0649 11.0927 46.9474 11.2572C46.8299 11.4188 46.7711 11.6053 46.7711 11.8168H45.9207C45.9207 11.5436 45.9779 11.2983 46.0925 11.081C46.2071 10.8606 46.3643 10.6741 46.564 10.5213C46.7638 10.3656 46.9944 10.2467 47.2558 10.1644C47.5202 10.0821 47.7993 10.041 48.0931 10.041C48.4368 10.041 48.7482 10.0807 49.0273 10.16C49.3063 10.2364 49.5458 10.3509 49.7455 10.5037C49.9453 10.6565 50.0981 10.8459 50.2038 11.0721C50.3096 11.2983 50.3624 11.5613 50.3624 11.8609C50.3624 12.0812 50.311 12.2883 50.2082 12.4822C50.1054 12.6761 49.9585 12.8465 49.7676 12.9934C49.5766 13.1403 49.3475 13.2563 49.0801 13.3415C48.8128 13.4238 48.5146 13.4649 48.1856 13.4649ZM47.4233 13.0903H48.1856C48.547 13.0903 48.8686 13.1271 49.1507 13.2005C49.4327 13.2739 49.6706 13.3812 49.8645 13.5222C50.0584 13.6632 50.2053 13.838 50.3052 14.0466C50.408 14.2522 50.4594 14.4887 50.4594 14.756C50.4594 15.0557 50.4006 15.3215 50.2831 15.5536C50.1686 15.7857 50.0055 15.9825 49.794 16.1441C49.5825 16.3056 49.3313 16.4276 49.0405 16.5098C48.7526 16.5921 48.4368 16.6332 48.0931 16.6332C47.8169 16.6332 47.5437 16.5979 47.2735 16.5274C47.0061 16.454 46.7638 16.3424 46.5464 16.1925C46.329 16.0398 46.1542 15.8459 46.022 15.6109C45.8928 15.3759 45.8281 15.0938 45.8281 14.7648H46.6786C46.6786 14.9793 46.7373 15.1761 46.8548 15.3553C46.9753 15.5345 47.1413 15.6784 47.3528 15.7871C47.5643 15.8929 47.8111 15.9458 48.0931 15.9458C48.4162 15.9458 48.6894 15.8958 48.9127 15.7959C49.1389 15.6931 49.3108 15.5536 49.4283 15.3773C49.5487 15.1981 49.6089 14.9969 49.6089 14.7736C49.6089 14.5768 49.5766 14.4064 49.512 14.2625C49.4503 14.1156 49.3578 13.9951 49.2344 13.9011C49.1139 13.8071 48.9626 13.7381 48.7805 13.694C48.6013 13.647 48.3927 13.6235 48.1548 13.6235H47.4233V13.0903Z" fill="white"/>
<path d="M53.9538 10.6976L51.8298 16.5451H50.9617L53.4074 10.1291H53.967L53.9538 10.6976ZM55.734 16.5451L53.6057 10.6976L53.5924 10.1291H54.1521L56.6065 16.5451H55.734ZM55.6239 14.1699V14.8662H52.0193V14.1699H55.6239Z" fill="white"/>
<path d="M61.4449 10.1291V10.8254H58.3515V16.5451H57.5054V10.1291H61.4449Z" fill="white"/>
<path d="M64.8555 14.0289H63.1414V13.3371H64.8555C65.1875 13.3371 65.4563 13.2842 65.6619 13.1785C65.8676 13.0727 66.0174 12.9258 66.1114 12.7378C66.2084 12.5498 66.2568 12.3354 66.2568 12.0945C66.2568 11.8741 66.2084 11.667 66.1114 11.4731C66.0174 11.2793 65.8676 11.1236 65.6619 11.006C65.4563 10.8856 65.1875 10.8254 64.8555 10.8254H63.3397V16.5451H62.4892V10.1291H64.8555C65.3403 10.1291 65.7501 10.2129 66.085 10.3803C66.4199 10.5478 66.674 10.7798 66.8473 11.0766C67.0206 11.3703 67.1073 11.7067 67.1073 12.0856C67.1073 12.4969 67.0206 12.848 66.8473 13.1388C66.674 13.4296 66.4199 13.6514 66.085 13.8042C65.7501 13.954 65.3403 14.0289 64.8555 14.0289Z" fill="white"/>
<path d="M70.1698 14.4167L71.8663 10.1291H72.8446L70.5752 15.4743C70.5106 15.6241 70.4386 15.7695 70.3593 15.9105C70.28 16.0486 70.183 16.172 70.0685 16.2807C69.9539 16.3894 69.8114 16.476 69.641 16.5407C69.4736 16.6053 69.265 16.6376 69.0153 16.6376C68.9448 16.6376 68.8611 16.6332 68.7641 16.6244C68.6672 16.6185 68.604 16.6112 68.5747 16.6023L68.6011 15.9237C68.6334 15.9296 68.6966 15.9355 68.7906 15.9414C68.8846 15.9443 68.9536 15.9458 68.9977 15.9458C69.1651 15.9458 69.2973 15.912 69.3943 15.8444C69.4912 15.7769 69.5691 15.6917 69.6278 15.5888C69.6895 15.4831 69.7453 15.3759 69.7953 15.2672L70.1698 14.4167ZM68.7289 10.1291L70.5135 14.1259L70.725 14.9146L70.0112 14.9675L67.7771 10.1291H68.7289Z" fill="white"/>
<path d="M75.8234 13.4649H75.0611V12.9229H75.7926C76.1157 12.9229 76.3772 12.8774 76.5769 12.7863C76.7767 12.6952 76.9221 12.5689 77.0132 12.4073C77.1042 12.2458 77.1498 12.0592 77.1498 11.8477C77.1498 11.645 77.0998 11.4599 77 11.2925C76.9001 11.1221 76.7458 10.987 76.5373 10.8871C76.3287 10.7843 76.0599 10.7328 75.7309 10.7328C75.4841 10.7328 75.2608 10.7798 75.0611 10.8739C74.8613 10.9649 74.7027 11.0927 74.5852 11.2572C74.4677 11.4188 74.4089 11.6053 74.4089 11.8168H73.5585C73.5585 11.5436 73.6157 11.2983 73.7303 11.081C73.8449 10.8606 74.002 10.6741 74.2018 10.5213C74.4016 10.3656 74.6322 10.2467 74.8936 10.1644C75.158 10.0821 75.4371 10.041 75.7309 10.041C76.0746 10.041 76.386 10.0807 76.6651 10.16C76.9441 10.2364 77.1836 10.3509 77.3833 10.5037C77.5831 10.6565 77.7358 10.8459 77.8416 11.0721C77.9474 11.2983 78.0002 11.5613 78.0002 11.8609C78.0002 12.0812 77.9488 12.2883 77.846 12.4822C77.7432 12.6761 77.5963 12.8465 77.4054 12.9934C77.2144 13.1403 76.9853 13.2563 76.7179 13.3415C76.4506 13.4238 76.1524 13.4649 75.8234 13.4649ZM75.0611 13.0903H75.8234C76.1847 13.0903 76.5064 13.1271 76.7884 13.2005C77.0705 13.2739 77.3084 13.3812 77.5023 13.5222C77.6962 13.6632 77.8431 13.838 77.943 14.0466C78.0458 14.2522 78.0972 14.4887 78.0972 14.756C78.0972 15.0557 78.0384 15.3215 77.9209 15.5536C77.8064 15.7857 77.6433 15.9825 77.4318 16.1441C77.2203 16.3056 76.9691 16.4276 76.6783 16.5098C76.3904 16.5921 76.0746 16.6332 75.7309 16.6332C75.4547 16.6332 75.1815 16.5979 74.9113 16.5274C74.6439 16.454 74.4016 16.3424 74.1842 16.1925C73.9668 16.0398 73.792 15.8459 73.6598 15.6109C73.5305 15.3759 73.4659 15.0938 73.4659 14.7648H74.3164C74.3164 14.9793 74.3751 15.1761 74.4926 15.3553C74.6131 15.5345 74.7791 15.6784 74.9906 15.7871C75.2021 15.8929 75.4489 15.9458 75.7309 15.9458C76.054 15.9458 76.3272 15.8958 76.5505 15.7959C76.7767 15.6931 76.9485 15.5536 77.0661 15.3773C77.1865 15.1981 77.2467 14.9969 77.2467 14.7736C77.2467 14.5768 77.2144 14.4064 77.1498 14.2625C77.0881 14.1156 76.9955 13.9951 76.8722 13.9011C76.7517 13.8071 76.6004 13.7381 76.4183 13.694C76.2391 13.647 76.0305 13.6235 75.7926 13.6235H75.0611V13.0903Z" fill="white"/>
<path d="M80.1022 15.0733L83.2616 10.1291H84.1121V16.5451H83.2616V11.5965L80.1022 16.5451H79.2561V10.1291H80.1022V15.0733Z" fill="white"/>
<path d="M87.8973 10.1291V16.5451H87.0601V10.1291H87.8973ZM89.9596 10.1291V10.8254H85.0022V10.1291H89.9596Z" fill="white"/>
<path d="M94.9874 15.8532V16.5451H91.59V15.8532H94.9874ZM91.7618 10.1291V16.5451H90.9114V10.1291H91.7618ZM94.538 12.8876V13.5795H91.59V12.8876H94.538ZM94.9434 10.1291V10.8254H91.59V10.1291H94.9434Z" fill="white"/>
<path d="M100.566 13.5442H98.9401L98.9313 12.8612H100.407C100.651 12.8612 100.864 12.8201 101.046 12.7378C101.229 12.6556 101.37 12.5381 101.469 12.3853C101.572 12.2296 101.624 12.0445 101.624 11.8301C101.624 11.5951 101.578 11.4041 101.487 11.2572C101.399 11.1074 101.262 10.9987 101.077 10.9311C100.895 10.8606 100.663 10.8254 100.381 10.8254H99.1296V16.5451H98.2791V10.1291H100.381C100.71 10.1291 101.004 10.1629 101.262 10.2305C101.521 10.2951 101.74 10.3979 101.919 10.539C102.101 10.677 102.239 10.8533 102.333 11.0677C102.427 11.2822 102.474 11.5392 102.474 11.8389C102.474 12.1033 102.407 12.3427 102.271 12.5571C102.136 12.7687 101.948 12.942 101.707 13.0771C101.469 13.2123 101.19 13.2989 100.87 13.3371L100.566 13.5442ZM100.526 16.5451H98.6052L99.0855 15.8532H100.526C100.797 15.8532 101.026 15.8062 101.214 15.7122C101.405 15.6182 101.55 15.486 101.65 15.3156C101.75 15.1423 101.8 14.9381 101.8 14.7031C101.8 14.4652 101.757 14.2595 101.672 14.0862C101.587 13.9129 101.453 13.7792 101.271 13.6852C101.089 13.5912 100.854 13.5442 100.566 13.5442H99.3543L99.3631 12.8612H101.02L101.201 13.108C101.509 13.1344 101.771 13.2225 101.985 13.3724C102.199 13.5192 102.363 13.7073 102.474 13.9364C102.589 14.1655 102.646 14.4182 102.646 14.6943C102.646 15.0938 102.558 15.4317 102.382 15.7078C102.208 15.981 101.963 16.1896 101.646 16.3335C101.328 16.4746 100.955 16.5451 100.526 16.5451Z" fill="white"/>
</svg>
