<svg width="122" height="37" viewBox="0 0 122 37" fill="none" xmlns="http://www.w3.org/2000/svg">
<rect x="0.640625" y="0.613281" width="120.538" height="36.2975" rx="10" fill="black"/>
<path d="M41.6002 27.9876L40.9192 25.7518H37.4948L36.8138 27.9876H34.668L37.9831 18.5561H40.4181L43.7461 27.9876H41.6002ZM40.4438 24.0813L39.7628 21.8969C39.7199 21.7513 39.6621 21.565 39.5893 21.338C39.5208 21.1067 39.4501 20.8733 39.3773 20.6377C39.3088 20.3978 39.2531 20.1901 39.2102 20.0145C39.1674 20.1901 39.1075 20.4085 39.0304 20.6698C38.9575 20.9268 38.8869 21.1709 38.8183 21.4022C38.7498 21.6335 38.7006 21.7984 38.6706 21.8969L37.996 24.0813H40.4438Z" fill="white"/>
<path d="M49.1714 20.6698C49.9809 20.6698 50.6341 20.9846 51.1309 21.6143C51.6321 22.2439 51.8826 23.1669 51.8826 24.3833C51.8826 25.1971 51.7648 25.8824 51.5293 26.4392C51.2937 26.9917 50.9682 27.4094 50.5527 27.692C50.1372 27.9747 49.6597 28.1161 49.12 28.1161C48.7731 28.1161 48.4754 28.0732 48.227 27.9876C47.9785 27.8976 47.7665 27.7841 47.5909 27.6471C47.4153 27.5057 47.2632 27.3558 47.1348 27.1973H47.032C47.0662 27.3687 47.0919 27.5443 47.1091 27.7242C47.1262 27.9041 47.1348 28.0797 47.1348 28.251V31.1485H45.1752V20.8047H46.7685L47.0448 21.7363H47.1348C47.2632 21.5436 47.4196 21.3658 47.6038 21.2031C47.7879 21.0403 48.0085 20.9118 48.2655 20.8176C48.5268 20.7191 48.8287 20.6698 49.1714 20.6698ZM48.5418 22.2375C48.1991 22.2375 47.9271 22.3081 47.7258 22.4495C47.5245 22.5908 47.3767 22.8028 47.2825 23.0855C47.1926 23.3682 47.1433 23.7258 47.1348 24.1584V24.3705C47.1348 24.833 47.1776 25.2249 47.2632 25.5462C47.3532 25.8674 47.501 26.1116 47.7066 26.2786C47.9164 26.4456 48.2034 26.5292 48.5675 26.5292C48.8673 26.5292 49.1136 26.4456 49.3063 26.2786C49.499 26.1116 49.6425 25.8674 49.7368 25.5462C49.8353 25.2207 49.8845 24.8245 49.8845 24.3576C49.8845 23.6552 49.7753 23.1262 49.5569 22.7707C49.3384 22.4152 49.0001 22.2375 48.5418 22.2375Z" fill="white"/>
<path d="M57.8926 20.6698C58.7021 20.6698 59.3553 20.9846 59.8521 21.6143C60.3532 22.2439 60.6038 23.1669 60.6038 24.3833C60.6038 25.1971 60.486 25.8824 60.2504 26.4392C60.0149 26.9917 59.6893 27.4094 59.2739 27.692C58.8584 27.9747 58.3808 28.1161 57.8412 28.1161C57.4942 28.1161 57.1965 28.0732 56.9481 27.9876C56.6997 27.8976 56.4877 27.7841 56.3121 27.6471C56.1365 27.5057 55.9844 27.3558 55.8559 27.1973H55.7531C55.7874 27.3687 55.8131 27.5443 55.8302 27.7242C55.8474 27.9041 55.8559 28.0797 55.8559 28.251V31.1485H53.8964V20.8047H55.4897L55.766 21.7363H55.8559C55.9844 21.5436 56.1408 21.3658 56.3249 21.2031C56.5091 21.0403 56.7297 20.9118 56.9867 20.8176C57.2479 20.7191 57.5499 20.6698 57.8926 20.6698ZM57.2629 22.2375C56.9203 22.2375 56.6483 22.3081 56.447 22.4495C56.2457 22.5908 56.0979 22.8028 56.0037 23.0855C55.9137 23.3682 55.8645 23.7258 55.8559 24.1584V24.3705C55.8559 24.833 55.8988 25.2249 55.9844 25.5462C56.0744 25.8674 56.2221 26.1116 56.4277 26.2786C56.6376 26.4456 56.9246 26.5292 57.2886 26.5292C57.5885 26.5292 57.8347 26.4456 58.0275 26.2786C58.2202 26.1116 58.3637 25.8674 58.4579 25.5462C58.5564 25.2207 58.6057 24.8245 58.6057 24.3576C58.6057 23.6552 58.4965 23.1262 58.278 22.7707C58.0596 22.4152 57.7212 22.2375 57.2629 22.2375Z" fill="white"/>
<path d="M72.129 25.3791C72.129 25.9359 71.994 26.4199 71.7242 26.8311C71.4544 27.2423 71.0603 27.5593 70.5421 27.782C70.0281 28.0047 69.4027 28.1161 68.666 28.1161C68.3405 28.1161 68.0214 28.0947 67.7088 28.0518C67.4004 28.009 67.1027 27.9469 66.8157 27.8655C66.533 27.7798 66.2632 27.6749 66.0062 27.5507V25.7004C66.4517 25.8974 66.9142 26.0752 67.394 26.2336C67.8737 26.3921 68.3491 26.4713 68.8202 26.4713C69.1458 26.4713 69.407 26.4285 69.6041 26.3428C69.8054 26.2572 69.951 26.1394 70.0409 25.9895C70.1309 25.8396 70.1759 25.6683 70.1759 25.4755C70.1759 25.2399 70.0966 25.0386 69.9381 24.8716C69.7797 24.7045 69.5612 24.5482 69.2828 24.4026C69.0087 24.257 68.6982 24.1006 68.3512 23.9336C68.1328 23.8308 67.8951 23.7066 67.6381 23.5609C67.3811 23.411 67.137 23.229 66.9057 23.0148C66.6744 22.8007 66.4838 22.5416 66.3339 22.2375C66.1882 21.9291 66.1154 21.5607 66.1154 21.1324C66.1154 20.5713 66.2439 20.0916 66.5009 19.6933C66.7579 19.2949 67.1241 18.9908 67.5995 18.781C68.0793 18.5668 68.6446 18.4597 69.2957 18.4597C69.7839 18.4597 70.2487 18.5175 70.6898 18.6332C71.1353 18.7445 71.6 18.9073 72.084 19.1215L71.4415 20.6698C71.0089 20.4942 70.6213 20.3593 70.2786 20.2651C69.936 20.1666 69.5869 20.1173 69.2314 20.1173C68.983 20.1173 68.771 20.158 68.5954 20.2394C68.4198 20.3165 68.287 20.4278 68.197 20.5734C68.1071 20.7148 68.0621 20.8797 68.0621 21.0682C68.0621 21.2909 68.1264 21.4793 68.2549 21.6335C68.3876 21.7834 68.5847 21.9291 68.8459 22.0704C69.1115 22.2118 69.4413 22.3767 69.8353 22.5651C70.3151 22.7921 70.7241 23.0298 71.0625 23.2783C71.4051 23.5224 71.6685 23.8115 71.8527 24.1456C72.0369 24.4754 72.129 24.8866 72.129 25.3791Z" fill="white"/>
<path d="M77.0981 26.5549C77.3123 26.5549 77.52 26.5334 77.7213 26.4906C77.9269 26.4478 78.1303 26.3942 78.3316 26.33V27.7884C78.1218 27.8826 77.8605 27.9597 77.5478 28.0197C77.2394 28.0839 76.9011 28.1161 76.5327 28.1161C76.1044 28.1161 75.7189 28.0475 75.3763 27.9105C75.0379 27.7691 74.7702 27.5271 74.5732 27.1845C74.3804 26.8376 74.2841 26.3557 74.2841 25.7389V22.276H73.3461V21.4472L74.4254 20.7919L74.9908 19.2757H76.2436V20.8047H78.2546V22.276H76.2436V25.7389C76.2436 26.013 76.3207 26.2186 76.4749 26.3557C76.6334 26.4885 76.8411 26.5549 77.0981 26.5549Z" fill="white"/>
<path d="M86.7123 24.3833C86.7123 24.9829 86.6309 25.5141 86.4682 25.9766C86.3097 26.4392 86.0763 26.8311 85.7679 27.1524C85.4638 27.4693 85.0954 27.7092 84.6628 27.8719C84.2345 28.0347 83.7505 28.1161 83.2108 28.1161C82.7054 28.1161 82.2407 28.0347 81.8167 27.8719C81.3969 27.7092 81.0307 27.4693 80.718 27.1524C80.4097 26.8311 80.1698 26.4392 79.9985 25.9766C79.8314 25.5141 79.7479 24.9829 79.7479 24.3833C79.7479 23.5866 79.8893 22.912 80.1719 22.3595C80.4546 21.807 80.8573 21.3872 81.3798 21.1003C81.9023 20.8133 82.5255 20.6698 83.2494 20.6698C83.9218 20.6698 84.5172 20.8133 85.0355 21.1003C85.558 21.3872 85.967 21.807 86.2626 22.3595C86.5624 22.912 86.7123 23.5866 86.7123 24.3833ZM81.746 24.3833C81.746 24.8545 81.7974 25.2506 81.9002 25.5719C82.003 25.8931 82.1636 26.1351 82.382 26.2979C82.6005 26.4606 82.8853 26.542 83.2365 26.542C83.5835 26.542 83.864 26.4606 84.0782 26.2979C84.2966 26.1351 84.4551 25.8931 84.5536 25.5719C84.6564 25.2506 84.7078 24.8545 84.7078 24.3833C84.7078 23.9079 84.6564 23.5138 84.5536 23.2012C84.4551 22.8842 84.2966 22.6465 84.0782 22.488C83.8597 22.3295 83.5749 22.2503 83.2237 22.2503C82.7054 22.2503 82.3285 22.4281 82.0929 22.7836C81.8616 23.1391 81.746 23.6723 81.746 24.3833Z" fill="white"/>
<path d="M92.7351 20.6698C92.8336 20.6698 92.9471 20.6762 93.0756 20.6891C93.2084 20.6977 93.3155 20.7105 93.3968 20.7276L93.2491 22.5651C93.1848 22.5437 93.0927 22.5287 92.9728 22.5201C92.8572 22.5073 92.7565 22.5009 92.6709 22.5009C92.4181 22.5009 92.1719 22.533 91.932 22.5972C91.6964 22.6615 91.4844 22.7664 91.296 22.912C91.1075 23.0534 90.9576 23.2418 90.8462 23.4774C90.7392 23.7087 90.6856 23.9935 90.6856 24.3319V27.9876H88.7261V20.8047H90.2102L90.4993 22.0126H90.5957C90.737 21.7684 90.9126 21.5457 91.1225 21.3444C91.3367 21.1388 91.5786 20.9761 91.8485 20.8561C92.1226 20.7319 92.4181 20.6698 92.7351 20.6698Z" fill="white"/>
<path d="M98.0576 20.6698C98.7215 20.6698 99.2933 20.7983 99.773 21.0553C100.253 21.308 100.623 21.6764 100.884 22.1604C101.146 22.6444 101.276 23.2354 101.276 23.9336V24.8844H96.6442C96.6656 25.437 96.8305 25.8717 97.1389 26.1887C97.4515 26.5013 97.8841 26.6577 98.4367 26.6577C98.895 26.6577 99.3147 26.6105 99.6959 26.5163C100.077 26.4221 100.469 26.2807 100.872 26.0923V27.6085C100.516 27.7841 100.143 27.9126 99.7537 27.994C99.3682 28.0754 98.8992 28.1161 98.3467 28.1161C97.6271 28.1161 96.9889 27.9833 96.4321 27.7177C95.8796 27.4522 95.4449 27.0474 95.1279 26.5035C94.8153 25.9595 94.6589 25.2742 94.6589 24.4476C94.6589 23.6081 94.8003 22.9099 95.083 22.3531C95.3699 21.792 95.7683 21.3723 96.2779 21.0939C96.7876 20.8112 97.3809 20.6698 98.0576 20.6698ZM98.0704 22.064C97.6892 22.064 97.3723 22.1861 97.1196 22.4302C96.8712 22.6743 96.7277 23.0577 96.6891 23.5802H99.4389C99.4346 23.289 99.3811 23.0298 99.2783 22.8028C99.1798 22.5758 99.0299 22.3959 98.8286 22.2632C98.6315 22.1304 98.3788 22.064 98.0704 22.064Z" fill="white"/>
<path fill-rule="evenodd" clip-rule="evenodd" d="M18.2638 12.5157C23.3094 10.5198 25.6484 11.2569 27.8227 13.7725C26.4669 15.0861 25.1923 16.0503 25.1923 18.4695C25.1923 20.8886 26.2347 22.9019 28.6783 24.0973C27.8381 26.1421 27.1127 28.1854 25.7425 29.5831C24.2149 31.1409 23.4571 31.0647 21.473 30.4244C20.6307 30.1527 19.6716 29.874 18.5491 29.9422C17.5932 30.0002 16.7379 30.4659 15.9172 30.8171C14.0487 31.6166 13.2693 31.0721 11.9029 29.8156C8.49801 26.6845 6.39611 20.9585 7.67532 16.5412C9.1195 11.5538 13.6353 9.82814 18.2638 12.5157ZM23.16 5.15084C23.4393 5.86489 23.0825 7.60091 21.7089 9.18046C21.2529 9.70467 20.7056 10.1224 20.2434 10.4622C19.3705 10.9007 18.5427 11.0576 18.0532 11.0559C18.0278 9.30047 18.4586 8.35461 19.4252 7.14481C20.7317 5.50954 22.3931 5.13547 23.16 5.15084Z" fill="white"/>
<path d="M39.6449 10.9793H39.0233V10.5374H39.6198C39.8833 10.5374 40.0965 10.5002 40.2593 10.426C40.4222 10.3517 40.5408 10.2487 40.6151 10.117C40.6893 9.98522 40.7264 9.83312 40.7264 9.66065C40.7264 9.49537 40.6857 9.34446 40.6043 9.20793C40.5228 9.06899 40.3971 8.95881 40.227 8.87737C40.0569 8.79353 39.8378 8.75161 39.5695 8.75161C39.3683 8.75161 39.1862 8.78993 39.0233 8.86659C38.8605 8.94084 38.7311 9.04504 38.6353 9.17918C38.5395 9.31093 38.4916 9.46303 38.4916 9.6355H37.7981C37.7981 9.41273 37.8448 9.21272 37.9382 9.03546C38.0317 8.85581 38.1598 8.7037 38.3227 8.57914C38.4856 8.45219 38.6736 8.35518 38.8868 8.28811C39.1024 8.22104 39.3299 8.1875 39.5695 8.1875C39.8497 8.1875 40.1037 8.21984 40.3312 8.28451C40.5588 8.34679 40.754 8.44021 40.9169 8.56477C41.0798 8.68933 41.2043 8.84383 41.2906 9.02827C41.3768 9.21272 41.4199 9.4271 41.4199 9.67143C41.4199 9.85108 41.378 10.02 41.2941 10.178C41.2103 10.3361 41.0905 10.4751 40.9348 10.5948C40.7791 10.7146 40.5923 10.8092 40.3743 10.8787C40.1563 10.9458 39.9132 10.9793 39.6449 10.9793ZM39.0233 10.6739H39.6449C39.9396 10.6739 40.2019 10.7038 40.4318 10.7637C40.6618 10.8236 40.8558 10.911 41.0139 11.026C41.172 11.141 41.2918 11.2835 41.3732 11.4536C41.457 11.6213 41.499 11.8141 41.499 12.0321C41.499 12.2764 41.451 12.4932 41.3552 12.6824C41.2618 12.8716 41.1289 13.0321 40.9564 13.1639C40.7839 13.2956 40.5791 13.395 40.342 13.4621C40.1072 13.5292 39.8497 13.5627 39.5695 13.5627C39.3443 13.5627 39.1216 13.534 38.9012 13.4765C38.6832 13.4166 38.4856 13.3256 38.3083 13.2034C38.1311 13.0788 37.9885 12.9207 37.8808 12.7291C37.7754 12.5375 37.7227 12.3075 37.7227 12.0392H38.4161C38.4161 12.2141 38.464 12.3746 38.5598 12.5207C38.658 12.6668 38.7934 12.7842 38.9659 12.8728C39.1383 12.9591 39.3395 13.0022 39.5695 13.0022C39.833 13.0022 40.0557 12.9615 40.2378 12.88C40.4222 12.7962 40.5624 12.6824 40.6582 12.5387C40.7564 12.3926 40.8055 12.2285 40.8055 12.0464C40.8055 11.8859 40.7791 11.747 40.7264 11.6296C40.6761 11.5099 40.6007 11.4117 40.5001 11.335C40.4019 11.2584 40.2785 11.2021 40.13 11.1661C39.9839 11.1278 39.8138 11.1086 39.6198 11.1086H39.0233V10.6739Z" fill="white"/>
<path d="M44.3482 8.72286L42.6164 13.4908H41.9086L43.9027 8.25936H44.359L44.3482 8.72286ZM45.7998 13.4908L44.0644 8.72286L44.0536 8.25936H44.5099L46.5113 13.4908H45.7998ZM45.71 11.5542V12.1219H42.7709V11.5542H45.71Z" fill="white"/>
<path d="M50.4564 8.25936V8.82706H47.9341V13.4908H47.2442V8.25936H50.4564Z" fill="white"/>
<path d="M53.2374 11.4392H51.8397V10.8751H53.2374C53.5081 10.8751 53.7273 10.832 53.895 10.7458C54.0626 10.6595 54.1848 10.5397 54.2615 10.3864C54.3405 10.2331 54.38 10.0583 54.38 9.86186C54.38 9.68221 54.3405 9.51334 54.2615 9.35524C54.1848 9.19715 54.0626 9.07019 53.895 8.97438C53.7273 8.87617 53.5081 8.82706 53.2374 8.82706H52.0014V13.4908H51.308V8.25936H53.2374C53.6327 8.25936 53.9668 8.32763 54.2399 8.46416C54.513 8.6007 54.7202 8.78993 54.8615 9.03187C55.0028 9.2714 55.0735 9.54567 55.0735 9.85467C55.0735 10.19 55.0028 10.4763 54.8615 10.7134C54.7202 10.9506 54.513 11.1314 54.2399 11.256C53.9668 11.3781 53.6327 11.4392 53.2374 11.4392Z" fill="white"/>
<path d="M57.5707 11.7554L58.954 8.25936H59.7516L57.9012 12.6177C57.8485 12.7399 57.7898 12.8585 57.7252 12.9734C57.6605 13.086 57.5814 13.1866 57.488 13.2753C57.3946 13.3639 57.2784 13.4345 57.1395 13.4872C57.003 13.5399 56.8329 13.5663 56.6293 13.5663C56.5718 13.5663 56.5035 13.5627 56.4245 13.5555C56.3454 13.5507 56.2939 13.5447 56.27 13.5376L56.2915 12.9842C56.3179 12.989 56.3694 12.9938 56.446 12.9986C56.5227 13.001 56.579 13.0022 56.6149 13.0022C56.7514 13.0022 56.8592 12.9746 56.9383 12.9195C57.0173 12.8645 57.0808 12.795 57.1287 12.7111C57.179 12.6249 57.2245 12.5375 57.2653 12.4489L57.5707 11.7554ZM56.3957 8.25936L57.8509 11.5183L58.0234 12.1614L57.4413 12.2045L55.6196 8.25936H56.3957Z" fill="white"/>
<path d="M62.1805 10.9793H61.5589V10.5374H62.1554C62.4189 10.5374 62.6321 10.5002 62.795 10.426C62.9578 10.3517 63.0764 10.2487 63.1507 10.117C63.2249 9.98522 63.2621 9.83312 63.2621 9.66065C63.2621 9.49537 63.2213 9.34446 63.1399 9.20793C63.0584 9.06899 62.9327 8.95881 62.7626 8.87737C62.5925 8.79353 62.3734 8.75161 62.1051 8.75161C61.9039 8.75161 61.7218 8.78993 61.5589 8.86659C61.3961 8.94084 61.2667 9.04504 61.1709 9.17918C61.0751 9.31093 61.0272 9.46303 61.0272 9.6355H60.3337C60.3337 9.41273 60.3804 9.21272 60.4738 9.03546C60.5673 8.85581 60.6954 8.7037 60.8583 8.57914C61.0212 8.45219 61.2092 8.35518 61.4224 8.28811C61.638 8.22104 61.8656 8.1875 62.1051 8.1875C62.3853 8.1875 62.6393 8.21984 62.8668 8.28451C63.0944 8.34679 63.2896 8.44021 63.4525 8.56477C63.6154 8.68933 63.7399 8.84383 63.8262 9.02827C63.9124 9.21272 63.9555 9.4271 63.9555 9.67143C63.9555 9.85108 63.9136 10.02 63.8298 10.178C63.7459 10.3361 63.6261 10.4751 63.4704 10.5948C63.3148 10.7146 63.1279 10.8092 62.9099 10.8787C62.692 10.9458 62.4488 10.9793 62.1805 10.9793ZM61.5589 10.6739H62.1805C62.4752 10.6739 62.7375 10.7038 62.9674 10.7637C63.1974 10.8236 63.3914 10.911 63.5495 11.026C63.7076 11.141 63.8274 11.2835 63.9088 11.4536C63.9926 11.6213 64.0346 11.8141 64.0346 12.0321C64.0346 12.2764 63.9867 12.4932 63.8908 12.6824C63.7974 12.8716 63.6645 13.0321 63.492 13.1639C63.3195 13.2956 63.1147 13.395 62.8776 13.4621C62.6428 13.5292 62.3853 13.5627 62.1051 13.5627C61.8799 13.5627 61.6572 13.534 61.4368 13.4765C61.2188 13.4166 61.0212 13.3256 60.8439 13.2034C60.6667 13.0788 60.5241 12.9207 60.4164 12.7291C60.311 12.5375 60.2583 12.3075 60.2583 12.0392H60.9517C60.9517 12.2141 60.9996 12.3746 61.0954 12.5207C61.1937 12.6668 61.329 12.7842 61.5015 12.8728C61.6739 12.9591 61.8751 13.0022 62.1051 13.0022C62.3686 13.0022 62.5913 12.9615 62.7734 12.88C62.9578 12.7962 63.098 12.6824 63.1938 12.5387C63.292 12.3926 63.3411 12.2285 63.3411 12.0464C63.3411 11.8859 63.3148 11.747 63.2621 11.6296C63.2118 11.5099 63.1363 11.4117 63.0357 11.335C62.9375 11.2584 62.8141 11.2021 62.6656 11.1661C62.5195 11.1278 62.3494 11.1086 62.1554 11.1086H61.5589V10.6739Z" fill="white"/>
<path d="M65.6694 12.2908L68.2456 8.25936H68.9391V13.4908H68.2456V9.45585L65.6694 13.4908H64.9795V8.25936H65.6694V12.2908Z" fill="white"/>
<path d="M72.0255 8.25936V13.4908H71.3428V8.25936H72.0255ZM73.707 8.25936V8.82706H69.6649V8.25936H73.707Z" fill="white"/>
<path d="M77.8067 12.9267V13.4908H75.0365V12.9267H77.8067ZM75.1766 8.25936V13.4908H74.4831V8.25936H75.1766ZM77.4402 10.5086V11.0727H75.0365V10.5086H77.4402ZM77.7708 8.25936V8.82706H75.0365V8.25936H77.7708Z" fill="white"/>
<path d="M82.3555 11.044H81.0297L81.0225 10.4871H82.2262C82.425 10.4871 82.5986 10.4535 82.7472 10.3864C82.8957 10.3194 83.0107 10.2236 83.0921 10.099C83.1759 9.97205 83.2178 9.82114 83.2178 9.64628C83.2178 9.45465 83.1807 9.29895 83.1065 9.17918C83.0346 9.05702 82.9232 8.96839 82.7723 8.9133C82.6238 8.85581 82.4346 8.82706 82.2046 8.82706H81.1842V13.4908H80.4907V8.25936H82.2046C82.4729 8.25936 82.7124 8.28691 82.9232 8.342C83.134 8.3947 83.3125 8.47854 83.4586 8.59351C83.6071 8.7061 83.7197 8.84982 83.7963 9.02468C83.873 9.19954 83.9113 9.40914 83.9113 9.65346C83.9113 9.86905 83.8562 10.0643 83.746 10.2391C83.6358 10.4116 83.4825 10.5529 83.2861 10.6631C83.0921 10.7733 82.8645 10.844 82.6034 10.8751L82.3555 11.044ZM82.3232 13.4908H80.7566L81.1483 12.9267H82.3232C82.5436 12.9267 82.7304 12.8884 82.8837 12.8118C83.0394 12.7351 83.158 12.6273 83.2394 12.4884C83.3209 12.3471 83.3616 12.1806 83.3616 11.9889C83.3616 11.7949 83.3268 11.6272 83.2574 11.4859C83.1879 11.3446 83.0789 11.2356 82.9304 11.159C82.7819 11.0823 82.5903 11.044 82.3555 11.044H81.3674L81.3746 10.4871H82.7256L82.8729 10.6883C83.1244 10.7098 83.3376 10.7817 83.5125 10.9038C83.6873 11.0236 83.8203 11.1769 83.9113 11.3638C84.0047 11.5506 84.0514 11.7566 84.0514 11.9818C84.0514 12.3075 83.9796 12.583 83.8359 12.8082C83.6945 13.0309 83.4945 13.201 83.2358 13.3184C82.9771 13.4334 82.6729 13.4908 82.3232 13.4908Z" fill="white"/>
</svg>
