<?xml version="1.0" standalone="no"?>
<!DOCTYPE svg PUBLIC "-//W3C//DTD SVG 1.1//EN" "http://www.w3.org/Graphics/SVG/1.1/DTD/svg11.dtd" >
<svg xmlns="http://www.w3.org/2000/svg">
<metadata>Generated by IcoMoon</metadata>
<defs>
<font id="icon" horiz-adv-x="1024">
<font-face units-per-em="1024" ascent="960" descent="-64" />
<missing-glyph horiz-adv-x="1024" />
<glyph unicode="&#x20;" horiz-adv-x="512" d="" />
<glyph unicode="&#xe900;" glyph-name="arrow-right" d="M1010.060 432.259c8.692 8.694 8.692 22.789 0 31.483l-141.668 141.667c-8.694 8.693-22.788 8.693-31.481 0s-8.694-22.788 0-31.482l125.927-125.926-125.927-125.927c-8.694-8.694-8.694-22.788 0-31.481s22.788-8.694 31.481 0l141.668 141.667zM0 425.739h994.319v44.522h-994.319v-44.522z" />
<glyph unicode="&#xe901;" glyph-name="bed" d="M279.273 424.255c77.265 0 139.636 63.636 139.636 142.47s-62.371 142.47-139.636 142.47c-77.266 0-139.637-63.637-139.637-142.47s62.371-142.47 139.637-142.47zM837.819 709.194h-279.272c-51.2 0-93.095-42.741-93.095-94.98v-237.449h-372.362v379.919c0 26.12-20.946 47.49-46.546 47.49s-46.545-21.37-46.545-47.49v-617.366c0-26.121 20.945-47.491 46.545-47.491s46.546 21.37 46.546 47.491v94.978h837.819v-94.978c0-26.121 20.943-47.491 46.543-47.491s46.547 21.37 46.547 47.491v379.917c0 104.952-83.318 189.96-186.181 189.96z" />
<glyph unicode="&#xe902;" glyph-name="calendar" d="M938.667 864h-138.667v64c0.004 8.487-3.362 16.629-9.357 22.634-5.999 6.005-14.135 9.382-22.622 9.388s-16.627-3.36-22.635-9.357c-6.003-5.997-9.382-14.134-9.387-22.621v-64.043h-192v64c0.004 4.202-0.823 8.364-2.428 12.248s-3.959 7.413-6.929 10.386c-2.97 2.973-6.498 5.333-10.377 6.944-3.883 1.611-8.043 2.441-12.245 2.444-8.486 0.006-16.627-3.36-22.635-9.357-6.003-5.997-9.382-14.134-9.387-22.621v-64.043h-192v64c0.003 4.202-0.822 8.364-2.428 12.248s-3.96 7.413-6.93 10.386c-2.969 2.973-6.496 5.333-10.377 6.944s-8.042 2.441-12.244 2.444c-8.487 0.006-16.628-3.36-22.634-9.357s-9.382-14.134-9.388-22.621v-64.043h-138.667c-22.624 0-44.323-8.985-60.325-24.978s-24.997-37.688-25.009-60.312v-757.333c0-22.63 8.99-44.339 24.994-60.339 16.003-16.004 37.708-24.994 60.34-24.994h853.333c22.63 0 44.335 8.99 60.339 24.994 16.004 16 24.994 37.709 24.994 60.339v757.333c-0.013 22.624-9.007 44.318-25.007 60.312-16.004 15.994-37.7 24.978-60.326 24.978v0zM960 21.333c0-5.649-2.24-11.072-6.234-15.070-3.989-4.002-9.408-6.251-15.057-6.263h-853.376c-5.658 0-11.084 2.249-15.085 6.246-4.001 4.002-6.249 9.429-6.249 15.087v757.333c0.011 5.65 2.264 11.066 6.263 15.057s9.419 6.233 15.070 6.233h138.667v-64c-0.006-8.487 3.36-16.628 9.358-22.634s14.134-9.382 22.621-9.388c8.487-0.006 16.628 3.36 22.634 9.357s9.382 14.135 9.388 22.621v64.043h192v-64c-0.004-8.487 3.362-16.628 9.357-22.634 5.999-6.005 14.135-9.382 22.622-9.388s16.627 3.36 22.635 9.357c6.003 5.997 9.382 14.135 9.387 22.621v64.043h192v-64c-0.004-8.487 3.362-16.628 9.357-22.634 5.999-6.005 14.135-9.382 22.622-9.388s16.627 3.36 22.635 9.357c6.003 5.997 9.382 14.135 9.387 22.621v64.043h138.667c5.645-0.012 11.051-2.258 15.044-6.249 3.989-3.99 6.234-9.399 6.246-15.042l0.043-757.333zM224 576h128v-96h-128v96zM224 416h128v-96h-128v96zM224 256h128v-96h-128v96zM448 256h128v-96h-128v96zM448 416h128v-96h-128v96zM448 576h128v-96h-128v96zM672 256h128v-96h-128v96zM672 416h128v-96h-128v96zM672 576h128v-96h-128v96z" />
<glyph unicode="&#xe903;" glyph-name="calendar-2" d="M298.628 490.666h85.334v-85.334h-85.334v85.334zM298.628 319.997h85.334v-85.331h-85.334v85.331zM469.296 490.666h85.331v-85.334h-85.331v85.334zM469.296 319.997h85.331v-85.331h-85.331v85.331zM639.962 490.666h85.334v-85.334h-85.334v85.334zM639.962 319.997h85.334v-85.331h-85.334v85.331zM213.333 21.331h597.332c47.063 0 85.334 38.271 85.334 85.334v597.332c0 47.061-38.271 85.333-85.334 85.333h-85.331v85.333h-85.334v-85.333h-256v85.333h-85.334v-85.333h-85.332c-47.061 0-85.333-38.272-85.333-85.333v-597.332c0-47.063 38.272-85.334 85.333-85.334zM810.666 618.666l0.044-512h-597.376v512h597.332z" />
<glyph unicode="&#xe904;" glyph-name="camera" d="M133.565 619.903c0-24.487 20.035-44.522 44.521-44.522s44.522 20.035 44.522 44.522v89.044h89.044c24.487 0 44.522 20.035 44.522 44.522s-20.035 44.521-44.522 44.521h-89.044v89.044c0 24.487-20.035 44.522-44.522 44.522s-44.521-20.035-44.521-44.522v-89.044h-89.044c-24.487 0-44.522-20.035-44.522-44.521s20.035-44.522 44.522-44.522h89.044v-89.044zM578.901 219.221c73.762 0 133.564 59.802 133.564 133.569 0 73.764-59.802 133.563-133.564 133.563-73.769 0-133.568-59.799-133.568-133.563 0-73.768 59.799-133.569 133.568-133.569zM934.946 708.964h-141.136l-55.205 60.104c-8.294 9.11-18.404 16.388-29.673 21.371s-23.45 7.561-35.772 7.568h-284.941c7.568-13.357 12.466-28.049 12.466-44.522 0-48.974-40.070-89.044-89.044-89.044h-44.522v-44.522c0-48.974-40.070-89.044-89.044-89.044-16.473 0-31.165 4.898-44.521 12.466v-457.685c0-48.97 40.069-89.042 89.043-89.042h712.347c48.976 0 89.042 40.073 89.042 89.042v534.262c0 48.974-40.067 89.044-89.042 89.044zM578.77 130.179c-122.878 0-222.606 99.732-222.606 222.612s99.728 222.607 222.606 222.607c122.88 0 222.612-99.728 222.612-222.607 0-122.88-99.732-222.612-222.612-222.612z" />
<glyph unicode="&#xe905;" glyph-name="check" d="M877.039 917.333h-730.076c-57.884 0-104.296-46.933-104.296-104.296v-730.076c0-57.361 46.412-104.294 104.296-104.294h730.076c57.884 0 104.294 46.933 104.294 104.294v730.076c0 57.363-46.41 104.296-104.294 104.296zM407.704 187.261l-260.741 260.739 73.529 73.529 187.212-186.692 395.806 395.806 73.529-74.050-469.335-469.332z" />
<glyph unicode="&#xe906;" glyph-name="check-circle" d="M512 848.114c-224.815 0-407.273-182.458-407.273-407.272s182.458-407.273 407.273-407.273c224.815 0 407.273 182.458 407.273 407.273s-182.458 407.272-407.273 407.272zM430.545 237.205l-203.636 203.636 57.425 57.425 146.211-145.805 309.122 309.122 57.423-57.833-366.545-366.545z" />
<glyph unicode="&#xe907;" glyph-name="close" d="M512 874.667c-235.947 0-426.667-190.72-426.667-426.667s190.72-426.667 426.667-426.667c235.947 0 426.667 190.72 426.667 426.667s-190.72 426.667-426.667 426.667zM725.333 294.827l-60.16-60.16-153.173 153.173-153.173-153.173-60.16 60.16 153.173 153.173-153.173 153.173 60.16 60.16 153.173-153.173 153.173 153.173 60.16-60.16-153.173-153.173 153.173-153.173z" />
<glyph unicode="&#xe908;" glyph-name="close-square" d="M128 960c-33.948 0-66.505-13.486-90.51-37.49s-37.49-56.562-37.49-90.51v-768c0-33.946 13.486-66.502 37.49-90.509s56.562-37.491 90.51-37.491h768c33.946 0 66.502 13.485 90.509 37.491s37.491 56.563 37.491 90.509v768c0 33.948-13.485 66.505-37.491 90.51s-56.563 37.49-90.509 37.49h-768zM342.656 662.656l169.344-169.408 169.344 169.408c2.976 2.975 6.509 5.335 10.394 6.945 3.891 1.61 8.058 2.439 12.262 2.439s8.371-0.829 12.262-2.439c3.885-1.61 7.418-3.97 10.394-6.945s5.338-6.508 6.944-10.395c1.613-3.887 2.438-8.054 2.438-12.261s-0.826-8.374-2.438-12.261c-1.606-3.887-3.968-7.42-6.944-10.395l-169.408-169.344 169.408-169.344c2.976-2.976 5.338-6.509 6.944-10.394 1.613-3.891 2.438-8.058 2.438-12.262s-0.826-8.371-2.438-12.262c-1.606-3.885-3.968-7.418-6.944-10.394s-6.509-5.338-10.394-6.944c-3.891-1.613-8.058-2.438-12.262-2.438s-8.371 0.826-12.262 2.438c-3.885 1.606-7.418 3.968-10.394 6.944l-169.344 169.408-169.344-169.408c-2.975-2.976-6.508-5.338-10.395-6.944-3.887-1.613-8.054-2.438-12.261-2.438s-8.374 0.826-12.261 2.438c-3.887 1.606-7.42 3.968-10.395 6.944s-5.335 6.509-6.945 10.394c-1.61 3.891-2.439 8.058-2.439 12.262s0.829 8.371 2.439 12.262c1.61 3.885 3.97 7.418 6.945 10.394l169.408 169.344-169.408 169.344c-6.009 6.009-9.384 14.158-9.384 22.656s3.375 16.647 9.384 22.656c6.009 6.009 14.158 9.384 22.656 9.384s16.647-3.375 22.656-9.384z" />
<glyph unicode="&#xe909;" glyph-name="distribute-vertical" d="M64 864c0-8.487 3.372-16.627 9.373-22.627s14.14-9.373 22.627-9.373h832c8.486 0 16.627 3.372 22.63 9.373 5.997 6.001 9.37 14.14 9.37 22.627s-3.373 16.627-9.37 22.627c-6.003 6.001-14.144 9.373-22.63 9.373h-832c-8.487 0-16.627-3.372-22.627-9.373s-9.373-14.14-9.373-22.627zM64 32c0-8.486 3.372-16.627 9.373-22.63 6.001-5.997 14.14-9.37 22.627-9.37h832c8.486 0 16.627 3.373 22.63 9.37 5.997 6.003 9.37 14.144 9.37 22.63s-3.373 16.627-9.37 22.63c-6.003 5.997-14.144 9.37-22.63 9.37h-832c-8.487 0-16.627-3.373-22.627-9.37-6.001-6.003-9.373-14.144-9.373-22.63zM128 512c0 16.974 6.743 33.252 18.745 45.255s28.281 18.745 45.255 18.745h640c16.973 0 33.254-6.743 45.254-18.745s18.746-28.281 18.746-45.255v-128c0-16.974-6.746-33.252-18.746-45.255s-28.282-18.745-45.254-18.745h-640c-16.974 0-33.252 6.743-45.255 18.745s-18.745 28.281-18.745 45.255v128z" />
<glyph unicode="&#xe90a;" glyph-name="download" d="M32 326.4c8.487 0 16.626-3.371 22.627-9.374 6.001-5.999 9.373-14.14 9.373-22.626v-160c0-16.973 6.743-33.254 18.745-45.257s28.281-18.743 45.255-18.743h768c16.973 0 33.254 6.741 45.257 18.743s18.743 28.284 18.743 45.257v160c0 8.486 3.371 16.627 9.374 22.626 5.999 6.003 14.14 9.374 22.626 9.374s16.627-3.371 22.626-9.374c6.003-5.999 9.374-14.14 9.374-22.626v-160c0-33.946-13.487-66.505-37.491-90.509s-56.563-37.491-90.509-37.491h-768c-33.948 0-66.505 13.487-90.51 37.491s-37.49 56.563-37.49 90.509v160c0 8.486 3.371 16.627 9.373 22.626 6.001 6.003 14.141 9.374 22.627 9.374zM489.344 201.344c2.974-2.978 6.502-5.346 10.389-6.959 3.891-1.613 8.055-2.441 12.267-2.441s8.375 0.828 12.262 2.441c3.891 1.613 7.42 3.981 10.394 6.959l192 192c6.007 6.007 9.382 14.157 9.382 22.656s-3.375 16.649-9.382 22.656c-6.007 6.007-14.157 9.382-22.656 9.382s-16.649-3.375-22.656-9.382l-137.344-137.408v562.752c0 8.487-3.371 16.626-9.374 22.627-5.999 6.001-14.14 9.373-22.626 9.373s-16.627-3.372-22.626-9.373c-6.003-6.001-9.374-14.141-9.374-22.627v-562.752l-137.344 137.408c-6.009 6.007-14.159 9.382-22.656 9.382s-16.647-3.375-22.656-9.382c-6.009-6.007-9.385-14.157-9.385-22.656s3.376-16.649 9.385-22.656l192-192z" />
<glyph unicode="&#xe90b;" glyph-name="euro" d="M819.2 217.173c-22.724-32.947-52.86-60.105-87.983-79.3-35.123-19.191-74.257-29.879-114.257-31.206-114.347 0-213.333 85.333-256 213.333h236.373c11.315 0 22.17 4.497 30.17 12.497s12.497 18.854 12.497 30.17c0 11.315-4.497 22.17-12.497 30.17s-18.854 12.497-30.17 12.497h-253.867c0 14.080-2.133 28.587-2.133 42.667s0 28.587 2.133 42.667h253.867c11.315 0 22.17 4.497 30.17 12.497s12.497 18.854 12.497 30.17c0 11.316-4.497 22.168-12.497 30.17s-18.854 12.497-30.17 12.497h-235.947c42.667 128 141.227 213.333 256 213.333 39.927-1.394 78.976-12.114 114.022-31.303 35.042-19.189 65.109-46.313 87.791-79.204 3.012-5.185 7.083-9.677 11.947-13.183 4.86-3.506 10.411-5.948 16.282-7.166s11.93-1.185 17.788 0.096c5.858 1.282 11.379 3.784 16.205 7.342s8.845 8.095 11.802 13.312c2.953 5.217 4.774 10.999 5.346 16.967s-0.124 11.99-2.035 17.673c-1.916 5.682-5.005 10.898-9.067 15.306-30.391 43.896-70.75 79.967-117.769 105.257s-99.362 39.078-152.738 40.236c-160.427 0-298.667-121.173-344.32-298.667h-101.973c-11.316 0-22.168-4.495-30.17-12.497s-12.497-18.854-12.497-30.17c0-11.315 4.495-22.17 12.497-30.17s18.854-12.497 30.17-12.497h87.467v-85.333h-87.467c-11.316 0-22.168-4.497-30.17-12.497s-12.497-18.854-12.497-30.17c0-11.315 4.495-22.17 12.497-30.17s18.854-12.497 30.17-12.497h101.973c46.507-177.493 183.893-298.667 344.32-298.667 53.376 1.156 105.719 14.946 152.738 40.235 47.019 25.293 87.377 61.363 117.769 105.259 5.278 9.088 7.014 19.806 4.881 30.097-2.138 10.291-7.996 19.43-16.452 25.668-8.461 6.238-18.923 9.135-29.385 8.137-10.462-1.003-20.186-5.828-27.311-13.555z" />
<glyph unicode="&#xe90c;" glyph-name="exit" d="M846.017 894.739l-702.675 9.918c-55.361 0.781-101.018-43.605-101.799-98.965l-9.918-702.677c-0.781-55.362 43.605-101.015 98.965-101.798l702.675-9.915c55.362-0.783 101.015 43.604 101.798 98.961l4.253 301.199-351.237 4.957-2.834-200.817-297.605 255.208 304.688 246.705-2.833-200.714 351.236-4.957 4.253 301.096c0.777 55.36-43.604 101.018-98.967 101.799z" />
<glyph unicode="&#xe90d;" glyph-name="eye" d="M1024 448c0 0-192 352-512 352s-512-352-512-352c0 0 192-352.002 512-352.002s512 352.002 512 352.002zM75.072 448c30.945 47.033 66.537 90.836 106.24 130.751 82.368 82.497 195.008 157.249 330.688 157.249s248.256-74.752 330.752-157.249c39.703-39.915 75.296-83.717 106.242-130.751-3.715-5.568-7.811-11.712-12.482-18.432-21.44-30.72-53.121-71.68-93.76-112.319-82.496-82.499-195.136-157.248-330.752-157.248-135.68 0-248.256 74.748-330.752 157.248-39.703 39.915-75.231 83.717-106.176 130.751zM512 608c-42.436 0-83.131-16.855-113.138-46.862s-46.862-70.702-46.862-113.138c0-42.436 16.855-83.131 46.862-113.138s70.702-46.86 113.138-46.86c42.436 0 83.131 16.854 113.138 46.86s46.86 70.702 46.86 113.138c0 42.436-16.854 83.131-46.86 113.138s-70.702 46.862-113.138 46.862zM288 448c0 59.41 23.6 116.383 65.608 158.392s98.982 65.608 158.392 65.608c59.41 0 116.383-23.6 158.392-65.608s65.61-98.982 65.61-158.392c0-59.41-23.601-116.383-65.61-158.392s-98.982-65.61-158.392-65.61c-59.41 0-116.383 23.601-158.392 65.61s-65.608 98.982-65.608 158.392z" />
<glyph unicode="&#xe90e;" glyph-name="facebook" d="M832 960c52.888 0 98.111-18.778 135.665-56.333 37.557-37.555 56.335-82.778 56.335-135.667v-640c0-52.888-18.777-98.111-56.335-135.665-37.554-37.557-82.777-56.335-135.665-56.335h-125.335v396.665h132.669l19.997 154.668h-152.667v98.667c0 24.889 5.222 43.555 15.667 56.001 10.445 12.443 30.779 18.666 61.001 18.666l81.332 0.667v137.999c-27.999 4-67.555 6-118.667 6-60.442 0-108.775-17.778-144.998-53.333s-54.333-85.777-54.333-150.666v-114h-133.334v-154.668h133.334v-396.665h-354.667c-52.889 0-98.111 18.777-135.667 56.335-37.556 37.554-56.333 82.777-56.333 135.665v640c0 52.889 18.778 98.111 56.333 135.667s82.778 56.333 135.667 56.333h640z" />
<glyph unicode="&#xe90f;" glyph-name="info" d="M512 874.667c-235.52 0-426.667-191.147-426.667-426.667s191.147-426.667 426.667-426.667c235.52 0 426.667 191.147 426.667 426.667s-191.147 426.667-426.667 426.667zM554.667 234.667h-85.333v85.333h85.333v-85.333zM554.667 405.333h-85.333v256h85.333v-256z" />
<glyph unicode="&#xe910;" glyph-name="inst" horiz-adv-x="995" d="M600.497 436.871c0 55.407-43.979 100.495-98.035 100.495-54.050 0-98.026-45.088-98.026-100.495 0-55.422 43.976-100.498 98.026-100.498 54.055 0 98.035 45.076 98.035 100.498zM746.142 960h-497.541c-137.079 0-248.601-114.336-248.601-254.871v-71.013h365.817c38.599 28.189 85.744 44.842 136.645 44.842s98.052-16.652 136.654-44.842h355.626v71.013c0 140.535-111.522 254.871-248.601 254.871zM846.822 717.598c0-15.574-12.426-28.319-27.622-28.319h-85.346c-15.196 0-27.625 12.745-27.625 28.319v87.506c0 15.573 12.428 28.319 27.625 28.319h85.346c15.196 0 27.622-12.744 27.622-28.319v-87.506zM738.608 436.871c0-133.5-105.94-242.091-236.146-242.091-130.209 0-236.14 108.591-236.14 242.091 0 36.753 8.075 71.607 22.434 102.851h-288.757v-348.85c0-140.545 111.522-254.871 248.601-254.871h497.541c137.078 0 248.601 114.328 248.601 254.871v348.85h-278.569c14.359-31.244 22.434-66.098 22.434-102.851z" />
<glyph unicode="&#xe911;" glyph-name="mark" d="M512 874.667c-165.12 0-298.667-133.547-298.667-298.667 0-224 298.667-554.667 298.667-554.667s298.667 330.667 298.667 554.667c0 165.12-133.547 298.667-298.667 298.667zM512 469.333c-58.88 0-106.667 47.787-106.667 106.667s47.787 106.667 106.667 106.667c58.88 0 106.667-47.787 106.667-106.667s-47.787-106.667-106.667-106.667z" />
<glyph unicode="&#xe912;" glyph-name="minus-out" horiz-adv-x="1075" d="M520.801-64c-282.771 0-512.001 229.233-512.001 512 0 282.77 229.23 512 512.001 512 282.767 0 512-229.23 512-512 0-282.767-229.233-512-512-512zM246.2 503.85h-51.2v-102.401h651.638v102.401h-600.438z" />
<glyph unicode="&#xe913;" glyph-name="palm" d="M512 601.6c74.491-389.632-93.699-665.6-93.699-665.6h140.549c88.077 296.96 46.85 507.392 23.425 614.4l-70.274 51.2zM683.469 695.808c7.964-10.752 15.929-22.016 22.022-33.792 38.172-65.95 55.91-143.574 50.597-221.396s-33.405-151.704-80.114-210.732c20.238 53.623 28.464 111.758 23.982 169.558s-21.539 113.593-49.749 162.73c-3.748 6.656-7.964 12.288-11.712 18.432-26.939 41.091-61.4 75.613-101.195 101.376-67.461-23.53-126.329-69.89-168.099-132.382s-64.28-137.878-64.275-215.266c0-37.888 5.154-74.24 14.523-108.032-40.622 61.753-62.422 135.913-62.31 211.968 0 120.32 53.408 226.816 135.396 293.376-67.932 5.632-140.080-10.752-202.859-53.248-29.047-20.992-54.346-45.056-75.897-72.192 25.767 68.096 70.274 129.024 131.179 171.008 70.275 48.128 149.919 64 226.753 51.712-19.209 28.672-42.634 55.808-70.743 79.872-27.173 21.504-56.689 38.912-87.609 51.2 67.463-2.048 134.927-25.6 192.552-73.216 29.515-24.064 52.94-53.248 71.68-83.968 4.685 0 8.901 0.512 13.586 0.512 149.922 0 276.88-108.032 319.047-257.024-26.357 40.619-60.103 74.86-99.118 100.584s-82.466 42.378-127.636 48.92z" />
<glyph unicode="&#xe914;" glyph-name="pen" d="M128 223.996v-160h160l471.893 471.895-160 160-471.893-471.895zM883.627 659.624c16.64 16.64 16.64 43.52 0 60.16l-99.84 99.84c-16.64 16.64-43.52 16.64-60.16 0l-78.080-78.080 160-160 78.080 78.080z" />
<glyph unicode="&#xe915;" glyph-name="pencil" d="M777.334 950.649c2.97 2.98 6.502 5.344 10.388 6.958s8.054 2.444 12.268 2.444c4.209 0 8.376-0.83 12.262-2.444s7.419-3.978 10.394-6.958l192-192c2.98-2.973 5.34-6.504 6.953-10.392 1.618-3.888 2.447-8.055 2.447-12.264s-0.829-8.377-2.447-12.264c-1.613-3.888-3.973-7.419-6.953-10.392l-640.002-639.998c-3.071-3.052-6.729-5.448-10.752-7.040l-320-128c-5.815-2.33-12.186-2.898-18.322-1.638-6.136 1.254-11.768 4.291-16.197 8.719s-7.461 10.061-8.72 16.195c-1.259 6.139-0.689 12.508 1.639 18.324l128 320c1.595 4.019 3.99 7.68 7.040 10.752l640.002 639.998zM717.235 799.993l146.755-146.752 82.749 82.752-146.749 146.752-82.755-82.752zM818.739 607.993l-146.749 146.752-416.002-416.001v-18.749h32c8.487 0 16.626-3.374 22.627-9.375s9.373-14.141 9.373-22.625v-32h32c8.487 0 16.626-3.374 22.627-9.375s9.373-14.141 9.373-22.625v-32h18.752l415.999 415.998zM194.036 276.792l-6.784-6.784-97.792-244.541 244.544 97.792 6.784 6.784c-6.105 2.278-11.367 6.369-15.084 11.72-3.717 5.356-5.711 11.715-5.716 18.232v32h-32c-8.487 0-16.626 3.369-22.627 9.37s-9.373 14.141-9.373 22.63v32h-32c-6.517 0.005-12.876 1.997-18.229 5.714s-9.443 8.98-11.723 15.084v0z" />
<glyph unicode="&#xe916;" glyph-name="people" d="M960 64c0 0 64 0 64 64s-64 256-320 256c-256 0-320-192-320-256s64-64 64-64h512zM449.408 128c-0.474 0.064-0.943 0.149-1.408 0.256 0.064 16.896 10.688 65.92 48.64 110.080 35.328 41.408 97.408 81.664 207.36 81.664 109.888 0 171.968-40.32 207.36-81.664 37.952-44.16 48.512-93.248 48.64-110.080l-0.512-0.128c-0.299-0.051-0.597-0.094-0.896-0.128h-509.184zM704 512c33.946 0 66.505 13.487 90.509 37.49 24.004 24.005 37.491 56.562 37.491 90.51s-13.487 66.505-37.491 90.51c-24.004 24.005-56.563 37.49-90.509 37.49s-66.505-13.486-90.509-37.49c-24.004-24.005-37.491-56.562-37.491-90.51s13.487-66.505 37.491-90.51c24.004-24.003 56.563-37.49 90.509-37.49zM896 640c0-25.214-4.966-50.181-14.613-73.475-9.651-23.294-23.795-44.46-41.621-62.29-17.83-17.826-38.997-31.97-62.289-41.621-23.296-9.647-48.265-14.613-73.476-14.613s-50.18 4.966-73.476 14.613c-23.292 9.651-44.459 23.795-62.289 41.621-17.826 17.83-31.97 38.996-41.621 62.29-9.647 23.295-14.613 48.262-14.613 73.475 0 50.921 20.228 99.758 56.235 135.764s84.843 56.236 135.765 56.236c50.923 0 99.759-20.229 135.765-56.236s56.235-84.843 56.235-135.764v0zM443.904 366.080c-25.601 8.060-51.991 13.359-78.72 15.808-15.019 1.429-30.097 2.133-45.184 2.112-256 0-320-192-320-256 0-42.688 21.312-64 64-64h269.824c-9.488 19.981-14.219 41.886-13.824 64 0 64.64 24.128 130.688 69.76 185.856 15.552 18.816 33.664 36.416 54.144 52.224zM314.88 320c-37.878-56.913-58.34-123.635-58.88-192h-192c0 16.64 10.496 65.92 48.64 110.336 34.88 40.704 95.488 80.384 202.24 81.6v0.064zM96 608c0 50.921 20.229 99.758 56.236 135.764s84.843 56.236 135.764 56.236c50.921 0 99.758-20.229 135.764-56.236s56.236-84.843 56.236-135.764c0-50.921-20.228-99.759-56.236-135.765s-84.843-56.235-135.764-56.235c-50.921 0-99.758 20.228-135.764 56.235s-56.236 84.844-56.236 135.765v0zM288 736c-33.948 0-66.505-13.486-90.51-37.49s-37.49-56.562-37.49-90.51c0-33.948 13.486-66.505 37.49-90.509s56.562-37.491 90.51-37.491c33.948 0 66.505 13.487 90.51 37.491s37.49 56.561 37.49 90.509c0 33.948-13.486 66.505-37.49 90.51s-56.562 37.49-90.51 37.49z" />
<glyph unicode="&#xe917;" glyph-name="person" d="M192 64c0 0-64 0-64 64s64 256 384 256c320 0 384-192 384-256s-64-64-64-64h-640zM512 448c50.923 0 99.759 20.228 135.765 56.235s56.235 84.844 56.235 135.765-20.228 99.758-56.235 135.764c-36.006 36.007-84.843 56.236-135.765 56.236s-99.758-20.229-135.764-56.236c-36.007-36.007-56.236-84.843-56.236-135.764s20.229-99.758 56.236-135.765c36.007-36.006 84.842-56.235 135.764-56.235v0z" />
<glyph unicode="&#xe918;" glyph-name="person-edit" d="M925.867 390.4l-42.667-42.667-87.467 87.467 42.667 42.667c4.386 4.301 10.283 6.707 16.427 6.707s12.041-2.406 16.427-6.707l54.613-54.613c8.96-8.96 8.96-23.893 0-32.853zM512 151.893l258.56 258.56 87.467-87.467-258.133-258.987h-87.893v87.893zM512 362.667c-188.587 0-341.333-76.373-341.333-170.667v-85.333h256v80.64l170.667 170.667c-28.16 3.413-56.747 4.693-85.333 4.693zM512 789.333c-45.265 0-88.673-17.981-120.68-49.987s-49.987-75.416-49.987-120.68c0-45.264 17.981-88.674 49.987-120.678 32.006-32.009 75.415-49.988 120.68-49.988s88.674 17.98 120.678 49.988c32.009 32.004 49.988 75.415 49.988 120.678s-17.98 88.673-49.988 120.68c-32.004 32.006-75.413 49.987-120.678 49.987z" />
<glyph unicode="&#xe919;" glyph-name="plane" d="M373.219 32h-53.24c-5.35 0-10.613 1.347-15.31 3.907s-8.676 6.257-11.575 10.752c-2.899 4.5-4.624 9.651-5.018 14.986s0.556 10.68 2.763 15.555l128.92 284.503-193.58 4.296-70.6-85.54c-13.46-16.916-24.2-24.458-51.6-24.458h-35.84c-5.674-0.184-11.31 1.004-16.428 3.461-5.118 2.463-9.568 6.113-12.973 10.66-4.76 6.42-9.44 17.3-4.88 32.819l39.64 142c0.3 1.060 0.66 2.12 1.060 3.16 0.020 0.099 0.020 0.201 0 0.3-0.413 1.039-0.767 2.101-1.060 3.18l-39.68 142.9c-4.3 15.22 0.4 25.86 5.12 32.12 3.17 4.206 7.282 7.609 12.006 9.936s9.928 3.513 15.195 3.464h37.84c20.46 0 40.32-9.18 52-24l69.14-84.1 194.64 2.88-128.88 284c-2.21 4.871-3.163 10.218-2.774 15.553s2.111 10.486 5.005 14.984c2.894 4.498 6.871 8.199 11.564 10.764s9.955 3.913 15.304 3.92h53.82c7.508-0.151 14.886-1.991 21.586-5.384s12.549-8.252 17.114-14.215l250.1-304 115.538 3.040c8.463 0.46 31.903 0.62 37.32 0.62 110.52-0.060 176.522-35.94 176.522-96.060 0-18.92-7.562-54.001-58.143-76.319-29.86-13.199-69.699-19.881-118.415-19.881-5.361 0-28.744 0.159-37.32 0.62l-115.523 3.082-250.72-304c-4.569-5.939-10.413-10.772-17.101-14.152-6.688-3.374-14.049-5.202-21.539-5.35v0z" />
<glyph unicode="&#xe91a;" glyph-name="plus" d="M810.667 405.333h-256v-256h-85.333v256h-256v85.333h256v256h85.333v-256h256v-85.333z" />
<glyph unicode="&#xe91b;" glyph-name="plus-out" d="M147.742 807.529c-198.82-201.435-196.706-524.967 4.728-723.787s524.967-196.705 723.787 4.726c198.82 201.436 196.705 524.97-4.726 723.789-201.436 198.82-524.97 196.706-723.789-4.728zM822.533 501.058l0.666-102.056-259.84-1.695 1.7-259.84-102.054-0.666-1.698 259.84-259.839-1.7-0.667 102.054 259.84 1.698-1.698 259.839 102.056 0.667 1.695-259.84 259.84 1.698z" />
<glyph unicode="&#xe91c;" glyph-name="quotes" d="M442.432 870.102c-181.457-12.751-442.289-41.721-442.432-397.094v-447.12h404.909v478.386h-134.448c-8.517 127.739 96.669 160.723 211.054 186.042l-39.083 179.786zM984.917 870.102c-181.457-12.751-442.288-41.722-442.432-397.094v-447.12h404.912v478.386h-134.451c-8.518 127.739 96.669 160.723 211.054 186.042l-39.083 179.786z" />
<glyph unicode="&#xe91d;" glyph-name="settings" d="M815.855 408.064c1.536 12.8 2.56 26.112 2.56 39.936s-1.024 27.136-3.072 39.936l86.528 67.583c7.68 6.144 9.728 17.408 5.12 26.112l-81.92 141.824c-5.12 9.216-15.872 12.288-25.088 9.216l-101.888-40.96c-21.504 16.384-44.032 29.696-69.12 39.936l-15.36 108.544c-1.536 10.24-10.24 17.408-20.48 17.408h-163.84c-10.242 0-18.434-7.168-19.97-17.408l-15.36-108.544c-25.088-10.24-48.128-24.064-69.12-39.936l-101.888 40.96c-9.216 3.584-19.968 0-25.088-9.216l-81.92-141.824c-5.12-9.216-3.072-19.968 5.12-26.112l86.528-67.583c-2.048-12.8-3.584-26.624-3.584-39.936s1.024-27.136 3.072-39.936l-86.528-67.584c-7.68-6.144-9.728-17.408-5.12-26.112l81.92-141.824c5.12-9.216 15.872-12.288 25.088-9.216l101.888 40.96c21.504-16.384 44.032-29.696 69.12-39.936l15.36-108.544c2.048-10.24 10.24-17.408 20.482-17.408h163.84c10.24 0 18.944 7.168 19.968 17.408l15.36 108.544c25.088 10.24 48.128 24.064 69.12 39.936l101.888-40.96c9.216-3.584 19.968 0 25.088 9.216l81.92 141.824c5.12 9.216 3.072 19.968-5.12 26.112l-85.504 67.584zM511.215 294.4c-84.48 0-153.602 69.12-153.602 153.6s69.122 153.599 153.602 153.599c84.48 0 153.6-69.119 153.6-153.599s-69.12-153.6-153.6-153.6z" />
<glyph unicode="&#xe91e;" glyph-name="taxi" d="M927.932 535.469l-64.853 194.56c-9.409 28.327-27.506 52.968-51.718 70.423s-53.311 26.836-83.154 26.809h-121.316v94.815h-189.631v-94.815h-121.316c-29.848 0.026-58.946-9.354-83.158-26.809s-42.308-42.097-51.716-70.423l-64.853-194.56c-17.246-7.216-31.973-19.37-42.332-34.932s-15.885-33.84-15.885-52.535v-237.036c0-34.987 19.153-65.234 47.407-81.687v-107.947c0-12.572 4.995-24.627 13.885-33.519s20.949-13.887 33.522-13.887h47.407c12.573 0 24.631 4.995 33.522 13.887s13.885 20.946 13.885 33.519v94.817h568.889v-94.817c0-12.572 4.995-24.627 13.887-33.519s20.946-13.887 33.519-13.887h47.411c12.572 0 24.627 4.995 33.519 13.887s13.887 20.946 13.887 33.519v107.947c14.382 8.249 26.34 20.144 34.662 34.486 8.323 14.336 12.72 30.618 12.743 47.201v237.036c0 18.695-5.524 36.972-15.883 52.535s-25.082 27.716-42.331 34.932zM295.944 732.447h432.211c20.434 0 38.542-12.989 44.993-32.427l52.429-157.203h-627.008l52.385 157.203c3.145 9.444 9.184 17.658 17.259 23.478s17.777 8.951 27.731 8.949v0zM203.926 258.372c-9.342 0.006-18.591 1.849-27.221 5.422-8.629 3.578-16.469 8.823-23.072 15.428-6.603 6.61-11.84 14.455-15.412 23.086s-5.409 17.88-5.406 27.221c0.003 9.341 1.846 18.591 5.424 27.221s8.82 16.469 15.428 23.074c6.608 6.605 14.451 11.84 23.083 15.412s17.882 5.409 27.224 5.406c18.866-0.006 36.957-7.507 50.293-20.852s20.825-31.442 20.818-50.307-7.507-36.955-20.851-50.29c-13.345-13.34-31.441-20.827-50.307-20.821v0zM820.224 258.372c-9.341 0.006-18.591 1.849-27.221 5.422-8.63 3.578-16.469 8.823-23.074 15.428-6.605 6.61-11.839 14.455-15.411 23.086s-5.41 17.88-5.404 27.221c0 9.341 1.843 18.591 5.422 27.221s8.823 16.469 15.428 23.074c6.61 6.605 14.45 11.84 23.086 15.412 8.63 3.572 17.88 5.409 27.221 5.406 18.864-0.006 36.955-7.507 50.295-20.852 13.335-13.346 20.821-31.442 20.816-50.307s-7.509-36.955-20.85-50.29c-13.346-13.34-31.442-20.827-50.307-20.821v0z" />
<glyph unicode="&#xe91f;" glyph-name="three-dots-vertical" d="M608 128c0-25.459-10.115-49.882-28.118-67.885s-42.422-28.115-67.882-28.115c-25.46 0-49.879 10.112-67.882 28.115s-28.118 42.426-28.118 67.885c0 25.459 10.115 49.882 28.118 67.885s42.422 28.115 67.882 28.115c25.46 0 49.879-10.112 67.882-28.115s28.118-42.426 28.118-67.885zM608 448c0-25.46-10.115-49.879-28.118-67.882s-42.422-28.118-67.882-28.118c-25.46 0-49.879 10.115-67.882 28.118s-28.118 42.422-28.118 67.882c0 25.46 10.115 49.879 28.118 67.882s42.422 28.118 67.882 28.118c25.46 0 49.879-10.115 67.882-28.118s28.118-42.422 28.118-67.882zM608 768c0-25.46-10.115-49.879-28.118-67.882s-42.422-28.118-67.882-28.118c-25.46 0-49.879 10.115-67.882 28.118s-28.118 42.422-28.118 67.882c0 25.46 10.115 49.879 28.118 67.882s42.422 28.118 67.882 28.118c25.46 0 49.879-10.115 67.882-28.118s28.118-42.422 28.118-67.882z" />
<glyph unicode="&#xe920;" glyph-name="triangle-down" d="M298.667 533.333l213.333-213.333 213.333 213.333h-426.667z" />
<glyph unicode="&#xe921;" glyph-name="triangle-down-line" d="M858.482 716.615l-346.482-360.763-346.486 360.763-106.437-111.064 452.923-472.615 452.923 472.615-106.441 111.064z" />
<glyph unicode="&#xe922;" glyph-name="triangle-left-line" d="M597.342 192l60.16 60.16-195.413 195.84 195.413 195.84-60.16 60.16-256.002-256 256.002-256z" />
<glyph unicode="&#xe923;" glyph-name="triangle-right-line" d="M426.66 704l-60.16-60.16 195.412-195.84-195.412-195.84 60.16-60.16 255.998 256-255.998 256z" />
<glyph unicode="&#xe924;" glyph-name="watch" d="M543.883 640c0 8.487-3.359 16.626-9.338 22.627s-14.089 9.373-22.545 9.373c-8.456 0-16.565-3.371-22.545-9.373s-9.338-14.14-9.338-22.627v-192h-127.531c-8.456 0-16.565-3.369-22.545-9.372s-9.338-14.141-9.338-22.626c0-8.489 3.359-16.628 9.338-22.63s14.089-9.372 22.545-9.372h159.414c8.456 0 16.565 3.369 22.545 9.372s9.338 14.141 9.338 22.63v223.998zM225.055 853.312v-24.512c-36.007-7.377-68.369-27.014-91.609-55.588s-35.93-64.328-35.922-101.213v-448.002c-0.008-36.884 12.682-72.636 35.922-101.21s55.602-48.211 91.609-55.589v-24.513c0-58.88 47.569-106.686 106.298-106.686h297.53c58.665 0 106.296 47.743 106.296 106.686v24.513c36.011 7.378 68.369 27.014 91.609 55.589s35.933 64.327 35.923 101.21v224.002h31.885c8.455 0 16.564 3.369 22.543 9.372s9.338 14.141 9.338 22.628v128c0 8.487-3.36 16.626-9.338 22.627s-14.087 9.373-22.543 9.373h-31.885v32c0.010 36.885-12.683 72.64-35.923 101.213s-55.598 48.21-91.609 55.588v24.512c0 58.88-47.567 106.688-106.296 106.688h-297.53c-58.664 0-106.298-47.744-106.298-106.688zM256.938 768h446.36c25.366 0 49.693-10.114 67.633-28.118s28.014-42.422 28.014-67.882v-448.002c0-25.459-10.074-49.879-28.014-67.881s-42.267-28.116-67.633-28.116h-446.36c-25.367 0-49.696 10.113-67.634 28.116s-28.015 42.423-28.015 67.881v448.002c0 25.461 10.077 49.879 28.015 67.882s42.266 28.118 67.634 28.118z" />
<glyph unicode="&#xe925;" glyph-name="youtube" d="M612.668 176.666v104.667c0 22.221-6.445 33.333-19.336 33.333-7.554 0-14.886-3.555-21.998-10.667v-149.331c7.112-7.112 14.444-10.667 21.998-10.667 12.891 0 19.336 10.89 19.336 32.666zM735.334 258.001h44v22.666c0 22.666-7.335 34-22.001 34s-21.998-11.334-21.998-34v-22.666zM354.667 435.335v-46.668h-53.333v-282.001h-49.334v282.001h-52v46.668h154.667zM488.667 351.334v-244.669h-44.667v26.668c-17.335-20-34.222-30-50.668-30-14.667 0-24 6.223-27.999 18.666-2.668 7.557-3.999 19.555-3.999 36.001v193.334h44v-180.002c0-10.667 0.222-16.443 0.667-17.332 0.442-6.668 3.777-10 10-10 8.888 0 18.221 6.887 27.999 20.667v186.666h44.667zM656.668 277.334v-97.336c0-23.11-1.556-39.333-4.667-48.666-5.334-18.666-17.113-27.999-35.334-27.999-15.556 0-30.667 9.111-45.334 27.332v-24h-44.667v328.669h44.667v-107.336c14.222 17.78 29.333 26.668 45.334 26.668 18.221 0 30-9.333 35.334-27.999 3.11-9.333 4.667-25.778 4.667-49.333zM824.001 191.333v-6.001c0-12.888-0.445-22.443-1.334-28.666-1.334-9.778-4.667-18.666-10-26.665-12.001-17.78-29.778-26.668-53.333-26.668-23.113 0-41.112 8.444-54 25.334-9.333 11.998-14 31.112-14 57.332v86.001c0 26.22 4.444 45.334 13.332 57.332 12.888 16.89 30.667 25.334 53.333 25.334s40-8.444 51.999-25.334c9.336-12.888 14.002-31.999 14.002-57.332v-50.668h-88.667v-43.333c0-22.668 7.554-34 22.666-34 10.667 0 17.335 5.778 20 17.332 0 0.445 0.111 2.001 0.334 4.667 0.222 2.668 0.334 6.334 0.334 11.001v14.333h45.334zM523.334 740.667v-103.999c0-22.668-7.112-34-21.334-34s-21.334 11.331-21.334 34v103.999c0 23.111 7.112 34.667 21.334 34.667s21.334-11.555 21.334-34.667zM878.668 265.333c0 78.667-4.225 136.444-12.668 173.334-4.444 19.555-14 35.89-28.666 49s-31.557 20.778-50.668 22.999c-60.442 6.668-152 10-274.666 10-122.222 0-213.557-3.332-274-10-19.556-2.221-36.556-9.889-51-22.999s-23.889-29.444-28.333-49c-8.889-38.666-13.333-96.446-13.333-173.334 0-78.222 4.444-135.999 13.333-173.334 4.444-19.111 13.889-35.334 28.333-48.666s31.222-21.112 50.333-23.333c60.888-6.668 152.445-10 274.667-10s213.779 3.332 274.666 10c19.111 2.221 35.89 10 50.334 23.333s23.888 29.556 28.333 48.666c8.888 37.335 13.335 95.112 13.335 173.334zM375.334 699.333l60.001 197.334h-50l-34-130-35.334 130h-52c3.111-10.222 8.222-25.556 15.333-46l16-46c15.556-45.778 25.778-80.889 30.667-105.333v-134h49.333v134zM568.001 645.334v86.666c0 25.778-4.667 45.111-14.002 58-12.888 16.889-30.22 25.333-51.999 25.333-22.666 0-40-8.444-51.999-25.333-9.336-12.889-14.002-32.222-14.002-58v-86.666c0-25.778 4.667-45.112 14.002-57.999 11.998-16.89 29.333-25.334 51.999-25.334 21.779 0 39.111 8.444 51.999 25.334 9.336 11.998 14.002 31.331 14.002 57.999zM688.666 565.333h44.667v246.667h-44.667v-188.668c-9.778-13.777-19.111-20.664-27.999-20.664-6.668 0-10.222 3.555-10.667 10.664-0.445 0.889-0.667 6.668-0.667 17.335v181.333h-44.667v-195.333c0-16.445 1.334-28.666 3.999-36.668 4.889-11.998 14.444-17.999 28.669-17.999 15.998 0 33.11 10 51.332 30v-26.668zM1024 768v-640c0-52.888-18.777-98.111-56.335-135.665-37.554-37.557-82.777-56.335-135.665-56.335h-640c-52.889 0-98.111 18.777-135.667 56.335-37.556 37.554-56.333 82.777-56.333 135.665v640c0 52.889 18.778 98.111 56.333 135.667s82.778 56.333 135.667 56.333h640c52.888 0 98.111-18.778 135.665-56.333 37.557-37.555 56.335-82.778 56.335-135.667z" />
</font>
</defs>
</svg>
