<svg width="40" height="40" viewBox="0 0 40 40" fill="none" xmlns="http://www.w3.org/2000/svg">
<path fill-rule="evenodd" clip-rule="evenodd" d="M29.7094 37.4378C26.82 39.0683 23.5119 40 19.9734 40C14.1108 40 8.83456 37.4378 5.19141 33.3722C8.83456 32.2499 12.5615 33.0546 16.8537 36.4214C20.1618 37.6919 25.6684 36.2308 29.7094 37.4378Z" fill="white"/>
<path fill-rule="evenodd" clip-rule="evenodd" d="M1.00391 13.4462C2.99298 7.30542 7.87146 2.43512 14.0899 0.46582C15.9534 2.15984 17.084 4.57382 17.084 7.26307C17.084 12.3875 12.9593 16.559 7.8924 16.559C5.14956 16.559 2.69986 15.3308 1.00391 13.4462Z" fill="white"/>
<path fill-rule="evenodd" clip-rule="evenodd" d="M37.5426 10.1218C36.4538 10.5453 35.2604 10.757 34.0251 10.757C26.9691 10.757 23.7656 6.05612 23.9959 0.105876V0C29.8375 1.20699 34.737 4.97618 37.5426 10.1218Z" fill="white"/>
<path d="M20.6852 8.80885C21.7259 8.80885 22.5696 8.08833 22.5696 7.19953C22.5696 6.31073 21.7259 5.59021 20.6852 5.59021C19.6445 5.59021 18.8008 6.31073 18.8008 7.19953C18.8008 8.08833 19.6445 8.80885 20.6852 8.80885Z" fill="white"/>
<path fill-rule="evenodd" clip-rule="evenodd" d="M1.92626 28.3748C0.690942 25.8549 0 22.9116 0 19.7776C0 18.2954 0.146564 16.8554 0.418753 15.4155C3.14065 16.3684 5.10879 19.0577 5.10879 22.1916C5.10879 24.7115 3.83159 26.9349 1.92626 28.3748Z" fill="white"/>
<path fill-rule="evenodd" clip-rule="evenodd" d="M18.9686 10.524C18.6336 13.0439 17.2099 14.7803 15.0742 15.9661C23.0933 21.2599 30.8612 21.1117 39.1106 16.5166C39.99 15.7543 39.1734 15.1402 38.9222 15.1191C31.6987 15.7543 24.7683 14.145 18.9686 10.524Z" fill="white"/>
<path fill-rule="evenodd" clip-rule="evenodd" d="M6.40625 22.9751L8.75127 19.8623C10.0703 18.4436 11.6616 18.4859 13.4413 19.5024C15.6398 21.1117 18.3198 22.0222 21.2301 22.2128C27.5533 22.6575 30.7777 22.0646 35.719 21.0905C37.2055 20.794 38.6083 20.1164 39.9902 19.4388C40.0321 20.7517 39.9274 22.1493 39.718 23.568C34.2533 27.1466 27.7417 28.2901 21.2092 27.5066C17.566 26.9137 16.8751 23.8645 13.8601 22.9327C11.3057 22.1281 8.83502 22.3398 6.40625 22.9751Z" fill="white"/>
<path fill-rule="evenodd" clip-rule="evenodd" d="M5.83984 29.4759C6.55172 28.9677 7.24267 28.3748 7.8708 27.6337C8.64549 26.7443 8.93862 26.0879 10.0274 25.5797C11.6186 24.8386 13.2099 24.8597 14.9058 26.2573C17.7743 28.5442 20.5171 29.8783 23.239 30.3865C26.2959 30.9794 29.311 30.5135 32.2004 29.2007L36.5135 27.2949C36.3041 29.1795 35.4876 31.0005 34.0847 32.631C32.1794 34.3462 30.2113 35.405 28.1803 35.892C27.6778 35.9979 27.1544 36.0826 26.6519 36.1461C21.6896 36.6332 15.6596 34.1133 11.5768 31.5088C10.1321 30.1747 8.31049 29.5606 5.83984 29.4759Z" fill="white"/>
</svg>
