<svg width="57" height="33" viewBox="0 0 57 33" fill="none" xmlns="http://www.w3.org/2000/svg">
<path d="M31.9087 15.9965C31.9087 24.9665 24.8205 32.1425 15.9602 32.1425C7.2476 32.1425 0.0117188 24.9665 0.0117188 15.9965C0.0117188 7.17599 7.2476 0 15.9602 0C24.8205 0 31.9087 7.17599 31.9087 15.9965Z" fill="#D81E05"/>
<path d="M40.3719 0C36.2371 0 32.5453 1.495 29.5919 4.186C29.1489 4.6345 28.5582 5.23249 28.1152 5.83049H31.2163C31.6593 6.42849 32.1023 6.87699 32.5453 7.47499H26.7861C26.4908 8.07299 26.1955 8.67099 25.9001 9.26899H33.4313C33.579 9.86699 33.8743 10.3155 34.022 10.9135H25.3094C25.0141 11.5115 24.8664 12.1095 24.7188 12.7075H34.465C34.7604 13.754 34.908 14.95 34.908 15.9965C34.908 17.7905 34.6127 19.5845 34.022 21.229H25.3094C25.4571 21.827 25.6048 22.2755 25.9001 22.8735H33.4313C33.136 23.4715 32.8406 24.0695 32.5453 24.6675H26.7861C27.2292 25.2655 27.6722 25.714 28.1152 26.312H31.2163C30.7733 26.91 30.1826 27.508 29.5919 27.9565C32.5453 30.6475 36.2371 32.1425 40.3719 32.1425C49.0844 32.1425 56.3203 24.9665 56.3203 15.9965C56.3203 7.17599 49.0844 0 40.3719 0Z" fill="#FCA311"/>
<path d="M54.1055 25.1163C54.1055 24.8173 54.4008 24.5183 54.6962 24.5183C54.9915 24.5183 55.1392 24.8173 55.1392 25.1163C55.1392 25.2658 54.9915 25.5648 54.6962 25.5648C54.4008 25.5648 54.1055 25.2658 54.1055 25.1163ZM54.6962 25.4153C54.8438 25.4153 54.9915 25.2658 54.9915 25.1163C54.9915 24.8173 54.8438 24.6678 54.6962 24.6678C54.4008 24.6678 54.2531 24.8173 54.2531 25.1163C54.2531 25.2658 54.4008 25.4153 54.6962 25.4153ZM54.5485 25.2658H54.4008V24.8173H54.6962C54.6962 24.8173 54.6962 24.8173 54.8438 24.8173V24.9668C54.8438 24.9668 54.8438 25.1163 54.6962 25.1163L54.8438 25.2658H54.6962V25.1163H54.5485V25.2658ZM54.5485 24.9668H54.6962H54.5485Z" fill="#FCA311"/>
<path d="M12.2668 17.791C12.1191 17.791 11.9714 17.791 11.8238 17.791C10.9377 17.791 10.347 18.09 10.347 18.8375C10.347 19.286 10.6424 19.4355 11.0854 19.4355C11.6761 19.4355 12.2668 18.8375 12.2668 17.791ZM13.4481 20.781C13.3005 20.781 12.1191 20.781 12.1191 20.781V20.0335C11.6761 20.6315 11.0854 20.9305 10.347 20.9305C9.31334 20.9305 8.72266 20.183 8.72266 19.1365C8.72266 17.492 9.90403 16.595 11.8238 16.595C11.9714 16.595 12.2668 16.595 12.4144 16.595C12.5621 16.296 12.5621 16.296 12.5621 16.1465C12.5621 15.698 12.2668 15.5485 11.3807 15.5485C10.6424 15.5485 9.90403 15.698 9.60868 15.8475C9.60868 15.698 9.90403 14.3525 9.90403 14.3525C10.6424 14.0535 11.2331 14.0535 11.9714 14.0535C13.4481 14.0535 14.1865 14.6515 14.1865 15.997C14.1865 16.296 14.1865 16.7445 14.0388 17.193C13.8912 18.2395 13.5958 20.3325 13.4481 20.781Z" fill="#192168"/>
<path d="M7.98739 20.7811H6.21534L7.24903 14.5021L5.03398 20.7811H3.85261L3.70494 14.5021L2.67125 20.7811H1.04688L2.37591 12.5586H4.88631L5.03398 17.1931L6.51068 12.5586H9.31642L7.98739 20.7811Z" fill="#192168"/>
<path d="M42.4386 17.791C42.291 17.791 42.1433 17.791 42.1433 17.791C41.1096 17.791 40.6666 18.09 40.6666 18.8375C40.6666 19.286 40.8143 19.4355 41.2573 19.4355C41.9956 19.4355 42.4386 18.8375 42.4386 17.791ZM43.7677 20.781C43.4723 20.781 42.291 20.781 42.291 20.781V20.0335C41.8479 20.6315 41.2573 20.9305 40.5189 20.9305C39.6329 20.9305 38.8945 20.183 38.8945 19.1365C38.8945 17.492 40.0759 16.595 41.9956 16.595C42.1433 16.595 42.4386 16.595 42.734 16.595C42.734 16.296 42.734 16.296 42.734 16.1465C42.734 15.698 42.4386 15.5485 41.7003 15.5485C40.8143 15.5485 40.0759 15.698 39.7806 15.8475C39.7806 15.698 40.0759 14.3525 40.0759 14.3525C40.9619 14.0535 41.5526 14.0535 42.1433 14.0535C43.62 14.0535 44.3584 14.6515 44.3584 15.997C44.3584 16.296 44.3584 16.7445 44.2107 17.193C44.063 18.2395 43.7677 20.3325 43.7677 20.781Z" fill="#192168"/>
<path d="M24.1276 20.631C23.6846 20.7805 23.3892 20.93 22.9462 20.93C22.0602 20.93 21.6172 20.332 21.6172 19.435C21.6172 19.136 21.7649 18.3885 21.7649 17.641C21.9125 17.043 22.5032 13.156 22.5032 13.156H24.2753L24.1276 14.2025H25.1613L24.866 15.6975H23.8323C23.6846 17.043 23.3892 18.538 23.3892 18.837C23.3892 19.136 23.5369 19.2855 23.9799 19.2855C24.1276 19.2855 24.2753 19.2855 24.4229 19.2855L24.1276 20.631Z" fill="#192168"/>
<path d="M29.4442 20.6315C28.8535 20.781 28.2629 20.9305 27.6722 20.9305C25.7524 20.9305 24.7188 19.884 24.7188 17.9405C24.7188 15.698 26.0478 14.0535 27.8198 14.0535C29.1489 14.0535 30.0349 14.9505 30.0349 16.4455C30.0349 16.894 30.0349 17.3425 29.8872 18.09H26.4908C26.3431 18.987 26.9338 19.4355 27.9675 19.4355C28.5582 19.4355 29.1489 19.286 29.7396 18.987L29.4442 20.6315ZM28.5582 16.7445C28.5582 16.595 28.7059 15.5485 27.6722 15.5485C27.0815 15.5485 26.7861 15.997 26.6385 16.7445H28.5582Z" fill="#192168"/>
<path d="M14.4852 16.296C14.4852 17.0435 14.9282 17.6415 15.8142 18.09C16.5526 18.389 16.7003 18.5385 16.7003 18.8375C16.7003 19.286 16.4049 19.4355 15.6666 19.4355C15.2236 19.4355 14.6329 19.286 14.1899 19.1365C14.1899 19.1365 13.8945 20.6315 13.8945 20.781C14.3375 20.781 14.6329 20.9305 15.6666 20.9305C17.5863 20.9305 18.3246 20.183 18.3246 18.688C18.3246 17.791 18.0293 17.193 17.1433 16.894C16.4049 16.4455 16.4049 16.4455 16.4049 16.1465C16.4049 15.698 16.5526 15.5485 17.1433 15.5485C17.5863 15.5485 18.0293 15.5485 18.4723 15.698L18.62 14.203C18.177 14.0535 17.5863 14.0535 17.1433 14.0535C15.2236 14.0535 14.4852 14.9505 14.4852 16.296Z" fill="#192168"/>
<path d="M37.8617 14.2029C38.3047 14.2029 38.7477 14.3524 39.3384 14.6514L39.6338 12.8574C39.4861 12.7079 38.6001 12.1099 37.8617 12.1099C36.6804 12.1099 35.6467 12.7079 34.9083 13.7544C34.0223 13.3059 33.5793 14.0534 32.9886 14.6514L32.5456 14.8009C32.6932 14.6514 32.6932 14.3524 32.6932 14.2029H31.0689C30.9212 16.1464 30.4782 18.2394 30.1828 20.3324L30.0352 20.7809H31.8072C32.1026 18.8374 32.2502 17.6414 32.3979 16.8939L32.9886 16.4454C33.1362 16.1464 33.4316 15.9969 34.0223 15.9969C33.8746 16.4454 33.8746 16.8939 33.8746 17.3424C33.8746 19.5849 35.056 20.9304 36.9757 20.9304C37.4187 20.9304 37.8617 20.7809 38.4524 20.6314L38.7477 18.8374C38.1571 19.1364 37.714 19.2859 37.271 19.2859C36.2373 19.2859 35.6467 18.5384 35.6467 17.1929C35.6467 15.3989 36.5327 14.2029 37.8617 14.2029Z" fill="#192168"/>
<path d="M52.4813 12.5586L52.0383 14.9506C51.5953 14.3526 51.1523 13.9041 50.4139 13.9041C49.5279 13.9041 48.7895 14.5021 48.1988 15.5486C47.6081 15.3991 46.8698 15.1001 46.8698 15.1001C46.8698 14.6516 46.8698 14.2031 46.8698 14.2031H45.2454C45.0977 16.1466 44.6547 18.2396 44.3594 20.3326V20.7811H45.9838C46.2791 19.2861 46.4268 17.9406 46.5744 17.0436C47.1651 16.4456 47.4605 15.9971 48.0512 15.9971C47.7558 16.5951 47.6081 17.3426 47.6081 18.0901C47.6081 19.8841 48.4942 20.9306 49.6755 20.9306C50.4139 20.9306 50.8569 20.6316 51.2999 20.1831V20.7811H52.9243L54.2533 12.5586H52.4813ZM50.2662 19.2861C49.6755 19.2861 49.3802 18.8376 49.3802 17.9406C49.3802 16.5951 49.9709 15.6981 50.7092 15.6981C51.2999 15.6981 51.7429 16.1466 51.7429 17.0436C51.7429 18.3891 51.1523 19.2861 50.2662 19.2861Z" fill="#192168"/>
<path d="M8.57728 20.3324H6.80522L7.83892 14.0534L5.62385 20.3324H4.44248L4.2948 14.0534L3.2611 20.3324H1.63672L2.96576 12.1099H5.47618V17.1929L7.10056 12.1099H9.90632L8.57728 20.3324Z" fill="#FEFEFE"/>
<path d="M12.7121 17.3423C12.5644 17.3423 12.5644 17.3423 12.4167 17.3423C11.383 17.3423 10.94 17.6413 10.94 18.3888C10.94 18.6878 11.0877 18.9868 11.5307 18.9868C12.2691 18.9868 12.7121 18.3888 12.7121 17.3423ZM14.0411 20.3323C13.7458 20.3323 12.5644 20.3323 12.5644 20.3323V19.5848C12.1214 20.1828 11.5307 20.4818 10.7923 20.4818C9.90632 20.4818 9.16797 19.7343 9.16797 18.5383C9.16797 17.0433 10.3493 15.9968 12.2691 15.9968C12.4167 15.9968 12.7121 15.9968 13.0074 16.1463C13.0074 15.8473 13.0074 15.8473 13.0074 15.6978C13.0074 15.2493 12.7121 15.0998 11.9737 15.0998C11.0877 15.0998 10.3493 15.2493 10.054 15.3988C10.054 15.2493 10.3493 13.9038 10.3493 13.9038C11.2354 13.6048 11.826 13.4553 12.4167 13.4553C13.8934 13.4553 14.6318 14.2028 14.6318 15.3988C14.6318 15.8473 14.6318 16.2958 14.4841 16.7443C14.3364 17.7908 14.0411 19.7343 14.0411 20.3323Z" fill="#FEFEFE"/>
<path d="M40.224 12.4085L39.9287 14.2025C39.338 13.754 38.895 13.754 38.3043 13.754C37.1229 13.754 36.0892 14.95 36.0892 16.744C36.0892 17.94 36.8276 18.6875 37.7136 18.6875C38.1566 18.6875 38.5996 18.538 39.1903 18.3885L38.895 20.1825C38.3043 20.332 37.8613 20.4815 37.4183 20.4815C35.4985 20.4815 34.4648 19.136 34.4648 16.8935C34.4648 13.9035 35.9415 11.96 38.3043 11.96C39.0426 11.96 39.9287 12.259 40.224 12.4085Z" fill="#FEFEFE"/>
<path d="M43.0285 17.3423C42.7331 17.3423 42.7331 17.3423 42.5855 17.3423C41.5518 17.3423 41.1088 17.6413 41.1088 18.3888C41.1088 18.6878 41.4041 18.9868 41.6994 18.9868C42.4378 18.9868 42.8808 18.3888 43.0285 17.3423ZM44.2098 20.3323C44.0622 20.3323 42.7331 20.3323 42.7331 20.3323L42.8808 19.5848C42.4378 20.1828 41.8471 20.4818 40.9611 20.4818C40.0751 20.4818 39.4844 19.7343 39.4844 18.5383C39.4844 17.0433 40.5181 15.9968 42.4378 15.9968C42.7331 15.9968 42.8808 15.9968 43.1761 16.1463C43.1761 15.8473 43.1761 15.8473 43.1761 15.6978C43.1761 15.2493 42.8808 15.0998 42.1425 15.0998C41.2564 15.0998 40.6657 15.2493 40.3704 15.3988C40.3704 15.2493 40.5181 13.9038 40.5181 13.9038C41.4041 13.6048 41.9948 13.4553 42.5855 13.4553C44.0622 13.4553 44.9482 14.2028 44.9482 15.3988C44.9482 15.8473 44.8005 16.2958 44.8005 16.7443C44.6529 17.7908 44.2098 19.7343 44.2098 20.3323Z" fill="#FEFEFE"/>
<path d="M24.7206 20.183C24.2776 20.3325 23.8345 20.482 23.3915 20.482C22.5055 20.482 22.0625 19.884 22.0625 18.987C22.0625 18.688 22.2102 17.9405 22.3578 17.193C22.3578 16.595 23.0962 12.708 23.0962 12.708H24.7206L24.5729 13.605H25.4589L25.1636 15.2495H24.4252C24.1299 16.595 23.8345 18.09 23.8345 18.2395C23.8345 18.688 23.9822 18.8375 24.4252 18.8375C24.7206 18.8375 24.8682 18.8375 24.8682 18.688L24.7206 20.183Z" fill="#FEFEFE"/>
<path d="M29.8864 20.1828C29.2957 20.3323 28.8527 20.4818 28.262 20.4818C26.3423 20.4818 25.3086 19.4353 25.3086 17.4918C25.3086 15.2493 26.49 13.4553 28.262 13.4553C29.7387 13.4553 30.6248 14.5018 30.6248 15.8473C30.6248 16.4453 30.4771 16.8938 30.3294 17.4918H26.933C26.7853 18.5383 27.5237 18.9868 28.4097 18.9868C29.0004 18.9868 29.5911 18.8373 30.1818 18.5383L29.8864 20.1828ZM29.0004 16.1463C29.0004 16.1463 29.1481 15.0998 28.262 15.0998C27.6713 15.0998 27.2283 15.3988 27.0807 16.1463H29.0004Z" fill="#FEFEFE"/>
<path d="M15.0743 15.6978C15.0743 16.5948 15.5173 17.1928 16.4033 17.6413C16.994 17.9403 17.1417 18.0898 17.1417 18.3888C17.1417 18.8373 16.8463 18.9868 16.2557 18.9868C15.665 18.9868 15.222 18.8373 14.6313 18.6878L14.3359 20.1828C14.779 20.3323 15.0743 20.3323 16.2557 20.4818C18.0277 20.4818 18.9137 19.7343 18.9137 18.2393C18.9137 17.3423 18.4707 16.7443 17.5847 16.2958C16.8463 15.9968 16.8463 15.9968 16.8463 15.6978C16.8463 15.2493 17.1417 15.0998 17.7324 15.0998C18.0277 15.0998 18.4707 15.0998 18.9137 15.2493L19.2091 13.6048C18.7661 13.6048 18.0277 13.4553 17.5847 13.4553C15.665 13.4553 15.0743 14.5018 15.0743 15.6978Z" fill="#FEFEFE"/>
<path d="M53.3677 20.3324H51.7433L51.891 19.7344C51.3003 20.1829 50.8573 20.4819 50.2666 20.4819C48.9376 20.4819 48.1992 19.2859 48.1992 17.6414C48.1992 15.3989 49.3806 13.6049 51.005 13.6049C51.5957 13.6049 52.1863 13.9039 52.6294 14.5019L52.9247 12.1099H54.6968L53.3677 20.3324ZM50.8573 18.8374C51.5957 18.8374 52.1863 17.7909 52.1863 16.5949C52.1863 15.6979 51.891 15.2494 51.3003 15.2494C50.562 15.2494 49.9713 16.1464 49.9713 17.4919C49.9713 18.3889 50.2666 18.8374 50.8573 18.8374Z" fill="#FEFEFE"/>
<path d="M45.8345 13.6051C45.5391 15.6981 45.2438 17.7911 44.9485 19.8841L44.8008 20.3326H46.5728C47.1635 16.2961 47.3112 15.3991 48.1972 15.5486C48.4925 14.6516 48.6402 14.0536 48.9355 13.6051C48.1972 13.4556 47.7542 13.9041 47.3112 14.6516C47.3112 14.3526 47.3112 14.0536 47.3112 13.6051H45.8345Z" fill="#FEFEFE"/>
<path d="M31.511 13.6051C31.3634 15.6981 30.9203 17.7911 30.625 19.8841V20.3326H32.2494C32.9877 16.2961 33.1354 15.3991 34.0214 15.5486C34.1691 14.6516 34.4644 14.0536 34.7598 13.6051C34.0214 13.4556 33.5784 13.9041 32.9877 14.6516C33.1354 14.3526 33.1354 14.0536 33.1354 13.6051H31.511Z" fill="#FEFEFE"/>
<path d="M54.1055 19.7341C54.1055 19.4351 54.4008 19.2856 54.6962 19.2856C54.9915 19.2856 55.1392 19.4351 55.1392 19.7341C55.1392 20.0331 54.9915 20.3321 54.6962 20.3321C54.4008 20.3321 54.1055 20.0331 54.1055 19.7341ZM54.6962 20.1826C54.8438 20.1826 54.9915 20.0331 54.9915 19.7341C54.9915 19.5846 54.8438 19.4351 54.6962 19.4351C54.4008 19.4351 54.2531 19.5846 54.2531 19.7341C54.2531 20.0331 54.4008 20.1826 54.6962 20.1826ZM54.5485 20.0331H54.4008V19.5846H54.6962C54.6962 19.5846 54.6962 19.5846 54.8438 19.5846C54.8438 19.5846 54.8438 19.5846 54.8438 19.7341C54.8438 19.7341 54.8438 19.7341 54.6962 19.8836L54.8438 20.0331H54.6962V19.8836H54.5485V20.0331ZM54.5485 19.7341H54.6962V19.5846H54.5485V19.7341Z" fill="#FEFEFE"/>
</svg>
