<svg width="61" height="20" viewBox="0 0 61 20" fill="none" xmlns="http://www.w3.org/2000/svg">
<path fill-rule="evenodd" clip-rule="evenodd" d="M39.4277 0C34.7022 0 31.3058 2.691 31.3058 6.27899C31.1581 9.11949 33.6685 10.6145 35.4405 11.5115C37.3603 12.4085 38.0986 13.0065 38.0986 13.9035C37.951 15.249 36.4742 15.6975 35.1452 15.6975C33.2255 15.6975 32.1918 15.548 30.5674 14.8005L29.829 14.5015L29.2384 18.6875C30.4197 19.2855 32.4871 19.734 34.7022 19.734C39.723 19.734 43.1194 17.1925 43.1194 13.3055C43.1194 11.063 41.7904 9.41849 38.9847 8.07299C37.3603 7.17599 36.3266 6.57799 36.3266 5.68099C36.3266 4.9335 37.2126 4.0365 39.1323 4.0365C40.7567 4.0365 41.7904 4.3355 42.8241 4.784L43.1194 4.9335L43.8578 0.896999C42.8241 0.4485 41.3474 0 39.4277 0ZM24.3652 0.299L21.2641 19.435H26.1373L29.2384 0.299H24.3652ZM17.1293 0.299L12.4039 13.455L11.9608 10.764C10.7795 7.47499 8.12139 4.0365 5.16797 2.691L9.45043 19.435H14.6189L22.2978 0.299H17.1293ZM52.5704 0.4485C51.389 0.4485 50.503 0.747499 50.06 1.9435L42.8241 19.435H47.8449C47.8449 19.435 48.7309 17.1925 48.8786 16.5945C49.4693 16.5945 54.4901 16.5945 55.2285 16.5945C55.3761 17.342 55.8192 19.435 55.8192 19.435H60.2493L56.4098 0.4485H52.5704ZM52.8657 5.53149L53.3088 7.17599C53.3088 7.17599 54.1948 11.8105 54.3425 12.7075H50.3553C50.7983 11.661 52.2751 7.32549 52.2751 7.32549C52.2751 7.47499 52.7181 6.27899 52.8657 5.53149Z" fill="#0023A0"/>
<path fill-rule="evenodd" clip-rule="evenodd" d="M7.97424 0.298828H0.147671L0 0.747328C6.20219 2.24233 10.1893 6.12932 11.9614 10.7638L10.1893 1.94333C9.89397 0.747328 9.00794 0.448328 7.97424 0.298828Z" fill="#FFAB00"/>
</svg>
