<svg width="61" height="20" viewBox="0 0 61 20" fill="none" xmlns="http://www.w3.org/2000/svg">
<path fill-rule="evenodd" clip-rule="evenodd" d="M39.4283 0C34.7028 0 31.3064 2.691 31.3064 6.27899C31.1587 9.11949 33.6691 10.6145 35.4412 11.5115C37.3609 12.4085 38.0992 13.0065 38.0992 13.9035C37.9516 15.249 36.4749 15.6975 35.1458 15.6975C33.2261 15.6975 32.1924 15.548 30.568 14.8005L29.8297 14.5015L29.239 18.6875C30.4203 19.2855 32.4877 19.734 34.7028 19.734C39.7236 19.734 43.1201 17.1925 43.1201 13.3055C43.1201 11.063 41.791 9.41849 38.9853 8.07299C37.3609 7.17599 36.3272 6.57799 36.3272 5.68099C36.3272 4.9335 37.2132 4.0365 39.1329 4.0365C40.7573 4.0365 41.791 4.3355 42.8247 4.784L43.1201 4.9335L43.8584 0.896999C42.8247 0.4485 41.348 0 39.4283 0ZM24.3658 0.299L21.2647 19.435H26.1379L29.239 0.299H24.3658ZM17.1299 0.299L12.4045 13.455L11.9615 10.764C10.7801 7.47499 8.122 4.0365 5.16858 2.691L9.45104 19.435H14.6195L22.2984 0.299H17.1299ZM52.571 0.4485C51.3896 0.4485 50.5036 0.747499 50.0606 1.9435L42.8247 19.435H47.8455C47.8455 19.435 48.7316 17.1925 48.8792 16.5945C49.4699 16.5945 54.4907 16.5945 55.2291 16.5945C55.3768 17.342 55.8198 19.435 55.8198 19.435H60.2499L56.4105 0.4485H52.571ZM52.8664 5.53149L53.3094 7.17599C53.3094 7.17599 54.1954 11.8105 54.3431 12.7075H50.3559C50.799 11.661 52.2757 7.32549 52.2757 7.32549C52.2757 7.47499 52.7187 6.27899 52.8664 5.53149Z" fill="#0023A0"/>
<path fill-rule="evenodd" clip-rule="evenodd" d="M7.97424 0.298828H0.147671L0 0.747328C6.20219 2.24233 10.1893 6.12932 11.9614 10.7638L10.1893 1.94333C9.89397 0.747328 9.00794 0.448328 7.97424 0.298828Z" fill="#FFAB00"/>
</svg>
