<svg width="149" height="46" viewBox="0 0 149 46" fill="none" xmlns="http://www.w3.org/2000/svg">
<rect x="0.349609" y="0.751953" width="147.828" height="44.5154" rx="10" fill="black"/>
<path d="M50.5845 34.3237L49.7493 31.5817H45.5497L44.7145 34.3237H42.0828L46.1485 22.7569H49.1347L53.2162 34.3237H50.5845ZM49.1663 29.5331L48.3311 26.8541C48.2785 26.6755 48.2076 26.447 48.1183 26.1686C48.0343 25.8849 47.9476 25.5987 47.8583 25.3098C47.7743 25.0156 47.706 24.7608 47.6534 24.5455C47.6009 24.7608 47.5274 25.0287 47.4328 25.3492C47.3435 25.6643 47.2568 25.9637 47.1728 26.2474C47.0888 26.5311 47.0283 26.7333 46.9916 26.8541L46.1642 29.5331H49.1663Z" fill="white"/>
<path d="M59.8698 25.3492C60.8626 25.3492 61.6637 25.7352 62.273 26.5074C62.8876 27.2796 63.1949 28.4116 63.1949 29.9034C63.1949 30.9014 63.0505 31.7419 62.7615 32.4248C62.4726 33.1024 62.0734 33.6146 61.5639 33.9612C61.0544 34.3079 60.4687 34.4813 59.8068 34.4813C59.3813 34.4813 59.0162 34.4287 58.7116 34.3237C58.4069 34.2134 58.1469 34.0742 57.9315 33.9061C57.7162 33.7327 57.5297 33.5489 57.3721 33.3545H57.246C57.288 33.5646 57.3196 33.78 57.3406 34.0006C57.3616 34.2213 57.3721 34.4366 57.3721 34.6467V38.2003H54.9689V25.5146H56.923L57.2618 26.6571H57.3721C57.5297 26.4207 57.7214 26.2027 57.9473 26.0031C58.1732 25.8035 58.4437 25.6459 58.7589 25.5304C59.0793 25.4096 59.4496 25.3492 59.8698 25.3492ZM59.0977 27.2717C58.6774 27.2717 58.3439 27.3584 58.097 27.5317C57.8501 27.7051 57.6689 27.9651 57.5533 28.3118C57.443 28.6585 57.3826 29.0971 57.3721 29.6276V29.8876C57.3721 30.4549 57.4246 30.9356 57.5297 31.3296C57.64 31.7235 57.8212 32.0229 58.0734 32.2278C58.3307 32.4327 58.6827 32.5351 59.1292 32.5351C59.4969 32.5351 59.7989 32.4327 60.0353 32.2278C60.2717 32.0229 60.4477 31.7235 60.5632 31.3296C60.684 30.9303 60.7444 30.4444 60.7444 29.8719C60.7444 29.0104 60.6105 28.3617 60.3426 27.9257C60.0747 27.4897 59.6597 27.2717 59.0977 27.2717Z" fill="white"/>
<path d="M70.5655 25.3492C71.5583 25.3492 72.3594 25.7352 72.9687 26.5074C73.5833 27.2796 73.8906 28.4116 73.8906 29.9034C73.8906 30.9014 73.7461 31.7419 73.4572 32.4248C73.1683 33.1024 72.7691 33.6146 72.2596 33.9612C71.75 34.3079 71.1644 34.4813 70.5025 34.4813C70.077 34.4813 69.7119 34.4287 69.4073 34.3237C69.1026 34.2134 68.8426 34.0742 68.6272 33.9061C68.4118 33.7327 68.2254 33.5489 68.0678 33.3545H67.9417C67.9837 33.5646 68.0153 33.78 68.0363 34.0006C68.0573 34.2213 68.0678 34.4366 68.0678 34.6467V38.2003H65.6646V25.5146H67.6187L67.9575 26.6571H68.0678C68.2254 26.4207 68.4171 26.2027 68.643 26.0031C68.8688 25.8035 69.1394 25.6459 69.4545 25.5304C69.775 25.4096 70.1453 25.3492 70.5655 25.3492ZM69.7934 27.2717C69.3731 27.2717 69.0396 27.3584 68.7927 27.5317C68.5458 27.7051 68.3646 27.9651 68.249 28.3118C68.1387 28.6585 68.0783 29.0971 68.0678 29.6276V29.8876C68.0678 30.4549 68.1203 30.9356 68.2254 31.3296C68.3357 31.7235 68.5169 32.0229 68.769 32.2278C69.0264 32.4327 69.3784 32.5351 69.8249 32.5351C70.1926 32.5351 70.4946 32.4327 70.731 32.2278C70.9674 32.0229 71.1433 31.7235 71.2589 31.3296C71.3797 30.9303 71.4401 30.4444 71.4401 29.8719C71.4401 29.0104 71.3062 28.3617 71.0383 27.9257C70.7704 27.4897 70.3554 27.2717 69.7934 27.2717Z" fill="white"/>
<path d="M88.0251 31.1247C88.0251 31.8076 87.8597 32.4011 87.5287 32.9054C87.1978 33.4097 86.7145 33.7984 86.0789 34.0716C85.4486 34.3447 84.6817 34.4813 83.7782 34.4813C83.379 34.4813 82.9876 34.455 82.6042 34.4025C82.226 34.35 81.8609 34.2738 81.5089 34.174C81.1623 34.0689 80.8313 33.9402 80.5162 33.7879V31.5187C81.0625 31.7603 81.6298 31.9783 82.2181 32.1726C82.8064 32.367 83.3895 32.4642 83.9673 32.4642C84.3665 32.4642 84.6869 32.4116 84.9286 32.3066C85.1754 32.2015 85.354 32.0571 85.4644 31.8732C85.5747 31.6894 85.6298 31.4793 85.6298 31.2429C85.6298 30.954 85.5326 30.7071 85.3383 30.5022C85.1439 30.2974 84.876 30.1056 84.5346 29.927C84.1984 29.7484 83.8176 29.5567 83.3921 29.3518C83.1242 29.2258 82.8327 29.0734 82.5175 28.8948C82.2023 28.711 81.9029 28.4877 81.6193 28.2251C81.3356 27.9625 81.1018 27.6447 80.918 27.2717C80.7394 26.8935 80.6501 26.4418 80.6501 25.9165C80.6501 25.2283 80.8077 24.64 81.1229 24.1515C81.438 23.663 81.8871 23.29 82.4702 23.0326C83.0585 22.77 83.7519 22.6387 84.5504 22.6387C85.1492 22.6387 85.7191 22.7096 86.2602 22.8514C86.8065 22.988 87.3764 23.1876 87.97 23.4502L87.182 25.3492C86.6515 25.1338 86.1761 24.9683 85.7559 24.8528C85.3357 24.7319 84.9076 24.6715 84.4716 24.6715C84.1669 24.6715 83.9069 24.7214 83.6915 24.8212C83.4761 24.9158 83.3133 25.0524 83.203 25.231C83.0927 25.4043 83.0375 25.6065 83.0375 25.8377C83.0375 26.1108 83.1163 26.3419 83.2739 26.5311C83.4367 26.7149 83.6784 26.8935 83.9988 27.0668C84.3245 27.2402 84.729 27.4424 85.2122 27.6736C85.8005 27.952 86.3022 28.2435 86.7172 28.5482C87.1374 28.8476 87.4604 29.2021 87.6863 29.6119C87.9122 30.0163 88.0251 30.5206 88.0251 31.1247Z" fill="white"/>
<path d="M94.1193 32.5666C94.382 32.5666 94.6367 32.5403 94.8836 32.4878C95.1357 32.4353 95.3853 32.3696 95.6321 32.2908V34.0794C95.3747 34.195 95.0543 34.2895 94.6709 34.3631C94.2927 34.4419 93.8777 34.4813 93.4259 34.4813C92.9006 34.4813 92.4279 34.3972 92.0077 34.2291C91.5927 34.0558 91.2644 33.759 91.0227 33.3388C90.7864 32.9133 90.6682 32.3223 90.6682 31.5659V27.319H89.5178V26.3026L90.8415 25.4989L91.5349 23.6393H93.0714V25.5146H95.5376V27.319H93.0714V31.5659C93.0714 31.9021 93.1659 32.1543 93.355 32.3223C93.5494 32.4852 93.8041 32.5666 94.1193 32.5666Z" fill="white"/>
<path d="M105.91 29.9034C105.91 30.6388 105.81 31.2902 105.611 31.8575C105.416 32.4248 105.13 32.9054 104.752 33.2994C104.379 33.6881 103.927 33.9823 103.397 34.1819C102.871 34.3815 102.278 34.4813 101.616 34.4813C100.996 34.4813 100.426 34.3815 99.9062 34.1819C99.3914 33.9823 98.9423 33.6881 98.5588 33.2994C98.1806 32.9054 97.8865 32.4248 97.6763 31.8575C97.4715 31.2902 97.3691 30.6388 97.3691 29.9034C97.3691 28.9264 97.5424 28.099 97.8891 27.4214C98.2358 26.7438 98.7295 26.229 99.3704 25.8771C100.011 25.5251 100.776 25.3492 101.663 25.3492C102.488 25.3492 103.218 25.5251 103.854 25.8771C104.495 26.229 104.996 26.7438 105.359 27.4214C105.726 28.099 105.91 28.9264 105.91 29.9034ZM99.8195 29.9034C99.8195 30.4812 99.8826 30.9671 100.009 31.3611C100.135 31.755 100.332 32.0518 100.6 32.2514C100.867 32.451 101.217 32.5508 101.648 32.5508C102.073 32.5508 102.417 32.451 102.68 32.2514C102.948 32.0518 103.142 31.755 103.263 31.3611C103.389 30.9671 103.452 30.4812 103.452 29.9034C103.452 29.3203 103.389 28.8371 103.263 28.4536C103.142 28.0649 102.948 27.7734 102.68 27.579C102.412 27.3846 102.062 27.2875 101.632 27.2875C100.996 27.2875 100.534 27.5055 100.245 27.9414C99.9613 28.3774 99.8195 29.0314 99.8195 29.9034Z" fill="white"/>
<path d="M113.297 25.3492C113.417 25.3492 113.557 25.357 113.714 25.3728C113.877 25.3833 114.008 25.3991 114.108 25.4201L113.927 27.6736C113.848 27.6473 113.735 27.6289 113.588 27.6184C113.446 27.6026 113.323 27.5948 113.218 27.5948C112.908 27.5948 112.606 27.6342 112.312 27.7129C112.023 27.7917 111.763 27.9204 111.532 28.099C111.301 28.2724 111.117 28.5035 110.98 28.7924C110.849 29.0761 110.783 29.4254 110.783 29.8404V34.3237H108.38V25.5146H110.2L110.555 26.9959H110.673C110.846 26.6965 111.062 26.4234 111.319 26.1765C111.582 25.9243 111.878 25.7247 112.209 25.5777C112.545 25.4253 112.908 25.3492 113.297 25.3492Z" fill="white"/>
<path d="M119.824 25.3492C120.638 25.3492 121.34 25.5067 121.928 25.8219C122.516 26.1318 122.971 26.5836 123.291 27.1772C123.611 27.7707 123.772 28.4956 123.772 29.3518V30.518H118.091C118.117 31.1956 118.319 31.7288 118.697 32.1175C119.081 32.5009 119.611 32.6927 120.289 32.6927C120.851 32.6927 121.366 32.6349 121.833 32.5193C122.301 32.4038 122.782 32.2304 123.275 31.9993V33.8588C122.839 34.0742 122.382 34.2318 121.904 34.3316C121.432 34.4314 120.856 34.4813 120.179 34.4813C119.296 34.4813 118.514 34.3184 117.831 33.9928C117.153 33.6671 116.62 33.1707 116.231 32.5036C115.848 31.8365 115.656 30.996 115.656 29.9822C115.656 28.9526 115.829 28.0964 116.176 27.4135C116.528 26.7254 117.016 26.2106 117.642 25.8692C118.267 25.5225 118.994 25.3492 119.824 25.3492ZM119.84 27.059C119.372 27.059 118.984 27.2087 118.674 27.5081C118.369 27.8075 118.193 28.2776 118.146 28.9185H121.518C121.513 28.5613 121.447 28.2435 121.321 27.9651C121.2 27.6867 121.017 27.4661 120.77 27.3032C120.528 27.1404 120.218 27.059 119.84 27.059Z" fill="white"/>
<path fill-rule="evenodd" clip-rule="evenodd" d="M21.9609 15.3493C28.1489 12.9014 31.0174 13.8055 33.684 16.8906C32.0212 18.5016 30.4581 19.6841 30.4581 22.651C30.4581 25.6179 31.7364 28.0869 34.7333 29.553C33.7029 32.0607 32.8132 34.5667 31.1328 36.2808C29.2593 38.1913 28.33 38.0979 25.8966 37.3126C24.8637 36.9793 23.6875 36.6376 22.3108 36.7212C21.1384 36.7923 20.0895 37.3635 19.083 37.7942C16.7915 38.7747 15.8356 38.1069 14.1598 36.5659C9.98406 32.7259 7.40628 25.7035 8.97511 20.2861C10.7463 14.1696 16.2845 12.0532 21.9609 15.3493ZM27.9656 6.31696C28.3082 7.19267 27.8706 9.32174 26.186 11.2589C25.6268 11.9018 24.9555 12.4142 24.3887 12.8309C23.3181 13.3686 22.303 13.561 21.7026 13.5589C21.6714 11.4061 22.1997 10.2461 23.3853 8.76238C24.9875 6.75687 27.025 6.29811 27.9656 6.31696Z" fill="white"/>
<path d="M48.1824 13.4649H47.4201V12.9229H48.1516C48.4747 12.9229 48.7362 12.8774 48.936 12.7863C49.1357 12.6952 49.2811 12.5689 49.3722 12.4073C49.4633 12.2458 49.5088 12.0592 49.5088 11.8477C49.5088 11.645 49.4589 11.4599 49.359 11.2925C49.2591 11.1221 49.1049 10.987 48.8963 10.8871C48.6877 10.7843 48.4189 10.7328 48.0899 10.7328C47.8431 10.7328 47.6199 10.7798 47.4201 10.8739C47.2204 10.9649 47.0617 11.0927 46.9442 11.2572C46.8267 11.4188 46.7679 11.6053 46.7679 11.8168H45.9175C45.9175 11.5436 45.9748 11.2983 46.0893 11.081C46.2039 10.8606 46.3611 10.6741 46.5608 10.5213C46.7606 10.3656 46.9912 10.2467 47.2527 10.1644C47.5171 10.0821 47.7961 10.041 48.0899 10.041C48.4336 10.041 48.745 10.0807 49.0241 10.16C49.3032 10.2364 49.5426 10.3509 49.7424 10.5037C49.9421 10.6565 50.0949 10.8459 50.2006 11.0721C50.3064 11.2983 50.3593 11.5613 50.3593 11.8609C50.3593 12.0812 50.3079 12.2883 50.205 12.4822C50.1022 12.6761 49.9553 12.8465 49.7644 12.9934C49.5734 13.1403 49.3443 13.2563 49.077 13.3415C48.8096 13.4238 48.5115 13.4649 48.1824 13.4649ZM47.4201 13.0903H48.1824C48.5438 13.0903 48.8655 13.1271 49.1475 13.2005C49.4295 13.2739 49.6674 13.3812 49.8613 13.5222C50.0552 13.6632 50.2021 13.838 50.302 14.0466C50.4048 14.2522 50.4562 14.4887 50.4562 14.756C50.4562 15.0557 50.3975 15.3215 50.28 15.5536C50.1654 15.7857 50.0023 15.9825 49.7908 16.1441C49.5793 16.3056 49.3281 16.4276 49.0373 16.5098C48.7494 16.5921 48.4336 16.6332 48.0899 16.6332C47.8138 16.6332 47.5406 16.5979 47.2703 16.5274C47.003 16.454 46.7606 16.3424 46.5432 16.1925C46.3258 16.0398 46.151 15.8459 46.0188 15.6109C45.8896 15.3759 45.825 15.0938 45.825 14.7648H46.6754C46.6754 14.9793 46.7342 15.1761 46.8517 15.3553C46.9721 15.5345 47.1381 15.6784 47.3496 15.7871C47.5611 15.8929 47.8079 15.9458 48.0899 15.9458C48.4131 15.9458 48.6863 15.8958 48.9095 15.7959C49.1357 15.6931 49.3076 15.5536 49.4251 15.3773C49.5455 15.1981 49.6058 14.9969 49.6058 14.7736C49.6058 14.5768 49.5734 14.4064 49.5088 14.2625C49.4471 14.1156 49.3546 13.9951 49.2312 13.9011C49.1108 13.8071 48.9595 13.7381 48.7773 13.694C48.5981 13.647 48.3896 13.6235 48.1516 13.6235H47.4201V13.0903Z" fill="white"/>
<path d="M53.9506 10.6976L51.8267 16.5451H50.9586L53.4042 10.1291H53.9638L53.9506 10.6976ZM55.7308 16.5451L53.6025 10.6976L53.5893 10.1291H54.1489L56.6033 16.5451H55.7308ZM55.6207 14.1699V14.8662H52.0161V14.1699H55.6207Z" fill="white"/>
<path d="M61.4417 10.1291V10.8254H58.3483V16.5451H57.5023V10.1291H61.4417Z" fill="white"/>
<path d="M64.8524 14.0289H63.1382V13.3371H64.8524C65.1843 13.3371 65.4531 13.2842 65.6588 13.1785C65.8644 13.0727 66.0142 12.9258 66.1082 12.7378C66.2052 12.5498 66.2536 12.3354 66.2536 12.0945C66.2536 11.8741 66.2052 11.667 66.1082 11.4731C66.0142 11.2793 65.8644 11.1236 65.6588 11.006C65.4531 10.8856 65.1843 10.8254 64.8524 10.8254H63.3365V16.5451H62.4861V10.1291H64.8524C65.3371 10.1291 65.7469 10.2129 66.0818 10.3803C66.4167 10.5478 66.6708 10.7798 66.8441 11.0766C67.0174 11.3703 67.1041 11.7067 67.1041 12.0856C67.1041 12.4969 67.0174 12.848 66.8441 13.1388C66.6708 13.4296 66.4167 13.6514 66.0818 13.8042C65.7469 13.954 65.3371 14.0289 64.8524 14.0289Z" fill="white"/>
<path d="M70.1667 14.4167L71.8632 10.1291H72.8414L70.5721 15.4743C70.5074 15.6241 70.4354 15.7695 70.3561 15.9105C70.2768 16.0486 70.1799 16.172 70.0653 16.2807C69.9507 16.3894 69.8083 16.476 69.6379 16.5407C69.4704 16.6053 69.2618 16.6376 69.0121 16.6376C68.9416 16.6376 68.8579 16.6332 68.761 16.6244C68.664 16.6185 68.6009 16.6112 68.5715 16.6023L68.5979 15.9237C68.6302 15.9296 68.6934 15.9355 68.7874 15.9414C68.8814 15.9443 68.9504 15.9458 68.9945 15.9458C69.162 15.9458 69.2942 15.912 69.3911 15.8444C69.488 15.7769 69.5659 15.6917 69.6246 15.5888C69.6863 15.4831 69.7422 15.3759 69.7921 15.2672L70.1667 14.4167ZM68.7257 10.1291L70.5104 14.1259L70.7219 14.9146L70.008 14.9675L67.7739 10.1291H68.7257Z" fill="white"/>
<path d="M75.8202 13.4649H75.0579V12.9229H75.7894C76.1125 12.9229 76.374 12.8774 76.5738 12.7863C76.7735 12.6952 76.9189 12.5689 77.01 12.4073C77.1011 12.2458 77.1466 12.0592 77.1466 11.8477C77.1466 11.645 77.0967 11.4599 76.9968 11.2925C76.8969 11.1221 76.7427 10.987 76.5341 10.8871C76.3255 10.7843 76.0567 10.7328 75.7277 10.7328C75.4809 10.7328 75.2577 10.7798 75.0579 10.8739C74.8581 10.9649 74.6995 11.0927 74.582 11.2572C74.4645 11.4188 74.4057 11.6053 74.4057 11.8168H73.5553C73.5553 11.5436 73.6126 11.2983 73.7271 11.081C73.8417 10.8606 73.9989 10.6741 74.1986 10.5213C74.3984 10.3656 74.629 10.2467 74.8905 10.1644C75.1549 10.0821 75.4339 10.041 75.7277 10.041C76.0714 10.041 76.3828 10.0807 76.6619 10.16C76.941 10.2364 77.1804 10.3509 77.3801 10.5037C77.5799 10.6565 77.7327 10.8459 77.8384 11.0721C77.9442 11.2983 77.9971 11.5613 77.9971 11.8609C77.9971 12.0812 77.9457 12.2883 77.8428 12.4822C77.74 12.6761 77.5931 12.8465 77.4022 12.9934C77.2112 13.1403 76.9821 13.2563 76.7148 13.3415C76.4474 13.4238 76.1493 13.4649 75.8202 13.4649ZM75.0579 13.0903H75.8202C76.1816 13.0903 76.5032 13.1271 76.7853 13.2005C77.0673 13.2739 77.3052 13.3812 77.4991 13.5222C77.693 13.6632 77.8399 13.838 77.9398 14.0466C78.0426 14.2522 78.094 14.4887 78.094 14.756C78.094 15.0557 78.0353 15.3215 77.9177 15.5536C77.8032 15.7857 77.6401 15.9825 77.4286 16.1441C77.2171 16.3056 76.9659 16.4276 76.6751 16.5098C76.3872 16.5921 76.0714 16.6332 75.7277 16.6332C75.4516 16.6332 75.1784 16.5979 74.9081 16.5274C74.6408 16.454 74.3984 16.3424 74.181 16.1925C73.9636 16.0398 73.7888 15.8459 73.6566 15.6109C73.5274 15.3759 73.4627 15.0938 73.4627 14.7648H74.3132C74.3132 14.9793 74.372 15.1761 74.4895 15.3553C74.6099 15.5345 74.7759 15.6784 74.9874 15.7871C75.1989 15.8929 75.4457 15.9458 75.7277 15.9458C76.0508 15.9458 76.3241 15.8958 76.5473 15.7959C76.7735 15.6931 76.9454 15.5536 77.0629 15.3773C77.1833 15.1981 77.2435 14.9969 77.2435 14.7736C77.2435 14.5768 77.2112 14.4064 77.1466 14.2625C77.0849 14.1156 76.9924 13.9951 76.869 13.9011C76.7485 13.8071 76.5973 13.7381 76.4151 13.694C76.2359 13.647 76.0273 13.6235 75.7894 13.6235H75.0579V13.0903Z" fill="white"/>
<path d="M80.099 15.0733L83.2585 10.1291H84.1089V16.5451H83.2585V11.5965L80.099 16.5451H79.2529V10.1291H80.099V15.0733Z" fill="white"/>
<path d="M87.8941 10.1291V16.5451H87.0569V10.1291H87.8941ZM89.9564 10.1291V10.8254H84.9991V10.1291H89.9564Z" fill="white"/>
<path d="M94.9843 15.8532V16.5451H91.5868V15.8532H94.9843ZM91.7587 10.1291V16.5451H90.9082V10.1291H91.7587ZM94.5348 12.8876V13.5795H91.5868V12.8876H94.5348ZM94.9402 10.1291V10.8254H91.5868V10.1291H94.9402Z" fill="white"/>
<path d="M100.563 13.5442H98.9369L98.9281 12.8612H100.404C100.648 12.8612 100.861 12.8201 101.043 12.7378C101.225 12.6556 101.366 12.5381 101.466 12.3853C101.569 12.2296 101.62 12.0445 101.62 11.8301C101.62 11.5951 101.575 11.4041 101.484 11.2572C101.396 11.1074 101.259 10.9987 101.074 10.9311C100.892 10.8606 100.66 10.8254 100.378 10.8254H99.1264V16.5451H98.2759V10.1291H100.378C100.707 10.1291 101.001 10.1629 101.259 10.2305C101.518 10.2951 101.737 10.3979 101.916 10.539C102.098 10.677 102.236 10.8533 102.33 11.0677C102.424 11.2822 102.471 11.5392 102.471 11.8389C102.471 12.1033 102.403 12.3427 102.268 12.5571C102.133 12.7687 101.945 12.942 101.704 13.0771C101.466 13.2123 101.187 13.2989 100.867 13.3371L100.563 13.5442ZM100.523 16.5451H98.602L99.0823 15.8532H100.523C100.794 15.8532 101.023 15.8062 101.211 15.7122C101.402 15.6182 101.547 15.486 101.647 15.3156C101.747 15.1423 101.797 14.9381 101.797 14.7031C101.797 14.4652 101.754 14.2595 101.669 14.0862C101.584 13.9129 101.45 13.7792 101.268 13.6852C101.086 13.5912 100.851 13.5442 100.563 13.5442H99.3511L99.3599 12.8612H101.017L101.197 13.108C101.506 13.1344 101.767 13.2225 101.982 13.3724C102.196 13.5192 102.359 13.7073 102.471 13.9364C102.586 14.1655 102.643 14.4182 102.643 14.6943C102.643 15.0938 102.555 15.4317 102.378 15.7078C102.205 15.981 101.96 16.1896 101.643 16.3335C101.325 16.4746 100.952 16.5451 100.523 16.5451Z" fill="white"/>
</svg>
