<svg width="148" height="45" viewBox="0 0 148 45" fill="none" xmlns="http://www.w3.org/2000/svg">
<path d="M0 7.39782C0 3.31212 3.31212 0 7.39782 0H140.004C144.089 0 147.402 3.31212 147.402 7.39782V36.9891C147.402 41.0748 144.089 44.3869 140.004 44.3869H7.39782C3.31211 44.3869 0 41.0748 0 36.9891V7.39782Z" fill="black"/>
<path d="M30.5276 27.6274C33.9954 25.7223 36.6242 24.2707 36.8508 24.1578C37.5756 23.7721 38.3242 22.7513 36.8508 21.9584C36.375 21.709 33.8138 20.3026 30.5276 18.4888L25.9722 23.092L30.5276 27.6273V27.6274Z" fill="#FFD900"/>
<path d="M25.9722 23.0918L11.467 37.7189C11.8075 37.7641 12.1919 37.6737 12.6451 37.4245C13.5965 36.9034 23.6826 31.3922 30.5277 27.6283L25.9722 23.0918Z" fill="#F43249"/>
<path d="M25.9723 23.0923L30.5278 18.5117C30.5278 18.5117 13.6654 9.30413 12.6451 8.76059C12.2608 8.53281 11.83 8.46515 11.4446 8.53281L25.9723 23.0923Z" fill="#00EE76"/>
<path d="M25.9725 23.0922L11.4448 8.53271C10.8552 8.66911 10.3569 9.1903 10.3569 10.2562V35.9958C10.3569 36.9714 10.7425 37.6741 11.4673 37.7419L25.9725 23.0922Z" fill="#00D3FF"/>
<path d="M47.2855 26.9885H51.7375V32.8069C51.149 33.0013 50.5375 33.1574 49.903 33.2751C49.2684 33.3877 48.5494 33.444 47.746 33.444C46.6304 33.444 45.6837 33.2239 44.9059 32.7839C44.1281 32.3438 43.537 31.6939 43.1328 30.8342C42.7285 29.9745 42.5264 28.9177 42.5264 27.664C42.5264 26.487 42.7515 25.4687 43.2019 24.609C43.6573 23.7493 44.32 23.084 45.1899 22.6132C46.065 22.1424 47.1319 21.907 48.3908 21.907C48.9844 21.907 49.5703 21.971 50.1486 22.0989C50.7268 22.2269 51.2514 22.3932 51.7222 22.5979L50.9315 24.5015C50.5887 24.3275 50.1972 24.1817 49.7571 24.064C49.317 23.9463 48.8565 23.8874 48.3754 23.8874C47.6846 23.8874 47.0833 24.0461 46.5716 24.3633C46.065 24.6806 45.671 25.1258 45.3895 25.6989C45.1132 26.267 44.975 26.9373 44.975 27.71C44.975 28.4418 45.0748 29.0917 45.2744 29.6597C45.4739 30.2226 45.7886 30.6653 46.2185 30.9877C46.6484 31.305 47.2087 31.4636 47.8995 31.4636C48.2373 31.4636 48.5213 31.4482 48.7516 31.4175C48.987 31.3817 49.207 31.3459 49.4117 31.3101V28.9689H47.2855V26.9885Z" fill="white"/>
<path d="M62.5026 28.9843C62.5026 29.7007 62.4054 30.3352 62.2109 30.8879C62.0216 31.4406 61.7427 31.9088 61.3742 32.2926C61.0109 32.6713 60.5708 32.9578 60.054 33.1523C59.5422 33.3468 58.964 33.444 58.3192 33.444C57.7154 33.444 57.1601 33.3468 56.6535 33.1523C56.152 32.9578 55.7145 32.6713 55.3409 32.2926C54.9725 31.9088 54.6859 31.4406 54.4812 30.8879C54.2816 30.3352 54.1819 29.7007 54.1819 28.9843C54.1819 28.0324 54.3507 27.2265 54.6885 26.5663C55.0262 25.9062 55.5072 25.4047 56.1315 25.0618C56.7559 24.719 57.5004 24.5476 58.3652 24.5476C59.1687 24.5476 59.88 24.719 60.4992 25.0618C61.1235 25.4047 61.6122 25.9062 61.9653 26.5663C62.3235 27.2265 62.5026 28.0324 62.5026 28.9843ZM56.5691 28.9843C56.5691 29.5472 56.6305 30.0205 56.7533 30.4043C56.8761 30.7881 57.068 31.0772 57.329 31.2717C57.59 31.4662 57.9303 31.5634 58.3499 31.5634C58.7644 31.5634 59.0996 31.4662 59.3554 31.2717C59.6164 31.0772 59.8058 30.7881 59.9235 30.4043C60.0463 30.0205 60.1077 29.5472 60.1077 28.9843C60.1077 28.4162 60.0463 27.9454 59.9235 27.5719C59.8058 27.1932 59.6164 26.9092 59.3554 26.7199C59.0945 26.5305 58.7542 26.4358 58.3345 26.4358C57.7154 26.4358 57.265 26.6482 56.9836 27.0729C56.7072 27.4977 56.5691 28.1348 56.5691 28.9843Z" fill="white"/>
<path d="M72.7073 28.9843C72.7073 29.7007 72.6101 30.3352 72.4156 30.8879C72.2263 31.4406 71.9474 31.9088 71.579 32.2926C71.2156 32.6713 70.7755 32.9578 70.2587 33.1523C69.747 33.3468 69.1687 33.444 68.5239 33.444C67.9201 33.444 67.3648 33.3468 66.8582 33.1523C66.3567 32.9578 65.9192 32.6713 65.5456 32.2926C65.1772 31.9088 64.8906 31.4406 64.6859 30.8879C64.4864 30.3352 64.3866 29.7007 64.3866 28.9843C64.3866 28.0324 64.5554 27.2265 64.8932 26.5663C65.2309 25.9062 65.712 25.4047 66.3363 25.0618C66.9606 24.719 67.7052 24.5476 68.57 24.5476C69.3734 24.5476 70.0847 24.719 70.7039 25.0618C71.3282 25.4047 71.8169 25.9062 72.17 26.5663C72.5282 27.2265 72.7073 28.0324 72.7073 28.9843ZM66.7738 28.9843C66.7738 29.5472 66.8352 30.0205 66.958 30.4043C67.0808 30.7881 67.2727 31.0772 67.5337 31.2717C67.7947 31.4662 68.135 31.5634 68.5546 31.5634C68.9691 31.5634 69.3043 31.4662 69.5602 31.2717C69.8212 31.0772 70.0105 30.7881 70.1282 30.4043C70.251 30.0205 70.3124 29.5472 70.3124 28.9843C70.3124 28.4162 70.251 27.9454 70.1282 27.5719C70.0105 27.1932 69.8212 26.9092 69.5602 26.7199C69.2992 26.5305 68.9589 26.4358 68.5393 26.4358C67.9201 26.4358 67.4698 26.6482 67.1883 27.0729C66.912 27.4977 66.7738 28.1348 66.7738 28.9843Z" fill="white"/>
<path d="M77.6233 37.067C76.4259 37.067 75.5099 36.8572 74.8753 36.4376C74.2459 36.0231 73.9312 35.4397 73.9312 34.6875C73.9312 34.1706 74.0924 33.7382 74.4148 33.3903C74.7371 33.0423 75.2105 32.7941 75.8348 32.6457C75.5943 32.5433 75.3845 32.377 75.2054 32.1468C75.0263 31.9114 74.9367 31.6632 74.9367 31.4022C74.9367 31.0747 75.0314 30.8035 75.2207 30.5885C75.4101 30.3685 75.6838 30.1536 76.0421 29.9438C75.5917 29.7493 75.2335 29.4371 74.9674 29.0073C74.7064 28.5774 74.576 28.0708 74.576 27.4874C74.576 26.8631 74.7116 26.3335 74.9828 25.8985C75.2591 25.4584 75.6583 25.1233 76.1802 24.893C76.7073 24.6627 77.347 24.5476 78.0992 24.5476C78.2579 24.5476 78.4421 24.5578 78.6519 24.5783C78.8617 24.5987 79.0536 24.6218 79.2276 24.6473C79.4067 24.6729 79.5269 24.6934 79.5884 24.7087H82.582V25.8985L81.2387 26.2439C81.3615 26.4333 81.4536 26.6354 81.515 26.8503C81.5764 27.0653 81.6071 27.293 81.6071 27.5335C81.6071 28.4546 81.2847 29.1736 80.64 29.6904C80.0003 30.2022 79.1099 30.458 77.9687 30.458C77.6975 30.4427 77.4416 30.4222 77.2011 30.3966C77.0834 30.4887 76.9939 30.586 76.9325 30.6883C76.8711 30.7907 76.8404 30.8981 76.8404 31.0107C76.8404 31.1233 76.8864 31.218 76.9785 31.2947C77.0758 31.3664 77.219 31.4227 77.4084 31.4636C77.6028 31.4994 77.8433 31.5173 78.1299 31.5173H79.5884C80.5299 31.5173 81.2464 31.7195 81.7376 32.1237C82.234 32.528 82.4822 33.1216 82.4822 33.9045C82.4822 34.9075 82.0626 35.6854 81.2233 36.238C80.3892 36.7907 79.1892 37.067 77.6233 37.067ZM77.7231 35.5395C78.2809 35.5395 78.7593 35.4858 79.1585 35.3783C79.5628 35.276 79.8724 35.1276 80.0873 34.9331C80.3022 34.7438 80.4097 34.5161 80.4097 34.25C80.4097 34.035 80.3457 33.8636 80.2178 33.7357C80.095 33.6129 79.9056 33.5259 79.6498 33.4747C79.399 33.4235 79.0766 33.3979 78.6826 33.3979H77.4698C77.1832 33.3979 76.9248 33.444 76.6945 33.5361C76.4694 33.6282 76.2902 33.7561 76.1572 33.9199C76.0241 34.0888 75.9576 34.2832 75.9576 34.5033C75.9576 34.8257 76.1111 35.079 76.4182 35.2632C76.7303 35.4474 77.1653 35.5395 77.7231 35.5395ZM78.0992 29.0303C78.5393 29.0303 78.8617 28.8947 79.0664 28.6235C79.2711 28.3523 79.3734 27.9838 79.3734 27.5182C79.3734 27.0013 79.266 26.6149 79.051 26.3591C78.8412 26.0981 78.524 25.9676 78.0992 25.9676C77.6694 25.9676 77.347 26.0981 77.132 26.3591C76.9171 26.6149 76.8097 27.0013 76.8097 27.5182C76.8097 27.9838 76.9146 28.3523 77.1244 28.6235C77.3393 28.8947 77.6642 29.0303 78.0992 29.0303Z" fill="white"/>
<path d="M86.8148 33.2905H84.4736V21.3467H86.8148V33.2905Z" fill="white"/>
<path d="M93.289 24.5476C94.0822 24.5476 94.7654 24.7011 95.3385 25.0081C95.9116 25.31 96.3543 25.7501 96.6664 26.3284C96.9786 26.9066 97.1347 27.6128 97.1347 28.4469V29.583H91.6003C91.6259 30.2431 91.8229 30.7625 92.1914 31.1412C92.5649 31.5148 93.0818 31.7015 93.7419 31.7015C94.2895 31.7015 94.7909 31.6453 95.2464 31.5327C95.7018 31.4201 96.1701 31.2512 96.6511 31.0261V32.8376C96.2263 33.0474 95.7811 33.2009 95.3155 33.2981C94.8549 33.3954 94.2946 33.444 93.6344 33.444C92.7747 33.444 92.0122 33.2854 91.347 32.9681C90.6869 32.6508 90.1675 32.1672 89.7888 31.5173C89.4152 30.8674 89.2284 30.0487 89.2284 29.061C89.2284 28.058 89.3973 27.2239 89.735 26.5587C90.0779 25.8883 90.5538 25.3868 91.1628 25.0542C91.7717 24.7164 92.4805 24.5476 93.289 24.5476ZM93.3044 26.2132C92.8489 26.2132 92.4702 26.3591 92.1683 26.6508C91.8715 26.9425 91.7001 27.4005 91.654 28.0248H94.9393C94.9342 27.6768 94.8703 27.3672 94.7474 27.096C94.6297 26.8248 94.4506 26.6098 94.2101 26.4512C93.9747 26.2926 93.6728 26.2132 93.3044 26.2132Z" fill="white"/>
<path d="M107.834 22.0682C109.282 22.0682 110.339 22.3804 111.004 23.0047C111.669 23.6239 112.002 24.4785 112.002 25.5685C112.002 26.0597 111.928 26.5305 111.779 26.9808C111.631 27.426 111.388 27.8226 111.05 28.1706C110.718 28.5186 110.272 28.7949 109.715 28.9996C109.157 29.1992 108.469 29.299 107.65 29.299H106.629V33.2905H104.249V22.0682H107.834ZM107.711 24.0179H106.629V27.3493H107.412C107.857 27.3493 108.243 27.2904 108.571 27.1727C108.898 27.055 109.152 26.8708 109.331 26.6201C109.51 26.3693 109.6 26.0469 109.6 25.6529C109.6 25.1002 109.446 24.6908 109.139 24.4247C108.832 24.1535 108.356 24.0179 107.711 24.0179Z" fill="white"/>
<path d="M116.749 33.2905H114.408V21.3467H116.749V33.2905Z" fill="white"/>
<path d="M123.2 24.5322C124.352 24.5322 125.235 24.783 125.849 25.2844C126.463 25.7859 126.77 26.5484 126.77 27.5719V33.2905H125.135L124.682 32.1237H124.62C124.375 32.4308 124.124 32.6815 123.868 32.876C123.612 33.0704 123.318 33.2137 122.985 33.3058C122.653 33.3979 122.249 33.444 121.773 33.444C121.266 33.444 120.811 33.3468 120.406 33.1523C120.007 32.9578 119.692 32.661 119.462 32.2619C119.232 31.8576 119.117 31.3459 119.117 30.7267C119.117 29.8158 119.437 29.1455 120.076 28.7156C120.716 28.2806 121.675 28.0401 122.955 27.9941L124.444 27.948V27.5719C124.444 27.1216 124.326 26.7915 124.091 26.5817C123.855 26.3719 123.528 26.267 123.108 26.267C122.694 26.267 122.287 26.3258 121.888 26.4435C121.489 26.5612 121.09 26.7096 120.69 26.8887L119.915 25.3075C120.371 25.067 120.88 24.8776 121.443 24.7395C122.011 24.6013 122.597 24.5322 123.2 24.5322ZM124.444 29.3143L123.538 29.345C122.781 29.3655 122.254 29.5011 121.957 29.7519C121.665 30.0026 121.519 30.3327 121.519 30.7421C121.519 31.1003 121.624 31.3561 121.834 31.5096C122.044 31.6581 122.318 31.7323 122.655 31.7323C123.157 31.7323 123.579 31.5838 123.922 31.287C124.27 30.9902 124.444 30.5681 124.444 30.0205V29.3143Z" fill="white"/>
<path d="M128.431 24.7087H130.995L132.614 29.5369C132.666 29.6904 132.709 29.8465 132.745 30.0052C132.781 30.1638 132.812 30.3276 132.837 30.4964C132.863 30.6653 132.883 30.8418 132.898 31.0261H132.945C132.975 30.7497 133.016 30.4913 133.067 30.2508C133.124 30.0103 133.193 29.7723 133.275 29.5369L134.864 24.7087H137.374L133.743 34.3881C133.523 34.9817 133.236 35.4756 132.883 35.8696C132.53 36.2687 132.123 36.5681 131.663 36.7677C131.207 36.9673 130.706 37.067 130.158 37.067C129.892 37.067 129.662 37.0517 129.467 37.021C129.273 36.9954 129.107 36.9673 128.968 36.9366V35.079C129.076 35.1046 129.211 35.1276 129.375 35.1481C129.539 35.1685 129.71 35.1788 129.89 35.1788C130.217 35.1788 130.498 35.1097 130.734 34.9715C130.969 34.8333 131.166 34.6466 131.325 34.4112C131.484 34.1809 131.609 33.9276 131.701 33.6512L131.839 33.2291L128.431 24.7087Z" fill="white"/>
<path d="M50.9131 15.1013V15.7931H46.0571V15.1013H50.9131ZM46.1937 15.1013V17.3706H45.3521L45.3477 15.1013H46.1937ZM51.6534 15.1013L51.6446 17.3662H50.8029V15.1013H51.6534ZM50.0803 9.37719V10.0734H47.2689V9.37719H50.0803ZM50.8118 9.37719V15.7931H49.9657V9.37719H50.8118ZM46.9781 9.37719H47.8285L47.6963 11.9594C47.6787 12.3472 47.642 12.7056 47.5862 13.0346C47.5304 13.3607 47.4613 13.6589 47.3791 13.9291C47.2968 14.1994 47.2028 14.4418 47.0971 14.6562C46.9913 14.8677 46.8782 15.0513 46.7577 15.207C46.6373 15.3598 46.511 15.4861 46.3788 15.586C46.2495 15.6829 46.1188 15.752 45.9866 15.7931H45.5988V15.1013H45.872C45.9484 15.019 46.0351 14.9 46.132 14.7444C46.2319 14.5887 46.3303 14.3874 46.4273 14.1407C46.5271 13.891 46.6138 13.5869 46.6872 13.2285C46.7636 12.8701 46.815 12.4471 46.8415 11.9594L46.9781 9.37719Z" fill="white"/>
<path d="M57.4877 12.3824V12.7879C57.4877 13.2696 57.4274 13.7015 57.307 14.0834C57.1865 14.4653 57.0132 14.7899 56.787 15.0572C56.5608 15.3245 56.2891 15.5287 55.9718 15.6697C55.6575 15.8107 55.305 15.8812 54.9142 15.8812C54.5353 15.8812 54.1872 15.8107 53.8699 15.6697C53.5556 15.5287 53.2824 15.3245 53.0503 15.0572C52.8211 14.7899 52.6434 14.4653 52.5171 14.0834C52.3908 13.7015 52.3276 13.2696 52.3276 12.7879V12.3824C52.3276 11.9007 52.3893 11.4703 52.5127 11.0913C52.639 10.7094 52.8167 10.3848 53.0459 10.1175C53.275 9.84722 53.5467 9.64159 53.8611 9.50058C54.1784 9.35957 54.5265 9.28906 54.9054 9.28906C55.2961 9.28906 55.6487 9.35957 55.963 9.50058C56.2803 9.64159 56.552 9.84722 56.7782 10.1175C57.0073 10.3848 57.1821 10.7094 57.3026 11.0913C57.426 11.4703 57.4877 11.9007 57.4877 12.3824ZM56.646 12.7879V12.3736C56.646 11.9917 56.6064 11.6539 56.527 11.3601C56.4507 11.0664 56.3376 10.8196 56.1877 10.6198C56.0379 10.4201 55.8543 10.2688 55.6369 10.166C55.4225 10.0631 55.1786 10.0117 54.9054 10.0117C54.641 10.0117 54.4016 10.0631 54.1872 10.166C53.9757 10.2688 53.7935 10.4201 53.6408 10.6198C53.4909 10.8196 53.3749 11.0664 53.2926 11.3601C53.2104 11.6539 53.1693 11.9917 53.1693 12.3736V12.7879C53.1693 13.1727 53.2104 13.5135 53.2926 13.8102C53.3749 14.1039 53.4924 14.3522 53.6452 14.5549C53.8009 14.7546 53.9845 14.9059 54.196 15.0087C54.4104 15.1116 54.6499 15.163 54.9142 15.163C55.1904 15.163 55.4357 15.1116 55.6501 15.0087C55.8646 14.9059 56.0453 14.7546 56.1921 14.5549C56.342 14.3522 56.4551 14.1039 56.5314 13.8102C56.6078 13.5135 56.646 13.1727 56.646 12.7879Z" fill="white"/>
<path d="M62.6345 13.7529H63.4805C63.4365 14.1583 63.3204 14.5211 63.1324 14.8413C62.9444 15.1615 62.6786 15.4156 62.3348 15.6036C61.9911 15.7887 61.5622 15.8812 61.0481 15.8812C60.6721 15.8812 60.3299 15.8107 60.0214 15.6697C59.7159 15.5287 59.453 15.329 59.2326 15.0704C59.0123 14.809 58.8419 14.4961 58.7215 14.1318C58.604 13.7646 58.5452 13.3563 58.5452 12.9068V12.2679C58.5452 11.8184 58.604 11.4115 58.7215 11.0473C58.8419 10.6801 59.0138 10.3657 59.2371 10.1043C59.4633 9.84282 59.735 9.64159 60.0523 9.50058C60.3695 9.35957 60.7265 9.28906 61.1231 9.28906C61.6078 9.28906 62.0176 9.38013 62.3525 9.56227C62.6874 9.7444 62.9474 9.99705 63.1324 10.3202C63.3204 10.6404 63.4365 11.012 63.4805 11.435H62.6345C62.5934 11.1354 62.517 10.8784 62.4054 10.6639C62.2937 10.4465 62.1351 10.2791 61.9294 10.1616C61.7238 10.044 61.455 9.98529 61.1231 9.98529C60.8381 9.98529 60.5869 10.0396 60.3695 10.1483C60.1551 10.257 59.9744 10.4113 59.8275 10.611C59.6836 10.8108 59.5749 11.0502 59.5014 11.3293C59.428 11.6084 59.3913 11.9183 59.3913 12.2591V12.9068C59.3913 13.2212 59.4236 13.5164 59.4882 13.7925C59.5558 14.0687 59.6571 14.311 59.7923 14.5196C59.9274 14.7282 60.0993 14.8927 60.3078 15.0132C60.5164 15.1307 60.7632 15.1894 61.0481 15.1894C61.4095 15.1894 61.6974 15.1321 61.9118 15.0176C62.1263 14.903 62.2878 14.7385 62.3965 14.524C62.5082 14.3096 62.5875 14.0525 62.6345 13.7529Z" fill="white"/>
<path d="M66.878 9.37719V15.7931H66.0407V9.37719H66.878ZM68.9402 9.37719V10.0734H63.9829V9.37719H68.9402Z" fill="white"/>
<path d="M71.8794 13.6648L73.5759 9.37719H74.5542L72.2848 14.7223C72.2202 14.8721 72.1482 15.0176 72.0689 15.1586C71.9896 15.2966 71.8926 15.42 71.7781 15.5287C71.6635 15.6374 71.521 15.7241 71.3506 15.7887C71.1832 15.8533 70.9746 15.8856 70.7249 15.8856C70.6544 15.8856 70.5707 15.8812 70.4737 15.8724C70.3768 15.8665 70.3136 15.8592 70.2842 15.8504L70.3107 15.1718C70.343 15.1777 70.4062 15.1835 70.5002 15.1894C70.5942 15.1923 70.6632 15.1938 70.7073 15.1938C70.8747 15.1938 71.0069 15.16 71.1039 15.0925C71.2008 15.0249 71.2786 14.9397 71.3374 14.8369C71.3991 14.7311 71.4549 14.6239 71.5048 14.5152L71.8794 13.6648ZM70.4385 9.37719L72.2231 13.3739L72.4346 14.1627L71.7208 14.2156L69.4867 9.37719H70.4385Z" fill="white"/>
<path d="M80.4677 9.37719V15.7931H79.6217V10.0734H76.4578V15.7931H75.6073V9.37719H80.4677Z" fill="white"/>
<path d="M86.2006 12.1357V12.8275H82.7283V12.1357H86.2006ZM82.8605 9.37719V15.7931H82.01V9.37719H82.8605ZM86.9409 9.37719V15.7931H86.0949V9.37719H86.9409Z" fill="white"/>
<path d="M93.3921 12.3824V12.7879C93.3921 13.2696 93.3319 13.7015 93.2114 14.0834C93.091 14.4653 92.9177 14.7899 92.6915 15.0572C92.4653 15.3245 92.1935 15.5287 91.8763 15.6697C91.5619 15.8107 91.2094 15.8812 90.8187 15.8812C90.4397 15.8812 90.0916 15.8107 89.7743 15.6697C89.46 15.5287 89.1868 15.3245 88.9547 15.0572C88.7256 14.7899 88.5479 14.4653 88.4215 14.0834C88.2952 13.7015 88.2321 13.2696 88.2321 12.7879V12.3824C88.2321 11.9007 88.2937 11.4703 88.4171 11.0913C88.5434 10.7094 88.7212 10.3848 88.9503 10.1175C89.1795 9.84722 89.4512 9.64159 89.7655 9.50058C90.0828 9.35957 90.4309 9.28906 90.8099 9.28906C91.2006 9.28906 91.5531 9.35957 91.8674 9.50058C92.1847 9.64159 92.4565 9.84722 92.6827 10.1175C92.9118 10.3848 93.0866 10.7094 93.207 11.0913C93.3304 11.4703 93.3921 11.9007 93.3921 12.3824ZM92.5505 12.7879V12.3736C92.5505 11.9917 92.5108 11.6539 92.4315 11.3601C92.3551 11.0664 92.242 10.8196 92.0922 10.6198C91.9424 10.4201 91.7588 10.2688 91.5414 10.166C91.3269 10.0631 91.0831 10.0117 90.8099 10.0117C90.5455 10.0117 90.3061 10.0631 90.0916 10.166C89.8801 10.2688 89.698 10.4201 89.5452 10.6198C89.3954 10.8196 89.2793 11.0664 89.1971 11.3601C89.1148 11.6539 89.0737 11.9917 89.0737 12.3736V12.7879C89.0737 13.1727 89.1148 13.5135 89.1971 13.8102C89.2793 14.1039 89.3968 14.3522 89.5496 14.5549C89.7053 14.7546 89.8889 14.9059 90.1004 15.0087C90.3149 15.1116 90.5543 15.163 90.8187 15.163C91.0948 15.163 91.3401 15.1116 91.5546 15.0087C91.769 14.9059 91.9497 14.7546 92.0966 14.5549C92.2464 14.3522 92.3595 14.1039 92.4359 13.8102C92.5123 13.5135 92.5505 13.1727 92.5505 12.7879Z" fill="white"/>
<path d="M99.1911 12.7923H97.5651L97.5563 12.1092H99.0325C99.2763 12.1092 99.4893 12.0681 99.6714 11.9859C99.8536 11.9036 99.9946 11.7861 100.094 11.6333C100.197 11.4776 100.249 11.2926 100.249 11.0781C100.249 10.8431 100.203 10.6522 100.112 10.5053C100.024 10.3554 99.8873 10.2467 99.7023 10.1792C99.5201 10.1087 99.288 10.0734 99.006 10.0734H97.7546V15.7931H96.9041V9.37719H99.006C99.3351 9.37719 99.6288 9.41098 99.8873 9.47854C100.146 9.54317 100.365 9.64599 100.544 9.787C100.726 9.92507 100.864 10.1013 100.958 10.3158C101.052 10.5302 101.099 10.7873 101.099 11.0869C101.099 11.3513 101.032 11.5907 100.896 11.8052C100.761 12.0167 100.573 12.19 100.332 12.3252C100.094 12.4603 99.8154 12.547 99.4952 12.5852L99.1911 12.7923ZM99.1514 15.7931H97.2302L97.7105 15.1013H99.1514C99.4217 15.1013 99.6509 15.0543 99.8389 14.9603C100.03 14.8663 100.175 14.7341 100.275 14.5637C100.375 14.3904 100.425 14.1862 100.425 13.9512C100.425 13.7132 100.382 13.5076 100.297 13.3343C100.212 13.1609 100.078 13.0273 99.8962 12.9333C99.714 12.8393 99.479 12.7923 99.1911 12.7923H97.9793L97.9881 12.1092H99.645L99.8256 12.356C100.134 12.3824 100.396 12.4706 100.61 12.6204C100.824 12.7673 100.988 12.9553 101.099 13.1844C101.214 13.4136 101.271 13.6662 101.271 13.9424C101.271 14.3419 101.183 14.6797 101.007 14.9559C100.833 15.2291 100.588 15.4376 100.271 15.5816C99.9534 15.7226 99.5803 15.7931 99.1514 15.7931Z" fill="white"/>
</svg>
