<svg width="276" height="550" viewBox="0 0 276 550" fill="none" xmlns="http://www.w3.org/2000/svg">
<path d="M257.893 507.483C257.893 520.858 248.026 532.382 234.665 532.382H44.1135C30.7513 532.382 19.1323 520.858 19.1323 507.483V37.7095C19.1323 24.3341 30.7513 14.555 44.1135 14.555H66.1433C70.8006 14.555 72.5207 14.022 72.8026 19.93C72.9497 23.0007 74.0748 25.3865 75.8772 27.3607C77.6792 29.2982 80.1569 30.8909 83.0079 31.7826C84.9404 32.3894 87.0926 32.939 89.1456 32.939H189.838C191.89 32.939 194.042 32.2638 195.975 31.6585C198.826 30.7653 201.302 29.275 203.106 27.3731C204.908 25.4329 206.033 23.1491 206.179 20.0788C206.459 14.172 208.183 14.555 212.84 14.555H234.665C248.026 14.555 257.893 24.3341 257.893 37.7095V507.483ZM124.568 16.8512H154.413C155.681 16.8512 156.709 17.6392 156.709 18.767C156.709 19.8944 155.681 20.6825 154.413 20.6825H124.568C123.3 20.6825 122.273 19.8944 122.273 18.767C122.273 17.6392 123.3 16.8512 124.568 16.8512ZM170.102 17.5124C170.102 19.3626 168.603 20.8641 166.753 20.8641C164.905 20.8641 163.405 19.3626 163.405 17.5124C163.405 15.6611 164.905 14.1612 166.753 14.1612C168.603 14.1612 170.102 15.6611 170.102 17.5124ZM272.434 124.861V39.2187C272.434 17.5588 254.892 0 233.252 0H42.8811C20.5598 0 2.29661 18.28 2.29661 40.6248V72.0062C1.02822 72.0062 0 73.0343 0 74.3035V90.3898C0 91.6591 1.02822 92.6871 2.29661 92.6871V111.838C1.02822 111.838 0 112.866 0 114.136V148.607C0 149.876 1.02822 150.906 2.29661 150.906V162.396C1.02822 162.396 0 163.424 0 164.693V199.164C0 200.434 1.02822 201.462 2.29661 201.462V509.249C2.29661 531.662 20.6158 550 43.0061 550H233.252C254.802 550 272.434 532.352 272.434 510.781V188.441H273.2C274.468 188.441 275.495 187.412 275.495 186.142V127.159C275.495 125.89 274.468 124.861 273.2 124.861H272.434Z" fill="black"/>
<path d="M257.514 508.221C257.514 521.625 247.647 533.174 234.286 533.174H43.7344C30.3721 533.174 18.7532 521.625 18.7532 508.221V37.4138C18.7532 24.009 30.3721 14.2083 43.7344 14.2083H65.7641C70.4214 14.2083 72.1415 13.6741 72.4234 19.5952C72.5705 22.6725 73.6956 25.0637 75.498 27.0422C77.3 28.984 79.7777 30.5802 82.6288 31.4738C84.5613 32.0821 86.7135 32.6328 88.7664 32.6328H189.458C191.511 32.6328 193.663 31.9561 195.596 31.3493C198.447 30.4542 200.923 28.9608 202.727 27.0546C204.529 25.1101 205.654 22.8213 205.8 19.7444C206.08 13.8245 207.803 14.2083 212.46 14.2083H234.286C247.647 14.2083 257.514 24.009 257.514 37.4138V508.221Z" fill="#FFBB00"/>
<path d="M165.13 203.52C156.417 208.174 146.527 210.818 135.977 210.818C118.058 210.818 101.903 203.176 90.6103 190.997C101.578 187.912 112.859 190.458 125.904 200.604L125.963 200.65L126.033 200.676C131.322 202.691 138.333 202.532 145.486 202.36L145.625 202.357C152.336 202.196 159.196 202.031 165.13 203.52Z" fill="black" stroke="#023047"/>
<path d="M98.1559 138.05C89.8259 138.05 82.3707 134.398 77.1569 128.765C83.3609 110.077 98.3443 95.2463 117.435 89.1559C123.04 94.312 126.432 101.591 126.432 109.693C126.432 125.326 113.741 138.05 98.1559 138.05Z" fill="black" stroke="#023047"/>
<path d="M156.085 110.606C151.061 104.826 148.751 96.797 149.053 87.7603C166.74 91.5641 181.591 102.884 190.254 118.302C187.054 119.459 183.568 120.039 179.961 120.039C169.032 120.039 161.151 116.434 156.085 110.606Z" fill="black" stroke="#023047"/>
<path d="M143.605 109.496C143.605 111.905 141.269 113.992 138.206 113.992C135.143 113.992 132.807 111.905 132.807 109.496C132.807 107.088 135.143 105 138.206 105C141.269 105 143.605 107.088 143.605 109.496Z" fill="black" stroke="#023047"/>
<path d="M88.9375 156.036C88.9375 163.469 85.243 170.067 79.6553 174.461C75.9908 166.832 73.9436 157.971 73.9436 148.542C73.9436 144.173 74.3604 139.921 75.1378 135.672C83.1728 138.722 88.9375 146.729 88.9375 156.036Z" fill="black" stroke="#023047"/>
<path d="M157.999 148.575C145.89 148.423 133.85 144.608 121.602 136.738C127.789 133.129 132.006 127.958 133.213 120.637C151.319 131.649 172.858 136.527 195.286 134.583C195.374 134.602 195.572 134.679 195.814 134.856C196.073 135.045 196.321 135.307 196.474 135.611C196.623 135.907 196.685 136.244 196.585 136.624C196.485 137.003 196.21 137.472 195.601 138.006C182.76 145.09 170.324 148.73 157.999 148.575Z" fill="black" stroke="#023047"/>
<path d="M185.364 153.109L185.366 153.109C189.838 152.224 194.061 150.266 198.16 148.28C198.227 152.024 197.916 155.985 197.327 160.012C180.375 170.948 160.191 174.45 139.913 172.04C134.368 171.143 131.069 168.403 127.944 165.466C127.638 165.178 127.333 164.887 127.027 164.596C124.221 161.925 121.36 159.201 116.983 157.859C109.355 155.477 101.974 155.929 94.7567 157.641L101.224 149.129C103.207 147.022 105.362 146.027 107.667 145.911C109.99 145.795 112.524 146.568 115.254 148.109C122.217 153.156 130.692 156.004 139.875 156.601C159.734 157.986 169.878 156.136 185.364 153.109Z" fill="black" stroke="#023047"/>
<path d="M119.797 169.044L119.797 169.044L119.804 169.049C128.831 176.185 137.491 180.37 146.11 181.966C155.792 183.828 165.334 182.362 174.46 178.251C174.461 178.25 174.462 178.25 174.463 178.25L187.152 172.69C186.364 178.112 183.901 183.356 179.8 188.091C173.897 193.354 167.818 196.589 161.563 198.078C160.009 198.402 158.389 198.662 156.831 198.857C141.479 200.349 122.743 192.615 109.996 184.56C105.65 180.596 100.255 178.659 93.166 178.217C95.0157 176.812 96.8093 175.196 98.4673 173.257C99.0969 172.54 99.6188 171.884 100.1 171.28C101.529 169.484 102.597 168.143 105.051 167.007C107.482 165.884 109.881 165.353 112.301 165.613C114.719 165.871 117.203 166.924 119.797 169.044Z" fill="black" stroke="#023047"/>
<path d="M50.8885 236.732H53.2821L57.7807 248.731L62.2686 236.732H64.6622L58.721 252.29H56.819L50.8885 236.732ZM49.7986 236.732H52.0746L52.47 247.118V252.29H49.7986V236.732ZM63.4761 236.732H65.7628V252.29H63.0807V247.118L63.4761 236.732Z" fill="black"/>
<path d="M75.8653 249.971V244.457C75.8653 244.044 75.7905 243.688 75.6409 243.389C75.4913 243.089 75.2634 242.858 74.957 242.694C74.6578 242.53 74.2803 242.448 73.8244 242.448C73.4041 242.448 73.0408 242.52 72.7344 242.662C72.4281 242.805 72.1895 242.997 72.0185 243.239C71.8475 243.481 71.7621 243.756 71.7621 244.062H69.1975C69.1975 243.606 69.3079 243.164 69.5288 242.737C69.7496 242.309 70.0702 241.928 70.4905 241.594C70.9108 241.259 71.413 240.995 71.9971 240.803C72.5813 240.61 73.2367 240.514 73.9633 240.514C74.8324 240.514 75.6017 240.66 76.2714 240.952C76.9481 241.244 77.4788 241.686 77.8635 242.277C78.2553 242.862 78.4512 243.595 78.4512 244.479V249.618C78.4512 250.145 78.4868 250.619 78.5581 251.04C78.6364 251.453 78.7468 251.812 78.8893 252.119V252.29H76.25C76.1289 252.012 76.0327 251.659 75.9615 251.232C75.8974 250.797 75.8653 250.377 75.8653 249.971ZM76.2393 245.259L76.2607 246.851H74.4121C73.9348 246.851 73.5145 246.897 73.1512 246.99C72.7879 247.075 72.4851 247.203 72.2429 247.374C72.0007 247.545 71.819 247.752 71.6979 247.994C71.5768 248.236 71.5163 248.511 71.5163 248.817C71.5163 249.123 71.5875 249.405 71.73 249.661C71.8725 249.91 72.0791 250.106 72.3498 250.249C72.6276 250.391 72.9624 250.462 73.3542 250.462C73.8814 250.462 74.3408 250.356 74.7326 250.142C75.1316 249.921 75.445 249.654 75.673 249.341C75.9009 249.02 76.022 248.717 76.0363 248.432L76.8697 249.576C76.7843 249.868 76.6382 250.181 76.4316 250.516C76.2251 250.851 75.9544 251.171 75.6195 251.478C75.2918 251.777 74.8965 252.023 74.4334 252.215C73.9775 252.407 73.4504 252.503 72.852 252.503C72.0969 252.503 71.4237 252.354 70.8324 252.055C70.2412 251.748 69.7781 251.339 69.4433 250.826C69.1085 250.306 68.9411 249.718 68.9411 249.063C68.9411 248.45 69.0551 247.909 69.283 247.438C69.5181 246.961 69.86 246.562 70.3088 246.242C70.7647 245.921 71.3204 245.679 71.9758 245.515C72.6311 245.344 73.3791 245.259 74.2197 245.259H76.2393Z" fill="black"/>
<path d="M84.3864 242.951V256.735H81.8112V240.728H84.1834L84.3864 242.951ZM91.9197 246.402V246.626C91.9197 247.467 91.82 248.247 91.6205 248.967C91.4281 249.679 91.1396 250.302 90.755 250.836C90.3774 251.364 89.9108 251.773 89.3552 252.065C88.7995 252.357 88.1584 252.503 87.4318 252.503C86.7123 252.503 86.0818 252.372 85.5404 252.108C85.0061 251.837 84.5538 251.456 84.1834 250.965C83.8129 250.473 83.5137 249.896 83.2858 249.234C83.0649 248.564 82.9082 247.83 82.8156 247.032V246.167C82.9082 245.319 83.0649 244.55 83.2858 243.859C83.5137 243.168 83.8129 242.573 84.1834 242.074C84.5538 241.576 85.0061 241.191 85.5404 240.92C86.0747 240.65 86.698 240.514 87.4104 240.514C88.137 240.514 88.7817 240.657 89.3445 240.942C89.9072 241.22 90.381 241.618 90.7656 242.138C91.1503 242.651 91.4388 243.271 91.6312 243.998C91.8235 244.717 91.9197 245.519 91.9197 246.402ZM89.3445 246.626V246.402C89.3445 245.868 89.2946 245.373 89.1949 244.917C89.0951 244.454 88.9384 244.048 88.7247 243.699C88.511 243.349 88.2367 243.079 87.9019 242.886C87.5742 242.687 87.1789 242.587 86.7158 242.587C86.2599 242.587 85.8681 242.666 85.5404 242.822C85.2127 242.972 84.9385 243.182 84.7176 243.453C84.4968 243.723 84.3258 244.04 84.2047 244.404C84.0836 244.76 83.9981 245.148 83.9483 245.569V247.642C84.0338 248.154 84.1798 248.625 84.3864 249.052C84.593 249.479 84.885 249.821 85.2626 250.078C85.6473 250.327 86.1388 250.452 86.7372 250.452C87.2002 250.452 87.5956 250.352 87.9233 250.153C88.251 249.953 88.5181 249.679 88.7247 249.33C88.9384 248.974 89.0951 248.564 89.1949 248.101C89.2946 247.638 89.3445 247.146 89.3445 246.626Z" fill="black"/>
<path d="M101.253 249.159C101.253 248.902 101.189 248.671 101.061 248.464C100.932 248.251 100.687 248.058 100.323 247.887C99.967 247.716 99.4399 247.56 98.7418 247.417C98.1291 247.282 97.5663 247.121 97.0534 246.936C96.5477 246.744 96.1131 246.512 95.7498 246.242C95.3865 245.971 95.1051 245.65 94.9056 245.28C94.7062 244.91 94.6065 244.482 94.6065 243.998C94.6065 243.528 94.7097 243.082 94.9163 242.662C95.1229 242.242 95.4186 241.871 95.8032 241.551C96.1879 241.23 96.6545 240.977 97.203 240.792C97.7587 240.607 98.3784 240.514 99.0623 240.514C100.031 240.514 100.861 240.678 101.552 241.006C102.25 241.326 102.784 241.764 103.155 242.32C103.525 242.869 103.711 243.488 103.711 244.179H101.135C101.135 243.873 101.057 243.588 100.9 243.325C100.751 243.054 100.523 242.837 100.216 242.673C99.91 242.502 99.5254 242.416 99.0623 242.416C98.6207 242.416 98.2538 242.488 97.9617 242.63C97.6768 242.765 97.4631 242.943 97.3206 243.164C97.1852 243.385 97.1176 243.627 97.1176 243.891C97.1176 244.083 97.1532 244.258 97.2244 244.414C97.3028 244.564 97.431 244.703 97.6091 244.831C97.7872 244.952 98.0294 245.066 98.3357 245.173C98.6491 245.28 99.0409 245.383 99.5111 245.483C100.394 245.668 101.153 245.907 101.787 246.199C102.428 246.484 102.92 246.854 103.262 247.31C103.604 247.759 103.775 248.329 103.775 249.02C103.775 249.533 103.664 250.003 103.443 250.43C103.23 250.851 102.916 251.218 102.503 251.531C102.09 251.837 101.595 252.076 101.018 252.247C100.448 252.418 99.8067 252.503 99.0944 252.503C98.0472 252.503 97.1603 252.318 96.4337 251.948C95.7071 251.57 95.155 251.089 94.7774 250.505C94.407 249.914 94.2218 249.301 94.2218 248.667H96.7115C96.74 249.145 96.8718 249.526 97.1069 249.811C97.3491 250.089 97.6483 250.292 98.0045 250.42C98.3678 250.541 98.7418 250.601 99.1264 250.601C99.5895 250.601 99.9777 250.541 100.291 250.42C100.605 250.292 100.843 250.121 101.007 249.907C101.171 249.686 101.253 249.437 101.253 249.159Z" fill="black"/>
<path d="M111.986 240.728V242.609H105.468V240.728H111.986ZM107.348 237.896H109.924V249.095C109.924 249.451 109.973 249.725 110.073 249.918C110.18 250.103 110.326 250.227 110.511 250.292C110.696 250.356 110.914 250.388 111.163 250.388C111.341 250.388 111.512 250.377 111.676 250.356C111.84 250.334 111.972 250.313 112.071 250.292L112.082 252.258C111.868 252.322 111.619 252.379 111.334 252.429C111.056 252.478 110.736 252.503 110.372 252.503C109.781 252.503 109.257 252.4 108.802 252.194C108.346 251.98 107.989 251.634 107.733 251.157C107.477 250.68 107.348 250.046 107.348 249.255V237.896Z" fill="black"/>
<path d="M119.727 252.503C118.872 252.503 118.099 252.365 117.408 252.087C116.724 251.802 116.14 251.406 115.656 250.901C115.178 250.395 114.812 249.8 114.555 249.116C114.299 248.432 114.17 247.695 114.17 246.904V246.477C114.17 245.572 114.302 244.753 114.566 244.019C114.829 243.285 115.196 242.658 115.666 242.138C116.137 241.611 116.692 241.209 117.333 240.931C117.974 240.653 118.669 240.514 119.417 240.514C120.243 240.514 120.966 240.653 121.586 240.931C122.206 241.209 122.719 241.601 123.125 242.106C123.538 242.605 123.844 243.2 124.044 243.891C124.25 244.582 124.354 245.344 124.354 246.178V247.278H115.421V245.43H121.811V245.227C121.796 244.764 121.704 244.329 121.533 243.923C121.369 243.517 121.116 243.189 120.774 242.94C120.432 242.691 119.976 242.566 119.406 242.566C118.979 242.566 118.598 242.658 118.263 242.844C117.935 243.022 117.661 243.282 117.44 243.624C117.219 243.966 117.048 244.379 116.927 244.863C116.813 245.341 116.756 245.878 116.756 246.477V246.904C116.756 247.41 116.824 247.88 116.959 248.315C117.102 248.742 117.308 249.116 117.579 249.437C117.85 249.757 118.177 250.01 118.562 250.195C118.947 250.373 119.385 250.462 119.876 250.462C120.496 250.462 121.048 250.338 121.533 250.089C122.017 249.839 122.437 249.487 122.794 249.031L124.151 250.345C123.901 250.708 123.577 251.057 123.178 251.392C122.779 251.72 122.291 251.987 121.714 252.194C121.144 252.4 120.482 252.503 119.727 252.503Z" fill="black"/>
<path d="M129.605 242.929V252.29H127.03V240.728H129.487L129.605 242.929ZM133.142 240.653L133.121 243.047C132.964 243.018 132.793 242.997 132.608 242.983C132.43 242.968 132.251 242.961 132.073 242.961C131.632 242.961 131.243 243.025 130.909 243.154C130.574 243.275 130.292 243.453 130.064 243.688C129.844 243.916 129.673 244.194 129.552 244.521C129.43 244.849 129.359 245.216 129.338 245.622L128.75 245.665C128.75 244.938 128.821 244.265 128.964 243.645C129.106 243.025 129.32 242.48 129.605 242.01C129.897 241.54 130.26 241.173 130.695 240.91C131.137 240.646 131.646 240.514 132.223 240.514C132.38 240.514 132.547 240.529 132.725 240.557C132.91 240.585 133.049 240.618 133.142 240.653Z" fill="black"/>
<path d="M147.662 236.732V252.29H145.002V236.732H147.662ZM152.546 236.732V238.869H140.161V236.732H152.546Z" fill="black"/>
<path d="M156.814 242.929V252.29H154.239V240.728H156.696L156.814 242.929ZM160.351 240.653L160.329 243.047C160.173 243.018 160.002 242.997 159.816 242.983C159.638 242.968 159.46 242.961 159.282 242.961C158.84 242.961 158.452 243.025 158.117 243.154C157.783 243.275 157.501 243.453 157.273 243.688C157.052 243.916 156.881 244.194 156.76 244.521C156.639 244.849 156.568 245.216 156.547 245.622L155.959 245.665C155.959 244.938 156.03 244.265 156.173 243.645C156.315 243.025 156.529 242.48 156.814 242.01C157.106 241.54 157.469 241.173 157.904 240.91C158.345 240.646 158.855 240.514 159.432 240.514C159.588 240.514 159.756 240.529 159.934 240.557C160.119 240.585 160.258 240.618 160.351 240.653Z" fill="black"/>
<path d="M168.754 249.971V244.457C168.754 244.044 168.679 243.688 168.53 243.389C168.38 243.089 168.152 242.858 167.846 242.694C167.547 242.53 167.169 242.448 166.713 242.448C166.293 242.448 165.93 242.52 165.623 242.662C165.317 242.805 165.078 242.997 164.907 243.239C164.736 243.481 164.651 243.756 164.651 244.062H162.086C162.086 243.606 162.197 243.164 162.418 242.737C162.639 242.309 162.959 241.928 163.379 241.594C163.8 241.259 164.302 240.995 164.886 240.803C165.47 240.61 166.126 240.514 166.852 240.514C167.721 240.514 168.491 240.66 169.16 240.952C169.837 241.244 170.368 241.686 170.752 242.277C171.144 242.862 171.34 243.595 171.34 244.479V249.618C171.34 250.145 171.376 250.619 171.447 251.04C171.525 251.453 171.636 251.812 171.778 252.119V252.29H169.139C169.018 252.012 168.922 251.659 168.85 251.232C168.786 250.797 168.754 250.377 168.754 249.971ZM169.128 245.259L169.15 246.851H167.301C166.824 246.851 166.403 246.897 166.04 246.99C165.677 247.075 165.374 247.203 165.132 247.374C164.89 247.545 164.708 247.752 164.587 247.994C164.466 248.236 164.405 248.511 164.405 248.817C164.405 249.123 164.476 249.405 164.619 249.661C164.761 249.91 164.968 250.106 165.239 250.249C165.517 250.391 165.851 250.462 166.243 250.462C166.77 250.462 167.23 250.356 167.622 250.142C168.02 249.921 168.334 249.654 168.562 249.341C168.79 249.02 168.911 248.717 168.925 248.432L169.759 249.576C169.673 249.868 169.527 250.181 169.321 250.516C169.114 250.851 168.843 251.171 168.508 251.478C168.181 251.777 167.785 252.023 167.322 252.215C166.866 252.407 166.339 252.503 165.741 252.503C164.986 252.503 164.313 252.354 163.721 252.055C163.13 251.748 162.667 251.339 162.332 250.826C161.997 250.306 161.83 249.718 161.83 249.063C161.83 248.45 161.944 247.909 162.172 247.438C162.407 246.961 162.749 246.562 163.198 246.242C163.654 245.921 164.209 245.679 164.865 245.515C165.52 245.344 166.268 245.259 167.109 245.259H169.128Z" fill="black"/>
<path d="M177.243 243.196V252.29H174.668V240.728H177.094L177.243 243.196ZM176.784 246.081L175.95 246.071C175.957 245.252 176.071 244.5 176.292 243.816C176.52 243.132 176.834 242.545 177.233 242.053C177.639 241.561 178.123 241.184 178.686 240.92C179.249 240.65 179.875 240.514 180.566 240.514C181.122 240.514 181.624 240.593 182.073 240.749C182.529 240.899 182.917 241.145 183.238 241.487C183.566 241.829 183.815 242.274 183.986 242.822C184.157 243.364 184.242 244.03 184.242 244.821V252.29H181.656V244.81C181.656 244.254 181.574 243.816 181.411 243.496C181.254 243.168 181.022 242.936 180.716 242.801C180.417 242.658 180.043 242.587 179.594 242.587C179.152 242.587 178.757 242.68 178.408 242.865C178.059 243.05 177.763 243.303 177.521 243.624C177.286 243.944 177.104 244.315 176.976 244.735C176.848 245.155 176.784 245.604 176.784 246.081Z" fill="black"/>
<path d="M194.014 249.159C194.014 248.902 193.949 248.671 193.821 248.464C193.693 248.251 193.447 248.058 193.084 247.887C192.728 247.716 192.201 247.56 191.502 247.417C190.89 247.282 190.327 247.121 189.814 246.936C189.308 246.744 188.874 246.512 188.511 246.242C188.147 245.971 187.866 245.65 187.666 245.28C187.467 244.91 187.367 244.482 187.367 243.998C187.367 243.528 187.47 243.082 187.677 242.662C187.884 242.242 188.179 241.871 188.564 241.551C188.949 241.23 189.415 240.977 189.964 240.792C190.519 240.607 191.139 240.514 191.823 240.514C192.792 240.514 193.622 240.678 194.313 241.006C195.011 241.326 195.545 241.764 195.916 242.32C196.286 242.869 196.471 243.488 196.471 244.179H193.896C193.896 243.873 193.818 243.588 193.661 243.325C193.511 243.054 193.283 242.837 192.977 242.673C192.671 242.502 192.286 242.416 191.823 242.416C191.381 242.416 191.014 242.488 190.722 242.63C190.437 242.765 190.224 242.943 190.081 243.164C189.946 243.385 189.878 243.627 189.878 243.891C189.878 244.083 189.914 244.258 189.985 244.414C190.063 244.564 190.192 244.703 190.37 244.831C190.548 244.952 190.79 245.066 191.096 245.173C191.41 245.28 191.802 245.383 192.272 245.483C193.155 245.668 193.914 245.907 194.548 246.199C195.189 246.484 195.68 246.854 196.022 247.31C196.364 247.759 196.535 248.329 196.535 249.02C196.535 249.533 196.425 250.003 196.204 250.43C195.99 250.851 195.677 251.218 195.264 251.531C194.851 251.837 194.355 252.076 193.778 252.247C193.209 252.418 192.567 252.503 191.855 252.503C190.808 252.503 189.921 252.318 189.194 251.948C188.468 251.57 187.916 251.089 187.538 250.505C187.168 249.914 186.982 249.301 186.982 248.667H189.472C189.501 249.145 189.632 249.526 189.868 249.811C190.11 250.089 190.409 250.292 190.765 250.42C191.128 250.541 191.502 250.601 191.887 250.601C192.35 250.601 192.738 250.541 193.052 250.42C193.365 250.292 193.604 250.121 193.768 249.907C193.932 249.686 194.014 249.437 194.014 249.159Z" fill="black"/>
<path d="M202.93 252.29H200.355V239.617C200.355 238.755 200.515 238.032 200.836 237.448C201.163 236.856 201.63 236.411 202.235 236.112C202.841 235.806 203.557 235.652 204.383 235.652C204.64 235.652 204.893 235.67 205.142 235.706C205.391 235.734 205.633 235.781 205.868 235.845L205.804 237.832C205.662 237.797 205.505 237.772 205.334 237.757C205.17 237.743 204.992 237.736 204.8 237.736C204.408 237.736 204.07 237.811 203.785 237.96C203.507 238.103 203.293 238.313 203.144 238.591C203.001 238.869 202.93 239.211 202.93 239.617V252.29ZM205.313 240.728V242.609H198.581V240.728H205.313Z" fill="black"/>
<path d="M212.68 252.503C211.825 252.503 211.052 252.365 210.361 252.087C209.677 251.802 209.093 251.406 208.609 250.901C208.131 250.395 207.765 249.8 207.508 249.116C207.252 248.432 207.123 247.695 207.123 246.904V246.477C207.123 245.572 207.255 244.753 207.519 244.019C207.782 243.285 208.149 242.658 208.619 242.138C209.09 241.611 209.645 241.209 210.286 240.931C210.927 240.653 211.622 240.514 212.37 240.514C213.196 240.514 213.919 240.653 214.539 240.931C215.159 241.209 215.672 241.601 216.078 242.106C216.491 242.605 216.797 243.2 216.997 243.891C217.203 244.582 217.307 245.344 217.307 246.178V247.278H208.374V245.43H214.764V245.227C214.749 244.764 214.657 244.329 214.486 243.923C214.322 243.517 214.069 243.189 213.727 242.94C213.385 242.691 212.929 242.566 212.359 242.566C211.932 242.566 211.551 242.658 211.216 242.844C210.888 243.022 210.614 243.282 210.393 243.624C210.172 243.966 210.001 244.379 209.88 244.863C209.766 245.341 209.709 245.878 209.709 246.477V246.904C209.709 247.41 209.777 247.88 209.912 248.315C210.055 248.742 210.261 249.116 210.532 249.437C210.803 249.757 211.13 250.01 211.515 250.195C211.9 250.373 212.338 250.462 212.829 250.462C213.449 250.462 214.001 250.338 214.486 250.089C214.97 249.839 215.39 249.487 215.747 249.031L217.104 250.345C216.854 250.708 216.53 251.057 216.131 251.392C215.732 251.72 215.244 251.987 214.667 252.194C214.098 252.4 213.435 252.503 212.68 252.503Z" fill="black"/>
<path d="M222.558 242.929V252.29H219.983V240.728H222.44L222.558 242.929ZM226.095 240.653L226.074 243.047C225.917 243.018 225.746 242.997 225.561 242.983C225.383 242.968 225.204 242.961 225.026 242.961C224.585 242.961 224.196 243.025 223.862 243.154C223.527 243.275 223.245 243.453 223.018 243.688C222.797 243.916 222.626 244.194 222.505 244.521C222.383 244.849 222.312 245.216 222.291 245.622L221.703 245.665C221.703 244.938 221.774 244.265 221.917 243.645C222.059 243.025 222.273 242.48 222.558 242.01C222.85 241.54 223.213 241.173 223.648 240.91C224.09 240.646 224.599 240.514 225.176 240.514C225.333 240.514 225.5 240.529 225.678 240.557C225.863 240.585 226.002 240.618 226.095 240.653Z" fill="black"/>
<path d="M83.8233 458.769L85.5984 454.216H86.9274L84.4998 459.935C84.423 460.111 84.3351 460.282 84.2359 460.448C84.14 460.611 84.0232 460.757 83.8857 460.885C83.7482 461.013 83.5818 461.115 83.3867 461.192C83.1916 461.265 82.955 461.302 82.6767 461.302C82.6031 461.302 82.5136 461.299 82.408 461.293C82.3057 461.286 82.2305 461.28 82.1825 461.273L82.1921 460.328C82.2305 460.335 82.2945 460.339 82.384 460.343C82.4768 460.346 82.544 460.347 82.5855 460.347C82.771 460.347 82.9182 460.317 83.0269 460.256C83.1357 460.192 83.222 460.108 83.286 460.002C83.3532 459.893 83.4123 459.775 83.4635 459.647L83.8233 458.769ZM82.4896 454.216L84.2455 458.083L84.5909 459.34L83.6554 459.373L81.175 454.216H82.4896Z" fill="white"/>
<path d="M93.2884 458.98H91.6284L91.6188 458.164H92.9813C93.2052 458.164 93.3891 458.142 93.5331 458.097C93.6802 458.053 93.7889 457.985 93.8593 457.896C93.9297 457.803 93.9648 457.691 93.9648 457.56C93.9648 457.451 93.944 457.357 93.9025 457.277C93.8609 457.194 93.7969 457.127 93.7106 457.075C93.6274 457.021 93.5219 456.983 93.3939 456.96C93.2692 456.935 93.1237 456.922 92.9573 456.922H92.0122V461.201H90.856V456.01H92.9573C93.29 456.01 93.589 456.039 93.8545 456.097C94.1232 456.154 94.3518 456.242 94.5405 456.361C94.7293 456.479 94.8732 456.629 94.9723 456.812C95.0747 456.991 95.1259 457.202 95.1259 457.445C95.1259 457.605 95.0907 457.755 95.0203 457.896C94.9531 458.037 94.8524 458.161 94.7181 458.27C94.5837 458.379 94.419 458.468 94.2239 458.539C94.0288 458.606 93.8049 458.647 93.5522 458.663L93.2884 458.98ZM93.2884 461.201H91.2926L91.7532 460.29H93.2884C93.4931 460.29 93.6626 460.264 93.7969 460.213C93.9313 460.162 94.0304 460.088 94.0944 459.992C94.1615 459.893 94.1951 459.776 94.1951 459.642C94.1951 459.505 94.1631 459.386 94.0992 459.287C94.0352 459.188 93.9361 459.113 93.8017 459.062C93.6706 459.007 93.4995 458.98 93.2884 458.98H91.969L91.9786 458.164H93.5474L93.8785 458.481C94.2079 458.504 94.4814 458.574 94.6989 458.692C94.9164 458.811 95.0795 458.959 95.1882 459.138C95.297 459.318 95.3513 459.513 95.3513 459.724C95.3513 459.967 95.305 460.181 95.2122 460.367C95.1227 460.552 94.9883 460.707 94.8092 460.832C94.6333 460.953 94.4174 461.046 94.1615 461.11C93.9057 461.171 93.6146 461.201 93.2884 461.201Z" fill="white"/>
<path d="M99.5705 460.16V457.685C99.5705 457.499 99.5369 457.339 99.4698 457.205C99.4026 457.071 99.3003 456.967 99.1627 456.893C99.0284 456.82 98.8589 456.783 98.6542 456.783C98.4655 456.783 98.3024 456.815 98.1648 456.879C98.0273 456.943 97.9202 457.029 97.8434 457.138C97.7666 457.247 97.7283 457.37 97.7283 457.507H96.5768C96.5768 457.303 96.6264 457.104 96.7256 456.912C96.8247 456.72 96.9686 456.549 97.1573 456.399C97.3461 456.249 97.5715 456.13 97.8338 456.044C98.0961 455.958 98.3903 455.914 98.7166 455.914C99.1068 455.914 99.4522 455.98 99.7528 456.111C100.057 456.242 100.295 456.441 100.468 456.706C100.644 456.968 100.732 457.298 100.732 457.694V460.002C100.732 460.239 100.748 460.451 100.78 460.64C100.815 460.826 100.864 460.987 100.928 461.125V461.201H99.7432C99.6889 461.077 99.6457 460.918 99.6137 460.726C99.5849 460.531 99.5705 460.343 99.5705 460.16ZM99.7384 458.045L99.748 458.759H98.9181C98.7038 458.759 98.5151 458.78 98.3519 458.822C98.1888 458.86 98.0529 458.918 97.9442 458.994C97.8354 459.071 97.7538 459.164 97.6995 459.273C97.6451 459.381 97.6179 459.505 97.6179 459.642C97.6179 459.78 97.6499 459.906 97.7139 460.021C97.7778 460.133 97.8706 460.221 97.9921 460.285C98.1169 460.349 98.2672 460.381 98.4431 460.381C98.6798 460.381 98.8861 460.333 99.062 460.237C99.2411 460.138 99.3818 460.018 99.4842 459.877C99.5865 459.733 99.6409 459.597 99.6473 459.469L100.022 459.983C99.9831 460.114 99.9176 460.255 99.8248 460.405C99.7321 460.555 99.6105 460.699 99.4602 460.837C99.3131 460.971 99.1356 461.081 98.9277 461.168C98.723 461.254 98.4863 461.297 98.2176 461.297C97.8786 461.297 97.5763 461.23 97.3109 461.096C97.0454 460.958 96.8375 460.774 96.6872 460.544C96.5369 460.311 96.4617 460.047 96.4617 459.752C96.4617 459.477 96.5129 459.234 96.6152 459.023C96.7208 458.809 96.8743 458.63 97.0758 458.486C97.2805 458.342 97.53 458.233 97.8242 458.16C98.1185 458.083 98.4543 458.045 98.8317 458.045H99.7384Z" fill="white"/>
<path d="M106.483 460.635L107.894 456.01H109.132L107.049 461.993C107.001 462.121 106.939 462.26 106.862 462.41C106.786 462.561 106.685 462.703 106.56 462.837C106.438 462.975 106.287 463.085 106.104 463.168C105.922 463.255 105.701 463.298 105.442 463.298C105.34 463.298 105.241 463.288 105.145 463.269C105.052 463.253 104.964 463.236 104.881 463.216L104.876 462.334C104.908 462.337 104.946 462.34 104.991 462.343C105.039 462.346 105.078 462.348 105.106 462.348C105.298 462.348 105.458 462.324 105.586 462.276C105.714 462.231 105.818 462.158 105.898 462.055C105.981 461.953 106.051 461.815 106.109 461.643L106.483 460.635ZM105.687 456.01L106.92 459.896L107.126 461.115L106.325 461.321L104.44 456.01H105.687Z" fill="white"/>
<path d="M111.811 459.105L109.738 456.01H111.158L112.367 458.054H113.38L113.231 459.105H111.811ZM112.396 458.937L111.067 461.201H109.647L111.528 458.28L112.396 458.937ZM114.075 456.01V461.201H112.924V456.01H114.075ZM117.275 456.01L115.203 459.105H113.778L113.624 458.054H114.641L115.85 456.01H117.275ZM115.941 461.201L114.608 458.937L115.505 458.28L117.376 461.201H115.941Z" fill="white"/>
<path d="M120.597 461.297C120.213 461.297 119.866 461.235 119.556 461.11C119.249 460.982 118.987 460.805 118.769 460.578C118.555 460.351 118.39 460.084 118.275 459.776C118.16 459.469 118.102 459.138 118.102 458.783V458.591C118.102 458.185 118.162 457.817 118.28 457.488C118.398 457.159 118.563 456.877 118.774 456.644C118.985 456.407 119.235 456.226 119.523 456.102C119.81 455.977 120.122 455.914 120.458 455.914C120.829 455.914 121.154 455.977 121.432 456.102C121.71 456.226 121.941 456.402 122.123 456.629C122.308 456.853 122.446 457.12 122.535 457.43C122.628 457.741 122.675 458.083 122.675 458.457V458.951H118.664V458.121H121.533V458.03C121.526 457.822 121.485 457.627 121.408 457.445C121.334 457.263 121.221 457.115 121.067 457.003C120.914 456.892 120.709 456.836 120.453 456.836C120.261 456.836 120.09 456.877 119.94 456.96C119.793 457.04 119.67 457.157 119.571 457.311C119.471 457.464 119.395 457.65 119.34 457.867C119.289 458.081 119.263 458.323 119.263 458.591V458.783C119.263 459.01 119.294 459.222 119.355 459.417C119.419 459.609 119.511 459.776 119.633 459.92C119.754 460.064 119.902 460.178 120.074 460.261C120.247 460.341 120.444 460.381 120.664 460.381C120.943 460.381 121.191 460.325 121.408 460.213C121.625 460.101 121.814 459.943 121.974 459.738L122.583 460.328C122.471 460.491 122.326 460.648 122.147 460.798C121.968 460.945 121.749 461.065 121.49 461.158C121.234 461.251 120.936 461.297 120.597 461.297Z" fill="white"/>
<path d="M128.901 461.297C128.517 461.297 128.17 461.235 127.86 461.11C127.553 460.982 127.291 460.805 127.073 460.578C126.859 460.351 126.694 460.084 126.579 459.776C126.464 459.469 126.407 459.138 126.407 458.783V458.591C126.407 458.185 126.466 457.817 126.584 457.488C126.702 457.159 126.867 456.877 127.078 456.644C127.289 456.407 127.539 456.226 127.827 456.102C128.114 455.977 128.426 455.914 128.762 455.914C129.133 455.914 129.458 455.977 129.736 456.102C130.014 456.226 130.245 456.402 130.427 456.629C130.612 456.853 130.75 457.12 130.839 457.43C130.932 457.741 130.979 458.083 130.979 458.457V458.951H126.968V458.121H129.837V458.03C129.83 457.822 129.789 457.627 129.712 457.445C129.638 457.263 129.525 457.115 129.371 457.003C129.218 456.892 129.013 456.836 128.757 456.836C128.565 456.836 128.394 456.877 128.244 456.96C128.097 457.04 127.974 457.157 127.875 457.311C127.775 457.464 127.699 457.65 127.644 457.867C127.593 458.081 127.568 458.323 127.568 458.591V458.783C127.568 459.01 127.598 459.222 127.659 459.417C127.723 459.609 127.815 459.776 127.937 459.92C128.058 460.064 128.206 460.178 128.378 460.261C128.551 460.341 128.748 460.381 128.968 460.381C129.247 460.381 129.495 460.325 129.712 460.213C129.93 460.101 130.118 459.943 130.278 459.738L130.887 460.328C130.776 460.491 130.63 460.648 130.451 460.798C130.272 460.945 130.053 461.065 129.794 461.158C129.538 461.251 129.24 461.297 128.901 461.297Z" fill="white"/>
<path d="M134.296 460.376C134.485 460.376 134.654 460.339 134.804 460.266C134.958 460.189 135.081 460.084 135.174 459.949C135.27 459.815 135.323 459.66 135.332 459.484H136.421C136.415 459.82 136.316 460.125 136.124 460.4C135.932 460.675 135.678 460.894 135.361 461.057C135.044 461.217 134.694 461.297 134.31 461.297C133.914 461.297 133.568 461.23 133.274 461.096C132.98 460.958 132.735 460.77 132.54 460.53C132.345 460.29 132.198 460.013 132.099 459.7C132.003 459.386 131.955 459.05 131.955 458.692V458.524C131.955 458.166 132.003 457.83 132.099 457.517C132.198 457.2 132.345 456.922 132.54 456.682C132.735 456.442 132.98 456.255 133.274 456.121C133.568 455.983 133.912 455.914 134.305 455.914C134.721 455.914 135.086 455.998 135.399 456.164C135.713 456.327 135.959 456.556 136.138 456.85C136.32 457.141 136.415 457.48 136.421 457.867H135.332C135.323 457.675 135.275 457.502 135.188 457.349C135.105 457.192 134.987 457.067 134.833 456.975C134.683 456.882 134.502 456.836 134.291 456.836C134.058 456.836 133.864 456.884 133.711 456.979C133.557 457.072 133.437 457.2 133.351 457.363C133.264 457.523 133.202 457.704 133.164 457.905C133.128 458.104 133.111 458.31 133.111 458.524V458.692C133.111 458.907 133.128 459.114 133.164 459.316C133.199 459.517 133.26 459.698 133.346 459.858C133.435 460.015 133.557 460.141 133.711 460.237C133.864 460.33 134.059 460.376 134.296 460.376Z" fill="white"/>
<path d="M140.012 456.01V461.201H138.851V456.01H140.012ZM141.715 456.01V456.922H137.177V456.01H141.715Z" fill="white"/>
<path d="M143.641 457.661H145.171C145.619 457.661 146 457.736 146.313 457.886C146.627 458.037 146.865 458.246 147.028 458.515C147.194 458.78 147.278 459.084 147.278 459.426C147.278 459.679 147.231 459.914 147.138 460.131C147.046 460.346 146.908 460.533 146.726 460.693C146.547 460.853 146.326 460.977 146.064 461.067C145.805 461.157 145.507 461.201 145.171 461.201H142.873V456.01H144.034V460.285H145.171C145.402 460.285 145.586 460.245 145.723 460.165C145.861 460.085 145.96 459.981 146.021 459.853C146.085 459.725 146.117 459.589 146.117 459.445C146.117 459.298 146.085 459.159 146.021 459.028C145.96 458.897 145.861 458.79 145.723 458.707C145.586 458.623 145.402 458.582 145.171 458.582H143.641V457.661Z" fill="white"/>
<path d="M154.166 460.16V457.685C154.166 457.499 154.133 457.339 154.066 457.205C153.998 457.071 153.896 456.967 153.759 456.893C153.624 456.82 153.455 456.783 153.25 456.783C153.061 456.783 152.898 456.815 152.761 456.879C152.623 456.943 152.516 457.029 152.439 457.138C152.362 457.247 152.324 457.37 152.324 457.507H151.173C151.173 457.303 151.222 457.104 151.321 456.912C151.42 456.72 151.564 456.549 151.753 456.399C151.942 456.249 152.167 456.13 152.43 456.044C152.692 455.958 152.986 455.914 153.312 455.914C153.703 455.914 154.048 455.98 154.349 456.111C154.652 456.242 154.891 456.441 155.063 456.706C155.239 456.968 155.327 457.298 155.327 457.694V460.002C155.327 460.239 155.343 460.451 155.375 460.64C155.41 460.826 155.46 460.987 155.524 461.125V461.201H154.339C154.285 461.077 154.241 460.918 154.209 460.726C154.181 460.531 154.166 460.343 154.166 460.16ZM154.334 458.045L154.344 458.759H153.514C153.3 458.759 153.111 458.78 152.948 458.822C152.785 458.86 152.649 458.918 152.54 458.994C152.431 459.071 152.35 459.164 152.295 459.273C152.241 459.381 152.214 459.505 152.214 459.642C152.214 459.78 152.246 459.906 152.31 460.021C152.374 460.133 152.466 460.221 152.588 460.285C152.713 460.349 152.863 460.381 153.039 460.381C153.276 460.381 153.482 460.333 153.658 460.237C153.837 460.138 153.978 460.018 154.08 459.877C154.182 459.733 154.237 459.597 154.243 459.469L154.617 459.983C154.579 460.114 154.513 460.255 154.421 460.405C154.328 460.555 154.206 460.699 154.056 460.837C153.909 460.971 153.731 461.081 153.523 461.168C153.319 461.254 153.082 461.297 152.813 461.297C152.474 461.297 152.172 461.23 151.907 461.096C151.641 460.958 151.433 460.774 151.283 460.544C151.133 460.311 151.057 460.047 151.057 459.752C151.057 459.477 151.109 459.234 151.211 459.023C151.317 458.809 151.47 458.63 151.672 458.486C151.876 458.342 152.126 458.233 152.42 458.16C152.714 458.083 153.05 458.045 153.427 458.045H154.334Z" fill="white"/>
<path d="M158.078 456.01V461.201H156.922V456.01H158.078ZM161.466 456.01L159.129 459.134H157.81L157.656 458.088H158.621L160.021 456.01H161.466ZM160.113 461.201L158.549 458.937L159.46 458.28L161.633 461.201H160.113Z" fill="white"/>
<path d="M163.804 456.01V461.201H162.648V456.01H163.804ZM167.191 456.01L164.855 459.134H163.535L163.382 458.088H164.346L165.747 456.01H167.191ZM165.838 461.201L164.274 458.937L165.186 458.28L167.359 461.201H165.838Z" fill="white"/>
<path d="M171.209 460.16V457.685C171.209 457.499 171.175 457.339 171.108 457.205C171.041 457.071 170.939 456.967 170.801 456.893C170.667 456.82 170.497 456.783 170.293 456.783C170.104 456.783 169.941 456.815 169.803 456.879C169.666 456.943 169.558 457.029 169.482 457.138C169.405 457.247 169.367 457.37 169.367 457.507H168.215C168.215 457.303 168.265 457.104 168.364 456.912C168.463 456.72 168.607 456.549 168.796 456.399C168.984 456.249 169.21 456.13 169.472 456.044C169.734 455.958 170.029 455.914 170.355 455.914C170.745 455.914 171.091 455.98 171.391 456.111C171.695 456.242 171.933 456.441 172.106 456.706C172.282 456.968 172.37 457.298 172.37 457.694V460.002C172.37 460.239 172.386 460.451 172.418 460.64C172.453 460.826 172.503 460.987 172.567 461.125V461.201H171.382C171.327 461.077 171.284 460.918 171.252 460.726C171.223 460.531 171.209 460.343 171.209 460.16ZM171.377 458.045L171.386 458.759H170.556C170.342 458.759 170.153 458.78 169.99 458.822C169.827 458.86 169.691 458.918 169.582 458.994C169.474 459.071 169.392 459.164 169.338 459.273C169.283 459.381 169.256 459.505 169.256 459.642C169.256 459.78 169.288 459.906 169.352 460.021C169.416 460.133 169.509 460.221 169.63 460.285C169.755 460.349 169.906 460.381 170.081 460.381C170.318 460.381 170.524 460.333 170.7 460.237C170.879 460.138 171.02 460.018 171.123 459.877C171.225 459.733 171.279 459.597 171.286 459.469L171.66 459.983C171.621 460.114 171.556 460.255 171.463 460.405C171.37 460.555 171.249 460.699 171.099 460.837C170.951 460.971 170.774 461.081 170.566 461.168C170.361 461.254 170.125 461.297 169.856 461.297C169.517 461.297 169.215 461.23 168.949 461.096C168.684 460.958 168.476 460.774 168.326 460.544C168.175 460.311 168.1 460.047 168.1 459.752C168.1 459.477 168.151 459.234 168.254 459.023C168.359 458.809 168.513 458.63 168.714 458.486C168.919 458.342 169.168 458.233 169.463 458.16C169.757 458.083 170.093 458.045 170.47 458.045H171.377Z" fill="white"/>
<path d="M175.303 460.635L176.714 456.01H177.952L175.869 461.993C175.821 462.121 175.759 462.26 175.682 462.41C175.606 462.561 175.505 462.703 175.38 462.837C175.259 462.975 175.107 463.085 174.924 463.168C174.742 463.255 174.521 463.298 174.262 463.298C174.16 463.298 174.061 463.288 173.965 463.269C173.872 463.253 173.784 463.236 173.701 463.216L173.696 462.334C173.728 462.337 173.766 462.34 173.811 462.343C173.859 462.346 173.898 462.348 173.926 462.348C174.118 462.348 174.278 462.324 174.406 462.276C174.534 462.231 174.638 462.158 174.718 462.055C174.801 461.953 174.872 461.815 174.929 461.643L175.303 460.635ZM174.507 456.01L175.74 459.896L175.946 461.115L175.145 461.321L173.26 456.01H174.507Z" fill="white"/>
<path d="M182.454 458.179V459.09H179.767V458.179H182.454ZM180.103 456.01V461.201H178.947V456.01H180.103ZM183.289 456.01V461.201H182.132V456.01H183.289Z" fill="white"/>
<path d="M187.225 456.01V461.201H186.064V456.01H187.225ZM188.928 456.01V456.922H184.389V456.01H188.928Z" fill="white"/>
<path d="M192.159 459.143H191.089C191.092 458.846 191.118 458.596 191.166 458.395C191.214 458.19 191.294 458.005 191.406 457.838C191.521 457.672 191.673 457.496 191.861 457.311C192.008 457.17 192.141 457.037 192.26 456.912C192.378 456.784 192.472 456.65 192.543 456.509C192.613 456.365 192.648 456.201 192.648 456.015C192.648 455.814 192.615 455.643 192.547 455.502C192.48 455.361 192.381 455.254 192.25 455.18C192.122 455.107 191.962 455.07 191.77 455.07C191.61 455.07 191.46 455.102 191.319 455.166C191.178 455.227 191.065 455.323 190.979 455.454C190.892 455.582 190.846 455.751 190.839 455.962H189.683C189.69 455.559 189.786 455.22 189.971 454.945C190.157 454.67 190.406 454.464 190.72 454.326C191.033 454.189 191.383 454.12 191.77 454.12C192.199 454.12 192.565 454.194 192.869 454.341C193.173 454.485 193.405 454.696 193.564 454.974C193.728 455.249 193.809 455.582 193.809 455.972C193.809 456.253 193.753 456.509 193.641 456.74C193.529 456.967 193.384 457.179 193.205 457.378C193.026 457.573 192.832 457.768 192.624 457.963C192.445 458.126 192.323 458.304 192.26 458.496C192.196 458.684 192.162 458.9 192.159 459.143ZM190.993 460.64C190.993 460.467 191.052 460.322 191.17 460.203C191.289 460.082 191.45 460.021 191.655 460.021C191.86 460.021 192.021 460.082 192.14 460.203C192.258 460.322 192.317 460.467 192.317 460.64C192.317 460.813 192.258 460.96 192.14 461.081C192.021 461.2 191.86 461.259 191.655 461.259C191.45 461.259 191.289 461.2 191.17 461.081C191.052 460.96 190.993 460.813 190.993 460.64Z" fill="white"/>
<rect x="31.7092" y="399.718" width="211.247" height="28.1365" rx="8" fill="white"/>
<path d="M94.0029 413.979H92.0193V412.938H94.0029C94.3483 412.938 94.6275 412.882 94.8403 412.77C95.0531 412.659 95.2084 412.505 95.3061 412.31C95.4073 412.111 95.4579 411.884 95.4579 411.629C95.4579 411.389 95.4073 411.164 95.3061 410.954C95.2084 410.741 95.0531 410.57 94.8403 410.441C94.6275 410.312 94.3483 410.248 94.0029 410.248H92.4223V416.821H91.1086V409.201H94.0029C94.5926 409.201 95.0933 409.306 95.505 409.515C95.9202 409.721 96.236 410.007 96.4523 410.373C96.6686 410.736 96.7768 411.151 96.7768 411.619C96.7768 412.111 96.6686 412.533 96.4523 412.885C96.236 413.238 95.9202 413.508 95.505 413.697C95.0933 413.885 94.5926 413.979 94.0029 413.979Z" fill="black"/>
<path d="M104.764 415.78V416.821H100.719V415.78H104.764ZM101.09 409.201V416.821H99.7765V409.201H101.09ZM104.236 412.383V413.409H100.719V412.383H104.236ZM104.738 409.201V410.248H100.719V409.201H104.738Z" fill="black"/>
<path d="M112.532 409.201V410.248H108.994V416.821H107.686V409.201H112.532Z" fill="black"/>
<path d="M116.746 414.681L120.127 409.201H121.441V416.821H120.127V411.336L116.746 416.821H115.438V409.201H116.746V414.681Z" fill="black"/>
<path d="M129.339 414.34H130.648C130.606 414.839 130.466 415.284 130.229 415.675C129.992 416.062 129.658 416.368 129.229 416.591C128.8 416.814 128.278 416.926 127.664 416.926C127.193 416.926 126.769 416.842 126.393 416.675C126.016 416.504 125.693 416.263 125.424 415.952C125.156 415.638 124.95 415.26 124.807 414.817C124.667 414.374 124.597 413.878 124.597 413.33V412.697C124.597 412.149 124.669 411.654 124.812 411.211C124.959 410.767 125.168 410.389 125.44 410.075C125.712 409.757 126.038 409.515 126.419 409.347C126.803 409.18 127.233 409.096 127.711 409.096C128.319 409.096 128.831 409.208 129.25 409.431C129.669 409.654 129.993 409.963 130.224 410.358C130.457 410.752 130.6 411.204 130.653 411.713H129.344C129.31 411.385 129.233 411.104 129.114 410.87C128.999 410.637 128.828 410.459 128.601 410.337C128.374 410.211 128.078 410.148 127.711 410.148C127.411 410.148 127.15 410.204 126.926 410.316C126.703 410.427 126.516 410.591 126.366 410.808C126.216 411.024 126.103 411.291 126.026 411.608C125.953 411.922 125.916 412.282 125.916 412.687V413.33C125.916 413.714 125.949 414.063 126.016 414.377C126.086 414.688 126.19 414.954 126.33 415.178C126.473 415.401 126.654 415.574 126.874 415.696C127.094 415.818 127.357 415.879 127.664 415.879C128.038 415.879 128.34 415.82 128.57 415.701C128.804 415.583 128.98 415.41 129.098 415.183C129.221 414.953 129.301 414.672 129.339 414.34Z" fill="black"/>
<path d="M136.641 409.201V416.821H135.338V409.201H136.641ZM139.033 409.201V410.248H132.967V409.201H139.033Z" fill="black"/>
<path d="M144.754 413.979H142.771V412.938H144.754C145.1 412.938 145.379 412.882 145.592 412.77C145.804 412.659 145.96 412.505 146.057 412.31C146.159 412.111 146.209 411.884 146.209 411.629C146.209 411.389 146.159 411.164 146.057 410.954C145.96 410.741 145.804 410.57 145.592 410.441C145.379 410.312 145.1 410.248 144.754 410.248H143.174V416.821H141.86V409.201H144.754C145.344 409.201 145.845 409.306 146.256 409.515C146.671 409.721 146.987 410.007 147.204 410.373C147.42 410.736 147.528 411.151 147.528 411.619C147.528 412.111 147.42 412.533 147.204 412.885C146.987 413.238 146.671 413.508 146.256 413.697C145.845 413.885 145.344 413.979 144.754 413.979Z" fill="black"/>
<path d="M152.7 410.216L150.423 416.821H149.047L151.915 409.201H152.794L152.7 410.216ZM154.605 416.821L152.323 410.216L152.224 409.201H153.108L155.987 416.821H154.605ZM154.495 413.995V415.036H150.35V413.995H154.495Z" fill="black"/>
<path d="M165.576 415.769L165.476 418.658H164.267V416.821H163.587V415.769H165.576ZM158.63 416.821V409.201H159.949V415.78H163.325V409.201H164.644V416.821H158.63Z" fill="black"/>
<path d="M169.779 414.681L173.16 409.201H174.474V416.821H173.16V411.336L169.779 416.821H168.471V409.201H169.779V414.681Z" fill="black"/>
<path d="M182.001 413.964H179.902L179.384 413.749C178.808 413.568 178.367 413.292 178.06 412.922C177.753 412.552 177.599 412.086 177.599 411.525C177.599 411.022 177.711 410.598 177.934 410.253C178.157 409.907 178.475 409.646 178.887 409.468C179.302 409.29 179.792 409.201 180.357 409.201H182.917V416.821H181.598V410.248H180.357C179.869 410.248 179.506 410.366 179.269 410.604C179.031 410.841 178.913 411.169 178.913 411.587C178.913 411.874 178.965 412.12 179.07 412.325C179.178 412.528 179.337 412.685 179.546 412.796C179.759 412.905 180.022 412.959 180.336 412.959H182.001V413.964ZM180.399 413.377L178.63 416.821H177.217L179.007 413.377H180.399Z" fill="black"/>
<rect x="31.7092" y="473.408" width="211.247" height="28.1365" rx="8" fill="white"/>
<path d="M119.423 488.916H117.482L117.471 487.958H119.167C119.453 487.958 119.695 487.916 119.894 487.832C120.097 487.745 120.25 487.621 120.355 487.461C120.46 487.297 120.512 487.1 120.512 486.869C120.512 486.615 120.463 486.407 120.365 486.247C120.268 486.086 120.118 485.969 119.915 485.896C119.716 485.823 119.462 485.786 119.151 485.786H117.879V492.36H116.566V484.739H119.151C119.57 484.739 119.943 484.779 120.271 484.86C120.603 484.94 120.884 485.066 121.114 485.236C121.348 485.404 121.524 485.617 121.642 485.875C121.765 486.133 121.826 486.44 121.826 486.796C121.826 487.11 121.751 487.398 121.601 487.66C121.45 487.918 121.229 488.129 120.936 488.293C120.643 488.457 120.278 488.555 119.842 488.586L119.423 488.916ZM119.366 492.36H117.068L117.66 491.318H119.366C119.662 491.318 119.91 491.269 120.109 491.172C120.308 491.07 120.456 490.933 120.554 490.758C120.655 490.58 120.706 490.373 120.706 490.135C120.706 489.888 120.662 489.673 120.575 489.492C120.487 489.307 120.35 489.165 120.161 489.068C119.973 488.966 119.727 488.916 119.423 488.916H117.947L117.958 487.958H119.879L120.177 488.319C120.596 488.333 120.939 488.426 121.208 488.597C121.48 488.768 121.683 488.989 121.815 489.261C121.948 489.533 122.014 489.826 122.014 490.141C122.014 490.625 121.908 491.032 121.695 491.36C121.485 491.688 121.184 491.937 120.789 492.108C120.395 492.276 119.92 492.36 119.366 492.36Z" fill="black"/>
<path d="M131.237 488.34V488.759C131.237 489.335 131.162 489.851 131.012 490.308C130.862 490.765 130.647 491.154 130.368 491.475C130.092 491.796 129.761 492.042 129.373 492.213C128.986 492.381 128.557 492.464 128.086 492.464C127.618 492.464 127.191 492.381 126.804 492.213C126.42 492.042 126.087 491.796 125.804 491.475C125.521 491.154 125.302 490.765 125.145 490.308C124.991 489.851 124.914 489.335 124.914 488.759V488.34C124.914 487.764 124.991 487.25 125.145 486.796C125.298 486.339 125.514 485.95 125.794 485.629C126.076 485.305 126.409 485.059 126.793 484.891C127.181 484.72 127.608 484.635 128.075 484.635C128.547 484.635 128.976 484.72 129.363 484.891C129.75 485.059 130.083 485.305 130.363 485.629C130.642 485.95 130.856 486.339 131.006 486.796C131.16 487.25 131.237 487.764 131.237 488.34ZM129.923 488.759V488.33C129.923 487.904 129.881 487.529 129.797 487.204C129.717 486.876 129.597 486.602 129.436 486.383C129.279 486.159 129.086 485.992 128.855 485.88C128.625 485.765 128.365 485.708 128.075 485.708C127.786 485.708 127.528 485.765 127.301 485.88C127.074 485.992 126.88 486.159 126.72 486.383C126.563 486.602 126.443 486.876 126.359 487.204C126.275 487.529 126.233 487.904 126.233 488.33V488.759C126.233 489.184 126.275 489.561 126.359 489.889C126.443 490.217 126.565 490.495 126.725 490.721C126.889 490.945 127.085 491.114 127.311 491.229C127.538 491.341 127.796 491.397 128.086 491.397C128.379 491.397 128.639 491.341 128.866 491.229C129.093 491.114 129.284 490.945 129.441 490.721C129.599 490.495 129.717 490.217 129.797 489.889C129.881 489.561 129.923 489.184 129.923 488.759Z" fill="black"/>
<path d="M135.67 490.219L139.051 484.739H140.365V492.36H139.051V486.875L135.67 492.36H134.362V484.739H135.67V490.219ZM138.146 482.787H139.083C139.083 483.077 139.013 483.333 138.874 483.556C138.737 483.776 138.542 483.949 138.287 484.075C138.036 484.2 137.736 484.263 137.387 484.263C136.86 484.263 136.443 484.127 136.136 483.855C135.833 483.579 135.681 483.223 135.681 482.787H136.618C136.618 482.983 136.675 483.155 136.79 483.305C136.909 483.452 137.108 483.525 137.387 483.525C137.663 483.525 137.858 483.452 137.973 483.305C138.088 483.155 138.146 482.983 138.146 482.787Z" fill="black"/>
<path d="M146.898 484.739V492.36H145.594V484.739H146.898ZM149.289 484.739V485.786H143.224V484.739H149.289Z" fill="black"/>
<path d="M153.414 490.219L156.795 484.739H158.109V492.36H156.795V486.875L153.414 492.36H152.106V484.739H153.414V490.219Z" fill="black"/>
<path fill-rule="evenodd" clip-rule="evenodd" d="M244.557 145.045L244.667 145.388C250.298 162.749 231.554 176.436 214.518 167.09C197.765 157.896 182.187 149.184 176.349 169.475C176.153 187.075 199.265 225.183 174.398 243.929C138.266 267.994 89.1215 252.685 60.3753 217.235C34.9311 187.232 32.0217 146.586 50.2844 116.953C89.1415 49.5815 196.561 65.387 234.914 128.328C239.008 133.995 242.481 139.919 244.557 145.045Z" fill="#F2F2F2" fill-opacity="0.3"/>
<path fill-rule="evenodd" clip-rule="evenodd" d="M84.5894 294.645C81.0185 306.395 67.391 307.011 56.6769 305.266C55.7849 305.12 54.8976 304.917 54.034 304.643C40.7114 300.442 30.9231 290.705 26.798 278.471C26.5183 277.638 26.2993 276.792 26.1726 275.933C24.0482 261.661 32.3939 238.099 48.0493 244.362C49.5594 244.966 50.9354 245.864 52.2151 246.854C62.1915 254.583 72.1352 262.367 81.3997 271.254C84.2184 273.958 86.0583 277.423 86.7144 281.06C86.8104 281.588 86.8977 282.09 86.9926 282.556C87.4875 284.994 87.4402 287.485 86.77 289.807C86.2983 291.442 85.5737 293.066 84.5894 294.645Z" fill="#F2F2F2" fill-opacity="0.3"/>
<path fill-rule="evenodd" clip-rule="evenodd" d="M195.928 60.0415C192.312 49.7033 204.016 45.5743 211.379 44.4894C221.195 43.041 231.2 47.5727 239.314 54.7866C248.097 63.4117 251.239 78.2843 245.472 88.1988C242.925 92.572 235.858 92.4123 232.763 87.9656C224.805 76.5225 209.958 73.363 199.039 65.2581C197.293 63.9648 196.038 62.0835 195.927 60.0759L195.928 60.0415Z" fill="#F2F2F2" fill-opacity="0.3"/>
<path d="M68.3115 279.746H65.5046L65.4895 278.354H67.9408C68.3543 278.354 68.7049 278.293 68.9924 278.171C69.2849 278.045 69.5068 277.865 69.6581 277.631C69.8095 277.393 69.8851 277.106 69.8851 276.772C69.8851 276.402 69.8145 276.1 69.6733 275.867C69.5321 275.633 69.3152 275.463 69.0226 275.357C68.7351 275.25 68.367 275.197 67.9181 275.197H66.0796V284.751H64.1807V273.676H67.9181C68.5233 273.676 69.063 273.734 69.5371 273.851C70.0162 273.967 70.4223 274.15 70.7552 274.398C71.0931 274.642 71.3478 274.951 71.5193 275.326C71.6958 275.702 71.7841 276.148 71.7841 276.665C71.7841 277.122 71.6756 277.54 71.4588 277.92C71.2419 278.296 70.9216 278.602 70.4979 278.841C70.0743 279.079 69.5472 279.221 68.9167 279.267L68.3115 279.746ZM68.2282 284.751H64.907L65.7619 283.238H68.2282C68.657 283.238 69.0151 283.167 69.3026 283.025C69.5901 282.878 69.8044 282.677 69.9456 282.424C70.0919 282.165 70.165 281.863 70.165 281.518C70.165 281.158 70.102 280.846 69.9759 280.583C69.8498 280.314 69.6506 280.109 69.3782 279.967C69.1059 279.82 68.7503 279.746 68.3115 279.746H66.178L66.1931 278.354H68.9697L69.4009 278.879C70.0062 278.899 70.503 279.034 70.8913 279.282C71.2847 279.531 71.5773 279.853 71.7689 280.248C71.9606 280.644 72.0564 281.07 72.0564 281.526C72.0564 282.231 71.9026 282.822 71.5949 283.298C71.2923 283.775 70.856 284.138 70.2861 284.386C69.7161 284.63 69.0302 284.751 68.2282 284.751Z" fill="black"/>
<path d="M84.168 279.959V281.404H79.9313V279.959H84.168ZM80.4609 276.521V284.751H78.6376V276.521H80.4609ZM85.4844 276.521V284.751H83.6611V276.521H85.4844Z" fill="black"/>
<path d="M90.2692 283.854L92.4935 276.521H94.4454L91.1619 286.006C91.0863 286.209 90.9879 286.43 90.8669 286.668C90.7458 286.907 90.587 287.132 90.3903 287.345C90.1986 287.563 89.959 287.738 89.6715 287.87C89.384 288.007 89.036 288.076 88.6275 288.076C88.4661 288.076 88.3097 288.06 88.1584 288.03C88.0121 288.005 87.8734 287.977 87.7423 287.946L87.7347 286.547C87.7852 286.552 87.8457 286.557 87.9163 286.562C87.992 286.567 88.0525 286.569 88.0979 286.569C88.4005 286.569 88.6527 286.531 88.8544 286.455C89.0562 286.384 89.2201 286.268 89.3462 286.105C89.4773 285.943 89.5883 285.725 89.6791 285.451L90.2692 283.854ZM89.0133 276.521L90.9577 282.682L91.283 284.614L90.0195 284.942L87.0463 276.521H89.0133Z" fill="black"/>
<path d="M98.6703 281.427L95.402 276.521H97.6414L99.5479 279.761H101.144L100.91 281.427H98.6703ZM99.5933 281.161L97.4977 284.751H95.2582L98.224 280.119L99.5933 281.161ZM102.241 276.521V284.751H100.426V276.521H102.241ZM107.288 276.521L104.019 281.427H101.772L101.53 279.761H103.134L105.041 276.521H107.288ZM105.184 284.751L103.081 281.161L104.496 280.119L107.446 284.751H105.184Z" fill="black"/>
<path d="M114.66 279.959V281.404H110.423V279.959H114.66ZM110.953 276.521V284.751H109.129V276.521H110.953ZM115.976 276.521V284.751H114.153V276.521H115.976Z" fill="black"/>
<path d="M118.037 280.727V280.552C118.037 279.959 118.123 279.409 118.295 278.902C118.466 278.389 118.713 277.946 119.036 277.57C119.364 277.19 119.762 276.896 120.231 276.688C120.705 276.475 121.24 276.369 121.835 276.369C122.435 276.369 122.97 276.475 123.439 276.688C123.913 276.896 124.314 277.19 124.642 277.57C124.97 277.946 125.22 278.389 125.391 278.902C125.563 279.409 125.648 279.959 125.648 280.552V280.727C125.648 281.321 125.563 281.871 125.391 282.378C125.22 282.885 124.97 283.329 124.642 283.709C124.314 284.084 123.916 284.379 123.447 284.592C122.978 284.8 122.446 284.903 121.85 284.903C121.25 284.903 120.713 284.8 120.239 284.592C119.77 284.379 119.371 284.084 119.044 283.709C118.716 283.329 118.466 282.885 118.295 282.378C118.123 281.871 118.037 281.321 118.037 280.727ZM119.861 280.552V280.727C119.861 281.098 119.898 281.447 119.974 281.777C120.05 282.107 120.168 282.396 120.33 282.644C120.491 282.893 120.698 283.088 120.95 283.23C121.202 283.372 121.502 283.443 121.85 283.443C122.188 283.443 122.481 283.372 122.728 283.23C122.98 283.088 123.187 282.893 123.348 282.644C123.51 282.396 123.628 282.107 123.704 281.777C123.785 281.447 123.825 281.098 123.825 280.727V280.552C123.825 280.187 123.785 279.842 123.704 279.518C123.628 279.188 123.507 278.897 123.341 278.643C123.179 278.389 122.973 278.192 122.72 278.05C122.473 277.903 122.178 277.829 121.835 277.829C121.492 277.829 121.195 277.903 120.942 278.05C120.695 278.192 120.491 278.389 120.33 278.643C120.168 278.897 120.05 279.188 119.974 279.518C119.898 279.842 119.861 280.187 119.861 280.552Z" fill="black"/>
<path d="M131.25 284.903C130.645 284.903 130.098 284.805 129.608 284.607C129.124 284.404 128.711 284.122 128.368 283.762C128.03 283.402 127.77 282.979 127.588 282.492C127.407 282.005 127.316 281.48 127.316 280.917V280.613C127.316 279.969 127.409 279.386 127.596 278.864C127.783 278.341 128.042 277.895 128.375 277.525C128.708 277.15 129.102 276.863 129.555 276.665C130.009 276.467 130.501 276.369 131.031 276.369C131.616 276.369 132.128 276.467 132.567 276.665C133.005 276.863 133.368 277.142 133.656 277.502C133.949 277.857 134.165 278.28 134.307 278.772C134.453 279.264 134.526 279.807 134.526 280.4V281.184H128.201V279.868H132.725V279.723C132.715 279.394 132.65 279.084 132.529 278.795C132.413 278.506 132.234 278.273 131.992 278.095C131.749 277.918 131.427 277.829 131.023 277.829C130.721 277.829 130.451 277.895 130.214 278.027C129.982 278.154 129.787 278.339 129.631 278.582C129.475 278.826 129.354 279.12 129.268 279.465C129.187 279.804 129.147 280.187 129.147 280.613V280.917C129.147 281.278 129.195 281.612 129.291 281.922C129.392 282.226 129.538 282.492 129.729 282.72C129.921 282.949 130.153 283.129 130.425 283.26C130.698 283.387 131.008 283.451 131.356 283.451C131.795 283.451 132.186 283.362 132.529 283.184C132.872 283.007 133.169 282.756 133.421 282.431L134.382 283.367C134.206 283.626 133.976 283.874 133.694 284.112C133.411 284.346 133.066 284.536 132.657 284.683C132.254 284.83 131.785 284.903 131.25 284.903Z" fill="black"/>
<path d="M144.716 281.229H142.098L142.083 279.936H144.232C144.585 279.936 144.875 279.901 145.102 279.83C145.334 279.759 145.505 279.652 145.616 279.51C145.727 279.363 145.783 279.186 145.783 278.978C145.783 278.805 145.75 278.656 145.684 278.529C145.619 278.397 145.518 278.291 145.382 278.209C145.251 278.123 145.084 278.062 144.882 278.027C144.686 277.986 144.456 277.966 144.194 277.966H142.704V284.751H140.88V276.521H144.194C144.718 276.521 145.19 276.566 145.609 276.658C146.032 276.749 146.393 276.888 146.691 277.076C146.988 277.264 147.215 277.502 147.371 277.791C147.533 278.075 147.614 278.41 147.614 278.795C147.614 279.049 147.558 279.287 147.447 279.51C147.341 279.733 147.182 279.931 146.971 280.104C146.759 280.276 146.499 280.418 146.191 280.53C145.884 280.636 145.531 280.702 145.132 280.727L144.716 281.229ZM144.716 284.751H141.569L142.295 283.306H144.716C145.039 283.306 145.306 283.265 145.518 283.184C145.73 283.103 145.886 282.987 145.987 282.834C146.093 282.677 146.146 282.492 146.146 282.279C146.146 282.061 146.095 281.873 145.995 281.716C145.894 281.559 145.737 281.44 145.525 281.359C145.319 281.272 145.049 281.229 144.716 281.229H142.635L142.651 279.936H145.125L145.647 280.438C146.166 280.474 146.597 280.585 146.94 280.773C147.283 280.961 147.54 281.196 147.712 281.48C147.883 281.764 147.969 282.074 147.969 282.408C147.969 282.794 147.896 283.134 147.75 283.428C147.609 283.722 147.397 283.968 147.114 284.166C146.837 284.358 146.496 284.505 146.093 284.607C145.689 284.703 145.23 284.751 144.716 284.751Z" fill="black"/>
<path d="M151.839 278.103V287.916H150.015V276.521H151.695L151.839 278.103ZM157.172 280.56V280.72C157.172 281.318 157.102 281.873 156.96 282.386C156.824 282.893 156.62 283.336 156.348 283.717C156.08 284.092 155.75 284.384 155.356 284.592C154.963 284.8 154.509 284.903 153.995 284.903C153.485 284.903 153.039 284.81 152.656 284.622C152.277 284.429 151.957 284.158 151.695 283.808C151.432 283.458 151.221 283.047 151.059 282.576C150.903 282.099 150.792 281.577 150.726 281.009V280.393C150.792 279.789 150.903 279.241 151.059 278.75C151.221 278.258 151.432 277.834 151.695 277.479C151.957 277.124 152.277 276.85 152.656 276.658C153.034 276.465 153.475 276.369 153.98 276.369C154.494 276.369 154.95 276.47 155.349 276.673C155.747 276.871 156.083 277.155 156.355 277.525C156.628 277.89 156.832 278.331 156.968 278.848C157.104 279.361 157.172 279.931 157.172 280.56ZM155.349 280.72V280.56C155.349 280.18 155.314 279.827 155.243 279.503C155.172 279.173 155.061 278.884 154.91 278.635C154.759 278.387 154.565 278.194 154.328 278.057C154.096 277.915 153.816 277.844 153.488 277.844C153.165 277.844 152.888 277.9 152.656 278.012C152.424 278.118 152.229 278.268 152.073 278.46C151.917 278.653 151.796 278.879 151.71 279.137C151.624 279.391 151.564 279.667 151.528 279.967V281.442C151.589 281.807 151.692 282.142 151.839 282.446C151.985 282.751 152.192 282.994 152.459 283.177C152.731 283.354 153.079 283.443 153.503 283.443C153.831 283.443 154.111 283.372 154.343 283.23C154.575 283.088 154.764 282.893 154.91 282.644C155.061 282.391 155.172 282.099 155.243 281.769C155.314 281.44 155.349 281.09 155.349 280.72Z" fill="black"/>
<path d="M162.797 284.903C162.192 284.903 161.644 284.805 161.155 284.607C160.671 284.404 160.257 284.122 159.914 283.762C159.576 283.402 159.317 282.979 159.135 282.492C158.953 282.005 158.863 281.48 158.863 280.917V280.613C158.863 279.969 158.956 279.386 159.143 278.864C159.329 278.341 159.589 277.895 159.922 277.525C160.255 277.15 160.648 276.863 161.102 276.665C161.556 276.467 162.048 276.369 162.577 276.369C163.162 276.369 163.674 276.467 164.113 276.665C164.552 276.863 164.915 277.142 165.203 277.502C165.495 277.857 165.712 278.28 165.853 278.772C166 279.264 166.073 279.807 166.073 280.4V281.184H159.748V279.868H164.272V279.723C164.262 279.394 164.196 279.084 164.075 278.795C163.959 278.506 163.78 278.273 163.538 278.095C163.296 277.918 162.973 277.829 162.57 277.829C162.267 277.829 161.997 277.895 161.76 278.027C161.528 278.154 161.334 278.339 161.178 278.582C161.021 278.826 160.9 279.12 160.815 279.465C160.734 279.804 160.694 280.187 160.694 280.613V280.917C160.694 281.278 160.741 281.612 160.837 281.922C160.938 282.226 161.084 282.492 161.276 282.72C161.468 282.949 161.7 283.129 161.972 283.26C162.245 283.387 162.555 283.451 162.903 283.451C163.342 283.451 163.732 283.362 164.075 283.184C164.418 283.007 164.716 282.756 164.968 282.431L165.929 283.367C165.752 283.626 165.523 283.874 165.24 284.112C164.958 284.346 164.613 284.536 164.204 284.683C163.8 284.83 163.331 284.903 162.797 284.903Z" fill="black"/>
<path d="M172.825 282.53L175.261 276.521H176.842L173.445 284.751H172.204L168.815 276.521H170.396L172.825 282.53ZM169.927 276.521V284.751H168.104V276.521H169.927ZM175.722 284.751V276.521H177.553V284.751H175.722Z" fill="black"/>
<path d="M181.785 280.727H183.677L181.354 284.751H179.47L181.785 280.727ZM183.117 276.521H186.627V284.751H184.812V277.966H183.117C182.774 277.966 182.492 278.027 182.27 278.149C182.048 278.265 181.884 278.42 181.778 278.613C181.672 278.8 181.619 278.993 181.619 279.191C181.619 279.389 181.667 279.579 181.763 279.761C181.864 279.944 182.017 280.093 182.224 280.21C182.436 280.327 182.701 280.385 183.019 280.385H185.425V281.724H183.019C182.514 281.724 182.063 281.66 181.664 281.534C181.266 281.402 180.928 281.222 180.651 280.994C180.373 280.76 180.161 280.489 180.015 280.18C179.869 279.865 179.796 279.523 179.796 279.153C179.796 278.772 179.871 278.422 180.023 278.103C180.174 277.783 180.391 277.505 180.673 277.266C180.961 277.028 181.309 276.845 181.717 276.719C182.131 276.587 182.598 276.521 183.117 276.521Z" fill="black"/>
<path d="M197.112 279.29V280.75H193.11V279.29H197.112Z" fill="black"/>
<path d="M207.476 281.229H204.859L204.844 279.936H206.992C207.345 279.936 207.635 279.901 207.862 279.83C208.094 279.759 208.266 279.652 208.377 279.51C208.488 279.363 208.543 279.186 208.543 278.978C208.543 278.805 208.51 278.656 208.445 278.529C208.379 278.397 208.278 278.291 208.142 278.209C208.011 278.123 207.845 278.062 207.643 278.027C207.446 277.986 207.217 277.966 206.954 277.966H205.464V284.751H203.641V276.521H206.954C207.479 276.521 207.951 276.566 208.369 276.658C208.793 276.749 209.153 276.888 209.451 277.076C209.749 277.264 209.976 277.502 210.132 277.791C210.293 278.075 210.374 278.41 210.374 278.795C210.374 279.049 210.319 279.287 210.208 279.51C210.102 279.733 209.943 279.931 209.731 280.104C209.519 280.276 209.259 280.418 208.952 280.53C208.644 280.636 208.291 280.702 207.893 280.727L207.476 281.229ZM207.476 284.751H204.329L205.055 283.306H207.476C207.799 283.306 208.067 283.265 208.278 283.184C208.49 283.103 208.647 282.987 208.747 282.834C208.853 282.677 208.906 282.492 208.906 282.279C208.906 282.061 208.856 281.873 208.755 281.716C208.654 281.559 208.498 281.44 208.286 281.359C208.079 281.272 207.809 281.229 207.476 281.229H205.396L205.411 279.936H207.885L208.407 280.438C208.926 280.474 209.358 280.585 209.701 280.773C210.044 280.961 210.301 281.196 210.472 281.48C210.644 281.764 210.73 282.074 210.73 282.408C210.73 282.794 210.656 283.134 210.51 283.428C210.369 283.722 210.157 283.968 209.875 284.166C209.597 284.358 209.257 284.505 208.853 284.607C208.45 284.703 207.991 284.751 207.476 284.751Z" fill="black"/>
<path d="M86.2746 298.224V299.669H82.0379V298.224H86.2746ZM82.5674 294.786V303.016H80.7441V294.786H82.5674ZM87.591 294.786V303.016H85.7677V294.786H87.591Z" fill="black"/>
<path d="M92.3758 302.119L94.6 294.786H96.552L93.2685 304.271C93.1929 304.474 93.0945 304.695 92.9734 304.933C92.8524 305.171 92.6935 305.397 92.4968 305.61C92.3052 305.828 92.0656 306.003 91.7781 306.135C91.4906 306.272 91.1426 306.34 90.734 306.34C90.5726 306.34 90.4163 306.325 90.265 306.295C90.1187 306.269 89.98 306.241 89.8489 306.211L89.8413 304.811C89.8917 304.816 89.9523 304.821 90.0229 304.827C90.0985 304.832 90.1591 304.834 90.2044 304.834C90.5071 304.834 90.7593 304.796 90.961 304.72C91.1628 304.649 91.3267 304.532 91.4528 304.37C91.5839 304.208 91.6949 303.99 91.7857 303.716L92.3758 302.119ZM91.1199 294.786L93.0642 300.947L93.3896 302.879L92.1261 303.206L89.1528 294.786H91.1199Z" fill="black"/>
<path d="M100.777 299.692L97.5086 294.786H99.748L101.654 298.026H103.251L103.016 299.692H100.777ZM101.7 299.426L99.6042 303.016H97.3648L100.331 298.384L101.7 299.426ZM104.348 294.786V303.016H102.532V294.786H104.348ZM109.394 294.786L106.126 299.692H103.879L103.637 298.026H105.241L107.147 294.786H109.394ZM107.291 303.016L105.188 299.426L106.602 298.384L109.553 303.016H107.291Z" fill="black"/>
<path d="M116.766 298.224V299.669H112.53V298.224H116.766ZM113.059 294.786V303.016H111.236V294.786H113.059ZM118.083 294.786V303.016H116.259V294.786H118.083Z" fill="black"/>
<path d="M120.144 298.992V298.817C120.144 298.224 120.23 297.674 120.401 297.166C120.573 296.654 120.82 296.211 121.143 295.835C121.47 295.455 121.869 295.161 122.338 294.953C122.812 294.74 123.347 294.633 123.942 294.633C124.542 294.633 125.077 294.74 125.546 294.953C126.02 295.161 126.421 295.455 126.749 295.835C127.076 296.211 127.326 296.654 127.498 297.166C127.669 297.674 127.755 298.224 127.755 298.817V298.992C127.755 299.585 127.669 300.136 127.498 300.643C127.326 301.15 127.076 301.594 126.749 301.974C126.421 302.349 126.022 302.643 125.553 302.856C125.084 303.064 124.552 303.168 123.957 303.168C123.357 303.168 122.82 303.064 122.345 302.856C121.876 302.643 121.478 302.349 121.15 301.974C120.822 301.594 120.573 301.15 120.401 300.643C120.23 300.136 120.144 299.585 120.144 298.992ZM121.967 298.817V298.992C121.967 299.362 122.005 299.712 122.081 300.042C122.156 300.371 122.275 300.661 122.436 300.909C122.598 301.158 122.804 301.353 123.057 301.495C123.309 301.637 123.609 301.708 123.957 301.708C124.295 301.708 124.587 301.637 124.835 301.495C125.087 301.353 125.294 301.158 125.455 300.909C125.616 300.661 125.735 300.371 125.81 300.042C125.891 299.712 125.932 299.362 125.932 298.992V298.817C125.932 298.452 125.891 298.107 125.81 297.783C125.735 297.453 125.614 297.161 125.447 296.908C125.286 296.654 125.079 296.456 124.827 296.315C124.58 296.167 124.285 296.094 123.942 296.094C123.599 296.094 123.301 296.167 123.049 296.315C122.802 296.456 122.598 296.654 122.436 296.908C122.275 297.161 122.156 297.453 122.081 297.783C122.005 298.107 121.967 298.452 121.967 298.817Z" fill="black"/>
<path d="M134.613 300.795L137.049 294.786H138.63L135.233 303.016H133.992L130.603 294.786H132.184L134.613 300.795ZM131.715 294.786V303.016H129.892V294.786H131.715ZM137.51 303.016V294.786H139.341V303.016H137.51Z" fill="black"/>
<path d="M151.037 300.795L153.473 294.786H155.054L151.657 303.016H150.416L147.027 294.786H148.608L151.037 300.795ZM148.139 294.786V303.016H146.316V294.786H148.139ZM153.934 303.016V294.786H155.765V303.016H153.934Z" fill="black"/>
<path d="M161.881 303.168C161.276 303.168 160.729 303.069 160.24 302.872C159.755 302.669 159.342 302.387 158.999 302.027C158.661 301.667 158.401 301.244 158.22 300.757C158.038 300.27 157.947 299.745 157.947 299.182V298.878C157.947 298.234 158.041 297.651 158.227 297.128C158.414 296.606 158.674 296.16 159.006 295.79C159.339 295.414 159.733 295.128 160.187 294.93C160.641 294.732 161.132 294.633 161.662 294.633C162.247 294.633 162.759 294.732 163.198 294.93C163.637 295.128 164 295.407 164.287 295.767C164.58 296.122 164.797 296.545 164.938 297.037C165.084 297.529 165.157 298.072 165.157 298.665V299.449H158.832V298.133H163.357V297.988C163.347 297.658 163.281 297.349 163.16 297.06C163.044 296.771 162.865 296.538 162.623 296.36C162.381 296.183 162.058 296.094 161.654 296.094C161.352 296.094 161.082 296.16 160.845 296.292C160.613 296.418 160.419 296.604 160.262 296.847C160.106 297.09 159.985 297.385 159.899 297.729C159.818 298.069 159.778 298.452 159.778 298.878V299.182C159.778 299.542 159.826 299.877 159.922 300.186C160.023 300.491 160.169 300.757 160.361 300.985C160.552 301.213 160.784 301.393 161.057 301.525C161.329 301.652 161.639 301.715 161.987 301.715C162.426 301.715 162.817 301.627 163.16 301.449C163.503 301.272 163.8 301.021 164.053 300.696L165.014 301.632C164.837 301.89 164.607 302.139 164.325 302.377C164.043 302.61 163.697 302.801 163.289 302.948C162.885 303.095 162.416 303.168 161.881 303.168Z" fill="black"/>
<path d="M170.388 301.708C170.686 301.708 170.953 301.649 171.19 301.533C171.432 301.411 171.627 301.244 171.773 301.031C171.924 300.818 172.007 300.572 172.023 300.293H173.74C173.73 300.825 173.574 301.31 173.271 301.746C172.968 302.182 172.567 302.529 172.068 302.788C171.569 303.041 171.016 303.168 170.411 303.168C169.786 303.168 169.241 303.062 168.777 302.849C168.313 302.631 167.927 302.332 167.619 301.951C167.312 301.571 167.08 301.132 166.923 300.635C166.772 300.138 166.696 299.606 166.696 299.038V298.772C166.696 298.204 166.772 297.671 166.923 297.174C167.08 296.672 167.312 296.231 167.619 295.85C167.927 295.47 168.313 295.173 168.777 294.96C169.241 294.742 169.783 294.633 170.404 294.633C171.059 294.633 171.634 294.765 172.128 295.029C172.623 295.288 173.011 295.65 173.294 296.117C173.581 296.578 173.73 297.116 173.74 297.729H172.023C172.007 297.425 171.932 297.151 171.796 296.908C171.664 296.659 171.478 296.462 171.236 296.315C170.999 296.167 170.714 296.094 170.381 296.094C170.013 296.094 169.707 296.17 169.465 296.322C169.223 296.469 169.034 296.672 168.898 296.931C168.762 297.184 168.663 297.471 168.603 297.79C168.547 298.105 168.52 298.432 168.52 298.772V299.038C168.52 299.378 168.547 299.707 168.603 300.027C168.658 300.346 168.754 300.633 168.89 300.886C169.032 301.135 169.223 301.335 169.465 301.487C169.707 301.634 170.015 301.708 170.388 301.708Z" fill="black"/>
<path d="M179.402 294.786V303.016H177.571V294.786H179.402ZM182.088 294.786V296.231H174.931V294.786H182.088Z" fill="black"/>
<path d="M186.82 303.168C186.215 303.168 185.667 303.069 185.178 302.872C184.694 302.669 184.28 302.387 183.937 302.027C183.6 301.667 183.34 301.244 183.158 300.757C182.977 300.27 182.886 299.745 182.886 299.182V298.878C182.886 298.234 182.979 297.651 183.166 297.128C183.352 296.606 183.612 296.16 183.945 295.79C184.278 295.414 184.671 295.128 185.125 294.93C185.579 294.732 186.071 294.633 186.601 294.633C187.186 294.633 187.698 294.732 188.136 294.93C188.575 295.128 188.938 295.407 189.226 295.767C189.518 296.122 189.735 296.545 189.876 297.037C190.023 297.529 190.096 298.072 190.096 298.665V299.449H183.771V298.133H188.295V297.988C188.285 297.658 188.22 297.349 188.099 297.06C187.983 296.771 187.803 296.538 187.561 296.36C187.319 296.183 186.996 296.094 186.593 296.094C186.29 296.094 186.021 296.16 185.783 296.292C185.551 296.418 185.357 296.604 185.201 296.847C185.045 297.09 184.924 297.385 184.838 297.729C184.757 298.069 184.717 298.452 184.717 298.878V299.182C184.717 299.542 184.765 299.877 184.86 300.186C184.961 300.491 185.108 300.757 185.299 300.985C185.491 301.213 185.723 301.393 185.995 301.525C186.268 301.652 186.578 301.715 186.926 301.715C187.365 301.715 187.756 301.627 188.099 301.449C188.441 301.272 188.739 301.021 188.991 300.696L189.952 301.632C189.776 301.89 189.546 302.139 189.264 302.377C188.981 302.61 188.636 302.801 188.227 302.948C187.824 303.095 187.355 303.168 186.82 303.168Z" fill="black"/>
<path d="M194.086 291.941L193.905 299.753H192.346L192.157 291.941H194.086ZM192.104 302.149C192.104 301.87 192.195 301.637 192.376 301.449C192.563 301.256 192.82 301.16 193.148 301.16C193.471 301.16 193.726 301.256 193.912 301.449C194.099 301.637 194.192 301.87 194.192 302.149C194.192 302.418 194.099 302.648 193.912 302.841C193.726 303.029 193.471 303.123 193.148 303.123C192.82 303.123 192.563 303.029 192.376 302.841C192.195 302.648 192.104 302.418 192.104 302.149Z" fill="black"/>
</svg>
