<svg width="23" height="16" viewBox="0 0 23 16" fill="none" xmlns="http://www.w3.org/2000/svg">
<path d="M6.27273 8.53333C8.00818 8.53333 9.40909 7.104 9.40909 5.33333C9.40909 3.56267 8.00818 2.13333 6.27273 2.13333C4.53727 2.13333 3.13636 3.56267 3.13636 5.33333C3.13636 7.104 4.53727 8.53333 6.27273 8.53333ZM18.8182 2.13333H12.5455C11.3955 2.13333 10.4545 3.09333 10.4545 4.26667V9.6H2.09091V1.06667C2.09091 0.48 1.62045 0 1.04545 0C0.470455 0 0 0.48 0 1.06667V14.9333C0 15.52 0.470455 16 1.04545 16C1.62045 16 2.09091 15.52 2.09091 14.9333V12.8H20.9091V14.9333C20.9091 15.52 21.3795 16 21.9545 16C22.5295 16 23 15.52 23 14.9333V6.4C23 4.04267 21.1286 2.13333 18.8182 2.13333Z" fill="white"/>
</svg>
