<svg width="35" height="35" viewBox="0 0 35 35" fill="none" xmlns="http://www.w3.org/2000/svg">
<path d="M10.207 16.0417H13.1237V18.9584H10.207V16.0417ZM10.207 21.8751H13.1237V24.7917H10.207V21.8751ZM16.0404 16.0417H18.957V18.9584H16.0404V16.0417ZM16.0404 21.8751H18.957V24.7917H16.0404V21.8751ZM21.8737 16.0417H24.7904V18.9584H21.8737V16.0417ZM21.8737 21.8751H24.7904V24.7917H21.8737V21.8751Z" fill="#1A1B20" fill-opacity="0.6"/>
<path d="M7.29167 32.0834H27.7083C29.3169 32.0834 30.625 30.7753 30.625 29.1667V8.75008C30.625 7.14154 29.3169 5.83341 27.7083 5.83341H24.7917V2.91675H21.875V5.83341H13.125V2.91675H10.2083V5.83341H7.29167C5.68313 5.83341 4.375 7.14154 4.375 8.75008V29.1667C4.375 30.7753 5.68313 32.0834 7.29167 32.0834ZM27.7083 11.6667L27.7098 29.1667H7.29167V11.6667H27.7083Z" fill="#1A1B20" fill-opacity="0.6"/>
</svg>
