<svg width="18" height="17" viewBox="0 0 18 17" fill="none" xmlns="http://www.w3.org/2000/svg">
<path d="M2.34783 5.47826C2.34783 5.9087 2.7 6.26087 3.13043 6.26087C3.56087 6.26087 3.91304 5.9087 3.91304 5.47826V3.91304H5.47826C5.9087 3.91304 6.26087 3.56087 6.26087 3.13043C6.26087 2.7 5.9087 2.34783 5.47826 2.34783H3.91304V0.782609C3.91304 0.352174 3.56087 0 3.13043 0C2.7 0 2.34783 0.352174 2.34783 0.782609V2.34783H0.782609C0.352174 2.34783 0 2.7 0 3.13043C0 3.56087 0.352174 3.91304 0.782609 3.91304H2.34783V5.47826Z" fill="#41B619"/>
<path d="M10.176 12.5215C11.4726 12.5215 12.5238 11.4703 12.5238 10.1736C12.5238 8.87696 11.4726 7.82581 10.176 7.82581C8.87928 7.82581 7.82812 8.87696 7.82812 10.1736C7.82812 11.4703 8.87928 12.5215 10.176 12.5215Z" fill="#41B619"/>
<path d="M16.4346 3.91275H13.9537L12.9833 2.85623C12.8375 2.6961 12.6598 2.56816 12.4617 2.48057C12.2636 2.39298 12.0495 2.34767 11.8329 2.34753H6.82418C6.95722 2.58232 7.04331 2.84058 7.04331 3.13014C7.04331 3.99101 6.33896 4.69536 5.47809 4.69536H4.69548V5.47797C4.69548 6.33884 3.99113 7.04319 3.13026 7.04319C2.8407 7.04319 2.58244 6.9571 2.34766 6.82406V14.8693C2.34766 15.7301 3.052 16.4345 3.91287 16.4345H16.4346C17.2955 16.4345 17.9998 15.7301 17.9998 14.8693V5.47797C17.9998 4.6171 17.2955 3.91275 16.4346 3.91275ZM10.1737 14.0867C8.01374 14.0867 6.2607 12.3336 6.2607 10.1736C6.2607 8.01362 8.01374 6.26058 10.1737 6.26058C12.3337 6.26058 14.0868 8.01362 14.0868 10.1736C14.0868 12.3336 12.3337 14.0867 10.1737 14.0867Z" fill="#41B619"/>
</svg>
