<svg width="29" height="29" viewBox="0 0 29 29" fill="none" xmlns="http://www.w3.org/2000/svg">
<path d="M29 14.5C29 14.5 23.5625 4.53125 14.5 4.53125C5.4375 4.53125 0 14.5 0 14.5C0 14.5 5.4375 24.4688 14.5 24.4688C23.5625 24.4688 29 14.5 29 14.5ZM2.12606 14.5C3.00243 13.168 4.01041 11.9275 5.13481 10.7971C7.4675 8.46075 10.6575 6.34375 14.5 6.34375C18.3425 6.34375 21.5307 8.46075 23.867 10.7971C24.9914 11.9275 25.9994 13.168 26.8758 14.5C26.7706 14.6577 26.6546 14.8317 26.5223 15.022C25.9151 15.892 25.0179 17.052 23.867 18.2029C21.5307 20.5393 18.3407 22.6562 14.5 22.6562C10.6575 22.6562 7.46931 20.5393 5.133 18.2029C4.00861 17.0725 3.00244 15.832 2.12606 14.5Z" fill="black"/>
<path d="M14.5 9.96875C13.2982 9.96875 12.1457 10.4461 11.2959 11.2959C10.4461 12.1457 9.96875 13.2982 9.96875 14.5C9.96875 15.7018 10.4461 16.8543 11.2959 17.7041C12.1457 18.5539 13.2982 19.0312 14.5 19.0312C15.7018 19.0312 16.8543 18.5539 17.7041 17.7041C18.5539 16.8543 19.0312 15.7018 19.0312 14.5C19.0312 13.2982 18.5539 12.1457 17.7041 11.2959C16.8543 10.4461 15.7018 9.96875 14.5 9.96875ZM8.15625 14.5C8.15625 12.8175 8.82461 11.204 10.0143 10.0143C11.204 8.82461 12.8175 8.15625 14.5 8.15625C16.1825 8.15625 17.796 8.82461 18.9857 10.0143C20.1754 11.204 20.8438 12.8175 20.8438 14.5C20.8438 16.1825 20.1754 17.796 18.9857 18.9857C17.796 20.1754 16.1825 20.8438 14.5 20.8438C12.8175 20.8438 11.204 20.1754 10.0143 18.9857C8.82461 17.796 8.15625 16.1825 8.15625 14.5Z" fill="black"/>
</svg>
