<svg width="34" height="35" viewBox="0 0 34 35" fill="none" xmlns="http://www.w3.org/2000/svg">
<path d="M20.5248 17.8804C20.5248 15.9866 19.0216 14.4455 17.174 14.4455C15.3266 14.4455 13.8235 15.9866 13.8235 17.8804C13.8235 19.7747 15.3266 21.3154 17.174 21.3154C19.0216 21.3154 20.5248 19.7747 20.5248 17.8804ZM25.5029 0H8.4971C3.81179 0 0 3.90798 0 8.7114V11.1386H12.5035C13.8228 10.1751 15.4342 9.60593 17.174 9.60593C18.9138 9.60593 20.5254 10.1751 21.8448 11.1386H34V8.7114C34 3.90795 30.1882 0 25.5029 0ZM28.9441 8.28522C28.9441 8.81754 28.5194 9.25315 28 9.25315H25.0829C24.5635 9.25315 24.1387 8.81754 24.1387 8.28522V5.29429C24.1387 4.762 24.5635 4.32635 25.0829 4.32635H28C28.5194 4.32635 28.9441 4.76193 28.9441 5.29429V8.28522ZM25.2454 17.8804C25.2454 22.4434 21.6244 26.155 17.174 26.155C12.7235 26.155 9.10282 22.4434 9.10282 17.8804C9.10282 16.6242 9.37881 15.4329 9.86961 14.365H0V26.2886C0 31.0924 3.81179 35 8.4971 35H25.5029C30.1882 35 34 31.0923 34 26.2886V14.365H24.4786C24.9694 15.4329 25.2454 16.6242 25.2454 17.8804Z" fill="#41B619"/>
</svg>
