<svg width="14" height="18" viewBox="0 0 14 18" fill="none" xmlns="http://www.w3.org/2000/svg">
<path d="M7 6.3C8.30941 13.149 5.35294 18 5.35294 18H7.82353C9.37176 12.78 8.64706 9.081 8.23529 7.2L7 6.3ZM10.0141 4.644C10.1541 4.833 10.2941 5.031 10.4012 5.238C11.0722 6.39728 11.384 7.76177 11.2906 9.12972C11.1972 10.4977 10.7034 11.7964 9.88235 12.834C10.2381 11.8914 10.3827 10.8695 10.3039 9.85349C10.2251 8.83747 9.92528 7.85673 9.42941 6.993C9.36353 6.876 9.28941 6.777 9.22353 6.669C8.75 5.94669 8.14424 5.33986 7.44471 4.887C6.25888 5.30062 5.22408 6.11554 4.48984 7.21402C3.75559 8.3125 3.35992 9.63765 3.36 10.998C3.36 11.664 3.45059 12.303 3.61529 12.897C2.90124 11.8115 2.51803 10.5079 2.52 9.171C2.52 7.056 3.45882 5.184 4.9 4.014C3.70588 3.915 2.43765 4.203 1.33412 4.95C0.823529 5.319 0.378824 5.742 0 6.219C0.452941 5.022 1.23529 3.951 2.30588 3.213C3.54118 2.367 4.94118 2.088 6.29177 2.304C5.95412 1.8 5.54235 1.323 5.04824 0.9C4.57059 0.522 4.05176 0.216 3.50824 0C4.69412 0.036 5.88 0.45 6.89294 1.287C7.41176 1.71 7.82353 2.223 8.15294 2.763C8.23529 2.763 8.30941 2.754 8.39176 2.754C11.0271 2.754 13.2588 4.653 14 7.272C13.5367 6.558 12.9435 5.95611 12.2577 5.50393C11.5719 5.05176 10.8081 4.75901 10.0141 4.644Z" fill="white"/>
</svg>
