<svg width="20" height="18" viewBox="0 0 20 18" fill="none" xmlns="http://www.w3.org/2000/svg">
<path d="M7.28944 17.125H6.2496C6.14511 17.125 6.04231 17.0987 5.95058 17.0487C5.85885 16.9987 5.78112 16.9265 5.72451 16.8387C5.66789 16.7508 5.6342 16.6502 5.6265 16.546C5.61881 16.4418 5.63736 16.3374 5.68046 16.2422L8.19842 10.6855L4.41757 10.6016L3.03866 12.2723C2.77577 12.6027 2.566 12.75 2.03085 12.75H1.33085C1.22002 12.7536 1.10996 12.7304 1.01 12.6824C0.910043 12.6343 0.823131 12.563 0.75663 12.4742C0.663661 12.3488 0.572255 12.1363 0.661317 11.8332L1.43554 9.05977C1.4414 9.03906 1.44843 9.01836 1.45624 8.99805C1.45663 8.99611 1.45663 8.99412 1.45624 8.99219C1.44817 8.97189 1.44126 8.95116 1.43554 8.93008L0.660536 6.13906C0.576552 5.8418 0.668349 5.63398 0.760536 5.51172C0.822441 5.42958 0.902755 5.36311 0.995022 5.31765C1.08729 5.2722 1.18893 5.24903 1.29179 5.25H2.03085C2.43046 5.25 2.81835 5.4293 3.04647 5.71875L4.39686 7.36133L8.19842 7.30508L5.68124 1.7582C5.63808 1.66307 5.61946 1.55863 5.62707 1.45444C5.63469 1.35025 5.6683 1.24963 5.72483 1.16178C5.78136 1.07393 5.85902 1.00165 5.95069 0.951554C6.04236 0.901456 6.14513 0.875136 6.2496 0.875H7.30077C7.44742 0.877947 7.59152 0.913891 7.72238 0.980164C7.85323 1.04644 7.96748 1.14134 8.05663 1.25781L12.9414 7.19531L15.198 7.13594C15.3633 7.12695 15.8211 7.12383 15.9269 7.12383C18.0855 7.125 19.3746 7.82578 19.3746 9C19.3746 9.36953 19.2269 10.0547 18.239 10.4906C17.6558 10.7484 16.8777 10.8789 15.9262 10.8789C15.8215 10.8789 15.3648 10.8758 15.1973 10.8668L12.941 10.8066L8.04413 16.7441C7.9549 16.8601 7.84076 16.9545 7.71013 17.0205C7.5795 17.0864 7.43573 17.1221 7.28944 17.125V17.125Z" fill="white"/>
</svg>
