<svg width="24" height="24" viewBox="0 0 24 24" fill="none" xmlns="http://www.w3.org/2000/svg">
<path fill-rule="evenodd" clip-rule="evenodd" d="M19.1216 12.936C19.1576 12.636 19.1816 12.324 19.1816 12C19.1816 11.676 19.1576 11.364 19.1096 11.064L21.1376 9.48002C21.3176 9.33602 21.3656 9.07202 21.2576 8.86802L19.3376 5.54402C19.2176 5.32802 18.9656 5.25602 18.7496 5.32802L16.3616 6.28802C15.8576 5.90402 15.3296 5.59202 14.7416 5.35202L14.3816 2.80802C14.3456 2.56802 14.1416 2.40002 13.9016 2.40002H10.0616C9.82155 2.40002 9.62955 2.56802 9.59355 2.80802L9.23355 5.35202C8.64555 5.59202 8.10555 5.91602 7.61355 6.28802L5.22555 5.32802C5.00955 5.24402 4.75755 5.32802 4.63755 5.54402L2.71755 8.86802C2.59755 9.08402 2.64555 9.33602 2.83755 9.48002L4.86555 11.064C4.81755 11.364 4.78155 11.688 4.78155 12C4.78155 12.312 4.80555 12.636 4.85355 12.936L2.82555 14.52C2.64555 14.664 2.59755 14.928 2.70555 15.132L4.62555 18.456C4.74555 18.672 4.99755 18.744 5.21355 18.672L7.60155 17.712C8.10555 18.096 8.63355 18.408 9.22155 18.648L9.58155 21.192C9.62955 21.432 9.82155 21.6 10.0616 21.6H13.9016C14.1416 21.6 14.3456 21.432 14.3696 21.192L14.7296 18.648C15.3176 18.408 15.8576 18.084 16.3496 17.712L18.7376 18.672C18.9536 18.756 19.2056 18.672 19.3256 18.456L21.2456 15.132C21.3656 14.916 21.3176 14.664 21.1256 14.52L19.1216 12.936V12.936ZM11.9816 15.6C10.0016 15.6 8.38155 13.98 8.38155 12C8.38155 10.02 10.0016 8.40002 11.9816 8.40002C13.9616 8.40002 15.5816 10.02 15.5816 12C15.5816 13.98 13.9616 15.6 11.9816 15.6Z" fill="black" fill-opacity="0.87"/>
</svg>
