<svg width="18" height="18" viewBox="0 0 18 18" fill="none" xmlns="http://www.w3.org/2000/svg">
<path d="M16.3113 7.46246L15.1713 4.04246C15.0059 3.54453 14.6878 3.11138 14.2622 2.80455C13.8366 2.49772 13.3251 2.33283 12.8005 2.33329H10.668V0.666626H7.33464V2.33329H5.20214C4.67746 2.33283 4.16598 2.49772 3.74037 2.80455C3.31476 3.11138 2.99668 3.54453 2.8313 4.04246L1.6913 7.46246C1.38815 7.58931 1.12927 7.80294 0.947191 8.0765C0.765113 8.35006 0.667968 8.67134 0.667969 8.99996V13.1666C0.667969 13.7816 1.00464 14.3133 1.5013 14.6025V16.5C1.5013 16.721 1.5891 16.9329 1.74538 17.0892C1.90166 17.2455 2.11362 17.3333 2.33464 17.3333H3.16797C3.38898 17.3333 3.60094 17.2455 3.75722 17.0892C3.9135 16.9329 4.0013 16.721 4.0013 16.5V14.8333H14.0013V16.5C14.0013 16.721 14.0891 16.9329 14.2454 17.0892C14.4017 17.2455 14.6136 17.3333 14.8346 17.3333H15.668C15.889 17.3333 16.1009 17.2455 16.2572 17.0892C16.4135 16.9329 16.5013 16.721 16.5013 16.5V14.6025C16.7541 14.4575 16.9643 14.2484 17.1106 13.9963C17.2569 13.7443 17.3342 13.4581 17.3346 13.1666V8.99996C17.3346 8.67134 17.2375 8.35006 17.0554 8.0765C16.8733 7.80294 16.6145 7.58931 16.3113 7.46246ZM5.20214 3.99996H12.7996C13.1588 3.99996 13.4771 4.22829 13.5905 4.56996L14.5121 7.33329H3.49047L4.4113 4.56996C4.46659 4.40395 4.57273 4.25956 4.71468 4.15726C4.85662 4.05495 5.02717 3.99992 5.20214 3.99996V3.99996ZM3.58464 12.3333C3.42043 12.3332 3.25784 12.3008 3.10615 12.238C2.95447 12.1751 2.81665 12.0829 2.70058 11.9668C2.58451 11.8506 2.49245 11.7127 2.42966 11.561C2.36687 11.4093 2.33458 11.2467 2.33464 11.0825C2.33469 10.9183 2.36709 10.7557 2.42998 10.604C2.49287 10.4523 2.58502 10.3145 2.70117 10.1984C2.81732 10.0823 2.95519 9.99027 3.10692 9.92748C3.25865 9.86469 3.42126 9.8324 3.58547 9.83246C3.9171 9.83257 4.2351 9.96442 4.46952 10.199C4.70395 10.4336 4.83558 10.7517 4.83547 11.0833C4.83536 11.4149 4.70351 11.7329 4.46894 11.9673C4.23436 12.2018 3.91627 12.3334 3.58464 12.3333V12.3333ZM14.418 12.3333C14.2538 12.3332 14.0912 12.3008 13.9395 12.238C13.7878 12.1751 13.65 12.0829 13.5339 11.9668C13.4178 11.8506 13.3258 11.7127 13.263 11.561C13.2002 11.4093 13.1679 11.2467 13.168 11.0825C13.168 10.9183 13.2004 10.7557 13.2633 10.604C13.3262 10.4523 13.4184 10.3145 13.5345 10.1984C13.6507 10.0823 13.7885 9.99027 13.9403 9.92748C14.092 9.86469 14.2546 9.8324 14.4188 9.83246C14.7504 9.83257 15.0684 9.96442 15.3029 10.199C15.5373 10.4336 15.6689 10.7517 15.6688 11.0833C15.6687 11.4149 15.5368 11.7329 15.3023 11.9673C15.0677 12.2018 14.7496 12.3334 14.418 12.3333V12.3333Z" fill="white"/>
</svg>
