<svg width="17" height="21" viewBox="0 0 17 21" fill="none" xmlns="http://www.w3.org/2000/svg">
<path d="M9.15385 6.5625C9.15385 6.38845 9.08496 6.22153 8.96234 6.09846C8.83972 5.97539 8.67341 5.90625 8.5 5.90625C8.32659 5.90625 8.16028 5.97539 8.03766 6.09846C7.91504 6.22153 7.84615 6.38845 7.84615 6.5625V10.5H5.23077C5.05736 10.5 4.89105 10.5691 4.76843 10.6922C4.64581 10.8153 4.57692 10.9822 4.57692 11.1562C4.57692 11.3303 4.64581 11.4972 4.76843 11.6203C4.89105 11.7434 5.05736 11.8125 5.23077 11.8125H8.5C8.67341 11.8125 8.83972 11.7434 8.96234 11.6203C9.08496 11.4972 9.15385 11.3303 9.15385 11.1562V6.5625Z" fill="black"/>
<path d="M2.61538 2.18794V2.69062C1.87695 2.84191 1.21328 3.24462 0.736684 3.8306C0.260089 4.41657 -0.000153752 5.14982 6.81493e-08 5.90625V15.0938C-0.000153752 15.8502 0.260089 16.5834 0.736684 17.1694C1.21328 17.7554 1.87695 18.1581 2.61538 18.3094V18.8121C2.61538 20.0196 3.59092 21 4.79531 21H10.897C12.1001 21 13.0769 20.0209 13.0769 18.8121V18.3094C13.8154 18.1581 14.479 17.7554 14.9556 17.1694C15.4322 16.5834 15.6925 15.8502 15.6923 15.0938V10.5H16.3462C16.5196 10.5 16.6859 10.4309 16.8085 10.3078C16.9311 10.1847 17 10.0178 17 9.84375V7.21875C17 7.0447 16.9311 6.87778 16.8085 6.75471C16.6859 6.63164 16.5196 6.5625 16.3462 6.5625H15.6923V5.90625C15.6925 5.14982 15.4322 4.41657 14.9556 3.8306C14.479 3.24462 13.8154 2.84191 13.0769 2.69062V2.18794C13.0769 0.980438 12.1014 0 10.897 0H4.79531C3.59223 0 2.61538 0.979125 2.61538 2.18794ZM3.26923 3.9375H12.4231C12.9433 3.9375 13.4422 4.14492 13.8101 4.51413C14.178 4.88335 14.3846 5.38411 14.3846 5.90625V15.0938C14.3846 15.6159 14.178 16.1167 13.8101 16.4859C13.4422 16.8551 12.9433 17.0625 12.4231 17.0625H3.26923C2.749 17.0625 2.25007 16.8551 1.88221 16.4859C1.51435 16.1167 1.30769 15.6159 1.30769 15.0938V5.90625C1.30769 5.38411 1.51435 4.88335 1.88221 4.51413C2.25007 4.14492 2.749 3.9375 3.26923 3.9375Z" fill="black"/>
</svg>
