<svg width="35" height="35" viewBox="0 0 35 35" fill="none" xmlns="http://www.w3.org/2000/svg">
<path d="M20.9408 26.7741V23.1966C20.9408 22.4371 20.7205 22.0573 20.2799 22.0573C20.0217 22.0573 19.7711 22.1788 19.528 22.4219V27.526C19.7711 27.7691 20.0217 27.8906 20.2799 27.8906C20.7205 27.8906 20.9408 27.5184 20.9408 26.7741ZM25.1335 23.9941H26.6374V23.2194C26.6374 22.4447 26.3867 22.0573 25.8854 22.0573C25.3841 22.0573 25.1335 22.4447 25.1335 23.2194V23.9941ZM12.1224 17.9329V19.528H10.2995V29.1667H8.61328V19.528H6.83594V17.9329H12.1224ZM16.7025 20.804V29.1667H15.1758V28.2552C14.5833 28.9388 14.0061 29.2806 13.444 29.2806C12.9427 29.2806 12.6237 29.0679 12.487 28.6426C12.3958 28.3843 12.3503 27.9742 12.3503 27.4121V20.804H13.8542V26.9564C13.8542 27.321 13.8618 27.5184 13.877 27.5488C13.8921 27.7767 14.0061 27.8906 14.2188 27.8906C14.5226 27.8906 14.8416 27.6552 15.1758 27.1842V20.804H16.7025ZM22.4447 23.3333V26.6602C22.4447 27.4501 22.3915 28.0046 22.2852 28.3236C22.1029 28.9616 21.7003 29.2806 21.0775 29.2806C20.5458 29.2806 20.0293 28.9692 19.528 28.3464V29.1667H18.0013V17.9329H19.528V21.6016C20.0141 20.9939 20.5306 20.6901 21.0775 20.6901C21.7003 20.6901 22.1029 21.0091 22.2852 21.6471C22.3915 21.9661 22.4447 22.5282 22.4447 23.3333ZM28.1641 26.2728V26.4779C28.1641 26.9184 28.1489 27.245 28.1185 27.4577C28.0729 27.7919 27.959 28.0957 27.7767 28.3691C27.3665 28.9768 26.7589 29.2806 25.9538 29.2806C25.1638 29.2806 24.5486 28.992 24.1081 28.4147C23.7891 28.0046 23.6296 27.3513 23.6296 26.4551V23.5156C23.6296 22.6194 23.7815 21.9661 24.0853 21.556C24.5258 20.9787 25.1335 20.6901 25.9082 20.6901C26.6829 20.6901 27.2754 20.9787 27.6855 21.556C28.0046 21.9965 28.1641 22.6497 28.1641 23.5156V25.2474H25.1335V26.7285C25.1335 27.5033 25.3917 27.8906 25.9082 27.8906C26.2728 27.8906 26.5007 27.6931 26.5918 27.2982C26.5918 27.283 26.5956 27.2298 26.6032 27.1387C26.6108 27.0475 26.6146 26.9222 26.6146 26.7627V26.2728H28.1641ZM17.8874 7.49675V11.0514C17.8874 11.8262 17.6443 12.2135 17.1582 12.2135C16.6721 12.2135 16.429 11.8262 16.429 11.0514V7.49675C16.429 6.70681 16.6721 6.31185 17.1582 6.31185C17.6443 6.31185 17.8874 6.70681 17.8874 7.49675ZM30.0326 23.7435C30.0326 21.0547 29.8882 19.0799 29.5996 17.819C29.4477 17.1506 29.1211 16.5923 28.6198 16.1442C28.1185 15.6961 27.5412 15.434 26.888 15.3581C24.8221 15.1302 21.6927 15.0163 17.5 15.0163C13.3225 15.0163 10.2007 15.1302 8.13477 15.3581C7.46636 15.434 6.88531 15.6961 6.3916 16.1442C5.8979 16.5923 5.57509 17.1506 5.42318 17.819C5.11936 19.1406 4.96745 21.1155 4.96745 23.7435C4.96745 26.4171 5.11936 28.3919 5.42318 29.668C5.57509 30.3212 5.8979 30.8757 6.3916 31.3314C6.88531 31.7871 7.45877 32.053 8.11198 32.1289C10.1931 32.3568 13.3225 32.4707 17.5 32.4707C21.6775 32.4707 24.8069 32.3568 26.888 32.1289C27.5412 32.053 28.1147 31.7871 28.6084 31.3314C29.1021 30.8757 29.4249 30.3212 29.5768 29.668C29.8806 28.3919 30.0326 26.4171 30.0326 23.7435ZM12.8288 8.90951L14.8796 2.16471H13.1706L12.0085 6.60807L10.8008 2.16471H9.02344C9.12977 2.51411 9.30447 3.03819 9.54753 3.73698L10.0944 5.30925C10.6261 6.87392 10.9755 8.074 11.1426 8.90951V13.4896H12.8288V8.90951ZM19.4141 10.7552V7.79297C19.4141 6.91189 19.2546 6.25109 18.9355 5.81055C18.495 5.23329 17.9026 4.94466 17.1582 4.94466C16.3835 4.94466 15.791 5.23329 15.3809 5.81055C15.0618 6.25109 14.9023 6.91189 14.9023 7.79297V10.7552C14.9023 11.6363 15.0618 12.2971 15.3809 12.7376C15.791 13.3149 16.3835 13.6035 17.1582 13.6035C17.9026 13.6035 18.495 13.3149 18.9355 12.7376C19.2546 12.3275 19.4141 11.6667 19.4141 10.7552ZM23.5384 13.4896H25.0651V5.05859H23.5384V11.5072C23.2042 11.9781 22.8852 12.2135 22.5814 12.2135C22.3535 12.2135 22.232 12.092 22.2168 11.849C22.2016 11.8186 22.194 11.6211 22.194 11.2565V5.05859H20.6673V11.735C20.6673 12.2971 20.7129 12.7148 20.804 12.9883C20.9711 13.3984 21.2977 13.6035 21.7839 13.6035C22.3307 13.6035 22.9156 13.2617 23.5384 12.5781V13.4896ZM35 6.5625V28.4375C35 30.2452 34.3582 31.7909 33.0745 33.0745C31.7909 34.3582 30.2452 35 28.4375 35H6.5625C4.75477 35 3.20909 34.3582 1.92546 33.0745C0.641819 31.7909 0 30.2452 0 28.4375V6.5625C0 4.75477 0.641819 3.20909 1.92546 1.92546C3.20909 0.641819 4.75477 0 6.5625 0H28.4375C30.2452 0 31.7909 0.641819 33.0745 1.92546C34.3582 3.20909 35 4.75477 35 6.5625Z" fill="#41B619"/>
</svg>
