<svg width="22" height="22" viewBox="0 0 22 22" fill="none" xmlns="http://www.w3.org/2000/svg">
<path fill-rule="evenodd" clip-rule="evenodd" d="M10.9987 1.8335C5.9387 1.8335 1.83203 5.94016 1.83203 11.0002C1.83203 16.0602 5.9387 20.1668 10.9987 20.1668C16.0587 20.1668 20.1654 16.0602 20.1654 11.0002C20.1654 5.94016 16.0587 1.8335 10.9987 1.8335ZM10.9987 18.3335C6.94703 18.3335 3.66536 15.0518 3.66536 11.0002C3.66536 6.9485 6.94703 3.66683 10.9987 3.66683C15.0504 3.66683 18.332 6.9485 18.332 11.0002C18.332 15.0518 15.0504 18.3335 10.9987 18.3335ZM10.9987 15.5835C13.53 15.5835 15.582 13.5315 15.582 11.0002C15.582 8.46886 13.53 6.41683 10.9987 6.41683C8.46739 6.41683 6.41536 8.46886 6.41536 11.0002C6.41536 13.5315 8.46739 15.5835 10.9987 15.5835Z" fill="#707070"/>
</svg>
