<svg width="148" height="45" viewBox="0 0 148 45" fill="none" xmlns="http://www.w3.org/2000/svg">
<path d="M0 7.39782C0 3.31212 3.31212 0 7.39782 0H140.004C144.089 0 147.402 3.31212 147.402 7.39782V36.9891C147.402 41.0748 144.089 44.3869 140.004 44.3869H7.39782C3.31211 44.3869 0 41.0748 0 36.9891V7.39782Z" fill="black"/>
<path d="M30.5281 27.6274C33.9959 25.7223 36.6247 24.2707 36.8512 24.1578C37.5761 23.7721 38.3246 22.7513 36.8512 21.9584C36.3755 21.709 33.8143 20.3026 30.5281 18.4888L25.9727 23.092L30.5281 27.6273V27.6274Z" fill="#FFD900"/>
<path d="M25.97 23.0918L11.4648 37.7189C11.8053 37.7641 12.1897 37.6737 12.6429 37.4245C13.5943 36.9034 23.6804 31.3922 30.5255 27.6283L25.97 23.0918Z" fill="#F43249"/>
<path d="M25.9691 23.0923L30.5246 18.5117C30.5246 18.5117 13.6622 9.30413 12.642 8.76059C12.2576 8.53281 11.8269 8.46515 11.4414 8.53281L25.9691 23.0923Z" fill="#00EE76"/>
<path d="M25.971 23.0922L11.4433 8.53271C10.8537 8.66911 10.3555 9.1903 10.3555 10.2562V35.9958C10.3555 36.9714 10.741 37.6741 11.4659 37.7419L25.971 23.0922Z" fill="#00D3FF"/>
<path d="M47.2864 26.9885H51.7385V32.8069C51.15 33.0013 50.5385 33.1574 49.9039 33.2751C49.2694 33.3877 48.5504 33.444 47.747 33.444C46.6314 33.444 45.6847 33.2239 44.9069 32.7839C44.1291 32.3438 43.538 31.6939 43.1337 30.8342C42.7295 29.9745 42.5273 28.9177 42.5273 27.664C42.5273 26.487 42.7525 25.4687 43.2028 24.609C43.6583 23.7493 44.321 23.084 45.1909 22.6132C46.066 22.1424 47.1329 21.907 48.3918 21.907C48.9854 21.907 49.5713 21.971 50.1496 22.0989C50.7278 22.2269 51.2523 22.3932 51.7231 22.5979L50.9325 24.5015C50.5897 24.3275 50.1982 24.1817 49.7581 24.064C49.318 23.9463 48.8575 23.8874 48.3764 23.8874C47.6856 23.8874 47.0843 24.0461 46.5726 24.3633C46.066 24.6806 45.6719 25.1258 45.3905 25.6989C45.1141 26.267 44.976 26.9373 44.976 27.71C44.976 28.4418 45.0758 29.0917 45.2753 29.6597C45.4749 30.2226 45.7896 30.6653 46.2195 30.9877C46.6493 31.305 47.2097 31.4636 47.9005 31.4636C48.2383 31.4636 48.5223 31.4482 48.7525 31.4175C48.9879 31.3817 49.208 31.3459 49.4127 31.3101V28.9689H47.2864V26.9885Z" fill="white"/>
<path d="M62.5036 28.9843C62.5036 29.7007 62.4063 30.3352 62.2119 30.8879C62.0225 31.4406 61.7436 31.9088 61.3752 32.2926C61.0119 32.6713 60.5718 32.9578 60.0549 33.1523C59.5432 33.3468 58.9649 33.444 58.3202 33.444C57.7163 33.444 57.1611 33.3468 56.6545 33.1523C56.153 32.9578 55.7155 32.6713 55.3419 32.2926C54.9735 31.9088 54.6869 31.4406 54.4822 30.8879C54.2826 30.3352 54.1828 29.7007 54.1828 28.9843C54.1828 28.0324 54.3517 27.2265 54.6894 26.5663C55.0272 25.9062 55.5082 25.4047 56.1325 25.0618C56.7568 24.719 57.5014 24.5476 58.3662 24.5476C59.1696 24.5476 59.8809 24.719 60.5001 25.0618C61.1245 25.4047 61.6132 25.9062 61.9662 26.5663C62.3245 27.2265 62.5036 28.0324 62.5036 28.9843ZM56.5701 28.9843C56.5701 29.5472 56.6315 30.0205 56.7543 30.4043C56.8771 30.7881 57.069 31.0772 57.33 31.2717C57.591 31.4662 57.9313 31.5634 58.3509 31.5634C58.7654 31.5634 59.1006 31.4662 59.3564 31.2717C59.6174 31.0772 59.8067 30.7881 59.9244 30.4043C60.0473 30.0205 60.1087 29.5472 60.1087 28.9843C60.1087 28.4162 60.0473 27.9454 59.9244 27.5719C59.8067 27.1932 59.6174 26.9092 59.3564 26.7199C59.0954 26.5305 58.7551 26.4358 58.3355 26.4358C57.7163 26.4358 57.266 26.6482 56.9846 27.0729C56.7082 27.4977 56.5701 28.1348 56.5701 28.9843Z" fill="white"/>
<path d="M72.7083 28.9843C72.7083 29.7007 72.6111 30.3352 72.4166 30.8879C72.2273 31.4406 71.9484 31.9088 71.5799 32.2926C71.2166 32.6713 70.7765 32.9578 70.2597 33.1523C69.7479 33.3468 69.1697 33.444 68.5249 33.444C67.9211 33.444 67.3658 33.3468 66.8592 33.1523C66.3577 32.9578 65.9202 32.6713 65.5466 32.2926C65.1782 31.9088 64.8916 31.4406 64.6869 30.8879C64.4873 30.3352 64.3876 29.7007 64.3876 28.9843C64.3876 28.0324 64.5564 27.2265 64.8942 26.5663C65.2319 25.9062 65.7129 25.4047 66.3372 25.0618C66.9616 24.719 67.7061 24.5476 68.571 24.5476C69.3744 24.5476 70.0857 24.719 70.7049 25.0618C71.3292 25.4047 71.8179 25.9062 72.171 26.5663C72.5292 27.2265 72.7083 28.0324 72.7083 28.9843ZM66.7748 28.9843C66.7748 29.5472 66.8362 30.0205 66.959 30.4043C67.0818 30.7881 67.2737 31.0772 67.5347 31.2717C67.7957 31.4662 68.136 31.5634 68.5556 31.5634C68.9701 31.5634 69.3053 31.4662 69.5611 31.2717C69.8221 31.0772 70.0115 30.7881 70.1292 30.4043C70.252 30.0205 70.3134 29.5472 70.3134 28.9843C70.3134 28.4162 70.252 27.9454 70.1292 27.5719C70.0115 27.1932 69.8221 26.9092 69.5611 26.7199C69.3002 26.5305 68.9599 26.4358 68.5402 26.4358C67.9211 26.4358 67.4707 26.6482 67.1893 27.0729C66.9129 27.4977 66.7748 28.1348 66.7748 28.9843Z" fill="white"/>
<path d="M77.6243 37.067C76.4268 37.067 75.5108 36.8572 74.8763 36.4376C74.2469 36.0231 73.9321 35.4397 73.9321 34.6875C73.9321 34.1706 74.0933 33.7382 74.4157 33.3903C74.7381 33.0423 75.2115 32.7941 75.8358 32.6457C75.5953 32.5433 75.3855 32.377 75.2064 32.1468C75.0272 31.9114 74.9377 31.6632 74.9377 31.4022C74.9377 31.0747 75.0324 30.8035 75.2217 30.5885C75.411 30.3685 75.6848 30.1536 76.043 29.9438C75.5927 29.7493 75.2345 29.4371 74.9684 29.0073C74.7074 28.5774 74.5769 28.0708 74.5769 27.4874C74.5769 26.8631 74.7125 26.3335 74.9838 25.8985C75.2601 25.4584 75.6592 25.1233 76.1812 24.893C76.7083 24.6627 77.3479 24.5476 78.1002 24.5476C78.2588 24.5476 78.4431 24.5578 78.6529 24.5783C78.8627 24.5987 79.0546 24.6218 79.2286 24.6473C79.4077 24.6729 79.5279 24.6934 79.5893 24.7087H82.583V25.8985L81.2397 26.2439C81.3625 26.4333 81.4546 26.6354 81.516 26.8503C81.5774 27.0653 81.6081 27.293 81.6081 27.5335C81.6081 28.4546 81.2857 29.1736 80.6409 29.6904C80.0013 30.2022 79.1109 30.458 77.9697 30.458C77.6985 30.4427 77.4426 30.4222 77.2021 30.3966C77.0844 30.4887 76.9949 30.586 76.9334 30.6883C76.872 30.7907 76.8413 30.8981 76.8413 31.0107C76.8413 31.1233 76.8874 31.218 76.9795 31.2947C77.0767 31.3664 77.22 31.4227 77.4094 31.4636C77.6038 31.4994 77.8443 31.5173 78.1309 31.5173H79.5893C80.5309 31.5173 81.2473 31.7195 81.7386 32.1237C82.235 32.528 82.4832 33.1216 82.4832 33.9045C82.4832 34.9075 82.0635 35.6854 81.2243 36.238C80.3902 36.7907 79.1902 37.067 77.6243 37.067ZM77.7241 35.5395C78.2819 35.5395 78.7603 35.4858 79.1595 35.3783C79.5637 35.276 79.8733 35.1276 80.0883 34.9331C80.3032 34.7438 80.4107 34.5161 80.4107 34.25C80.4107 34.035 80.3467 33.8636 80.2188 33.7357C80.0959 33.6129 79.9066 33.5259 79.6507 33.4747C79.4 33.4235 79.0776 33.3979 78.6836 33.3979H77.4708C77.1842 33.3979 76.9258 33.444 76.6955 33.5361C76.4703 33.6282 76.2912 33.7561 76.1582 33.9199C76.0251 34.0888 75.9586 34.2832 75.9586 34.5033C75.9586 34.8257 76.1121 35.079 76.4192 35.2632C76.7313 35.4474 77.1663 35.5395 77.7241 35.5395ZM78.1002 29.0303C78.5403 29.0303 78.8627 28.8947 79.0674 28.6235C79.2721 28.3523 79.3744 27.9838 79.3744 27.5182C79.3744 27.0013 79.2669 26.6149 79.052 26.3591C78.8422 26.0981 78.5249 25.9676 78.1002 25.9676C77.6703 25.9676 77.3479 26.0981 77.133 26.3591C76.9181 26.6149 76.8106 27.0013 76.8106 27.5182C76.8106 27.9838 76.9155 28.3523 77.1253 28.6235C77.3403 28.8947 77.6652 29.0303 78.1002 29.0303Z" fill="white"/>
<path d="M86.8158 33.2905H84.4746V21.3467H86.8158V33.2905Z" fill="white"/>
<path d="M93.29 24.5476C94.0832 24.5476 94.7663 24.7011 95.3395 25.0081C95.9126 25.31 96.3553 25.7501 96.6674 26.3284C96.9796 26.9066 97.1356 27.6128 97.1356 28.4469V29.583H91.6013C91.6269 30.2431 91.8239 30.7625 92.1923 31.1412C92.5659 31.5148 93.0827 31.7015 93.7429 31.7015C94.2904 31.7015 94.7919 31.6453 95.2474 31.5327C95.7028 31.4201 96.171 31.2512 96.6521 31.0261V32.8376C96.2273 33.0474 95.7821 33.2009 95.3164 33.2981C94.8559 33.3954 94.2955 33.444 93.6354 33.444C92.7757 33.444 92.0132 33.2854 91.348 32.9681C90.6878 32.6508 90.1684 32.1672 89.7898 31.5173C89.4162 30.8674 89.2294 30.0487 89.2294 29.061C89.2294 28.058 89.3983 27.2239 89.736 26.5587C90.0789 25.8883 90.5548 25.3868 91.1638 25.0542C91.7727 24.7164 92.4815 24.5476 93.29 24.5476ZM93.3053 26.2132C92.8499 26.2132 92.4712 26.3591 92.1693 26.6508C91.8725 26.9425 91.7011 27.4005 91.655 28.0248H94.9403C94.9352 27.6768 94.8712 27.3672 94.7484 27.096C94.6307 26.8248 94.4516 26.6098 94.2111 26.4512C93.9757 26.2926 93.6738 26.2132 93.3053 26.2132Z" fill="white"/>
<path d="M107.835 22.0682C109.283 22.0682 110.34 22.3804 111.005 23.0047C111.67 23.6239 112.003 24.4785 112.003 25.5685C112.003 26.0597 111.929 26.5305 111.78 26.9808C111.632 27.426 111.389 27.8226 111.051 28.1706C110.719 28.5186 110.273 28.7949 109.716 28.9996C109.158 29.1992 108.47 29.299 107.651 29.299H106.63V33.2905H104.25V22.0682H107.835ZM107.712 24.0179H106.63V27.3493H107.413C107.858 27.3493 108.244 27.2904 108.572 27.1727C108.899 27.055 109.153 26.8708 109.332 26.6201C109.511 26.3693 109.6 26.0469 109.6 25.6529C109.6 25.1002 109.447 24.6908 109.14 24.4247C108.833 24.1535 108.357 24.0179 107.712 24.0179Z" fill="white"/>
<path d="M116.75 33.2905H114.409V21.3467H116.75V33.2905Z" fill="white"/>
<path d="M123.201 24.5322C124.353 24.5322 125.235 24.783 125.85 25.2844C126.464 25.7859 126.771 26.5484 126.771 27.5719V33.2905H125.136L124.683 32.1237H124.621C124.376 32.4308 124.125 32.6815 123.869 32.876C123.613 33.0704 123.319 33.2137 122.986 33.3058C122.654 33.3979 122.25 33.444 121.774 33.444C121.267 33.444 120.812 33.3468 120.407 33.1523C120.008 32.9578 119.693 32.661 119.463 32.2619C119.233 31.8576 119.118 31.3459 119.118 30.7267C119.118 29.8158 119.438 29.1455 120.077 28.7156C120.717 28.2806 121.676 28.0401 122.956 27.9941L124.445 27.948V27.5719C124.445 27.1216 124.327 26.7915 124.092 26.5817C123.856 26.3719 123.529 26.267 123.109 26.267C122.695 26.267 122.288 26.3258 121.889 26.4435C121.49 26.5612 121.09 26.7096 120.691 26.8887L119.916 25.3075C120.371 25.067 120.881 24.8776 121.444 24.7395C122.012 24.6013 122.598 24.5322 123.201 24.5322ZM124.445 29.3143L123.539 29.345C122.782 29.3655 122.255 29.5011 121.958 29.7519C121.666 30.0026 121.52 30.3327 121.52 30.7421C121.52 31.1003 121.625 31.3561 121.835 31.5096C122.045 31.6581 122.319 31.7323 122.656 31.7323C123.158 31.7323 123.58 31.5838 123.923 31.287C124.271 30.9902 124.445 30.5681 124.445 30.0205V29.3143Z" fill="white"/>
<path d="M128.432 24.7087H130.996L132.615 29.5369C132.667 29.6904 132.71 29.8465 132.746 30.0052C132.782 30.1638 132.812 30.3276 132.838 30.4964C132.864 30.6653 132.884 30.8418 132.899 31.0261H132.946C132.976 30.7497 133.017 30.4913 133.068 30.2508C133.125 30.0103 133.194 29.7723 133.276 29.5369L134.865 24.7087H137.375L133.744 34.3881C133.524 34.9817 133.237 35.4756 132.884 35.8696C132.531 36.2687 132.124 36.5681 131.664 36.7677C131.208 36.9673 130.707 37.067 130.159 37.067C129.893 37.067 129.663 37.0517 129.468 37.021C129.274 36.9954 129.108 36.9673 128.969 36.9366V35.079C129.077 35.1046 129.212 35.1276 129.376 35.1481C129.54 35.1685 129.711 35.1788 129.89 35.1788C130.218 35.1788 130.499 35.1097 130.735 34.9715C130.97 34.8333 131.167 34.6466 131.326 34.4112C131.485 34.1809 131.61 33.9276 131.702 33.6512L131.84 33.2291L128.432 24.7087Z" fill="white"/>
<path d="M50.9131 15.1013V15.7931H46.0571V15.1013H50.9131ZM46.1937 15.1013V17.3706H45.3521L45.3477 15.1013H46.1937ZM51.6534 15.1013L51.6446 17.3662H50.8029V15.1013H51.6534ZM50.0803 9.37719V10.0734H47.2689V9.37719H50.0803ZM50.8118 9.37719V15.7931H49.9657V9.37719H50.8118ZM46.9781 9.37719H47.8285L47.6963 11.9594C47.6787 12.3472 47.642 12.7056 47.5862 13.0346C47.5304 13.3607 47.4613 13.6589 47.3791 13.9291C47.2968 14.1994 47.2028 14.4418 47.0971 14.6562C46.9913 14.8677 46.8782 15.0513 46.7577 15.207C46.6373 15.3598 46.511 15.4861 46.3788 15.586C46.2495 15.6829 46.1188 15.752 45.9866 15.7931H45.5988V15.1013H45.872C45.9484 15.019 46.0351 14.9 46.132 14.7444C46.2319 14.5887 46.3303 14.3874 46.4273 14.1407C46.5271 13.891 46.6138 13.5869 46.6872 13.2285C46.7636 12.8701 46.815 12.4471 46.8415 11.9594L46.9781 9.37719Z" fill="white"/>
<path d="M57.4877 12.3824V12.7879C57.4877 13.2696 57.4274 13.7015 57.307 14.0834C57.1865 14.4653 57.0132 14.7899 56.787 15.0572C56.5608 15.3245 56.2891 15.5287 55.9718 15.6697C55.6575 15.8107 55.305 15.8812 54.9142 15.8812C54.5353 15.8812 54.1872 15.8107 53.8699 15.6697C53.5556 15.5287 53.2824 15.3245 53.0503 15.0572C52.8211 14.7899 52.6434 14.4653 52.5171 14.0834C52.3908 13.7015 52.3276 13.2696 52.3276 12.7879V12.3824C52.3276 11.9007 52.3893 11.4703 52.5127 11.0913C52.639 10.7094 52.8167 10.3848 53.0459 10.1175C53.275 9.84722 53.5467 9.64159 53.8611 9.50058C54.1784 9.35957 54.5265 9.28906 54.9054 9.28906C55.2961 9.28906 55.6487 9.35957 55.963 9.50058C56.2803 9.64159 56.552 9.84722 56.7782 10.1175C57.0073 10.3848 57.1821 10.7094 57.3026 11.0913C57.426 11.4703 57.4877 11.9007 57.4877 12.3824ZM56.646 12.7879V12.3736C56.646 11.9917 56.6064 11.6539 56.527 11.3601C56.4507 11.0664 56.3376 10.8196 56.1877 10.6198C56.0379 10.4201 55.8543 10.2688 55.6369 10.166C55.4225 10.0631 55.1786 10.0117 54.9054 10.0117C54.641 10.0117 54.4016 10.0631 54.1872 10.166C53.9757 10.2688 53.7935 10.4201 53.6408 10.6198C53.4909 10.8196 53.3749 11.0664 53.2926 11.3601C53.2104 11.6539 53.1693 11.9917 53.1693 12.3736V12.7879C53.1693 13.1727 53.2104 13.5135 53.2926 13.8102C53.3749 14.1039 53.4924 14.3522 53.6452 14.5549C53.8009 14.7546 53.9845 14.9059 54.196 15.0087C54.4104 15.1116 54.6499 15.163 54.9142 15.163C55.1904 15.163 55.4357 15.1116 55.6501 15.0087C55.8646 14.9059 56.0453 14.7546 56.1921 14.5549C56.342 14.3522 56.4551 14.1039 56.5314 13.8102C56.6078 13.5135 56.646 13.1727 56.646 12.7879Z" fill="white"/>
<path d="M62.6345 13.7529H63.4805C63.4365 14.1583 63.3204 14.5211 63.1324 14.8413C62.9444 15.1615 62.6786 15.4156 62.3348 15.6036C61.9911 15.7887 61.5622 15.8812 61.0481 15.8812C60.6721 15.8812 60.3299 15.8107 60.0214 15.6697C59.7159 15.5287 59.453 15.329 59.2326 15.0704C59.0123 14.809 58.8419 14.4961 58.7215 14.1318C58.604 13.7646 58.5452 13.3563 58.5452 12.9068V12.2679C58.5452 11.8184 58.604 11.4115 58.7215 11.0473C58.8419 10.6801 59.0138 10.3657 59.2371 10.1043C59.4633 9.84282 59.735 9.64159 60.0523 9.50058C60.3695 9.35957 60.7265 9.28906 61.1231 9.28906C61.6078 9.28906 62.0176 9.38013 62.3525 9.56227C62.6874 9.7444 62.9474 9.99705 63.1324 10.3202C63.3204 10.6404 63.4365 11.012 63.4805 11.435H62.6345C62.5934 11.1354 62.517 10.8784 62.4054 10.6639C62.2937 10.4465 62.1351 10.2791 61.9294 10.1616C61.7238 10.044 61.455 9.98529 61.1231 9.98529C60.8381 9.98529 60.5869 10.0396 60.3695 10.1483C60.1551 10.257 59.9744 10.4113 59.8275 10.611C59.6836 10.8108 59.5749 11.0502 59.5014 11.3293C59.428 11.6084 59.3913 11.9183 59.3913 12.2591V12.9068C59.3913 13.2212 59.4236 13.5164 59.4882 13.7925C59.5558 14.0687 59.6571 14.311 59.7923 14.5196C59.9274 14.7282 60.0993 14.8927 60.3078 15.0132C60.5164 15.1307 60.7632 15.1894 61.0481 15.1894C61.4095 15.1894 61.6974 15.1321 61.9118 15.0176C62.1263 14.903 62.2878 14.7385 62.3965 14.524C62.5082 14.3096 62.5875 14.0525 62.6345 13.7529Z" fill="white"/>
<path d="M66.878 9.37719V15.7931H66.0407V9.37719H66.878ZM68.9402 9.37719V10.0734H63.9829V9.37719H68.9402Z" fill="white"/>
<path d="M71.8794 13.6648L73.5759 9.37719H74.5542L72.2848 14.7223C72.2202 14.8721 72.1482 15.0176 72.0689 15.1586C71.9896 15.2966 71.8926 15.42 71.7781 15.5287C71.6635 15.6374 71.521 15.7241 71.3506 15.7887C71.1832 15.8533 70.9746 15.8856 70.7249 15.8856C70.6544 15.8856 70.5707 15.8812 70.4737 15.8724C70.3768 15.8665 70.3136 15.8592 70.2842 15.8504L70.3107 15.1718C70.343 15.1777 70.4062 15.1835 70.5002 15.1894C70.5942 15.1923 70.6632 15.1938 70.7073 15.1938C70.8747 15.1938 71.0069 15.16 71.1039 15.0925C71.2008 15.0249 71.2786 14.9397 71.3374 14.8369C71.3991 14.7311 71.4549 14.6239 71.5048 14.5152L71.8794 13.6648ZM70.4385 9.37719L72.2231 13.3739L72.4346 14.1627L71.7208 14.2156L69.4867 9.37719H70.4385Z" fill="white"/>
<path d="M80.4677 9.37719V15.7931H79.6217V10.0734H76.4578V15.7931H75.6073V9.37719H80.4677Z" fill="white"/>
<path d="M86.2006 12.1357V12.8275H82.7283V12.1357H86.2006ZM82.8605 9.37719V15.7931H82.01V9.37719H82.8605ZM86.9409 9.37719V15.7931H86.0949V9.37719H86.9409Z" fill="white"/>
<path d="M93.3921 12.3824V12.7879C93.3921 13.2696 93.3319 13.7015 93.2114 14.0834C93.091 14.4653 92.9177 14.7899 92.6915 15.0572C92.4653 15.3245 92.1935 15.5287 91.8763 15.6697C91.5619 15.8107 91.2094 15.8812 90.8187 15.8812C90.4397 15.8812 90.0916 15.8107 89.7743 15.6697C89.46 15.5287 89.1868 15.3245 88.9547 15.0572C88.7256 14.7899 88.5479 14.4653 88.4215 14.0834C88.2952 13.7015 88.2321 13.2696 88.2321 12.7879V12.3824C88.2321 11.9007 88.2937 11.4703 88.4171 11.0913C88.5434 10.7094 88.7212 10.3848 88.9503 10.1175C89.1795 9.84722 89.4512 9.64159 89.7655 9.50058C90.0828 9.35957 90.4309 9.28906 90.8099 9.28906C91.2006 9.28906 91.5531 9.35957 91.8674 9.50058C92.1847 9.64159 92.4565 9.84722 92.6827 10.1175C92.9118 10.3848 93.0866 10.7094 93.207 11.0913C93.3304 11.4703 93.3921 11.9007 93.3921 12.3824ZM92.5505 12.7879V12.3736C92.5505 11.9917 92.5108 11.6539 92.4315 11.3601C92.3551 11.0664 92.242 10.8196 92.0922 10.6198C91.9424 10.4201 91.7588 10.2688 91.5414 10.166C91.3269 10.0631 91.0831 10.0117 90.8099 10.0117C90.5455 10.0117 90.3061 10.0631 90.0916 10.166C89.8801 10.2688 89.698 10.4201 89.5452 10.6198C89.3954 10.8196 89.2793 11.0664 89.1971 11.3601C89.1148 11.6539 89.0737 11.9917 89.0737 12.3736V12.7879C89.0737 13.1727 89.1148 13.5135 89.1971 13.8102C89.2793 14.1039 89.3968 14.3522 89.5496 14.5549C89.7053 14.7546 89.8889 14.9059 90.1004 15.0087C90.3149 15.1116 90.5543 15.163 90.8187 15.163C91.0948 15.163 91.3401 15.1116 91.5546 15.0087C91.769 14.9059 91.9497 14.7546 92.0966 14.5549C92.2464 14.3522 92.3595 14.1039 92.4359 13.8102C92.5123 13.5135 92.5505 13.1727 92.5505 12.7879Z" fill="white"/>
<path d="M99.1911 12.7923H97.5651L97.5563 12.1092H99.0325C99.2763 12.1092 99.4893 12.0681 99.6714 11.9859C99.8536 11.9036 99.9946 11.7861 100.094 11.6333C100.197 11.4776 100.249 11.2926 100.249 11.0781C100.249 10.8431 100.203 10.6522 100.112 10.5053C100.024 10.3554 99.8873 10.2467 99.7023 10.1792C99.5201 10.1087 99.288 10.0734 99.006 10.0734H97.7546V15.7931H96.9041V9.37719H99.006C99.3351 9.37719 99.6288 9.41098 99.8873 9.47854C100.146 9.54317 100.365 9.64599 100.544 9.787C100.726 9.92507 100.864 10.1013 100.958 10.3158C101.052 10.5302 101.099 10.7873 101.099 11.0869C101.099 11.3513 101.032 11.5907 100.896 11.8052C100.761 12.0167 100.573 12.19 100.332 12.3252C100.094 12.4603 99.8154 12.547 99.4952 12.5852L99.1911 12.7923ZM99.1514 15.7931H97.2302L97.7105 15.1013H99.1514C99.4217 15.1013 99.6509 15.0543 99.8389 14.9603C100.03 14.8663 100.175 14.7341 100.275 14.5637C100.375 14.3904 100.425 14.1862 100.425 13.9512C100.425 13.7132 100.382 13.5076 100.297 13.3343C100.212 13.1609 100.078 13.0273 99.8962 12.9333C99.714 12.8393 99.479 12.7923 99.1911 12.7923H97.9793L97.9881 12.1092H99.645L99.8256 12.356C100.134 12.3824 100.396 12.4706 100.61 12.6204C100.824 12.7673 100.988 12.9553 101.099 13.1844C101.214 13.4136 101.271 13.6662 101.271 13.9424C101.271 14.3419 101.183 14.6797 101.007 14.9559C100.833 15.2291 100.588 15.4376 100.271 15.5816C99.9534 15.7226 99.5803 15.7931 99.1514 15.7931Z" fill="white"/>
</svg>
