<svg width="276" height="550" viewBox="0 0 276 550" fill="none" xmlns="http://www.w3.org/2000/svg">
<path d="M257.893 507.483C257.893 520.858 248.026 532.382 234.665 532.382H44.1135C30.7513 532.382 19.1323 520.858 19.1323 507.483V37.7095C19.1323 24.3341 30.7513 14.555 44.1135 14.555H66.1433C70.8006 14.555 72.5207 14.022 72.8026 19.93C72.9497 23.0007 74.0748 25.3865 75.8772 27.3607C77.6792 29.2982 80.1569 30.8909 83.0079 31.7826C84.9404 32.3894 87.0926 32.939 89.1456 32.939H189.838C191.89 32.939 194.042 32.2638 195.975 31.6585C198.826 30.7653 201.302 29.275 203.106 27.3731C204.908 25.4329 206.033 23.1491 206.179 20.0788C206.459 14.172 208.183 14.555 212.84 14.555H234.665C248.026 14.555 257.893 24.3341 257.893 37.7095V507.483ZM124.568 16.8512H154.413C155.681 16.8512 156.709 17.6392 156.709 18.767C156.709 19.8944 155.681 20.6825 154.413 20.6825H124.568C123.3 20.6825 122.273 19.8944 122.273 18.767C122.273 17.6392 123.3 16.8512 124.568 16.8512ZM170.102 17.5124C170.102 19.3626 168.603 20.8641 166.753 20.8641C164.905 20.8641 163.405 19.3626 163.405 17.5124C163.405 15.6611 164.905 14.1612 166.753 14.1612C168.603 14.1612 170.102 15.6611 170.102 17.5124ZM272.434 124.861V39.2187C272.434 17.5588 254.892 0 233.252 0H42.8811C20.5598 0 2.29661 18.28 2.29661 40.6248V72.0062C1.02822 72.0062 0 73.0343 0 74.3035V90.3898C0 91.6591 1.02822 92.6871 2.29661 92.6871V111.838C1.02822 111.838 0 112.866 0 114.136V148.607C0 149.876 1.02822 150.906 2.29661 150.906V162.396C1.02822 162.396 0 163.424 0 164.693V199.164C0 200.434 1.02822 201.462 2.29661 201.462V509.249C2.29661 531.662 20.6158 550 43.0061 550H233.252C254.802 550 272.434 532.352 272.434 510.781V188.441H273.2C274.468 188.441 275.495 187.412 275.495 186.142V127.159C275.495 125.89 274.468 124.861 273.2 124.861H272.434Z" fill="black"/>
<path d="M154.414 16.8521H124.568C123.3 16.8521 122.273 17.6401 122.273 18.7679C122.273 19.8953 123.3 20.6834 124.568 20.6834H154.414C155.681 20.6834 156.709 19.8953 156.709 18.7679C156.709 17.6401 155.681 16.8521 154.414 16.8521Z" fill="#FEFEFE"/>
<path d="M166.754 14.1611C164.906 14.1611 163.406 15.6611 163.406 17.5124C163.406 19.3626 164.906 20.8641 166.754 20.8641C168.604 20.8641 170.103 19.3626 170.103 17.5124C170.103 15.6611 168.604 14.1611 166.754 14.1611Z" fill="#FEFEFE"/>
<path d="M257.519 508.221C257.519 521.625 247.652 533.174 234.29 533.174H43.739C30.3768 533.174 18.7578 521.625 18.7578 508.221V37.4138C18.7578 24.009 30.3768 14.2083 43.739 14.2083H65.7687C70.426 14.2083 72.1462 13.6741 72.428 19.5952C72.5751 22.6725 73.7003 25.0637 75.5027 27.0422C77.3047 28.984 79.7823 30.5802 82.6334 31.4738C84.5659 32.0821 86.7181 32.6328 88.7711 32.6328H189.463C191.516 32.6328 193.668 31.9561 195.601 31.3493C198.451 30.4542 200.928 28.9608 202.731 27.0546C204.533 25.1101 205.659 22.8213 205.804 19.7444C206.085 13.8245 207.808 14.2083 212.465 14.2083H234.29C247.652 14.2083 257.519 24.009 257.519 37.4138V508.221Z" fill="#41B619"/>
<path fill-rule="evenodd" clip-rule="evenodd" d="M245.089 144.927L245.194 145.284C250.556 163.348 231.831 178.884 215.079 169.941C198.606 161.142 183.29 152.788 177.261 174.595C176.851 193.238 199.266 232.291 174.417 253.524C138.35 281.016 89.8815 267.551 61.8558 231.626C37.0325 201.283 34.6501 158.416 53.0943 126.026C92.3906 52.5359 198.548 63.2748 235.748 127.767C239.731 133.537 243.098 139.615 245.089 144.927Z" fill="#F2F2F2" fill-opacity="0.3"/>
<path fill-rule="evenodd" clip-rule="evenodd" d="M85.3488 300.881C81.6749 313.445 68.1938 314.855 57.6219 313.616C56.7417 313.512 55.8669 313.348 55.0164 313.108C41.8954 309.431 32.3363 299.731 28.4069 287.087C28.1405 286.227 27.9343 285.348 27.8195 284.452C25.8931 269.552 34.4317 244.291 49.8341 250.008C51.3198 250.559 52.6693 251.427 53.9226 252.398C63.6921 259.974 73.4286 267.611 82.4803 276.445C85.2342 279.133 87.011 282.677 87.6154 286.467C87.7039 287.017 87.7841 287.541 87.8723 288.026C88.3319 290.564 88.2547 293.188 87.5638 295.669C87.0775 297.415 86.3412 299.165 85.3488 300.881Z" fill="#F2F2F2" fill-opacity="0.3"/>
<path fill-rule="evenodd" clip-rule="evenodd" d="M197.586 67.8081C194.132 57.0495 205.774 52.0191 213.078 50.4582C222.818 48.3749 232.671 52.6212 240.618 59.8166C249.21 68.4707 252.139 84.0631 246.306 94.8959C243.73 99.6744 236.734 99.8993 233.723 95.3577C225.982 83.6699 211.317 81.1486 200.603 73.1651C198.89 71.8913 197.67 69.9668 197.585 67.8446L197.586 67.8081Z" fill="#F2F2F2" fill-opacity="0.3"/>
<path d="M67.7451 257.667L63.6337 245.743H63.5458C63.5654 246.01 63.5882 246.374 63.6142 246.836C63.6402 247.299 63.663 247.793 63.6826 248.321C63.7021 248.848 63.7119 249.353 63.7119 249.834V257.667H61.5829V243.389H64.874L68.829 254.786H68.8876L72.9794 243.389H76.2607V257.667H74.0244V249.717C74.0244 249.281 74.0309 248.809 74.0439 248.301C74.0634 247.793 74.0829 247.312 74.1025 246.856C74.1285 246.4 74.1481 246.036 74.1611 245.762H74.0829L69.8154 257.667H67.7451ZM84.4244 246.651C85.7915 246.651 86.8234 246.954 87.5201 247.559C88.2232 248.165 88.5747 249.109 88.5747 250.391V257.667H86.9439L86.5044 256.133H86.4263C86.1203 256.524 85.8046 256.846 85.479 257.1C85.1535 257.354 84.7759 257.543 84.3462 257.667C83.9231 257.797 83.4055 257.862 82.7935 257.862C82.149 257.862 81.5728 257.745 81.065 257.51C80.5572 257.269 80.1568 256.905 79.8638 256.417C79.5708 255.928 79.4244 255.31 79.4244 254.561C79.4244 253.448 79.8378 252.611 80.6646 252.051C81.4979 251.491 82.7544 251.182 84.4341 251.124L86.3091 251.055V250.489C86.3091 249.74 86.1333 249.206 85.7818 248.887C85.4367 248.568 84.9484 248.409 84.3169 248.409C83.7766 248.409 83.2525 248.487 82.7447 248.643C82.2369 248.799 81.7421 248.991 81.2603 249.219L80.5181 247.598C81.0454 247.318 81.6444 247.09 82.315 246.915C82.9921 246.739 83.6952 246.651 84.4244 246.651ZM86.2994 252.5L84.9029 252.549C83.757 252.588 82.953 252.784 82.4908 253.135C82.0285 253.487 81.7974 253.969 81.7974 254.581C81.7974 255.114 81.9569 255.505 82.2759 255.752C82.5949 255.993 83.0148 256.114 83.5357 256.114C84.33 256.114 84.9875 255.889 85.5083 255.44C86.0357 254.984 86.2994 254.317 86.2994 253.438V252.5ZM97.7345 246.651C99.0171 246.651 100.046 247.12 100.82 248.057C101.602 248.995 101.992 250.388 101.992 252.237C101.992 253.461 101.81 254.493 101.445 255.333C101.087 256.166 100.583 256.797 99.9318 257.227C99.2872 257.65 98.5353 257.862 97.6759 257.862C97.129 257.862 96.6538 257.79 96.2501 257.647C95.8465 257.504 95.5014 257.318 95.215 257.09C94.9285 256.856 94.6876 256.602 94.4923 256.329H94.3556C94.3882 256.589 94.4175 256.879 94.4435 257.198C94.476 257.51 94.4923 257.797 94.4923 258.057V262.461H92.1876V246.856H94.0626L94.3849 248.35H94.4923C94.6941 248.044 94.9383 247.761 95.2247 247.5C95.5177 247.24 95.8693 247.035 96.2794 246.885C96.6961 246.729 97.1811 246.651 97.7345 246.651ZM97.1193 248.526C96.4878 248.526 95.98 248.653 95.5958 248.907C95.2182 249.154 94.9415 249.528 94.7658 250.03C94.5965 250.531 94.5053 251.159 94.4923 251.915V252.237C94.4923 253.038 94.5737 253.718 94.7365 254.278C94.9057 254.831 95.1824 255.254 95.5665 255.547C95.9572 255.834 96.4845 255.977 97.1486 255.977C97.7085 255.977 98.1707 255.824 98.5353 255.518C98.9064 255.212 99.1831 254.776 99.3654 254.209C99.5477 253.643 99.6388 252.976 99.6388 252.208C99.6388 251.042 99.4305 250.137 99.0138 249.493C98.6036 248.848 97.9721 248.526 97.1193 248.526ZM112.314 254.581C112.314 255.29 112.142 255.889 111.797 256.377C111.452 256.866 110.947 257.237 110.283 257.491C109.625 257.738 108.818 257.862 107.861 257.862C107.106 257.862 106.455 257.806 105.908 257.696C105.368 257.592 104.857 257.429 104.375 257.208V255.225C104.889 255.466 105.465 255.674 106.103 255.85C106.748 256.026 107.357 256.114 107.929 256.114C108.685 256.114 109.228 255.997 109.56 255.762C109.892 255.521 110.058 255.202 110.058 254.805C110.058 254.571 109.99 254.362 109.853 254.18C109.723 253.991 109.476 253.799 109.111 253.604C108.753 253.402 108.226 253.161 107.529 252.881C106.845 252.608 106.269 252.334 105.801 252.061C105.332 251.788 104.977 251.459 104.736 251.075C104.495 250.684 104.375 250.186 104.375 249.581C104.375 248.624 104.752 247.898 105.508 247.403C106.269 246.902 107.275 246.651 108.525 246.651C109.189 246.651 109.814 246.719 110.4 246.856C110.993 246.986 111.572 247.178 112.138 247.432L111.416 249.161C110.927 248.946 110.436 248.77 109.941 248.633C109.453 248.49 108.955 248.418 108.447 248.418C107.855 248.418 107.402 248.51 107.09 248.692C106.784 248.874 106.631 249.135 106.631 249.473C106.631 249.727 106.705 249.942 106.855 250.118C107.005 250.293 107.262 250.469 107.627 250.645C107.998 250.821 108.512 251.039 109.17 251.299C109.814 251.547 110.371 251.807 110.84 252.081C111.315 252.347 111.679 252.676 111.933 253.067C112.187 253.458 112.314 253.962 112.314 254.581ZM119.218 256.006C119.518 256.006 119.814 255.98 120.107 255.928C120.4 255.87 120.667 255.801 120.908 255.723V257.461C120.654 257.572 120.325 257.667 119.921 257.745C119.518 257.823 119.098 257.862 118.661 257.862C118.049 257.862 117.499 257.761 117.011 257.559C116.523 257.351 116.135 256.996 115.849 256.495C115.563 255.993 115.419 255.3 115.419 254.415V248.604H113.945V247.579L115.527 246.768L116.279 244.454H117.724V246.856H120.82V248.604H117.724V254.385C117.724 254.932 117.861 255.339 118.134 255.606C118.408 255.873 118.769 256.006 119.218 256.006ZM127.811 246.651C128.775 246.651 129.602 246.849 130.292 247.247C130.982 247.644 131.513 248.207 131.884 248.936C132.255 249.665 132.44 250.538 132.44 251.553V252.784H125.224C125.25 253.832 125.53 254.639 126.063 255.206C126.604 255.772 127.359 256.055 128.329 256.055C129.019 256.055 129.638 255.99 130.185 255.86C130.738 255.723 131.308 255.525 131.893 255.264V257.129C131.353 257.383 130.803 257.569 130.243 257.686C129.683 257.803 129.013 257.862 128.231 257.862C127.17 257.862 126.236 257.657 125.429 257.247C124.628 256.83 124 256.211 123.544 255.391C123.095 254.571 122.87 253.552 122.87 252.334C122.87 251.124 123.075 250.095 123.485 249.249C123.895 248.402 124.472 247.758 125.214 247.315C125.956 246.872 126.822 246.651 127.811 246.651ZM127.811 248.379C127.089 248.379 126.503 248.614 126.054 249.083C125.611 249.551 125.351 250.238 125.272 251.143H130.194C130.188 250.603 130.097 250.124 129.921 249.708C129.752 249.291 129.491 248.965 129.14 248.731C128.795 248.497 128.352 248.379 127.811 248.379ZM140.907 246.651C141.089 246.651 141.288 246.661 141.502 246.68C141.717 246.7 141.903 246.726 142.059 246.758L141.844 248.907C141.708 248.868 141.538 248.838 141.336 248.819C141.141 248.799 140.965 248.79 140.809 248.79C140.399 248.79 140.008 248.858 139.637 248.995C139.266 249.125 138.937 249.327 138.651 249.6C138.364 249.867 138.14 250.202 137.977 250.606C137.814 251.01 137.733 251.478 137.733 252.012V257.667H135.428V246.856H137.225L137.538 248.76H137.645C137.86 248.376 138.127 248.025 138.446 247.706C138.765 247.387 139.129 247.133 139.54 246.944C139.956 246.749 140.412 246.651 140.907 246.651ZM156.052 249.913H161.385V257.081C160.636 257.328 159.861 257.52 159.06 257.657C158.26 257.793 157.361 257.862 156.365 257.862C154.913 257.862 153.683 257.575 152.674 257.002C151.671 256.423 150.909 255.586 150.388 254.493C149.868 253.392 149.607 252.068 149.607 250.518C149.607 249.027 149.897 247.735 150.476 246.641C151.056 245.541 151.899 244.691 153.006 244.092C154.112 243.487 155.454 243.184 157.029 243.184C157.804 243.184 158.552 243.262 159.275 243.418C160.004 243.568 160.672 243.777 161.277 244.043L160.457 245.977C159.975 245.749 159.435 245.557 158.836 245.401C158.237 245.245 157.615 245.167 156.97 245.167C155.948 245.167 155.066 245.388 154.324 245.831C153.588 246.273 153.022 246.898 152.625 247.706C152.228 248.506 152.029 249.454 152.029 250.547C152.029 251.609 152.189 252.54 152.508 253.34C152.827 254.141 153.325 254.766 154.002 255.215C154.685 255.658 155.567 255.879 156.648 255.879C157.189 255.879 157.648 255.85 158.025 255.792C158.403 255.733 158.751 255.668 159.07 255.596V251.915H156.052V249.913ZM174.392 246.856V257.667H172.585L172.273 256.211H172.146C171.918 256.583 171.628 256.892 171.277 257.139C170.925 257.38 170.535 257.559 170.105 257.676C169.675 257.8 169.223 257.862 168.747 257.862C167.934 257.862 167.237 257.725 166.658 257.452C166.085 257.172 165.645 256.742 165.339 256.163C165.033 255.583 164.88 254.834 164.88 253.917V246.856H167.185V253.487C167.185 254.327 167.354 254.955 167.693 255.372C168.038 255.788 168.572 255.997 169.294 255.997C169.991 255.997 170.544 255.853 170.954 255.567C171.365 255.28 171.654 254.857 171.824 254.297C171.999 253.737 172.087 253.051 172.087 252.237V246.856H174.392ZM180.378 246.856V257.667H178.083V246.856H180.378ZM179.245 242.715C179.597 242.715 179.899 242.81 180.153 242.999C180.414 243.187 180.544 243.513 180.544 243.975C180.544 244.431 180.414 244.756 180.153 244.952C179.899 245.14 179.597 245.235 179.245 245.235C178.88 245.235 178.571 245.14 178.317 244.952C178.07 244.756 177.946 244.431 177.946 243.975C177.946 243.513 178.07 243.187 178.317 242.999C178.571 242.81 178.88 242.715 179.245 242.715ZM187.702 257.862C186.413 257.862 185.377 257.393 184.596 256.456C183.821 255.512 183.434 254.122 183.434 252.286C183.434 250.43 183.828 249.027 184.616 248.077C185.41 247.126 186.455 246.651 187.751 246.651C188.297 246.651 188.776 246.726 189.186 246.875C189.596 247.019 189.948 247.214 190.241 247.461C190.54 247.709 190.794 247.986 191.002 248.292H191.11C191.077 248.09 191.038 247.8 190.993 247.422C190.954 247.038 190.934 246.683 190.934 246.358V242.471H193.239V257.667H191.442L191.032 256.192H190.934C190.739 256.504 190.491 256.788 190.192 257.042C189.899 257.289 189.547 257.487 189.137 257.637C188.734 257.787 188.255 257.862 187.702 257.862ZM188.346 255.997C189.329 255.997 190.023 255.713 190.426 255.147C190.83 254.581 191.038 253.731 191.051 252.598V252.295C191.051 251.084 190.856 250.157 190.465 249.512C190.075 248.861 189.362 248.536 188.327 248.536C187.5 248.536 186.868 248.871 186.432 249.542C186.002 250.206 185.788 251.133 185.788 252.325C185.788 253.516 186.002 254.428 186.432 255.059C186.868 255.684 187.506 255.997 188.346 255.997ZM201.236 246.651C202.2 246.651 203.027 246.849 203.717 247.247C204.407 247.644 204.938 248.207 205.309 248.936C205.68 249.665 205.865 250.538 205.865 251.553V252.784H198.649C198.675 253.832 198.955 254.639 199.488 255.206C200.029 255.772 200.784 256.055 201.754 256.055C202.444 256.055 203.063 255.99 203.61 255.86C204.163 255.723 204.733 255.525 205.318 255.264V257.129C204.778 257.383 204.228 257.569 203.668 257.686C203.108 257.803 202.438 257.862 201.656 257.862C200.595 257.862 199.661 257.657 198.854 257.247C198.053 256.83 197.425 256.211 196.969 255.391C196.52 254.571 196.295 253.552 196.295 252.334C196.295 251.124 196.5 250.095 196.91 249.249C197.32 248.402 197.897 247.758 198.639 247.315C199.381 246.872 200.247 246.651 201.236 246.651ZM201.236 248.379C200.514 248.379 199.928 248.614 199.479 249.083C199.036 249.551 198.776 250.238 198.697 251.143H203.619C203.613 250.603 203.522 250.124 203.346 249.708C203.177 249.291 202.916 248.965 202.565 248.731C202.22 248.497 201.777 248.379 201.236 248.379ZM216.119 254.581C216.119 255.29 215.946 255.889 215.601 256.377C215.256 256.866 214.752 257.237 214.088 257.491C213.43 257.738 212.623 257.862 211.666 257.862C210.911 257.862 210.26 257.806 209.713 257.696C209.172 257.592 208.661 257.429 208.179 257.208V255.225C208.694 255.466 209.27 255.674 209.908 255.85C210.552 256.026 211.161 256.114 211.734 256.114C212.489 256.114 213.033 255.997 213.365 255.762C213.697 255.521 213.863 255.202 213.863 254.805C213.863 254.571 213.795 254.362 213.658 254.18C213.528 253.991 213.28 253.799 212.916 253.604C212.558 253.402 212.03 253.161 211.334 252.881C210.65 252.608 210.074 252.334 209.605 252.061C209.136 251.788 208.782 251.459 208.541 251.075C208.3 250.684 208.179 250.186 208.179 249.581C208.179 248.624 208.557 247.898 209.312 247.403C210.074 246.902 211.08 246.651 212.33 246.651C212.994 246.651 213.619 246.719 214.205 246.856C214.797 246.986 215.377 247.178 215.943 247.432L215.22 249.161C214.732 248.946 214.241 248.77 213.746 248.633C213.258 248.49 212.76 248.418 212.252 248.418C211.659 248.418 211.207 248.51 210.894 248.692C210.588 248.874 210.435 249.135 210.435 249.473C210.435 249.727 210.51 249.942 210.66 250.118C210.81 250.293 211.067 250.469 211.431 250.645C211.802 250.821 212.317 251.039 212.974 251.299C213.619 251.547 214.176 251.807 214.644 252.081C215.12 252.347 215.484 252.676 215.738 253.067C215.992 253.458 216.119 253.962 216.119 254.581Z" fill="black"/>
<path d="M78.5944 285.667H76.9538V277.067H74.11C74.0508 277.536 73.987 278.038 73.9186 278.571C73.8503 279.099 73.7796 279.63 73.7067 280.164C73.6338 280.697 73.5586 281.203 73.4811 281.681C73.4082 282.16 73.333 282.581 73.2555 282.946C73.137 283.556 72.9821 284.076 72.7907 284.504C72.6038 284.928 72.3509 285.252 72.0319 285.475C71.7129 285.698 71.2959 285.81 70.7809 285.81C70.6077 285.81 70.4391 285.794 70.2751 285.762C70.111 285.735 69.9629 285.698 69.8307 285.653V284.299C69.9401 284.34 70.0563 284.377 70.1794 284.409C70.307 284.436 70.4414 284.45 70.5827 284.45C70.8197 284.45 71.0088 284.363 71.1501 284.19C71.2959 284.012 71.4167 283.762 71.5124 283.438C71.6081 283.11 71.6992 282.722 71.7858 282.276C71.8359 282.007 71.8975 281.652 71.9704 281.209C72.0433 280.763 72.123 280.248 72.2096 279.665C72.2962 279.081 72.3851 278.452 72.4762 277.778C72.5719 277.099 72.6631 276.397 72.7497 275.672H78.5944V285.667ZM80.3206 278.099H82.0706L83.6223 282.419C83.6907 282.615 83.7522 282.809 83.8069 283C83.8661 283.187 83.9163 283.372 83.9573 283.554C84.0029 283.736 84.0393 283.919 84.0667 284.101H84.1077C84.1533 283.864 84.2171 283.6 84.2991 283.308C84.3857 283.012 84.4814 282.716 84.5862 282.419L86.0764 278.099H87.8059L84.5589 286.706C84.372 287.198 84.1419 287.617 83.8684 287.963C83.5995 288.314 83.2805 288.579 82.9114 288.756C82.5422 288.939 82.1207 289.03 81.6467 289.03C81.4189 289.03 81.2206 289.016 81.052 288.989C80.8834 288.966 80.7398 288.941 80.6214 288.914V287.628C80.7171 287.651 80.8378 287.672 80.9837 287.69C81.1295 287.708 81.2799 287.717 81.4348 287.717C81.7219 287.717 81.9703 287.66 82.1799 287.546C82.3896 287.432 82.5673 287.271 82.7131 287.061C82.859 286.856 82.9797 286.621 83.0755 286.357L83.3421 285.646L80.3206 278.099ZM90.7626 278.099V280.84C90.7626 281.241 90.8674 281.54 91.077 281.736C91.2867 281.932 91.5874 282.03 91.9794 282.03C92.4169 282.03 92.8179 281.971 93.1825 281.852C93.5516 281.734 93.923 281.574 94.2967 281.374V278.099H95.9032V285.667H94.2967V282.467C93.9185 282.691 93.5243 282.877 93.1141 283.028C92.704 283.178 92.2232 283.253 91.6717 283.253C90.8879 283.253 90.2727 283.051 89.826 282.645C89.3794 282.239 89.1561 281.661 89.1561 280.909V278.099H90.7626ZM109.312 278.099V285.667H98.6001V278.099H100.207V284.402H103.146V278.099H104.759V284.402H107.706V278.099H109.312ZM113.561 278.099V281.961C113.561 282.084 113.556 282.242 113.547 282.433C113.542 282.62 113.533 282.816 113.52 283.021C113.506 283.222 113.492 283.406 113.479 283.575C113.465 283.743 113.454 283.869 113.444 283.951L117.252 278.099H119.207V285.667H117.669V281.845C117.669 281.645 117.674 281.412 117.683 281.148C117.696 280.884 117.71 280.628 117.724 280.382C117.742 280.136 117.753 279.949 117.758 279.822L113.964 285.667H112.016V278.099H113.561ZM124.932 277.956C125.607 277.956 126.186 278.095 126.669 278.373C127.152 278.651 127.523 279.045 127.783 279.555C128.043 280.066 128.173 280.676 128.173 281.387V282.249H123.121C123.139 282.982 123.335 283.547 123.709 283.944C124.087 284.34 124.616 284.539 125.295 284.539C125.778 284.539 126.211 284.493 126.593 284.402C126.981 284.306 127.38 284.167 127.79 283.985V285.291C127.411 285.468 127.026 285.598 126.634 285.68C126.243 285.762 125.773 285.803 125.226 285.803C124.483 285.803 123.829 285.66 123.264 285.373C122.704 285.081 122.264 284.648 121.945 284.074C121.631 283.5 121.473 282.786 121.473 281.934C121.473 281.086 121.617 280.366 121.904 279.774C122.191 279.181 122.594 278.73 123.114 278.42C123.633 278.111 124.24 277.956 124.932 277.956ZM124.932 279.166C124.426 279.166 124.016 279.33 123.702 279.658C123.392 279.986 123.21 280.467 123.155 281.1H126.6C126.596 280.722 126.532 280.387 126.409 280.095C126.29 279.804 126.108 279.576 125.862 279.412C125.62 279.248 125.311 279.166 124.932 279.166ZM135.911 285.803C135.46 285.803 135.061 285.767 134.715 285.694C134.368 285.625 134.047 285.516 133.751 285.366V284.06C134.061 284.192 134.389 284.306 134.735 284.402C135.086 284.493 135.462 284.539 135.863 284.539C136.278 284.539 136.636 284.463 136.936 284.313C137.237 284.158 137.474 283.921 137.647 283.602C137.821 283.283 137.923 282.877 137.955 282.385H134.612V281.223H137.948C137.903 280.549 137.723 280.047 137.408 279.719C137.094 279.387 136.636 279.22 136.034 279.22C135.733 279.22 135.428 279.261 135.118 279.343C134.808 279.421 134.526 279.512 134.27 279.617L133.819 278.441C134.097 278.313 134.434 278.202 134.831 278.106C135.227 278.006 135.64 277.956 136.068 277.956C136.756 277.956 137.367 278.081 137.9 278.332C138.433 278.578 138.853 278.983 139.158 279.548C139.463 280.113 139.616 280.875 139.616 281.832C139.616 282.725 139.466 283.465 139.165 284.053C138.864 284.641 138.436 285.081 137.88 285.373C137.328 285.66 136.672 285.803 135.911 285.803ZM146.551 278.099H148.322L145.191 281.736L148.588 285.667H146.736L143.475 281.825V285.667H141.862V278.099H143.475V281.77L146.551 278.099ZM153.268 285.803C152.552 285.803 151.932 285.664 151.408 285.386C150.884 285.108 150.481 284.682 150.198 284.108C149.916 283.534 149.774 282.805 149.774 281.92C149.774 281 149.929 280.248 150.239 279.665C150.549 279.081 150.978 278.651 151.524 278.373C152.076 278.095 152.707 277.956 153.418 277.956C153.869 277.956 154.277 278.001 154.642 278.092C155.011 278.179 155.323 278.286 155.578 278.414L155.1 279.699C154.822 279.585 154.537 279.489 154.245 279.412C153.954 279.334 153.673 279.295 153.404 279.295C152.962 279.295 152.593 279.393 152.297 279.589C152.005 279.785 151.787 280.077 151.641 280.464C151.499 280.852 151.429 281.333 151.429 281.907C151.429 282.463 151.502 282.932 151.648 283.315C151.793 283.693 152.01 283.98 152.297 284.176C152.584 284.368 152.937 284.463 153.357 284.463C153.771 284.463 154.143 284.413 154.471 284.313C154.799 284.213 155.109 284.083 155.4 283.923V285.318C155.113 285.482 154.806 285.603 154.478 285.68C154.149 285.762 153.746 285.803 153.268 285.803ZM162.267 278.099H164.038L160.907 281.736L164.304 285.667H162.452L159.191 281.825V285.667H157.578V278.099H159.191V281.77L162.267 278.099ZM164.793 278.099H166.543L168.095 282.419C168.163 282.615 168.225 282.809 168.28 283C168.339 283.187 168.389 283.372 168.43 283.554C168.476 283.736 168.512 283.919 168.539 284.101H168.58C168.626 283.864 168.69 283.6 168.772 283.308C168.858 283.012 168.954 282.716 169.059 282.419L170.549 278.099H172.279L169.032 286.706C168.845 287.198 168.615 287.617 168.341 287.963C168.072 288.314 167.753 288.579 167.384 288.756C167.015 288.939 166.593 289.03 166.119 289.03C165.892 289.03 165.693 289.016 165.525 288.989C165.356 288.966 165.212 288.941 165.094 288.914V287.628C165.19 287.651 165.31 287.672 165.456 287.69C165.602 287.708 165.753 287.717 165.907 287.717C166.195 287.717 166.443 287.66 166.653 287.546C166.862 287.432 167.04 287.271 167.186 287.061C167.332 286.856 167.452 286.621 167.548 286.357L167.815 285.646L164.793 278.099ZM177.71 277.956C178.608 277.956 179.328 278.284 179.87 278.94C180.417 279.596 180.69 280.571 180.69 281.866C180.69 282.722 180.563 283.445 180.307 284.033C180.057 284.616 179.704 285.058 179.248 285.359C178.797 285.655 178.27 285.803 177.669 285.803C177.286 285.803 176.953 285.753 176.671 285.653C176.388 285.553 176.147 285.423 175.946 285.263C175.746 285.099 175.577 284.921 175.44 284.73H175.345C175.367 284.912 175.388 285.115 175.406 285.338C175.429 285.557 175.44 285.758 175.44 285.94V289.023H173.827V278.099H175.14L175.365 279.145H175.44C175.582 278.931 175.752 278.733 175.953 278.55C176.158 278.368 176.404 278.224 176.691 278.12C176.983 278.01 177.322 277.956 177.71 277.956ZM177.279 279.268C176.837 279.268 176.482 279.357 176.213 279.535C175.948 279.708 175.755 279.97 175.632 280.321C175.513 280.672 175.449 281.111 175.44 281.64V281.866C175.44 282.426 175.497 282.903 175.611 283.294C175.73 283.682 175.923 283.978 176.192 284.183C176.466 284.384 176.835 284.484 177.3 284.484C177.692 284.484 178.015 284.377 178.27 284.163C178.53 283.948 178.724 283.643 178.851 283.247C178.979 282.85 179.043 282.383 179.043 281.845C179.043 281.029 178.897 280.396 178.605 279.945C178.318 279.494 177.876 279.268 177.279 279.268ZM185.998 285.803C185.283 285.803 184.663 285.664 184.139 285.386C183.615 285.108 183.212 284.682 182.929 284.108C182.647 283.534 182.505 282.805 182.505 281.92C182.505 281 182.66 280.248 182.97 279.665C183.28 279.081 183.708 278.651 184.255 278.373C184.807 278.095 185.438 277.956 186.149 277.956C186.6 277.956 187.008 278.001 187.373 278.092C187.742 278.179 188.054 278.286 188.309 278.414L187.831 279.699C187.553 279.585 187.268 279.489 186.976 279.412C186.684 279.334 186.404 279.295 186.135 279.295C185.693 279.295 185.324 279.393 185.028 279.589C184.736 279.785 184.517 280.077 184.372 280.464C184.23 280.852 184.16 281.333 184.16 281.907C184.16 282.463 184.233 282.932 184.378 283.315C184.524 283.693 184.741 283.98 185.028 284.176C185.315 284.368 185.668 284.463 186.087 284.463C186.502 284.463 186.873 284.413 187.202 284.313C187.53 284.213 187.84 284.083 188.131 283.923V285.318C187.844 285.482 187.537 285.603 187.208 285.68C186.88 285.762 186.477 285.803 185.998 285.803ZM191.854 278.099V281.961C191.854 282.084 191.849 282.242 191.84 282.433C191.835 282.62 191.826 282.816 191.813 283.021C191.799 283.222 191.785 283.406 191.772 283.575C191.758 283.743 191.746 283.869 191.737 283.951L195.545 278.099H197.5V285.667H195.962V281.845C195.962 281.645 195.967 281.412 195.976 281.148C195.989 280.884 196.003 280.628 196.017 280.382C196.035 280.136 196.046 279.949 196.051 279.822L192.257 285.667H190.309V278.099H191.854ZM201.756 278.099V281.961C201.756 282.084 201.751 282.242 201.742 282.433C201.737 282.62 201.728 282.816 201.715 283.021C201.701 283.222 201.687 283.406 201.673 283.575C201.66 283.743 201.648 283.869 201.639 283.951L205.447 278.099H207.402V285.667H205.864V281.845C205.864 281.645 205.868 281.412 205.878 281.148C205.891 280.884 205.905 280.628 205.919 280.382C205.937 280.136 205.948 279.949 205.953 279.822L202.159 285.667H200.211V278.099H201.756Z" fill="black"/>
<path fill-rule="evenodd" clip-rule="evenodd" d="M166.469 203.365C157.423 208.427 147.066 211.319 135.988 211.319C117.635 211.319 101.116 203.365 89.7109 190.744C101.116 187.26 112.784 189.758 126.222 200.21C136.578 204.154 153.818 199.618 166.469 203.365Z" fill="black"/>
<path fill-rule="evenodd" clip-rule="evenodd" d="M76.5977 128.889C82.8248 109.826 98.0977 94.7075 117.566 88.5942C123.399 93.8529 126.939 101.347 126.939 109.695C126.939 125.602 114.026 138.552 98.1632 138.552C89.5763 138.552 81.9071 134.739 76.5977 128.889Z" fill="black"/>
<path fill-rule="evenodd" clip-rule="evenodd" d="M190.978 118.569C187.569 119.883 183.833 120.541 179.965 120.541C157.875 120.541 147.846 105.948 148.567 87.4766V87.1479C166.856 90.8948 182.194 102.595 190.978 118.569Z" fill="black"/>
<path d="M138.22 114.494C141.478 114.494 144.119 112.257 144.119 109.498C144.119 106.739 141.478 104.502 138.22 104.502C134.962 104.502 132.32 106.739 132.32 109.498C132.32 112.257 134.962 114.494 138.22 114.494Z" fill="black"/>
<path fill-rule="evenodd" clip-rule="evenodd" d="M79.4836 175.232C75.6162 167.41 73.4531 158.273 73.4531 148.544C73.4531 143.943 73.912 139.473 74.7641 135.003C83.2854 137.961 89.447 146.309 89.447 156.038C89.447 163.86 85.4486 170.762 79.4836 175.232Z" fill="black"/>
<path fill-rule="evenodd" clip-rule="evenodd" d="M132.841 119.817C131.792 127.64 127.334 133.03 120.648 136.711C145.754 153.144 170.072 152.684 195.898 138.42C198.651 136.054 196.095 134.147 195.308 134.082C172.694 136.054 150.998 131.058 132.841 119.817Z" fill="black"/>
<path fill-rule="evenodd" clip-rule="evenodd" d="M93.5117 158.469L100.853 148.806C104.983 144.402 109.964 144.534 115.536 147.689C122.419 152.685 130.809 155.511 139.92 156.103C159.716 157.483 169.811 155.643 185.28 152.619C189.934 151.699 194.326 149.595 198.652 147.492C198.783 151.567 198.455 155.906 197.8 160.31C180.692 171.419 160.306 174.969 139.855 172.536C128.449 170.696 126.286 161.23 116.847 158.338C108.85 155.84 101.115 156.497 93.5117 158.469Z" fill="black"/>
<path fill-rule="evenodd" clip-rule="evenodd" d="M91.7461 178.65C93.9748 177.072 96.1379 175.232 98.1043 172.931C100.53 170.17 101.447 168.132 104.856 166.555C109.838 164.254 114.819 164.32 120.129 168.658C129.109 175.757 137.696 179.899 146.217 181.476C155.787 183.317 165.226 181.871 174.272 177.795L187.775 171.879C187.12 177.73 184.563 183.383 180.171 188.444C174.206 193.769 168.045 197.055 161.687 198.567C160.114 198.896 158.475 199.159 156.902 199.356C141.367 200.868 122.488 193.045 109.706 184.96C105.184 180.819 99.4809 178.913 91.7461 178.65Z" fill="black"/>
<path d="M76.8983 458.871L78.6734 454.319H80.0023L77.5747 460.037C77.498 460.213 77.41 460.384 77.3109 460.551C77.2149 460.714 77.0982 460.859 76.9606 460.987C76.8231 461.115 76.6568 461.217 76.4617 461.294C76.2666 461.368 76.0299 461.405 75.7516 461.405C75.6781 461.405 75.5885 461.401 75.483 461.395C75.3806 461.389 75.3055 461.382 75.2575 461.376L75.2671 460.431C75.3055 460.437 75.3694 460.442 75.459 460.445C75.5517 460.448 75.6189 460.45 75.6605 460.45C75.846 460.45 75.9931 460.419 76.1019 460.359C76.2106 460.295 76.297 460.21 76.3609 460.104C76.4281 459.996 76.4873 459.877 76.5384 459.749L76.8983 458.871ZM75.5645 454.319L77.3205 458.185L77.6659 459.442L76.7304 459.476L74.25 454.319H75.5645Z" fill="white"/>
<path d="M86.8625 459.183H85.2026L85.193 458.368H86.5555C86.7794 458.368 86.9633 458.345 87.1072 458.3C87.2543 458.256 87.3631 458.189 87.4334 458.099C87.5038 458.006 87.539 457.894 87.539 457.763C87.539 457.654 87.5182 457.56 87.4766 457.48C87.435 457.397 87.3711 457.33 87.2847 457.279C87.2016 457.224 87.096 457.186 86.9681 457.163C86.8433 457.138 86.6978 457.125 86.5315 457.125H85.5864V461.405H84.4302V456.214H86.5315C86.8641 456.214 87.1632 456.242 87.4286 456.3C87.6973 456.357 87.926 456.445 88.1147 456.564C88.3034 456.682 88.4473 456.832 88.5465 457.015C88.6488 457.194 88.7 457.405 88.7 457.648C88.7 457.808 88.6648 457.958 88.5945 458.099C88.5273 458.24 88.4265 458.364 88.2922 458.473C88.1579 458.582 87.9932 458.672 87.7981 458.742C87.603 458.809 82.5712 458.867 87.1264 458.867L86.8625 459.183ZM86.8625 461.405H84.8667L85.3273 460.493H86.8625C87.0672 460.493 87.2367 460.467 87.3711 460.416C87.5054 460.365 87.6046 460.291 87.6685 460.196C87.7357 460.096 87.7693 459.98 87.7693 459.845C87.7693 459.708 87.7373 459.589 87.6733 459.49C87.6094 459.391 87.5102 459.316 87.3759 459.265C87.2447 459.21 87.0736 459.183 86.8625 459.183H85.5432L85.5528 458.368H87.1216L87.4526 458.684C87.7821 458.707 88.0555 458.777 88.273 458.895C88.4905 459.014 88.6536 459.162 88.7624 459.342C88.8711 459.521 88.9255 459.716 88.9255 459.927C88.9255 460.17 88.8791 460.384 88.7864 460.57C88.6968 460.755 88.5625 460.91 88.3834 461.035C88.2075 461.157 87.9916 461.249 87.7357 461.313C87.4798 461.374 87.1888 461.405 86.8625 461.405Z" fill="white"/>
<path d="M93.1447 460.363V457.888C93.1447 457.702 93.1111 457.542 93.0439 457.408C92.9768 457.274 92.8744 457.17 92.7369 457.096C92.6026 457.023 92.433 456.986 92.2283 456.986C92.0396 456.986 91.8765 457.018 91.739 457.082C91.6015 457.146 91.4943 457.232 91.4175 457.341C91.3408 457.45 91.3024 457.573 91.3024 457.71H90.151C90.151 457.506 90.2006 457.307 90.2997 457.115C90.3989 456.924 90.5428 456.752 90.7315 456.602C90.9202 456.452 91.1457 456.333 91.408 456.247C91.6702 456.161 91.9645 456.118 92.2907 456.118C92.6809 456.118 93.0263 456.183 93.327 456.314C93.6308 456.445 93.8691 456.644 94.0418 456.909C94.2177 457.171 94.3057 457.501 94.3057 457.898V460.205C94.3057 460.442 94.3217 460.655 94.3537 460.843C94.3889 461.029 94.4384 461.19 94.5024 461.328V461.405H93.3174C93.263 461.28 93.2198 461.121 93.1879 460.93C93.1591 460.734 93.1447 460.546 93.1447 460.363ZM93.3126 458.248L93.3222 458.963H92.4922C92.2779 458.963 92.0892 458.983 91.9261 459.025C91.763 459.063 91.627 459.121 91.5183 459.198C91.4096 459.274 91.328 459.367 91.2736 459.476C91.2192 459.585 91.1921 459.708 91.1921 459.845C91.1921 459.983 91.224 460.109 91.288 460.224C91.352 460.336 91.4447 460.424 91.5663 460.488C91.691 460.552 91.8413 460.584 92.0172 460.584C92.2539 460.584 92.4602 460.536 92.6361 460.44C92.8152 460.341 92.956 460.221 93.0583 460.08C93.1607 459.936 93.215 459.801 93.2214 459.673L93.5957 460.186C93.5573 460.317 93.4917 460.458 93.399 460.608C93.3062 460.758 93.1847 460.902 93.0343 461.04C92.8872 461.174 92.7097 461.285 92.5018 461.371C92.2971 461.457 92.0604 461.5 91.7918 461.5C91.4527 461.5 91.1505 461.433 90.885 461.299C90.6195 461.161 90.4117 460.978 90.2613 460.747C90.111 460.514 90.0358 460.25 90.0358 459.956C90.0358 459.681 90.087 459.438 90.1894 459.226C90.2949 459.012 90.4484 458.833 90.6499 458.689C90.8546 458.545 91.1041 458.436 91.3984 458.363C91.6926 458.286 92.0284 458.248 92.4059 458.248H93.3126Z" fill="white"/>
<path d="M106.489 460.635L107.899 456.01H109.137L107.055 461.992C107.007 462.12 106.944 462.26 106.868 462.41C106.791 462.56 106.69 462.703 106.565 462.837C106.444 462.974 106.292 463.085 106.11 463.168C105.927 463.254 105.707 463.297 105.448 463.297C105.345 463.297 105.246 463.288 105.15 463.269C105.057 463.253 104.969 463.235 104.886 463.216L104.881 462.333C104.913 462.336 104.952 462.339 104.997 462.343C105.045 462.346 105.083 462.347 105.112 462.347C105.304 462.347 105.464 462.324 105.592 462.276C105.719 462.231 105.823 462.157 105.903 462.055C105.987 461.952 106.057 461.815 106.114 461.642L106.489 460.635ZM105.692 456.01L106.925 459.896L107.132 461.115L106.33 461.321L104.445 456.01H105.692Z" fill="white"/>
<path d="M111.816 459.104L109.744 456.01H111.164L112.373 458.054H113.385L113.236 459.104H111.816ZM112.402 458.936L111.073 461.201H109.652L111.533 458.279L112.402 458.936ZM114.081 456.01V461.201H112.929V456.01H114.081ZM117.281 456.01L115.208 459.104H113.783L113.63 458.054H114.647L115.856 456.01H117.281ZM115.947 461.201L114.613 458.936L115.51 458.279L117.381 461.201H115.947Z" fill="white"/>
<path d="M120.603 461.297C120.219 461.297 119.872 461.234 119.562 461.11C119.255 460.982 118.992 460.804 118.775 460.577C118.561 460.35 118.396 460.083 118.281 459.776C118.166 459.469 118.108 459.138 118.108 458.783V458.591C118.108 458.185 118.167 457.817 118.285 457.488C118.404 457.158 118.569 456.877 118.78 456.643C118.991 456.406 119.24 456.226 119.528 456.101C119.816 455.976 120.128 455.914 120.464 455.914C120.835 455.914 121.159 455.976 121.437 456.101C121.716 456.226 121.946 456.402 122.128 456.629C122.314 456.853 122.451 457.12 122.541 457.43C122.634 457.74 122.68 458.082 122.68 458.457V458.951H118.669V458.121H121.538V458.03C121.532 457.822 121.49 457.627 121.414 457.444C121.34 457.262 121.226 457.115 121.073 457.003C120.919 456.891 120.715 456.835 120.459 456.835C120.267 456.835 120.096 456.877 119.945 456.96C119.798 457.04 119.675 457.157 119.576 457.31C119.477 457.464 119.4 457.649 119.346 457.867C119.295 458.081 119.269 458.322 119.269 458.591V458.783C119.269 459.01 119.299 459.221 119.36 459.416C119.424 459.608 119.517 459.776 119.638 459.92C119.76 460.064 119.907 460.177 120.08 460.261C120.252 460.34 120.449 460.38 120.67 460.38C120.948 460.38 121.196 460.325 121.414 460.213C121.631 460.101 121.82 459.942 121.98 459.738L122.589 460.328C122.477 460.491 122.331 460.648 122.152 460.798C121.973 460.945 121.754 461.065 121.495 461.158C121.239 461.25 120.942 461.297 120.603 461.297Z" fill="white"/>
<path d="M128.907 461.297C128.523 461.297 128.176 461.234 127.866 461.11C127.559 460.982 127.296 460.804 127.079 460.577C126.865 460.35 126.7 460.083 126.585 459.776C126.47 459.469 126.412 459.138 126.412 458.783V458.591C126.412 458.185 126.471 457.817 126.59 457.488C126.708 457.158 126.873 456.877 127.084 456.643C127.295 456.406 127.544 456.226 127.832 456.101C128.12 455.976 128.432 455.914 128.768 455.914C129.139 455.914 129.463 455.976 129.742 456.101C130.02 456.226 130.25 456.402 130.432 456.629C130.618 456.853 130.755 457.12 130.845 457.43C130.938 457.74 130.984 458.082 130.984 458.457V458.951H126.973V458.121H129.842V458.03C129.836 457.822 129.794 457.627 129.718 457.444C129.644 457.262 129.53 457.115 129.377 457.003C129.223 456.891 129.019 456.835 128.763 456.835C128.571 456.835 128.4 456.877 128.249 456.96C128.102 457.04 127.979 457.157 127.88 457.31C127.781 457.464 127.704 457.649 127.65 457.867C127.599 458.081 127.573 458.322 127.573 458.591V458.783C127.573 459.01 127.603 459.221 127.664 459.416C127.728 459.608 127.821 459.776 127.942 459.92C128.064 460.064 128.211 460.177 128.384 460.261C128.557 460.34 128.753 460.38 128.974 460.38C129.252 460.38 129.5 460.325 129.718 460.213C129.935 460.101 130.124 459.942 130.284 459.738L130.893 460.328C130.781 460.491 130.635 460.648 130.456 460.798C130.277 460.945 130.058 461.065 129.799 461.158C129.543 461.25 129.246 461.297 128.907 461.297Z" fill="white"/>
<path d="M134.301 460.376C134.49 460.376 134.66 460.339 134.81 460.265C134.963 460.189 135.087 460.083 135.179 459.949C135.275 459.814 135.328 459.659 135.338 459.483H136.427C136.42 459.819 136.321 460.125 136.129 460.4C135.937 460.675 135.683 460.894 135.366 461.057C135.05 461.217 134.7 461.297 134.316 461.297C133.919 461.297 133.574 461.23 133.279 461.095C132.985 460.958 132.741 460.769 132.545 460.529C132.35 460.289 132.203 460.013 132.104 459.699C132.008 459.386 131.96 459.05 131.96 458.692V458.524C131.96 458.166 132.008 457.83 132.104 457.516C132.203 457.2 132.35 456.921 132.545 456.682C132.741 456.442 132.985 456.255 133.279 456.12C133.574 455.983 133.918 455.914 134.311 455.914C134.727 455.914 135.091 455.997 135.405 456.163C135.718 456.327 135.965 456.555 136.144 456.849C136.326 457.141 136.42 457.48 136.427 457.867H135.338C135.328 457.675 135.28 457.502 135.194 457.348C135.111 457.192 134.992 457.067 134.839 456.974C134.688 456.881 134.508 456.835 134.297 456.835C134.063 456.835 133.87 456.883 133.716 456.979C133.563 457.072 133.443 457.2 133.356 457.363C133.27 457.523 133.208 457.703 133.169 457.905C133.134 458.103 133.116 458.31 133.116 458.524V458.692C133.116 458.906 133.134 459.114 133.169 459.315C133.204 459.517 133.265 459.698 133.351 459.858C133.441 460.014 133.563 460.141 133.716 460.237C133.87 460.329 134.065 460.376 134.301 460.376Z" fill="white"/>
<path d="M140.017 456.01V461.201H138.856V456.01H140.017ZM141.72 456.01V456.921H137.182V456.01H141.72Z" fill="white"/>
<path d="M143.646 457.66H145.177C145.624 457.66 146.005 457.735 146.318 457.886C146.632 458.036 146.87 458.246 147.033 458.514C147.2 458.78 147.283 459.084 147.283 459.426C147.283 459.678 147.236 459.914 147.144 460.131C147.051 460.345 146.913 460.532 146.731 460.692C146.552 460.852 146.331 460.977 146.069 461.067C145.81 461.156 145.512 461.201 145.177 461.201H142.879V456.01H144.04V460.285H145.177C145.407 460.285 145.591 460.245 145.728 460.165C145.866 460.085 145.965 459.981 146.026 459.853C146.09 459.725 146.122 459.589 146.122 459.445C146.122 459.298 146.09 459.159 146.026 459.028C145.965 458.896 145.866 458.789 145.728 458.706C145.591 458.623 145.407 458.581 145.177 458.581H143.646V457.66Z" fill="white"/>
<path d="M154.172 460.16V457.684C154.172 457.499 154.138 457.339 154.071 457.204C154.004 457.07 153.901 456.966 153.764 456.893C153.629 456.819 153.46 456.782 153.255 456.782C153.067 456.782 152.903 456.814 152.766 456.878C152.628 456.942 152.521 457.029 152.444 457.137C152.368 457.246 152.329 457.369 152.329 457.507H151.178C151.178 457.302 151.227 457.104 151.327 456.912C151.426 456.72 151.57 456.549 151.758 456.398C151.947 456.248 152.173 456.13 152.435 456.043C152.697 455.957 152.991 455.914 153.318 455.914C153.708 455.914 154.053 455.979 154.354 456.111C154.658 456.242 154.896 456.44 155.069 456.706C155.245 456.968 155.333 457.297 155.333 457.694V460.001C155.333 460.238 155.349 460.451 155.381 460.64C155.416 460.825 155.465 460.987 155.529 461.124V461.201H154.344C154.29 461.076 154.247 460.918 154.215 460.726C154.186 460.531 154.172 460.342 154.172 460.16ZM154.339 458.044L154.349 458.759H153.519C153.305 458.759 153.116 458.78 152.953 458.821C152.79 458.86 152.654 458.917 152.545 458.994C152.436 459.071 152.355 459.163 152.301 459.272C152.246 459.381 152.219 459.504 152.219 459.642C152.219 459.779 152.251 459.906 152.315 460.021C152.379 460.133 152.472 460.221 152.593 460.285C152.718 460.348 152.868 460.38 153.044 460.38C153.281 460.38 153.487 460.333 153.663 460.237C153.842 460.137 153.983 460.017 154.085 459.877C154.188 459.733 154.242 459.597 154.248 459.469L154.623 459.982C154.584 460.113 154.519 460.254 154.426 460.404C154.333 460.555 154.212 460.699 154.061 460.836C153.914 460.971 153.737 461.081 153.529 461.167C153.324 461.254 153.087 461.297 152.819 461.297C152.48 461.297 152.177 461.23 151.912 461.095C151.646 460.958 151.439 460.774 151.288 460.544C151.138 460.31 151.063 460.046 151.063 459.752C151.063 459.477 151.114 459.234 151.216 459.023C151.322 458.808 151.475 458.629 151.677 458.485C151.882 458.342 152.131 458.233 152.425 458.159C152.72 458.082 153.055 458.044 153.433 458.044H154.339Z" fill="white"/>
<path d="M158.084 456.01V461.201H156.927V456.01H158.084ZM161.471 456.01L159.134 459.133H157.815L157.662 458.087H158.626L160.027 456.01H161.471ZM160.118 461.201L158.554 458.936L159.465 458.279L161.639 461.201H160.118Z" fill="white"/>
<path d="M163.809 456.01V461.201H162.653V456.01H163.809ZM167.196 456.01L164.86 459.133H163.541L163.387 458.087H164.351L165.752 456.01H167.196ZM165.844 461.201L164.28 458.936L165.191 458.279L167.364 461.201H165.844Z" fill="white"/>
<path d="M171.214 460.16V457.684C171.214 457.499 171.181 457.339 171.113 457.204C171.046 457.07 170.944 456.966 170.806 456.893C170.672 456.819 170.502 456.782 170.298 456.782C170.109 456.782 169.946 456.814 169.808 456.878C169.671 456.942 169.564 457.029 169.487 457.137C169.41 457.246 169.372 457.369 169.372 457.507H168.22C168.22 457.302 168.27 457.104 168.369 456.912C168.468 456.72 168.612 456.549 168.801 456.398C168.99 456.248 169.215 456.13 169.477 456.043C169.74 455.957 170.034 455.914 170.36 455.914C170.75 455.914 171.096 455.979 171.396 456.111C171.7 456.242 171.939 456.44 172.111 456.706C172.287 456.968 172.375 457.297 172.375 457.694V460.001C172.375 460.238 172.391 460.451 172.423 460.64C172.458 460.825 172.508 460.987 172.572 461.124V461.201H171.387C171.332 461.076 171.289 460.918 171.257 460.726C171.229 460.531 171.214 460.342 171.214 460.16ZM171.382 458.044L171.392 458.759H170.562C170.347 458.759 170.159 458.78 169.996 458.821C169.832 458.86 169.696 458.917 169.588 458.994C169.479 459.071 169.397 459.163 169.343 459.272C169.289 459.381 169.262 459.504 169.262 459.642C169.262 459.779 169.293 459.906 169.357 460.021C169.421 460.133 169.514 460.221 169.636 460.285C169.76 460.348 169.911 460.38 170.087 460.38C170.323 460.38 170.53 460.333 170.706 460.237C170.885 460.137 171.025 460.017 171.128 459.877C171.23 459.733 171.284 459.597 171.291 459.469L171.665 459.982C171.627 460.113 171.561 460.254 171.468 460.404C171.376 460.555 171.254 460.699 171.104 460.836C170.957 460.971 170.779 461.081 170.571 461.167C170.367 461.254 170.13 461.297 169.861 461.297C169.522 461.297 169.22 461.23 168.954 461.095C168.689 460.958 168.481 460.774 168.331 460.544C168.18 460.31 168.105 460.046 168.105 459.752C168.105 459.477 168.156 459.234 168.259 459.023C168.364 458.808 168.518 458.629 168.719 458.485C168.924 458.342 169.174 458.233 169.468 458.159C169.762 458.082 170.098 458.044 170.475 458.044H171.382Z" fill="white"/>
<path d="M175.309 460.635L176.719 456.01H177.957L175.875 461.992C175.827 462.12 175.764 462.26 175.688 462.41C175.611 462.56 175.51 462.703 175.385 462.837C175.264 462.974 175.112 463.085 174.93 463.168C174.747 463.254 174.527 463.297 174.268 463.297C174.165 463.297 174.066 463.288 173.97 463.269C173.877 463.253 173.789 463.235 173.706 463.216L173.701 462.333C173.733 462.336 173.772 462.339 173.817 462.343C173.865 462.346 173.903 462.347 173.932 462.347C174.124 462.347 174.283 462.324 174.411 462.276C174.539 462.231 174.643 462.157 174.723 462.055C174.806 461.952 174.877 461.815 174.934 461.642L175.309 460.635ZM174.512 456.01L175.745 459.896L175.951 461.115L175.15 461.321L173.265 456.01H174.512Z" fill="white"/>
<path d="M182.459 458.178V459.09H179.772V458.178H182.459ZM180.108 456.01V461.201H178.952V456.01H180.108ZM183.294 456.01V461.201H182.138V456.01H183.294Z" fill="white"/>
<path d="M187.23 456.01V461.201H186.069V456.01H187.23ZM188.933 456.01V456.921H184.395V456.01H188.933Z" fill="white"/>
<path d="M192.164 459.143H191.094C191.097 458.845 191.123 458.596 191.171 458.394C191.219 458.19 191.299 458.004 191.411 457.838C191.526 457.671 191.678 457.496 191.867 457.31C192.014 457.169 192.146 457.037 192.265 456.912C192.383 456.784 192.477 456.65 192.548 456.509C192.618 456.365 192.653 456.2 192.653 456.015C192.653 455.813 192.62 455.642 192.553 455.501C192.485 455.361 192.386 455.253 192.255 455.18C192.127 455.106 191.967 455.07 191.775 455.07C191.616 455.07 191.465 455.102 191.324 455.166C191.184 455.226 191.07 455.322 190.984 455.453C190.897 455.581 190.851 455.751 190.845 455.962H189.688C189.695 455.559 189.791 455.22 189.976 454.945C190.162 454.67 190.411 454.463 190.725 454.326C191.038 454.188 191.388 454.12 191.775 454.12C192.204 454.12 192.57 454.193 192.874 454.34C193.178 454.484 193.41 454.695 193.57 454.974C193.733 455.249 193.814 455.581 193.814 455.971C193.814 456.253 193.758 456.509 193.646 456.739C193.535 456.966 193.389 457.179 193.21 457.377C193.031 457.572 192.837 457.767 192.629 457.962C192.45 458.126 192.329 458.303 192.265 458.495C192.201 458.684 192.167 458.9 192.164 459.143ZM190.998 460.64C190.998 460.467 191.057 460.321 191.176 460.203C191.294 460.081 191.456 460.021 191.66 460.021C191.865 460.021 192.027 460.081 192.145 460.203C192.263 460.321 192.322 460.467 192.322 460.64C192.322 460.812 192.263 460.959 192.145 461.081C192.027 461.199 191.865 461.258 191.66 461.258C191.456 461.258 191.294 461.199 191.176 461.081C191.057 460.959 190.998 460.812 190.998 460.64Z" fill="white"/>
<path d="M97.6296 460.675C97.8183 460.675 97.9878 460.639 98.1382 460.565C98.2917 460.488 98.4148 460.383 98.5076 460.248C98.6035 460.114 98.6563 459.959 98.6659 459.783H99.7549C99.7485 460.119 99.6494 460.424 99.4575 460.699C99.2656 460.974 99.0113 461.193 98.6947 461.357C98.378 461.516 98.0278 461.596 97.644 461.596C97.2474 461.596 96.902 461.529 96.6077 461.395C96.3135 461.257 96.0688 461.069 95.8737 460.829C95.6786 460.589 95.5315 460.312 95.4323 459.999C95.3364 459.685 95.2884 459.35 95.2884 458.991V458.823C95.2884 458.465 95.3364 458.129 95.4323 457.816C95.5315 457.499 95.6786 457.221 95.8737 456.981C96.0688 456.741 96.3135 456.554 96.6077 456.42C96.902 456.282 97.2458 456.214 97.6392 456.214C98.055 456.214 98.4196 456.297 98.7331 456.463C99.0465 456.626 99.2928 456.855 99.4719 457.149C99.6542 457.44 99.7485 457.779 99.7549 458.166H98.6659C98.6563 457.974 98.6083 457.802 98.522 457.648C98.4388 457.491 98.3205 457.367 98.1669 457.274C98.0166 457.181 97.8359 457.135 97.6248 457.135C97.3913 457.135 97.1978 457.183 97.0443 457.279C96.8908 457.371 96.7708 457.499 96.6845 457.662C96.5981 457.822 96.5358 458.003 96.4974 458.205C96.4622 458.403 96.4446 458.609 96.4446 458.823V458.991C96.4446 459.206 96.4622 459.414 96.4974 459.615C96.5326 459.817 96.5933 459.997 96.6797 460.157C96.7692 460.314 96.8908 460.44 97.0443 460.536C97.1978 460.629 97.3929 460.675 97.6296 460.675Z" fill="white"/>
<rect x="31.707" y="399.718" width="211.247" height="28.1365" rx="8" fill="white"/>
<path d="M93.9997 413.98H92.0161V412.938H93.9997C94.3451 412.938 94.6243 412.882 94.8371 412.771C95.05 412.659 95.2052 412.506 95.3029 412.31C95.4041 412.111 95.4547 411.885 95.4547 411.63C95.4547 411.389 95.4041 411.164 95.3029 410.955C95.2052 410.742 95.05 410.571 94.8371 410.442C94.6243 410.313 94.3451 410.248 93.9997 410.248H92.4191V416.822H91.1055V409.201H93.9997C94.5894 409.201 95.0901 409.306 95.5018 409.515C95.917 409.721 96.2328 410.007 96.4491 410.374C96.6654 410.737 96.7736 411.152 96.7736 411.619C96.7736 412.111 96.6654 412.533 96.4491 412.886C96.2328 413.238 95.917 413.509 95.5018 413.697C95.0901 413.886 94.5894 413.98 93.9997 413.98Z" fill="black"/>
<path d="M104.761 415.78V416.822H100.715V415.78H104.761ZM101.087 409.201V416.822H99.7734V409.201H101.087ZM104.233 412.383V413.409H100.715V412.383H104.233ZM104.735 409.201V410.248H100.715V409.201H104.735Z" fill="black"/>
<path d="M112.529 409.201V410.248H108.991V416.822H107.682V409.201H112.529Z" fill="black"/>
<path d="M116.743 414.681L120.124 409.201H121.437V416.822H120.124V411.337L116.743 416.822H115.434V409.201H116.743V414.681Z" fill="black"/>
<path d="M129.336 414.341H130.644C130.603 414.84 130.463 415.285 130.226 415.675C129.988 416.063 129.655 416.368 129.226 416.591C128.797 416.815 128.275 416.926 127.661 416.926C127.19 416.926 126.766 416.843 126.389 416.675C126.013 416.504 125.69 416.263 125.421 415.953C125.153 415.639 124.947 415.26 124.804 414.817C124.664 414.374 124.594 413.879 124.594 413.331V412.697C124.594 412.15 124.666 411.654 124.809 411.211C124.955 410.768 125.165 410.389 125.437 410.075C125.709 409.758 126.035 409.515 126.416 409.348C126.799 409.18 127.23 409.097 127.708 409.097C128.315 409.097 128.828 409.208 129.247 409.432C129.666 409.655 129.99 409.964 130.22 410.358C130.454 410.752 130.597 411.204 130.65 411.714H129.341C129.306 411.386 129.23 411.105 129.111 410.871C128.996 410.637 128.825 410.459 128.598 410.337C128.371 410.211 128.075 410.149 127.708 410.149C127.408 410.149 127.147 410.204 126.923 410.316C126.7 410.428 126.513 410.592 126.363 410.808C126.213 411.024 126.1 411.291 126.023 411.609C125.95 411.923 125.913 412.282 125.913 412.687V413.331C125.913 413.715 125.946 414.063 126.013 414.378C126.082 414.688 126.187 414.955 126.327 415.178C126.47 415.402 126.651 415.574 126.871 415.696C127.091 415.819 127.354 415.88 127.661 415.88C128.035 415.88 128.336 415.82 128.567 415.702C128.8 415.583 128.977 415.41 129.095 415.184C129.217 414.953 129.298 414.672 129.336 414.341Z" fill="black"/>
<path d="M136.638 409.201V416.822H135.335V409.201H136.638ZM139.03 409.201V410.248H132.964V409.201H139.03Z" fill="black"/>
<path d="M144.751 413.98H142.767V412.938H144.751C145.096 412.938 145.376 412.882 145.588 412.771C145.801 412.659 145.957 412.506 146.054 412.31C146.155 412.111 146.206 411.885 146.206 411.63C146.206 411.389 146.155 411.164 146.054 410.955C145.957 410.742 145.801 410.571 145.588 410.442C145.376 410.313 145.096 410.248 144.751 410.248H143.17V416.822H141.857V409.201H144.751C145.341 409.201 145.841 409.306 146.253 409.515C146.668 409.721 146.984 410.007 147.2 410.374C147.417 410.737 147.525 411.152 147.525 411.619C147.525 412.111 147.417 412.533 147.2 412.886C146.984 413.238 146.668 413.509 146.253 413.697C145.841 413.886 145.341 413.98 144.751 413.98Z" fill="black"/>
<path d="M152.697 410.217L150.42 416.822H149.043L151.912 409.201H152.791L152.697 410.217ZM154.602 416.822L152.32 410.217L152.22 409.201H153.105L155.983 416.822H154.602ZM154.492 413.995V415.037H150.347V413.995H154.492Z" fill="black"/>
<path d="M165.572 415.77L165.473 418.659H164.264V416.822H163.584V415.77H165.572ZM158.627 416.822V409.201H159.946V415.78H163.322V409.201H164.641V416.822H158.627Z" fill="black"/>
<path d="M169.776 414.681L173.157 409.201H174.471V416.822H173.157V411.337L169.776 416.822H168.468V409.201H169.776V414.681Z" fill="black"/>
<path d="M181.998 413.964H179.899L179.381 413.749C178.805 413.568 178.364 413.292 178.057 412.923C177.75 412.553 177.596 412.087 177.596 411.525C177.596 411.023 177.708 410.599 177.931 410.253C178.154 409.908 178.472 409.646 178.884 409.468C179.299 409.29 179.789 409.201 180.354 409.201H182.913V416.822H181.595V410.248H180.354C179.866 410.248 179.503 410.367 179.266 410.604C179.028 410.841 178.91 411.169 178.91 411.588C178.91 411.874 178.962 412.12 179.067 412.326C179.175 412.528 179.334 412.685 179.543 412.797C179.756 412.905 180.019 412.959 180.333 412.959H181.998V413.964ZM180.396 413.378L178.627 416.822H177.214L179.004 413.378H180.396Z" fill="black"/>
<rect x="31.707" y="473.408" width="211.247" height="28.1365" rx="8" fill="white"/>
<path d="M119.42 488.916H117.478L117.468 487.958H119.164C119.45 487.958 119.692 487.916 119.891 487.832C120.094 487.745 120.247 487.621 120.352 487.461C120.456 487.297 120.509 487.1 120.509 486.869C120.509 486.615 120.46 486.407 120.362 486.247C120.264 486.086 120.114 485.969 119.912 485.896C119.713 485.823 119.458 485.786 119.148 485.786H117.876V492.36H116.562V484.739H119.148C119.567 484.739 119.94 484.779 120.268 484.86C120.599 484.94 120.88 485.066 121.111 485.236C121.344 485.404 121.521 485.617 121.639 485.875C121.761 486.133 121.822 486.44 121.822 486.796C121.822 487.11 121.747 487.398 121.597 487.66C121.447 487.918 121.226 488.129 120.933 488.293C120.64 488.457 120.275 488.555 119.839 488.586L119.42 488.916ZM119.363 492.36H117.065L117.656 491.318H119.363C119.659 491.318 119.907 491.269 120.106 491.172C120.305 491.07 120.453 490.933 120.551 490.758C120.652 490.58 120.702 490.373 120.702 490.135C120.702 489.888 120.659 489.673 120.572 489.492C120.484 489.307 120.346 489.165 120.158 489.068C119.97 488.966 119.724 488.916 119.42 488.916H117.944L117.955 487.958H119.875L120.174 488.319C120.592 488.333 120.936 488.426 121.205 488.597C121.477 488.768 121.679 488.989 121.812 489.261C121.945 489.533 122.011 489.826 122.011 490.141C122.011 490.625 121.904 491.032 121.692 491.36C121.482 491.688 121.18 491.937 120.786 492.108C120.392 492.276 119.917 492.36 119.363 492.36Z" fill="black"/>
<path d="M131.233 488.34V488.759C131.233 489.335 131.158 489.851 131.008 490.308C130.858 490.765 130.644 491.154 130.365 491.475C130.089 491.796 129.758 492.042 129.37 492.213C128.983 492.381 128.554 492.464 128.083 492.464C127.615 492.464 127.188 492.381 126.801 492.213C126.417 492.042 126.083 491.796 125.801 491.475C125.518 491.154 125.298 490.765 125.141 490.308C124.988 489.851 124.911 489.335 124.911 488.759V488.34C124.911 487.764 124.988 487.25 125.141 486.796C125.295 486.339 125.511 485.95 125.79 485.629C126.073 485.305 126.406 485.059 126.79 484.891C127.177 484.72 127.605 484.635 128.072 484.635C128.543 484.635 128.973 484.72 129.36 484.891C129.747 485.059 130.08 485.305 130.359 485.629C130.639 485.95 130.853 486.339 131.003 486.796C131.157 487.25 131.233 487.764 131.233 488.34ZM129.92 488.759V488.33C129.92 487.904 129.878 487.529 129.794 487.204C129.714 486.876 129.594 486.602 129.433 486.383C129.276 486.159 129.082 485.992 128.852 485.88C128.622 485.765 128.362 485.708 128.072 485.708C127.783 485.708 127.525 485.765 127.298 485.88C127.071 485.992 126.877 486.159 126.717 486.383C126.56 486.602 126.439 486.876 126.356 487.204C126.272 487.529 126.23 487.904 126.23 488.33V488.759C126.23 489.184 126.272 489.561 126.356 489.889C126.439 490.217 126.562 490.495 126.722 490.721C126.886 490.945 127.081 491.114 127.308 491.229C127.535 491.341 127.793 491.397 128.083 491.397C128.376 491.397 128.636 491.341 128.863 491.229C129.089 491.114 129.281 490.945 129.438 490.721C129.595 490.495 129.714 490.217 129.794 489.889C129.878 489.561 129.92 489.184 129.92 488.759Z" fill="black"/>
<path d="M135.667 490.219L139.048 484.739H140.362V492.36H139.048V486.875L135.667 492.36H134.359V484.739H135.667V490.219ZM138.143 482.787H139.08C139.08 483.077 139.01 483.333 138.87 483.556C138.734 483.776 138.539 483.949 138.284 484.075C138.033 484.2 137.733 484.263 137.384 484.263C136.857 484.263 136.44 484.127 136.133 483.855C135.83 483.579 135.678 483.223 135.678 482.787H136.615C136.615 482.983 136.672 483.155 136.787 483.305C136.906 483.452 137.105 483.525 137.384 483.525C137.66 483.525 137.855 483.452 137.97 483.305C138.085 483.155 138.143 482.983 138.143 482.787Z" fill="black"/>
<path d="M146.894 484.739V492.36H145.591V484.739H146.894ZM149.286 484.739V485.786H143.22V484.739H149.286Z" fill="black"/>
<path d="M153.411 490.219L156.792 484.739H158.106V492.36H156.792V486.875L153.411 492.36H152.103V484.739H153.411V490.219Z" fill="black"/>
</svg>
